<svg xmlns="http://www.w3.org/2000/svg">
<defs>
<font id="Displace" horiz-adv-x="579" >
  <font-face 
    font-family="Displace"
    font-weight="400"
    font-stretch="normal"
    units-per-em="1000"
    panose-1="0 0 0 0 0 0 0 0 0 0"
    ascent="738"
    descent="-262"
    x-height="500"
    cap-height="740"
    bbox="-115 -306 1176 1035"
    underline-thickness="50"
    underline-position="-100"
    unicode-range="U+0020-A430"
  />
<missing-glyph horiz-adv-x="1094" 
d="M467 401q3 0 3.5 2.5t1.5 4.5t6 0q8 25 24 47t38.5 45t32.5 36q14 15 22 38q51 51 87 128q9 0 23 9.5t26 9.5q32 -19 45 -41q-4 -4 -4 -18t-3 -20q-1 -3 -4.5 -6t-5.5 -7.5t-2 -12.5q-7 -7 -12.5 -18t-8.5 -18.5t-8.5 -26.5t-7.5 -24q4 -8 24 -9t25 -6q0 -8 2 -15t5 -15
t4 -15q-11 -32 -4 -49q-11 -18 -23 -58.5t-15 -47.5q21 8 39 30t29 27q78 91 147 128q15 18 53 52t53 53q4 11 16 23t14 15l11 8q4 1 6 4t2 5v2q15 0 26 11q42 0 42 -60q-10 0 -22.5 -13.5t-19.5 -13.5t-7 -11q-25 -20 -78.5 -53.5t-76.5 -51.5q-9 0 -19 -19q-19 -6 -46 -27
t-44 -26q-18 -19 -51.5 -46t-56.5 -46t-44.5 -52.5t-28.5 -74.5q-5 -1 -9 -18t-14 -23q-1 -4 -5 -18t-8 -21t-13 -10v-19q-5 -4 -11 -16t-12 -14v-19q-9 -14 -40.5 -72.5t-53.5 -89.5q0 -11 -4 -11q0 -4 -5 -12t-10 -11q-6 -11 -21.5 -27.5t-19.5 -21.5q-33 -6 -52.5 22
t-4.5 57q-2 11 3 24.5t5 17.5q12 19 37 70.5t42 72.5q4 11 19 30t19 30q1 0 2 2t3 2t6 -4q5 15 24 39.5t25 39.5q27 8 49 46q20 8 31 25t20.5 49t16.5 46q-4 0 0 8q0 8 4 28t4 35t-8 23q-14 -4 -36.5 -20t-24.5 -17q-5 -6 -15.5 -18t-19.5 -21t-21 -18q-43 -16 -60 27
q2 3 2 10.5t1 15.5q9 9 31 32.5t39 40t36 29.5q0 13 9.5 31.5t9.5 32.5q-9 -20 -17 -28.5t-25 -16.5q-8 -9 -38 -38.5t-45 -48.5q-3 -11 -11 -19q-1 -1 -7.5 -4.5t-11.5 -10.5l-4 -8q-2 -2 -6.5 -7t-7.5 -8t-4 -3q-2 -4 -4.5 -9.5t-4 -9t-4 -6t-6.5 -2.5q-4 -5 -7 -9
t-8.5 -11t-11.5 -14q-3 -19 -22 -45q-18 -90 -64 -177q0 -23 -15 -38q0 -22 -19 -41q2 -21 -7.5 -38.5t-11.5 -29.5q-32 -54 -38 -68q-7 -4 -13.5 -9.5t-12.5 -12.5t-9.5 -12t-10.5 -15.5t-10 -14.5q-3 -1 -11 -2t-11.5 -2t-8.5 -3t-7.5 -5t-3.5 -7q-28 -4 -45 -1t-30 16

<glyph glyph-name="f_i" unicode="fi" horiz-adv-x="618" 
d="M207 750v-250h336v-500h-89v448h-247v-448h-90v448h-91l75 52h16v187zM461 692q-27 25 -63 42.5t-88 26.5t-103 -10q75 59 167 59q96 0 169 -60z" />
    <glyph glyph-name="f_f" unicode="ff" horiz-adv-x="769" 
d="M545 750v-250h180l-75 -52h-105v-448h-90v448h-247v-448h-90v448h-91l75 52h16v187l90 63v-250h247v198q-28 24 -63.5 40t-85 23t-98.5 -11q75 59 167 59q95 0 170 -59zM686 701q-41 53 -109 53q-12 0 -32 -4q40 58 112 58q66 0 107 -51z" />
    <glyph glyph-name="f_f_i" unicode="ffi" horiz-adv-x="930" 
d="M545 750v-250h335v-500h-89v448h-246v-448h-90v448h-247v-448h-90v448h-91l75 52h16v187l90 63v-250h247v198q-28 24 -63.5 40t-85 23t-98.5 -11q75 59 167 59q95 0 170 -59zM798 692q-27 25 -63 42.5t-88 26.5t-103 -10q75 59 167 59q96 0 169 -60z" />
    <glyph glyph-name=".notdef" horiz-adv-x="1094" 
d="M467 401q3 0 3.5 2.5t1.5 4.5t6 0q8 25 24 47t38.5 45t32.5 36q14 15 22 38q51 51 87 128q9 0 23 9.5t26 9.5q32 -19 45 -41q-4 -4 -4 -18t-3 -20q-1 -3 -4.5 -6t-5.5 -7.5t-2 -12.5q-7 -7 -12.5 -18t-8.5 -18.5t-8.5 -26.5t-7.5 -24q4 -8 24 -9t25 -6q0 -8 2 -15t5 -15
t4 -15q-11 -32 -4 -49q-11 -18 -23 -58.5t-15 -47.5q21 8 39 30t29 27q78 91 147 128q15 18 53 52t53 53q4 11 16 23t14 15l11 8q4 1 6 4t2 5v2q15 0 26 11q42 0 42 -60q-10 0 -22.5 -13.5t-19.5 -13.5t-7 -11q-25 -20 -78.5 -53.5t-76.5 -51.5q-9 0 -19 -19q-19 -6 -46 -27
t-44 -26q-18 -19 -51.5 -46t-56.5 -46t-44.5 -52.5t-28.5 -74.5q-5 -1 -9 -18t-14 -23q-1 -4 -5 -18t-8 -21t-13 -10v-19q-5 -4 -11 -16t-12 -14v-19q-9 -14 -40.5 -72.5t-53.5 -89.5q0 -11 -4 -11q0 -4 -5 -12t-10 -11q-6 -11 -21.5 -27.5t-19.5 -21.5q-33 -6 -52.5 22
t-4.5 57q-2 11 3 24.5t5 17.5q12 19 37 70.5t42 72.5q4 11 19 30t19 30q1 0 2 2t3 2t6 -4q5 15 24 39.5t25 39.5q27 8 49 46q20 8 31 25t20.5 49t16.5 46q-4 0 0 8q0 8 4 28t4 35t-8 23q-14 -4 -36.5 -20t-24.5 -17q-5 -6 -15.5 -18t-19.5 -21t-21 -18q-43 -16 -60 27
q2 3 2 10.5t1 15.5q9 9 31 32.5t39 40t36 29.5q0 13 9.5 31.5t9.5 32.5q-9 -20 -17 -28.5t-25 -16.5q-8 -9 -38 -38.5t-45 -48.5q-3 -11 -11 -19q-1 -1 -7.5 -4.5t-11.5 -10.5l-4 -8q-2 -2 -6.5 -7t-7.5 -8t-4 -3q-2 -4 -4.5 -9.5t-4 -9t-4 -6t-6.5 -2.5q-4 -5 -7 -9
t-8.5 -11t-11.5 -14q-3 -19 -22 -45q-18 -90 -64 -177q0 -23 -15 -38q0 -22 -19 -41q2 -21 -7.5 -38.5t-11.5 -29.5q-32 -54 -38 -68q-7 -4 -13.5 -9.5t-12.5 -12.5t-9.5 -12t-10.5 -15.5t-10 -14.5q-3 -1 -11 -2t-11.5 -2t-8.5 -3t-7.5 -5t-3.5 -7q-28 -4 -45 -1t-30 16
q-4 23 -4 60q1 1 16.5 21t17.5 36q7 9 53 66t64 92q22 17 45 57q34 33 57 87h11q0 17 11 30q0 13 9.5 33.5t9.5 34.5q9 8 13.5 18t7.5 23.5t5 18.5q1 3 6.5 6.5t5.5 8.5q-11 0 -24.5 -23.5t-20.5 -29.5q-4 0 -4 -11q-17 -6 -33.5 -31t-23.5 -29q-51 -18 -75 -12q-3 3 -7 7.5
t-6 6.5t-4.5 3.5t-5.5 1.5q0 10 -3.5 16.5t-7.5 6.5q6 14 7 40.5t4 34.5v49q3 7 6 18t5.5 16.5t7.5 7.5q1 3 4 17t7 20q0 4 -3 7q2 1 3 1q5 7 15.5 29t20.5 33.5t25 16.5q7 19 45 41q2 12 11 19.5t25.5 14.5t23.5 12q7 7 32 20.5t36 28.5q3 0 7 -3q1 -1 2 -0.5t2 3.5
q24 8 50.5 -5.5t32.5 -32.5q0 -5 6 -7.5t6 -3.5q-3 -6 -4 -28.5t-8 -28.5q0 -38 -19 -38q0 -7 -1.5 -14t-3 -12t-4.5 -12t-5 -10t-6.5 -10t-5.5 -9q-2 -27 -23 -62.5t-26 -54.5zM426 612q-4 -2 -12.5 -5t-12.5 -4.5t-10 -6t-11 -11.5q-20 -2 -37 -28.5t-31 -31.5
q-1 -3 -18.5 -40.5t-22.5 -64.5q3 -9 1 -33t7 -35q15 13 39.5 43t39.5 43v12l11 7q6 11 33 60t42 80q1 5 11 16t8 21q-33 -7 -37 -22zM633 167q5 -5 5 2t-5 9v-11zM629 167q-6 -7 -19 -20t-19.5 -22t-6.5 -18q-15 -14 -36.5 -49t-35.5 -49q3 -2 1.5 -7.5t-1.5 -7.5
q0 -12 -7 -19q0 -1 -4 -4t-4 -8q-11 -3 -11 -41q-6 0 -8.5 -6.5t0.5 -12.5q2 2 4.5 6t4 6.5t4 4.5t6.5 2q7 8 14.5 25.5t15.5 23.5v11q13 14 24.5 29t25 39.5t18 32.5t21.5 41.5t17 34.5q0 8 -4 8zM271 77h8v11q0 -5 -4 -7.5t-4 -3.5zM263 69q-2 -3 -25.5 -38.5t-34.5 -59.5
h-7q-2 -16 -18.5 -40.5t-19.5 -38.5q7 2 10.5 4.5t7.5 7t8 7.5q4 11 19 26t19 26q5 10 10 11q3 1 9 1q0 32 11 45q0 9 2.5 16t8 17t8.5 16h-8zM897 39q10 -14 9 -47.5t6 -46.5q-1 -1 -3 -1q-12 -6 -12 -22q-2 -4 -14 -8.5t-16 -10.5q-13 0 -33.5 11t-27.5 12q-3 11 -4 42.5
t-7 43.5q10 4 21.5 18.5t19.5 19.5h38q8 -11 23 -11z" />
    <glyph glyph-name=".null" horiz-adv-x="0" 
 />
    <glyph glyph-name="nonmarkingreturn" horiz-adv-x="333" 
 />
    <glyph glyph-name="space" unicode=" " horiz-adv-x="201" 
 />
    <glyph glyph-name="exclam" unicode="!" horiz-adv-x="248" 
d="M77 740h98l-1 -529h-96zM198 43l-88 -61l-60 83l88 61z" />
    <glyph glyph-name="quotedbl" unicode="&#x22;" horiz-adv-x="313" 
d="M50 708l72 49v-246l-72 -49v246zM191 708l72 49v-246l-72 -49v246z" />
    <glyph glyph-name="numbersign" unicode="#" horiz-adv-x="680" 
d="M432 586l59 38l-33 -191h172l-83 -48h-96l-17 -99h191l-83 -47h-116l-28 -156l-59 -37l34 193h-102l-28 -156l-59 -37l34 193h-161l83 47h86l18 99h-194l83 48h117l27 153l59 38l-33 -191h102zM399 385h-103l-17 -99h102z" />
    <glyph glyph-name="dollar" unicode="$" horiz-adv-x="422" 
d="M231 423q33 -19 48 -28.5t39 -29t34 -41t10 -48.5q0 -42 -25 -73.5t-65 -41.5q22 30 22 67q0 54 -63 96v-166q4 -1 11 -1q18 0 30 4q-16 -24 -41 -37v-124h-39v110q-7 -1 -22 -1q-35 0 -64.5 17.5t-45.5 46.5l72 49q21 -38 60 -55v182q-34 19 -47 27.5t-36.5 27.5
t-32.5 38.5t-9 44.5q0 39 22.5 66.5t60.5 35.5q-17 -26 -17 -59q0 -45 59 -83v143q-6 1 -17 1q-9 0 -25 -2q18 24 42 37v115h39v-102q5 1 16 1q65 0 98 -53l-72 -49q-16 26 -42 39v-154z" />
    <glyph glyph-name="percent" unicode="%" horiz-adv-x="841" 
d="M655 740h53l-520 -740h-54zM439 599q0 -52 -30 -93t-77 -57q35 43 35 99q0 68 -43.5 113.5t-115.5 45.5q-26 0 -50 -9q48 59 123 59q65 0 111.5 -46.5t46.5 -111.5zM123 599q0 -67 43 -112.5t115 -45.5q25 0 51 8q-48 -59 -124 -59q-65 0 -111.5 46.5t-46.5 111.5
q0 52 30 93t78 57q-35 -43 -35 -99zM402 143q0 51 30 92t77 58q-35 -45 -35 -100q0 -67 43.5 -112.5t114.5 -45.5q25 0 51 8q-48 -59 -123 -59q-65 0 -111.5 46.5t-46.5 112.5zM718 143q0 67 -43 112.5t-115 45.5q-25 0 -51 -8q48 59 123 59q66 0 112.5 -46.5t46.5 -112.5
q0 -51 -30 -92t-78 -58q35 45 35 100z" />
    <glyph glyph-name="ampersand" unicode="&#x26;" horiz-adv-x="717" 
d="M195 578q0 -40 35 -98l318 -436l-84 -60l-55 77q-64 -77 -164 -77q-89 0 -151.5 62.5t-62.5 151.5q0 67 38 121t100 78q-52 66 -52 126q0 55 32.5 99.5t83.5 62.5q-38 -50 -38 -107zM409 61l-240 336q-56 -59 -56 -142q0 -87 62.5 -149t150.5 -62q44 0 83 17zM398 453
h314l-78 -55h-80v-217l-70 -49v266h-164zM502 596q0 -50 -29 -89.5t-75 -53.5q30 42 30 89q0 62 -43 106t-104 44q-24 0 -48 -8q45 63 121 63q61 0 104.5 -44.5t43.5 -106.5z" />
    <glyph glyph-name="quotesingle" unicode="'" horiz-adv-x="172" 
d="M50 708l72 49v-246l-72 -49v246z" />
    <glyph glyph-name="parenleft" unicode="(" horiz-adv-x="327" 
d="M225 -232q-81 90 -128 222.5t-47 284.5q0 190 70.5 346t185.5 231q-86 -86 -136.5 -223.5t-50.5 -297.5q0 -152 47 -285t128 -223z" />
    <glyph glyph-name="parenright" unicode=")" horiz-adv-x="326" 
d="M101 793q81 -90 128 -222.5t47 -284.5q0 -190 -70.5 -346t-185.5 -231q86 86 136.5 223.5t50.5 297.5q0 152 -47 285t-128 223z" />
    <glyph glyph-name="asterisk" unicode="*" horiz-adv-x="375" 
d="M325 657l-110 -72l105 -66l-23 -33l-96 72l4 -111l-40 -27l4 132l-91 -66l-23 33l109 65l-114 73l23 33l99 -75l-7 113l40 28l-2 -145l99 79z" />
    <glyph glyph-name="plus" unicode="+" 
d="M263 566l54 38v-201h212l-76 -52h-136v-166l-54 -37v203h-213l76 52h137v163z" />
    <glyph glyph-name="comma" unicode="," horiz-adv-x="230" 
d="M79 -141q14 17 22 33.5t12 29.5t1.5 29t-5 25.5t-12 25.5t-14 22.5t-17.5 23t-16 20.5l93 63q50 -74 30.5 -151.5t-91.5 -122.5z" />
    <glyph glyph-name="hyphen" unicode="-" horiz-adv-x="469" 
d="M419 333l-76 -52h-293l76 52h293z" />
    <glyph glyph-name="period" unicode="." horiz-adv-x="248" 
d="M198 45l-88 -61l-60 83l88 61z" />
    <glyph glyph-name="slash" unicode="/" horiz-adv-x="486" 
d="M420 792h55l-406 -1064h-56z" />
    <glyph glyph-name="zero" unicode="0" horiz-adv-x="650" 
d="M600 396q0 -136 -52.5 -238.5t-134.5 -126.5q91 102 91 306q0 113 -30.5 204.5t-92.5 140t-143 28.5q5 5 14.5 12.5t43.5 20.5t73 13q98 0 164.5 -103t66.5 -257zM50 345q0 136 53 238.5t135 126.5q-91 -100 -91 -306q0 -111 30.5 -202.5t93 -141t142.5 -29.5
q-5 -5 -14.5 -12.5t-43.5 -20.5t-74 -13q-98 0 -164.5 103.5t-66.5 256.5z" />
    <glyph glyph-name="one" unicode="1" horiz-adv-x="323" 
d="M213 741v-741h-99v684h-74l78 57h95z" />
    <glyph glyph-name="two" unicode="2" horiz-adv-x="497" 
d="M437 76l-99 -76h-318q62 63 105.5 115t90 120.5t70.5 141t24 145.5q0 101 -75 152t-164 11q8 8 21.5 20t56 32t84.5 20q76 0 128.5 -55t52.5 -140q0 -116 -90.5 -242.5t-229.5 -243.5h343z" />
    <glyph glyph-name="three" unicode="3" horiz-adv-x="511" 
d="M256 439q81 0 136 -56.5t55 -138.5q0 -64 -40 -115.5t-99 -71.5q-59 -71 -151 -71q-79 0 -135 54l92 72q67 -65 133 -65q32 0 61 10q44 53 44 126q0 82 -52 139t-133 57q-30 0 -62 -10l214 282h-288l116 91h309l-190 -251l-90 -69q34 17 80 17z" />
    <glyph glyph-name="four" unicode="4" horiz-adv-x="546" 
d="M526 278l-80 -57h-28v-221h-99v221h-299l299 466l99 68v-477h108zM319 589l-204 -311h204v311z" />
    <glyph glyph-name="five" unicode="5" horiz-adv-x="532" 
d="M114 102q62 -56 137 -57q40 -1 75 13q-61 -73 -159 -73q-79 0 -138 52zM377 188q3 85 -43.5 140t-136.5 55q-41 0 -80 -17q62 82 159 82q90 0 144 -58t51 -142q-2 -65 -43 -117t-102 -73q49 53 51 130zM117 366l-64 -49l66 347l98 76h251l-113 -89h-182z" />
    <glyph glyph-name="six" unicode="6" horiz-adv-x="576" 
d="M416 642q-18 17 -43.5 30.5t-62.5 20t-73 -9.5q58 73 146 73q70 0 122 -50zM56 327q5 138 53.5 235t127.5 121q-77 -84 -84 -298q-3 -78 12 -148t45 -121.5t78 -75.5t107 -9q-5 -5 -14.5 -12.5t-42.5 -20.5t-71 -13q-96 0 -156 95t-55 247zM446 161q3 84 -46 139.5
t-140 55.5q-41 0 -80 -17q29 38 72 60t92 22q90 0 144.5 -58t51.5 -142q-2 -65 -43 -117t-102 -73q49 53 51 130z" />
    <glyph glyph-name="seven" unicode="7" horiz-adv-x="450" 
d="M143 741h302l-325 -741h-69l288 650h-324z" />
    <glyph glyph-name="eight" unicode="8" horiz-adv-x="552" 
d="M488 214q0 -58 -31 -102.5t-85 -58.5q38 49 37 100q-1 37 -25 73t-59.5 64t-76.5 59.5t-76.5 59.5t-59 64t-23.5 72q0 54 27 94.5t76 52.5q-28 -42 -27 -81q0 -13 3 -25t10.5 -24.5t14 -22.5t19.5 -22.5t21.5 -21t26.5 -21.5t26.5 -20t29 -21.5t28.5 -20.5q46 46 46 131
q-2 68 -44.5 111t-113.5 43q-18 0 -40 -5q45 62 127 62q61 0 109 -45.5t48 -110.5q0 -68 -41.5 -121t-90.5 -65q144 -108 144 -198zM155 217q2 -74 47.5 -121.5t126.5 -47.5q20 0 43 5q-50 -68 -136 -68q-70 0 -121 53t-53 124q-1 76 48 134t109 74q-65 -76 -64 -153z" />
    <glyph glyph-name="nine" unicode="9" 
d="M175 100q18 -18 44.5 -31.5t63.5 -19.5t72 9q-57 -73 -145 -73q-71 0 -123 50zM530 414q-2 -137 -49.5 -234.5t-125.5 -121.5q42 47 59.5 120t19.5 178t-26 192t-86.5 135t-136.5 28q5 5 14 12.5t42.5 20t71.5 12.5q96 0 157.5 -95t59.5 -247zM136 581q-2 -84 48.5 -140
t141.5 -56q41 0 80 17q-64 -82 -163 -82q-90 0 -146 58t-54 143q1 65 41.5 117t100.5 73q-47 -54 -49 -130z" />
    <glyph glyph-name="colon" unicode=":" horiz-adv-x="248" 
d="M198 434l-88 -61l-60 83l88 61zM198 44l-88 -61l-60 83l88 61z" />
    <glyph glyph-name="semicolon" unicode=";" horiz-adv-x="248" 
d="M198 434l-88 -61l-60 83l88 61zM92 -145q14 17 22 33.5t12 29.5t1.5 29t-5 25.5t-12 25.5t-14 22.5t-17.5 23t-16 20.5l93 63q50 -74 30.5 -151.5t-91.5 -122.5z" />
    <glyph glyph-name="less" unicode="&#x3c;" horiz-adv-x="560" 
d="M173 367l337 -230l-75 -57l-385 261l410 275l43 -28z" />
    <glyph glyph-name="equal" unicode="=" 
d="M529 313l-76 -52h-403l76 52h403zM529 483l-76 -52h-403l76 52h403z" />
    <glyph glyph-name="greater" unicode="&#x3e;" horiz-adv-x="560" 
d="M387 329l-337 230l75 57l385 -261l-410 -275l-43 28z" />
    <glyph glyph-name="question" unicode="?" horiz-adv-x="439" 
d="M252 211h-98v104l98 69v-173zM275 44l-88 -61l-60 83l88 61zM389 567q0 -64 -37.5 -112.5t-99.5 -70.5q44 56 44 118q0 90 -52 142t-141 51q-19 0 -53 -10q57 72 149 72q79 0 134.5 -55.5t55.5 -134.5z" />
    <glyph glyph-name="at" unicode="@" horiz-adv-x="886" 
d="M605 445v-362h148l-61 -42h-87h-70h-2v53v309h-194l60 42h134h67h5zM298 266q0 -86 43 -138t117 -52q37 0 75 18q-58 -67 -133 -67q-73 0 -117 53.5t-44 135.5q0 57 28 109.5t72 77.5q-41 -52 -41 -137zM731 530q96 -95 96 -242q0 -56 -20 -111q-16 -46 -54 -94
q29 59 29 150q0 143 -102 242t-247 99q-121 0 -198 -51q51 51 111 75q69 29 136 29q150 0 249 -97zM59 214q0 97 48 179.5t128 129.5q-54 -50 -84.5 -118t-30.5 -145q0 -148 105 -253.5t254 -105.5q99 0 183 50q-104 -96 -244 -96q-148 0 -253.5 105.5t-105.5 253.5z" />
    <glyph glyph-name="A" unicode="A" horiz-adv-x="659" 
d="M555 -15l-125 293h-245l-103 -278h-57l247 662l-15 37l81 57l301 -711zM256 332h152l-107 259l-115 -311z" />
    <glyph glyph-name="B" unicode="B" 
d="M352 429q76 -11 126.5 -64.5t50.5 -126.5q0 -60 -39.5 -110t-97.5 -74q37 49 43.5 107t-13 105t-66.5 79t-110 32h-58v-323h204l-78 -54h-223l1 1h-1v686h-1l78 54h130q77 0 128.5 -44t51.5 -111q0 -54 -36.5 -97.5t-89.5 -59.5zM261 431h60q18 0 29 -2q39 43 39 111
q0 67 -44 106.5t-121 39.5h-36v-308z" />
    <glyph glyph-name="C" unicode="C" horiz-adv-x="690" 
d="M142 401q0 -149 95.5 -250t238.5 -101q102 0 169 39q-102 -104 -245 -104q-144 0 -247 105t-103 253q0 98 49.5 180.5t131.5 129.5q-89 -92 -89 -252zM581 640q-90 58 -181 58q-87 0 -169 -45q101 103 245 103q100 0 184 -54z" />
    <glyph glyph-name="D" unicode="D" horiz-adv-x="702" 
d="M287 741q151 -1 258 -106.5t107 -251.5q0 -100 -52.5 -192t-136.5 -137q49 47 76.5 123t27.5 152q0 148 -106 253t-258 105h-14v-633h274l-77 -54h-296v672l98 69h1h98z" />
    <glyph glyph-name="E" unicode="E" horiz-adv-x="524" 
d="M187 374v-320h295l-78 -54h-314v686l77 54h315l-78 -54h-217v-257h252l-78 -55h-174z" />
    <glyph glyph-name="F" unicode="F" horiz-adv-x="503" 
d="M188 686v-257h252l-78 -55h-174v-374h-98v686l79 54h314l-78 -54h-217z" />
    <glyph glyph-name="G" unicode="G" horiz-adv-x="754" 
d="M136 401q0 -148 98.5 -251.5t241.5 -103.5q72 0 120 19q-3 -3 -9 -8.5t-25 -19.5t-40.5 -24.5t-54 -19t-66.5 -8.5q-145 0 -248 105t-103 253q0 98 50 180.5t132 129.5q-96 -97 -96 -252zM584 644q-84 54 -183 54q-89 0 -169 -45q100 103 244 103q99 0 185 -54zM596 384
h98v-250l-98 -69v319z" />
    <glyph glyph-name="H" unicode="H" horiz-adv-x="758" 
d="M90 0v740h98v-740h-98zM570 740h98v-740h-98v374h-382l78 55h304v311z" />
    <glyph glyph-name="I" unicode="I" horiz-adv-x="278" 
d="M90 740h98v-740h-98v740z" />
    <glyph glyph-name="J" unicode="J" horiz-adv-x="476" 
d="M288 740h98v-614l-98 -69v683zM100 124q53 -76 139 -76q23 0 49 8q-54 -72 -137 -72q-87 0 -141 77z" />
    <glyph glyph-name="K" unicode="K" horiz-adv-x="597" 
d="M90 740h98v-364v-376h-98v740zM284 418l293 -371l-84 -65l-305 394l305 364h66z" />
    <glyph glyph-name="L" unicode="L" horiz-adv-x="476" 
d="M188 54h268l-78 -54h-288v740h98v-686z" />
    <glyph glyph-name="M" unicode="M" horiz-adv-x="983" 
d="M908 0h-100l-63 550l-217 -508l-83 -59h-1l-242 569l-70 -552h-57l82 655l-20 45l84 58l279 -655l233 546l-5 48l90 61z" />
    <glyph glyph-name="N" unicode="N" horiz-adv-x="794" 
d="M646 740h58v-720l-55 -38l-467 594v-576h-57v648l-35 45l89 66l467 -588v569z" />
    <glyph glyph-name="O" unicode="O" horiz-adv-x="891" 
d="M484 757q145 0 251 -105t106 -252q0 -98 -52 -181.5t-136 -130.5q99 101 99 254q0 148 -100 252t-244 104q-94 0 -170 -44q101 103 246 103zM138 400q0 -148 100.5 -251.5t245.5 -103.5q95 0 169 43q-101 -103 -245 -103q-146 0 -252 105t-106 252q0 97 52.5 181
t135.5 131q-100 -102 -100 -254z" />
    <glyph glyph-name="P" unicode="P" horiz-adv-x="566" 
d="M323 740q87 0 145 -57t58 -139q0 -60 -39 -110t-96 -74q37 49 44 107t-13 106t-67 80t-110 32h-57v-325h203l-77 -54h-126v-306h-98v686l78 54h155z" />
    <glyph glyph-name="Q" unicode="Q" horiz-adv-x="1029" 
d="M979 -89l-78 -58l-324 175q-79 -44 -169 -44q-146 0 -252 105t-106 252q0 97 52.5 181t135.5 131q-101 -103 -101 -254q0 -148 101.5 -252.5t245.5 -104.5q91 0 170 45zM755 341q0 148 -101.5 252.5t-245.5 104.5q-92 0 -170 -45q101 103 246 103t251 -105t106 -252
q0 -98 -52 -181.5t-135 -130.5q101 103 101 254z" />
    <glyph glyph-name="R" unicode="R" horiz-adv-x="596" 
d="M489 -15l-204 356h-97v-341h-98v687l78 54q104 -1 142 -1q84 0 140.5 -49.5t56.5 -124.5q0 -60 -40 -106.5t-99 -64.5q46 49 46 120q0 75 -48 123t-132 48h-46v-291h180l208 -355z" />
    <glyph glyph-name="S" unicode="S" horiz-adv-x="529" 
d="M152 611q0 -34 23.5 -68.5t58.5 -62t76.5 -60t76.5 -62t58.5 -69t23.5 -80.5q0 -58 -33 -103.5t-87 -59.5q39 47 39 98q0 44 -32 87t-78 78.5t-92 70.5t-79 77.5t-35 85.5q-2 52 28.5 95t80.5 55q-29 -41 -29 -82zM339 637q-47 60 -122 60q-14 0 -36 -4q44 64 126 64
q74 0 120 -56zM142 135q23 -41 67 -68t93 -27q24 0 47 6q-50 -62 -139 -62q-49 0 -91.5 23.5t-65.5 62.5z" />
    <glyph glyph-name="T" unicode="T" horiz-adv-x="591" 
d="M580 740l-78 -54h-158v-686h-99v686h-235l78 54h492z" />
    <glyph glyph-name="U" unicode="U" horiz-adv-x="764" 
d="M188 329q0 -142 77.5 -210t202.5 -68q55 0 108 22q-84 -89 -205 -89q-116 0 -198.5 82t-82.5 198v477h98v-412zM576 741h98v-600l-98 -68v668z" />
    <glyph glyph-name="V" unicode="V" horiz-adv-x="623" 
d="M612 740l-246 -663l15 -38l-84 -57l-287 717l89 59l238 -607l219 589h56z" />
    <glyph glyph-name="W" unicode="W" horiz-adv-x="1029" 
d="M1018 740l-237 -663l15 -40l-82 -57l-205 592l-157 -497l15 -38l-82 -57l-275 718l86 59l227 -595l157 495l-15 41l87 59l201 -597l208 580h57z" />
    <glyph glyph-name="X" unicode="X" horiz-adv-x="627" 
d="M607 45l-88 -64l-224 352l-208 -333h-62l239 382l-203 312l87 64l176 -276l163 258h61l-193 -307z" />
    <glyph glyph-name="Y" unicode="Y" horiz-adv-x="556" 
d="M545 740l-220 -351v-389h-100v342l-215 352l92 64l197 -321l186 303h60z" />
    <glyph glyph-name="Z" unicode="Z" horiz-adv-x="608" 
d="M155 93h429l-121 -93h-436l407 649h-370l128 89h370z" />
    <glyph glyph-name="bracketleft" unicode="[" horiz-adv-x="289" 
d="M192 -271h-142v1026l55 38h163l-76 -52h-88v-960h164z" />
    <glyph glyph-name="backslash" unicode="\" horiz-adv-x="486" 
d="M13 792h55l407 -1063h-56z" />
    <glyph glyph-name="bracketright" unicode="]" horiz-adv-x="288" 
d="M96 793h142v-1026l-55 -38h-163l76 52h88v960h-164z" />
    <glyph glyph-name="underscore" unicode="_" horiz-adv-x="609" 
d="M559 -66l-76 -52h-433l76 52h433z" />
    <glyph glyph-name="grave" unicode="`" horiz-adv-x="175" 
d="M165 584q-73 8 -113.5 53.5t-45.5 99.5l94 55q-17 -77 9 -132.5t59 -72.5z" />
    <glyph glyph-name="a" unicode="a" horiz-adv-x="498" 
d="M428 316v-316h-90v67q-53 -83 -138 -83q-67 0 -113.5 45t-46.5 109q0 46 25 83.5t67 55.5q-21 -36 -21 -75q0 -96 70.5 -135.5t156.5 0.5v190v21v-1h-206l74 53h125q-11 49 -36.5 81.5t-59.5 44t-73 7.5t-78 -23q37 46 95.5 64t112.5 6t94 -62.5t42 -131.5z" />
    <glyph glyph-name="b" unicode="b" horiz-adv-x="583" 
d="M174 439v-387h240l-75 -52h-254v792h89v-353zM338 517q90 0 144.5 -66t54.5 -167q0 -71 -34.5 -136t-88.5 -96q50 64 50 169q0 103 -53.5 171.5t-143.5 68.5q-49 0 -93 -22q67 78 164 78z" />
    <glyph glyph-name="c" unicode="c" horiz-adv-x="509" 
d="M119 282q0 -103 70.5 -171t164.5 -68q60 0 107 25q-70 -83 -176 -83q-95 0 -167 67.5t-72 168.5q0 70 36.5 130t94.5 89q-58 -66 -58 -158zM396 413q-59 49 -129 49q-46 0 -90 -22q66 77 161 77q76 0 136 -52z" />
    <glyph glyph-name="d" unicode="d" horiz-adv-x="582" 
d="M408 792h89v-792h-89v65v382h-239l74 53h165v292zM119 278q0 -109 52 -171t145 -62q52 0 92 20q-69 -81 -164 -81q-90 0 -144 65t-54 166q0 71 34.5 136.5t88.5 95.5q-50 -62 -50 -169z" />
    <glyph glyph-name="e" unicode="e" horiz-adv-x="542" 
d="M201 281h216v1q0 76 -44 127.5t-116 51.5q-45 0 -80 -19q54 74 144 74q73 0 124 -52.5t51 -127.5q0 -28 -9 -55l-74 -52h-286zM46 223q0 70 36.5 130t94.5 89q-58 -66 -58 -158q0 -103 70.5 -172t164.5 -69q60 0 107 25q-70 -83 -176 -83q-95 0 -167 68.5t-72 169.5z" />
    <glyph glyph-name="f" unicode="f" horiz-adv-x="416" 
d="M333 701q-41 53 -109 53q-12 0 -32 -4q40 58 112 58q66 0 107 -51zM192 750v-250h180l-75 -52h-105v-448h-90v448h-91l75 52h16v187z" />
    <glyph glyph-name="g" unicode="g" horiz-adv-x="528" 
d="M363 53q60 0 102 -39.5t42 -98.5q0 -48 -31 -86t-77 -51q26 35 26 86q0 59 -42 97.5t-103 38.5h-164l141 149q-6 -1 -18 -1q-66 0 -113 46.5t-47 111.5q0 52 31 93t78 57q-31 -38 -31 -99q0 -68 41.5 -113t112.5 -45q26 0 47 7l4 2l-1 -1l-142 -154h144zM394 306
q0 68 -42 113.5t-113 45.5q-27 0 -51 -9q48 59 123 59q37 0 69 -15h177l-75 -52h-41q30 -43 30 -91q0 -52 -30.5 -92.5t-78.5 -56.5q32 39 32 98zM178 -5q-26 -36 -28 -76.5t17.5 -72t54 -55.5t80.5 -27t97 14q-107 -87 -212 -58q-72 20 -103 82q-35 69 10 130q28 39 84 63z
" />
    <glyph glyph-name="h" unicode="h" horiz-adv-x="587" 
d="M85 808h89v-368v-440h-89v808zM517 309v-309h-89v257q0 72 -23 120.5t-60 68t-81.5 18.5t-89.5 -24q38 47 96 64.5t112 4t93.5 -66t41.5 -133.5z" />
    <glyph glyph-name="i" unicode="i" horiz-adv-x="268" 
d="M137 706l81 -57l-82 -57l-80 57zM90 500h89v-500h-89v500z" />
    <glyph glyph-name="j" unicode="j" horiz-adv-x="415" 
d="M365 649l-81 -57l-80 57l81 57zM99 -180q41 -53 109 -53q12 0 32 4q-40 -58 -113 -58q-66 0 -107 51zM240 -229v729h89v-666z" />
    <glyph glyph-name="k" unicode="k" horiz-adv-x="505" 
d="M85 792h89v-546v-246h-89v792zM266 280l219 -242l-77 -57l-234 265l238 253h61z" />
    <glyph glyph-name="l" unicode="l" horiz-adv-x="259" 
d="M85 0v793h89v-793h-89z" />
    <glyph glyph-name="m" unicode="m" horiz-adv-x="849" 
d="M779 326v-326h-89v263q0 71 -20 119t-53.5 66.5t-76 14.5t-88.5 -31q22 -45 24 -116v-316h-89v263q0 72 -17.5 119t-48.5 64.5t-71 12.5t-86 -32q39 54 95.5 76.5t110.5 4.5t82 -75q41 49 97.5 69.5t107.5 10t86.5 -59t35.5 -127.5zM75 500h89v-73v-427h-89v500z" />
    <glyph glyph-name="n" unicode="n" horiz-adv-x="578" 
d="M508 320v-320h-90v263q0 71 -23 118.5t-60 65t-82 12.5t-89 -32q43 52 102 74t112 11.5t91 -60.5t39 -132zM75 500h89v-73v-427h-89v500z" />
    <glyph glyph-name="o" unicode="o" horiz-adv-x="609" 
d="M119 282q0 -97 65 -168t157 -71q52 0 99 25q-67 -83 -171 -83q-92 0 -157.5 69t-65.5 167q0 71 36 130.5t95 88.5q-58 -66 -58 -158zM563 282q0 -68 -33.5 -126t-89.5 -88q53 66 53 153q0 98 -66 169.5t-158 71.5q-48 0 -92 -22q65 76 164 76q92 0 157 -68.5t65 -165.5z
" />
    <glyph glyph-name="p" unicode="p" horiz-adv-x="582" 
d="M174 439v-387h239l-75 -52h-164v-272h-89v772h89v-61zM338 516q90 0 144 -66t54 -166q0 -71 -34.5 -136t-88.5 -96q50 64 50 169q0 103 -53.5 171.5t-143.5 68.5q-48 0 -92 -22q64 77 164 77z" />
    <glyph glyph-name="q" unicode="q" horiz-adv-x="583" 
d="M244 500h254v-771h-89v333v385h-239zM119 280q0 -103 53.5 -171.5t144.5 -68.5q48 0 92 22q-67 -78 -164 -78q-90 0 -144.5 66t-54.5 167q0 71 34.5 135.5t89.5 94.5q-51 -63 -51 -167z" />
    <glyph glyph-name="r" unicode="r" horiz-adv-x="373" 
d="M75 500h89v-58v-442h-89v500zM164 442q34 62 98.5 71t105.5 -46l-77 -56q-19 26 -55 36t-72 -5z" />
    <glyph glyph-name="s" unicode="s" horiz-adv-x="392" 
d="M118 409q0 -30 23.5 -54t57.5 -42.5t67.5 -38.5t57 -50t23.5 -68q0 -42 -25 -75t-65 -43q21 28 21 65q0 34 -23.5 61.5t-57 46.5t-66.5 38.5t-56.5 48t-23.5 63.5q0 39 23 67.5t61 36.5q-17 -26 -17 -56zM258 414q-33 53 -98 53q-9 0 -25 -2q33 51 97 51q65 0 98 -53z
M113 101q15 -29 47 -48t67 -19q17 0 30 4q-36 -52 -104 -52q-35 0 -65.5 18.5t-46.5 47.5z" />
    <glyph glyph-name="t" unicode="t" horiz-adv-x="353" 
d="M179 161q0 -63 29.5 -96t83.5 -33q16 0 29 3q-37 -50 -102 -50q-53 0 -91 38t-38 91v3v330h-76l165 116v-63h169l-74 -53h-95v-286z" />
    <glyph glyph-name="u" unicode="u" 
d="M160 500v-263q0 -72 23.5 -119.5t60.5 -65t81.5 -12.5t88.5 32q-43 -53 -102 -74.5t-111.5 -9.5t-90 64t-39.5 133v315h89zM414 500h90v-500h-90v72v428z" />
    <glyph glyph-name="v" unicode="v" horiz-adv-x="497" 
d="M290 66l14 -33l-74 -52l-210 483l75 52l170 -393l161 377h51z" />
    <glyph glyph-name="w" unicode="w" horiz-adv-x="810" 
d="M790 500l-187 -431l13 -35l-74 -52l-144 379l-109 -294l15 -33l-75 -52l-209 482l74 52l168 -385l110 299l-13 34l74 52l147 -386l158 370h52z" />
    <glyph glyph-name="x" unicode="x" horiz-adv-x="503" 
d="M483 34l-77 -54l-177 232l-151 -212h-58l179 248l-165 213l75 55l144 -192l128 176h56l-153 -213z" />
    <glyph glyph-name="y" unicode="y" horiz-adv-x="515" 
d="M440 500h55l-359 -772h-53l137 300l-200 428l79 60l175 -377z" />
    <glyph glyph-name="z" unicode="z" horiz-adv-x="479" 
d="M144 83h319l-109 -83h-332l310 418h-299l114 82h303z" />
    <glyph glyph-name="braceleft" unicode="{" horiz-adv-x="247" 
d="M162 56v9v-229q0 -80 35 -123q-47 21 -77.5 64t-34.5 96v253q0 75 -35 120v1v-1q35 43 35 122v247q2 55 32.5 99.5t79.5 65.5q-35 -43 -35 -121v-254q-4 -52 -34 -95t-77 -64q46 -20 77.5 -76.5t33.5 -113.5z" />
    <glyph glyph-name="bar" unicode="|" horiz-adv-x="154" 
d="M50 741h54v-741h-54v741z" />
    <glyph glyph-name="braceright" unicode="}" horiz-adv-x="247" 
d="M85 65v-9q2 57 33.5 113.5t77.5 76.5q-47 21 -77 64t-34 95v254q0 78 -35 121q49 -21 79.5 -65.5t32.5 -99.5v-247q0 -79 35 -122v1v-1q-35 -45 -35 -120v-253q-4 -53 -34.5 -96t-77.5 -64q35 43 35 123v229z" />
    <glyph glyph-name="asciitilde" unicode="~" horiz-adv-x="552" 
d="M500 389l2 -1l-94 -65q-35 0 -137 30t-151 30q-34 0 -68 -17l-2 1l94 67q73 0 168.5 -29.5t124.5 -29.5q33 0 63 14z" />
    <glyph glyph-name="exclamdown" unicode="&#xa1;" horiz-adv-x="248" 
d="M171 -239h-98l1 529h96zM50 458l88 61l60 -83l-88 -61z" />
    <glyph glyph-name="cent" unicode="&#xa2;" horiz-adv-x="492" 
d="M390 524q-44 36 -89 45v-382q27 -5 49 -5q55 0 101 22q-64 -73 -150 -78v-126h-39v127q-83 9 -142.5 71.5t-59.5 150.5q0 65 34.5 121.5t90.5 82.5q-50 -58 -50 -148q0 -71 35 -124.5t92 -79.5v371q-44 -2 -77 -19q33 39 77 58v130h39v-117q17 3 34 3q66 0 127 -50z" />
    <glyph glyph-name="sterling" unicode="&#xa3;" horiz-adv-x="597" 
d="M282 362q25 -115 -24 -217l-98 -69q26 57 34 111.5t3.5 91.5t-16.5 83h-131l76 52h41q-33 117 -7 200l98 69q-16 -52 -17 -105t5.5 -83.5t21.5 -80.5h211l-76 -52h-121zM446 616q-52 75 -139 75q-27 0 -49 -7q54 72 137 72q87 0 141 -77zM51 0l109 76h387l-98 -76h-398z
" />
    <glyph glyph-name="yen" unicode="&#xa5;" horiz-adv-x="595" 
d="M463 222h-118v-222h-100v222h-205l76 51h129v69l-18 29h-186l76 51h79l-166 272l92 64l197 -321l186 303h60l-200 -318h175l-76 -51h-119v-98h194z" />
    <glyph glyph-name="section" unicode="&#xa7;" horiz-adv-x="403" 
d="M117 646q0 -30 23.5 -54t57.5 -42.5t67.5 -38t57 -49.5t23.5 -68q0 -42 -25 -73.5t-65 -41.5q21 29 21 67q0 34 -23 61.5t-56.5 46.5l-67 38t-57 47.5t-23.5 63.5q1 39 23.5 66.5t60.5 35.5q-18 -28 -17 -59zM257 654q-33 53 -98 53q-9 0 -25 -2q33 51 97 51q65 0 98 -53
zM263 36q22 33 21 67q0 34 -23.5 62t-57 47.5t-66.5 39t-56.5 48.5t-23.5 64q0 40 28.5 70.5t78.5 39.5q-41 -31 -40 -68q0 -30 23.5 -54.5t57.5 -43t67.5 -38.5t57 -50.5t23.5 -68.5q0 -41 -25 -73t-65 -42zM232 33q16 0 31 3q-37 -52 -103 -52q-35 0 -64 17.5t-45 47.5
l71 49q16 -30 45.5 -47.5t64.5 -17.5z" />
    <glyph glyph-name="dieresis" unicode="&#xa8;" horiz-adv-x="337" 
d="M168 654l-82 -57l-80 56l82 58zM248 597l-80 56l82 58l80 -57z" />
    <glyph glyph-name="copyright" unicode="&#xa9;" horiz-adv-x="900" 
d="M318 410q0 -83 56.5 -138t133.5 -55q49 0 86 20q-57 -67 -142 -67q-77 0 -135 54.5t-58 135.5q0 58 29 105.5t77 71.5q-47 -53 -47 -127zM542 515q-48 40 -104 40q-40 0 -73 -18q52 62 130 62q62 0 110 -42zM839 401q0 -97 -48 -179t-128 -130q115 107 115 263
q0 149 -105 254.5t-254 105.5q-97 0 -183 -51q102 96 244 96q148 0 253.5 -105t105.5 -254zM121 401q0 -149 105.5 -254t253.5 -105q99 0 183 50q-104 -96 -244 -96q-149 0 -254 105t-105 254q0 97 48 179.5t128 129.5q-54 -50 -84.5 -118t-30.5 -145z" />
    <glyph glyph-name="ordfeminine" unicode="&#xaa;" horiz-adv-x="399" 
d="M349 603v-231h-70v52q-17 -28 -46.5 -46t-61.5 -18q-53 0 -87 30t-34 79q0 76 68 106q-14 -22 -14 -56q0 -74 52 -101t123 6v136v16v-1h-161l58 42h100q-6 50 -38.5 75t-73.5 24t-83 -21q30 37 75 51.5t87.5 6t73.5 -47.5t32 -102z" />
    <glyph glyph-name="guillemotleft" unicode="&#xab;" horiz-adv-x="485" 
d="M282 309l153 -169l-54 -40l-164 186l180 192l26 -19zM115 309l153 -169l-54 -40l-164 186l180 192l26 -19z" />
    <glyph glyph-name="registered" unicode="&#xae;" horiz-adv-x="573" 
d="M353 371l-78 126h-33v-120h-46v270l35 24h62q37 0 61 -21.5t24 -54.5q0 -26 -17 -46t-43 -28q21 19 21 52t-21 53t-58 20h-18v-125h76l76 -122zM50 519q0 98 69 167t168 69q97 0 166.5 -69.5t69.5 -166.5q0 -99 -69 -168.5t-167 -69.5q-99 0 -168 69.5t-69 168.5zM77 518
q0 -86 61.5 -147.5t147.5 -61.5q87 0 148.5 61.5t61.5 147.5q0 87 -61.5 148.5t-148.5 61.5q-86 0 -147.5 -61.5t-61.5 -148.5z" />
    <glyph glyph-name="macron" unicode="&#xaf;" horiz-adv-x="421" 
d="M6 631l75 52h333l-74 -52h-334z" />
    <glyph glyph-name="degree" unicode="&#xb0;" horiz-adv-x="325" 
d="M162 759q47 0 80 -32.5t33 -78.5q0 -47 -33 -79.5t-80 -32.5t-79.5 32.5t-32.5 79.5q0 46 32.5 78.5t79.5 32.5zM162 580q27 0 46 19.5t19 46.5q0 28 -19 47.5t-46 19.5t-45.5 -19.5t-18.5 -47.5q0 -27 18.5 -46.5t45.5 -19.5z" />
    <glyph glyph-name="twosuperior" unicode="&#xb2;" horiz-adv-x="376" 
d="M326 435l-77 -63h-199l61 55q121 110 121 188q0 106 -116 102q-8 0 -34 -7q38 46 102 46q50 0 83 -32.5t33 -77.5q0 -61 -45.5 -112t-129.5 -99h201z" />
    <glyph glyph-name="threesuperior" unicode="&#xb3;" horiz-adv-x="362" 
d="M312 502q-1 -35 -22 -59.5t-55 -34.5q-35 -45 -90 -45q-63 0 -95 51l60 41q37 -52 91 -52q13 0 33 5q19 30 19 53q0 44 -29 71.5t-74 27.5h-43l113 127h-169l81 60h177l-132 -147h29q44 0 75 -27.5t31 -70.5z" />
    <glyph glyph-name="acute" unicode="&#xb4;" horiz-adv-x="192" 
d="M6 585q47 21 70 64.5t12 88.5l95 55q5 -51 -10.5 -91.5t-44 -64t-58.5 -36.5t-62 -18z" />
    <glyph glyph-name="mu" unicode="&#xb5;" horiz-adv-x="593" 
d="M174 237q0 -72 23.5 -119.5t60.5 -65t81.5 -12.5t88.5 32q-48 -67 -122 -83t-132 22v-283h-89v457v314h89v-262zM428 499h90v-499h-90v72v427z" />
    <glyph glyph-name="paragraph" unicode="&#xb6;" horiz-adv-x="781" 
d="M752 792l-78 -54h-92v-1009h-99v1009h-299l78 54h490zM62 568q0 59 34 105.5t88 64.5q-40 -50 -40 -113q0 -75 50 -127t129 -52q31 0 61 11l1 -728h-99v664q-21 -6 -45 -6q-75 1 -127.5 54t-51.5 127z" />
    <glyph glyph-name="periodcentered" unicode="&#xb7;" horiz-adv-x="248" 
d="M198 358l-88 -61l-60 83l88 61z" />
    <glyph glyph-name="cedilla" unicode="&#xb8;" horiz-adv-x="271" 
d="M68 -190q13 -25 38.5 -40.5t55.5 -15.5q14 0 27 3q-31 -44 -88 -44q-65 0 -95 55zM167 -55q41 0 69 -26.5t28 -66.5q0 -35 -21 -61t-54 -34q19 25 19 59q0 40 -28.5 68.5t-68.5 28.5l-23 -3l71 76v-41h8z" />
    <glyph glyph-name="onesuperior" unicode="&#xb9;" horiz-adv-x="222" 
d="M172 747v-375h-68v335h-54l57 40h65z" />
    <glyph glyph-name="ordmasculine" unicode="&#xba;" horiz-adv-x="489" 
d="M109 583q0 -73 47 -124t116 -51q45 0 74 15q-52 -62 -128 -62q-69 0 -118.5 52t-49.5 124q0 53 27.5 98t71.5 65q-40 -46 -40 -117zM439 583q0 -50 -26 -93t-67 -67q35 43 35 114q0 73 -47 125t-116 52q-42 0 -69 -14q49 57 123 57q68 0 117.5 -51t49.5 -123z" />
    <glyph glyph-name="guillemotright" unicode="&#xbb;" horiz-adv-x="485" 
d="M203 269l-153 169l54 40l164 -186l-180 -192l-26 19zM370 269l-153 169l54 40l164 -186l-180 -192l-26 19z" />
    <glyph glyph-name="questiondown" unicode="&#xbf;" horiz-adv-x="439" 
d="M187 288h98v-104l-98 -69v173zM164 455l88 61l60 -83l-88 -61zM50 -68q0 64 37.5 112.5t99.5 70.5q-44 -56 -44 -118q0 -90 52 -142t141 -51q19 0 53 10q-57 -72 -149 -72q-79 0 -134.5 55.5t-55.5 134.5z" />
    <glyph glyph-name="Agrave" unicode="&#xc0;" horiz-adv-x="659" 
d="M555 -15l-125 293h-245l-103 -278h-57l247 662l-15 37l81 57l301 -711zM256 332h152l-107 259l-115 -311zM410 784q-73 8 -113.5 53.5t-45.5 99.5l94 55q-17 -77 9 -132.5t59 -72.5z" />
    <glyph glyph-name="Aacute" unicode="&#xc1;" horiz-adv-x="659" 
d="M555 -15l-125 293h-245l-103 -278h-57l247 662l-15 37l81 57l301 -711zM256 332h152l-107 259l-115 -311zM227 785q47 21 70 64.5t12 88.5l95 55q5 -51 -10.5 -91.5t-44 -64t-58.5 -36.5t-62 -18z" />
    <glyph glyph-name="Acircumflex" unicode="&#xc2;" horiz-adv-x="659" 
d="M555 -15l-125 293h-245l-103 -278h-57l247 662l-15 37l81 57l301 -711zM256 332h152l-107 259l-115 -311zM207 795h-48l121 113l66 48l159 -131l-66 -48l-135 114z" />
    <glyph glyph-name="Atilde" unicode="&#xc3;" horiz-adv-x="659" 
d="M555 -15l-125 293h-245l-103 -278h-57l247 662l-15 37l81 57l301 -711zM256 332h152l-107 259l-115 -311zM549 870l1 -1l-105 -74q-35 0 -124 29.5t-138 29.5q-33 0 -67 -17l-2 1l105 77q73 0 155.5 -29t110.5 -29q34 0 64 13z" />
    <glyph glyph-name="Adieresis" unicode="&#xc4;" horiz-adv-x="659" 
d="M555 -15l-125 293h-245l-103 -278h-57l247 662l-15 37l81 57l301 -711zM256 332h152l-107 259l-115 -311zM332 849l-82 -57l-80 56l82 58zM412 792l-80 56l82 58l80 -57z" />
    <glyph glyph-name="Aring" unicode="&#xc5;" horiz-adv-x="659" 
d="M555 -15l-125 293h-245l-103 -278h-57l247 662l-15 37l103 11l279 -665zM256 332h152l-107 259l-115 -311zM314 855q37 0 63.5 -26.5t26.5 -63.5t-26.5 -63.5t-63.5 -26.5q-38 0 -64 26.5t-26 63.5t26.5 63.5t63.5 26.5zM314 816q-21 0 -36 -15t-15 -36t15 -36t36 -15
t36 15t15 36t-15 36t-36 15z" />
    <glyph glyph-name="AE" unicode="&#xc6;" horiz-adv-x="904" 
d="M635 55h254l-78 -55h-264l-101 279h-248l79 54h150l-95 269l-250 -602h-57l284 663l-8 23l87 55h311l-78 -54h-214l91 -261h264l-78 -54h-166z" />
    <glyph glyph-name="Ccedilla" unicode="&#xc7;" horiz-adv-x="690" 
d="M142 401q0 -149 95.5 -250t238.5 -101q102 0 169 39q-102 -104 -245 -104q-144 0 -247 105t-103 253q0 98 49.5 180.5t131.5 129.5q-89 -92 -89 -252zM581 640q-90 58 -181 58q-87 0 -169 -45q101 103 245 103q100 0 184 -54zM322 -191q13 -25 38.5 -40.5t55.5 -15.5
q14 0 27 3q-31 -44 -88 -44q-65 0 -95 55zM421 -56q41 0 69 -26.5t28 -66.5q0 -35 -21 -61t-54 -34q19 25 19 59q0 40 -28.5 68.5t-68.5 28.5l-23 -3l71 76v-41h8z" />
    <glyph glyph-name="Egrave" unicode="&#xc8;" horiz-adv-x="524" 
d="M187 374v-320h295l-78 -54h-314v686l77 54h315l-78 -54h-217v-257h252l-78 -55h-174zM346 784q-73 8 -113.5 53.5t-45.5 99.5l94 55q-17 -77 9 -132.5t59 -72.5z" />
    <glyph glyph-name="Eacute" unicode="&#xc9;" horiz-adv-x="524" 
d="M187 374v-320h295l-78 -54h-314v686l77 54h315l-78 -54h-217v-257h252l-78 -55h-174zM187 791q47 21 70 64.5t12 88.5l95 55q5 -51 -10.5 -91.5t-44 -64t-58.5 -36.5t-62 -18z" />
    <glyph glyph-name="Ecircumflex" unicode="&#xca;" horiz-adv-x="524" 
d="M187 374v-320h295l-78 -54h-314v686l77 54h315l-78 -54h-217v-257h252l-78 -55h-174zM143 797h-48l121 113l66 48l159 -131l-66 -48l-135 114z" />
    <glyph glyph-name="Edieresis" unicode="&#xcb;" horiz-adv-x="524" 
d="M187 374v-320h295l-78 -54h-314v686l77 54h315l-78 -54h-217v-257h252l-78 -55h-174zM268 854l-82 -57l-80 56l82 58zM348 797l-80 56l82 58l80 -57z" />
    <glyph glyph-name="Igrave" unicode="&#xcc;" horiz-adv-x="298" 
d="M100 740h98v-740h-98v740zM227 784q-73 8 -113.5 53.5t-45.5 99.5l94 55q-17 -77 9 -132.5t59 -72.5z" />
    <glyph glyph-name="Iacute" unicode="&#xcd;" horiz-adv-x="298" 
d="M100 740h98v-740h-98v740zM54 785q47 21 70 64.5t12 88.5l95 55q5 -51 -10.5 -91.5t-44 -64t-58.5 -36.5t-62 -18z" />
    <glyph glyph-name="Icircumflex" unicode="&#xce;" horiz-adv-x="298" 
d="M100 740h98v-740h-98v740zM24 797h-48l121 113l66 48l159 -131l-66 -48l-135 114z" />
    <glyph glyph-name="Idieresis" unicode="&#xcf;" horiz-adv-x="298" 
d="M100 740h98v-740h-98v740zM149 854l-82 -57l-80 56l82 58zM229 797l-80 56l82 58l80 -57z" />
    <glyph glyph-name="Eth" unicode="&#xd0;" horiz-adv-x="712" 
d="M297 741q151 -1 258 -106.5t107 -251.5q0 -100 -52.5 -192t-136.5 -137q49 47 79 123.5t30 151.5q0 147 -108 252.5t-261 105.5h-14v-280l224 1l-74 -53h-150v-301h274l-77 -54h-296v355h-74l74 52v265l98 69h99z" />
    <glyph glyph-name="Ntilde" unicode="&#xd1;" horiz-adv-x="794" 
d="M646 740h58v-720l-55 -38l-467 594v-576h-57v648l-35 45l89 66l467 -588v569zM631 868l1 -1l-105 -74q-34 0 -123.5 29.5t-138.5 29.5q-33 0 -67 -17l-2 1l105 77q73 0 155.5 -29t110.5 -29q34 0 64 13z" />
    <glyph glyph-name="Ograve" unicode="&#xd2;" horiz-adv-x="891" 
d="M484 757q145 0 251 -105t106 -252q0 -98 -52 -181.5t-136 -130.5q99 101 99 254q0 148 -100 252t-244 104q-94 0 -170 -44q101 103 246 103zM138 400q0 -148 100.5 -251.5t245.5 -103.5q95 0 169 43q-101 -103 -245 -103q-146 0 -252 105t-106 252q0 97 52.5 181
t135.5 131q-100 -102 -100 -254zM523 791q-73 8 -113.5 53.5t-45.5 99.5l94 55q-17 -77 9 -132.5t59 -72.5z" />
    <glyph glyph-name="Oacute" unicode="&#xd3;" horiz-adv-x="891" 
d="M484 757q145 0 251 -105t106 -252q0 -98 -52 -181.5t-136 -130.5q99 101 99 254q0 148 -100 252t-244 104q-94 0 -170 -44q101 103 246 103zM138 400q0 -148 100.5 -251.5t245.5 -103.5q95 0 169 43q-101 -103 -245 -103q-146 0 -252 105t-106 252q0 97 52.5 181
t135.5 131q-100 -102 -100 -254zM350 793q47 21 70 64.5t12 88.5l95 55q5 -51 -10.5 -91.5t-44 -64t-58.5 -36.5t-62 -18z" />
    <glyph glyph-name="Ocircumflex" unicode="&#xd4;" horiz-adv-x="891" 
d="M484 757q145 0 251 -105t106 -252q0 -98 -52 -181.5t-136 -130.5q99 101 99 254q0 148 -100 252t-244 104q-94 0 -170 -44q101 103 246 103zM138 400q0 -148 100.5 -251.5t245.5 -103.5q95 0 169 43q-101 -103 -245 -103q-146 0 -252 105t-106 252q0 97 52.5 181
t135.5 131q-100 -102 -100 -254zM320 797h-48l121 113l66 48l159 -131l-66 -48l-135 114z" />
    <glyph glyph-name="Otilde" unicode="&#xd5;" horiz-adv-x="891" 
d="M484 757q145 0 251 -105t106 -252q0 -98 -52 -181.5t-136 -130.5q99 101 99 254q0 148 -100 252t-244 104q-94 0 -170 -44q101 103 246 103zM138 400q0 -148 100.5 -251.5t245.5 -103.5q95 0 169 43q-101 -103 -245 -103q-146 0 -252 105t-106 252q0 97 52.5 181
t135.5 131q-100 -102 -100 -254zM674 870l1 -1l-105 -74q-34 0 -123 29.5t-139 29.5q-33 0 -67 -17l-2 1l105 77q73 0 155.5 -29t110.5 -29q34 0 64 13z" />
    <glyph glyph-name="Odieresis" unicode="&#xd6;" horiz-adv-x="891" 
d="M484 757q145 0 251 -105t106 -252q0 -98 -52 -181.5t-136 -130.5q99 101 99 254q0 148 -100 252t-244 104q-94 0 -170 -44q101 103 246 103zM138 400q0 -148 100.5 -251.5t245.5 -103.5q95 0 169 43q-101 -103 -245 -103q-146 0 -252 105t-106 252q0 97 52.5 181
t135.5 131q-100 -102 -100 -254zM445 850l-82 -57l-80 56l82 58zM525 793l-80 56l82 58l80 -57z" />
    <glyph glyph-name="Oslash" unicode="&#xd8;" horiz-adv-x="891" 
d="M720 667q57 -50 89 -119t32 -147q0 -98 -52 -181.5t-135 -130.5q101 103 101 254q0 145 -98 249l-391 -469q95 -79 218 -79q91 0 170 45q-103 -103 -246 -103q-110 0 -203 64l-57 -67h-54l78 93q-57 50 -89.5 119.5t-32.5 147.5q0 97 52.5 181t135.5 131
q-101 -103 -101 -254q0 -146 98 -249l392 468q-96 80 -219 80q-92 0 -170 -45q101 103 246 103q112 0 204 -65l55 65h53z" />
    <glyph glyph-name="Ugrave" unicode="&#xd9;" horiz-adv-x="764" 
d="M188 329q0 -142 77.5 -210t202.5 -68q55 0 108 22q-84 -89 -205 -89q-116 0 -198.5 82t-82.5 198v477h98v-412zM576 741h98v-600l-98 -68v668zM460 784q-73 8 -113.5 53.5t-45.5 99.5l94 55q-17 -77 9 -132.5t59 -72.5z" />
    <glyph glyph-name="Uacute" unicode="&#xda;" horiz-adv-x="764" 
d="M188 329q0 -142 77.5 -210t202.5 -68q55 0 108 22q-84 -89 -205 -89q-116 0 -198.5 82t-82.5 198v477h98v-412zM576 741h98v-600l-98 -68v668zM287 785q47 21 70 64.5t12 88.5l95 55q5 -51 -10.5 -91.5t-44 -64t-58.5 -36.5t-62 -18z" />
    <glyph glyph-name="Ucircumflex" unicode="&#xdb;" horiz-adv-x="764" 
d="M188 329q0 -142 77.5 -210t202.5 -68q55 0 108 22q-84 -89 -205 -89q-116 0 -198.5 82t-82.5 198v477h98v-412zM576 741h98v-600l-98 -68v668zM257 797h-48l121 113l66 48l159 -131l-66 -48l-135 114z" />
    <glyph glyph-name="Udieresis" unicode="&#xdc;" horiz-adv-x="764" 
d="M188 329q0 -142 77.5 -210t202.5 -68q55 0 108 22q-84 -89 -205 -89q-116 0 -198.5 82t-82.5 198v477h98v-412zM576 741h98v-600l-98 -68v668zM382 850l-82 -57l-80 56l82 58zM462 793l-80 56l82 58l80 -57z" />
    <glyph glyph-name="Yacute" unicode="&#xdd;" horiz-adv-x="556" 
d="M545 740l-220 -351v-389h-100v342l-215 352l92 64l197 -321l186 303h60zM182 785q47 21 70 64.5t12 88.5l95 55q5 -51 -10.5 -91.5t-44 -64t-58.5 -36.5t-62 -18z" />
    <glyph glyph-name="Thorn" unicode="&#xde;" horiz-adv-x="634" 
d="M317 621q88 0 148 -55.5t60 -137.5q0 -60 -38 -110t-95 -74q37 49 44.5 106.5t-10.5 105t-64 79t-109 31.5h-64v-322h203l-78 -54h-125v-190h-99v741h99v-120h128z" />
    <glyph glyph-name="germandbls" unicode="&#xdf;" horiz-adv-x="618" 
d="M85 0v684l90 62v-746h-90zM344 434q0 -30 23.5 -57.5t57 -50.5t67 -47.5t57 -58t23.5 -71.5q0 -41 -26 -73t-66 -42q22 30 22 67q0 34 -23.5 65t-57.5 54.5t-68 47.5t-57.5 55.5t-23.5 66.5q0 39 23.5 66.5t62.5 35.5q-14 -22 -14 -58zM342 99q16 -30 44.5 -49t63.5 -19
q15 0 30 3q-36 -51 -102 -51q-36 0 -65 17t-45 47zM474 645q0 -54 -32 -95t-84 -58q35 36 35 108q0 68 -47 111t-118 43q-32 0 -53 -8q57 61 125 61q71 0 122.5 -47t51.5 -115z" />
    <glyph glyph-name="agrave" unicode="&#xe0;" horiz-adv-x="498" 
d="M428 316v-316h-90v67q-53 -83 -138 -83q-67 0 -113.5 45t-46.5 109q0 46 25 83.5t67 55.5q-21 -36 -21 -75q0 -96 70.5 -135.5t156.5 0.5v190v21v-1h-206l74 53h125q-11 49 -36.5 81.5t-59.5 44t-73 7.5t-78 -23q37 46 95.5 64t112.5 6t94 -62.5t42 -131.5zM327 584
q-73 8 -113.5 53.5t-45.5 99.5l94 55q-17 -77 9 -132.5t59 -72.5z" />
    <glyph glyph-name="aacute" unicode="&#xe1;" horiz-adv-x="498" 
d="M428 316v-316h-90v67q-53 -83 -138 -83q-67 0 -113.5 45t-46.5 109q0 46 25 83.5t67 55.5q-21 -36 -21 -75q0 -96 70.5 -135.5t156.5 0.5v190v21v-1h-206l74 53h125q-11 49 -36.5 81.5t-59.5 44t-73 7.5t-78 -23q37 46 95.5 64t112.5 6t94 -62.5t42 -131.5zM154 585
q47 21 70 64.5t12 88.5l95 55q5 -51 -10.5 -91.5t-44 -64t-58.5 -36.5t-62 -18z" />
    <glyph glyph-name="acircumflex" unicode="&#xe2;" horiz-adv-x="498" 
d="M428 316v-316h-90v67q-53 -83 -138 -83q-67 0 -113.5 45t-46.5 109q0 46 25 83.5t67 55.5q-21 -36 -21 -75q0 -96 70.5 -135.5t156.5 0.5v190v21v-1h-206l74 53h125q-11 49 -36.5 81.5t-59.5 44t-73 7.5t-78 -23q37 46 95.5 64t112.5 6t94 -62.5t42 -131.5zM124 597h-48
l121 113l66 48l159 -131l-66 -48l-135 114z" />
    <glyph glyph-name="atilde" unicode="&#xe3;" horiz-adv-x="498" 
d="M428 316v-316h-90v67q-53 -83 -138 -83q-67 0 -113.5 45t-46.5 109q0 46 25 83.5t67 55.5q-21 -36 -21 -75q0 -96 70.5 -135.5t156.5 0.5v190v21v-1h-206l74 53h125q-11 49 -36.5 81.5t-59.5 44t-73 7.5t-78 -23q37 46 95.5 64t112.5 6t94 -62.5t42 -131.5zM466 670l1 -1
l-105 -74q-34 0 -123 29.5t-139 29.5q-33 0 -67 -17l-2 1l105 77q73 0 155.5 -29t110.5 -29q34 0 64 13z" />
    <glyph glyph-name="adieresis" unicode="&#xe4;" horiz-adv-x="498" 
d="M428 316v-316h-90v67q-53 -83 -138 -83q-67 0 -113.5 45t-46.5 109q0 46 25 83.5t67 55.5q-21 -36 -21 -75q0 -96 70.5 -135.5t156.5 0.5v190v21v-1h-206l74 53h125q-11 49 -36.5 81.5t-59.5 44t-73 7.5t-78 -23q37 46 95.5 64t112.5 6t94 -62.5t42 -131.5zM249 654
l-82 -57l-80 56l82 58zM329 597l-80 56l82 58l80 -57z" />
    <glyph glyph-name="aring" unicode="&#xe5;" horiz-adv-x="498" 
d="M428 316v-316h-90v67q-53 -83 -138 -83q-67 0 -113.5 45t-46.5 109q0 46 25 83.5t67 55.5q-21 -36 -21 -75q0 -96 70.5 -135.5t156.5 0.5v190v21v-1h-206l74 53h125q-11 49 -36.5 81.5t-59.5 44t-73 7.5t-78 -23q37 46 95.5 64t112.5 6t94 -62.5t42 -131.5zM249 735
q37 0 63.5 -26.5t26.5 -63.5t-26.5 -63.5t-63.5 -26.5t-63.5 26.5t-26.5 63.5t26.5 63.5t63.5 26.5zM249 696q-21 0 -36 -15t-15 -36t15 -36t36 -15t36 15t15 36t-15 36t-36 15z" />
    <glyph glyph-name="ae" unicode="&#xe6;" horiz-adv-x="780" 
d="M428 309v-82v-118q69 -66 164 -66q60 0 107 25q-70 -83 -177 -83q-109 0 -183 82q-53 -83 -139 -83q-66 0 -113 45t-47 109q0 46 25.5 83.5t66.5 56.5q-20 -35 -20 -76q0 -96 70 -135.5t157 0.5q0 1 -1 211h-206l75 52h125q-14 65 -54.5 100.5t-90 34.5t-102.5 -25
q38 48 95.5 66t115.5 1t93 -67q58 74 155 74q80 0 135 -52.5t55 -127.5q0 -28 -9 -54h1l-75 -53h-223l75 53h152q0 76 -50.5 128t-129.5 52q-46 0 -86 -20q38 -52 39 -131z" />
    <glyph glyph-name="ccedilla" unicode="&#xe7;" horiz-adv-x="494" 
d="M119 282q0 -103 70.5 -171t164.5 -68q60 0 107 25q-70 -83 -176 -83q-95 0 -167 67.5t-72 168.5q0 70 36.5 130t94.5 89q-58 -66 -58 -158zM396 413q-59 49 -129 49q-46 0 -90 -22q66 77 161 77q76 0 136 -52zM206 -191q13 -25 38.5 -40.5t55.5 -15.5q14 0 27 3
q-31 -44 -88 -44q-65 0 -95 55zM305 -56q41 0 69 -26.5t28 -66.5q0 -35 -21 -61t-54 -34q19 25 19 59q0 40 -28.5 68.5t-68.5 28.5l-23 -3l71 76v-41h8z" />
    <glyph glyph-name="egrave" unicode="&#xe8;" horiz-adv-x="542" 
d="M201 281h216v1q0 76 -44 127.5t-116 51.5q-45 0 -80 -19q54 74 144 74q73 0 124 -52.5t51 -127.5q0 -28 -9 -55l-74 -52h-286zM46 223q0 70 36.5 130t94.5 89q-58 -66 -58 -158q0 -103 70.5 -172t164.5 -69q60 0 107 25q-70 -83 -176 -83q-95 0 -167 68.5t-72 169.5z
M349 584q-73 8 -113.5 53.5t-45.5 99.5l94 55q-17 -77 9 -132.5t59 -72.5z" />
    <glyph glyph-name="eacute" unicode="&#xe9;" horiz-adv-x="542" 
d="M201 281h216v1q0 76 -44 127.5t-116 51.5q-45 0 -80 -19q54 74 144 74q73 0 124 -52.5t51 -127.5q0 -28 -9 -55l-74 -52h-286zM46 223q0 70 36.5 130t94.5 89q-58 -66 -58 -158q0 -103 70.5 -172t164.5 -69q60 0 107 25q-70 -83 -176 -83q-95 0 -167 68.5t-72 169.5z
M196 585q47 21 70 64.5t12 88.5l95 55q5 -51 -10.5 -91.5t-44 -64t-58.5 -36.5t-62 -18z" />
    <glyph glyph-name="ecircumflex" unicode="&#xea;" horiz-adv-x="542" 
d="M201 281h216v1q0 76 -44 127.5t-116 51.5q-45 0 -80 -19q54 74 144 74q73 0 124 -52.5t51 -127.5q0 -28 -9 -55l-74 -52h-286zM46 223q0 70 36.5 130t94.5 89q-58 -66 -58 -158q0 -103 70.5 -172t164.5 -69q60 0 107 25q-70 -83 -176 -83q-95 0 -167 68.5t-72 169.5z
M158 597h-48l121 113l66 48l159 -131l-66 -48l-135 114z" />
    <glyph glyph-name="edieresis" unicode="&#xeb;" horiz-adv-x="542" 
d="M201 281h216v1q0 76 -44 127.5t-116 51.5q-45 0 -80 -19q54 74 144 74q73 0 124 -52.5t51 -127.5q0 -28 -9 -55l-74 -52h-286zM46 223q0 70 36.5 130t94.5 89q-58 -66 -58 -158q0 -103 70.5 -172t164.5 -69q60 0 107 25q-70 -83 -176 -83q-95 0 -167 68.5t-72 169.5z
M283 654l-82 -57l-80 56l82 58zM363 597l-80 56l82 58l80 -57z" />
    <glyph glyph-name="igrave" unicode="&#xec;" horiz-adv-x="244" 
d="M77 500h89v-500h-89v500zM202 584q-73 8 -113.5 53.5t-45.5 99.5l94 55q-17 -77 9 -132.5t59 -72.5z" />
    <glyph glyph-name="iacute" unicode="&#xed;" horiz-adv-x="243" 
d="M77 500h89v-500h-89v500zM29 585q47 21 70 64.5t12 88.5l95 55q5 -51 -10.5 -91.5t-44 -64t-58.5 -36.5t-62 -18z" />
    <glyph glyph-name="icircumflex" unicode="&#xee;" horiz-adv-x="243" 
d="M76 500h89v-500h-89v500zM-2 597h-48l121 113l66 48l159 -131l-66 -48l-135 114z" />
    <glyph glyph-name="idieresis" unicode="&#xef;" horiz-adv-x="243" 
d="M76 500h89v-500h-89v500zM123 654l-82 -57l-80 56l82 58zM203 597l-80 56l82 58l80 -57z" />
    <glyph glyph-name="eth" unicode="&#xf0;" horiz-adv-x="584" 
d="M124 263q0 -92 56.5 -155t142.5 -63q58 0 93 19q-64 -79 -161 -79q-88 0 -148.5 64t-60.5 156q0 66 34 121.5t90 82.5q-46 -53 -46 -146zM407 586q131 -165 131 -310q0 -61 -31 -119t-91 -93q44 70 46 167q0 88 -48 178h-244l70 50h145q-35 55 -100 127h-174l64 45h67
l-118 117l79 59q106 -106 166 -175h157l-64 -46h-55z" />
    <glyph glyph-name="ntilde" unicode="&#xf1;" horiz-adv-x="582" 
d="M512 320v-320h-90v263q0 71 -23 118.5t-60 65t-82 12.5t-89 -32q43 52 102 74t112 11.5t91 -60.5t39 -132zM79 500h89v-73v-427h-89v500zM510 670l1 -1l-105 -74q-34 0 -123 29.5t-139 29.5q-33 0 -67 -17l-2 1l105 77q73 0 155.5 -29t110.5 -29q34 0 64 13z" />
    <glyph glyph-name="ograve" unicode="&#xf2;" horiz-adv-x="609" 
d="M119 282q0 -97 65 -168t157 -71q52 0 99 25q-67 -83 -171 -83q-92 0 -157.5 69t-65.5 167q0 71 36 130.5t95 88.5q-58 -66 -58 -158zM563 282q0 -68 -33.5 -126t-89.5 -88q53 66 53 153q0 98 -66 169.5t-158 71.5q-48 0 -92 -22q65 76 164 76q92 0 157 -68.5t65 -165.5z
M382 584q-73 8 -113.5 53.5t-45.5 99.5l94 55q-17 -77 9 -132.5t59 -72.5z" />
    <glyph glyph-name="oacute" unicode="&#xf3;" horiz-adv-x="609" 
d="M119 282q0 -97 65 -168t157 -71q52 0 99 25q-67 -83 -171 -83q-92 0 -157.5 69t-65.5 167q0 71 36 130.5t95 88.5q-58 -66 -58 -158zM563 282q0 -68 -33.5 -126t-89.5 -88q53 66 53 153q0 98 -66 169.5t-158 71.5q-48 0 -92 -22q65 76 164 76q92 0 157 -68.5t65 -165.5z
M219 585q47 21 70 64.5t12 88.5l95 55q5 -51 -10.5 -91.5t-44 -64t-58.5 -36.5t-62 -18z" />
    <glyph glyph-name="ocircumflex" unicode="&#xf4;" horiz-adv-x="609" 
d="M119 282q0 -97 65 -168t157 -71q52 0 99 25q-67 -83 -171 -83q-92 0 -157.5 69t-65.5 167q0 71 36 130.5t95 88.5q-58 -66 -58 -158zM563 282q0 -68 -33.5 -126t-89.5 -88q53 66 53 153q0 98 -66 169.5t-158 71.5q-48 0 -92 -22q65 76 164 76q92 0 157 -68.5t65 -165.5z
M179 597h-48l121 113l66 48l159 -131l-66 -48l-135 114z" />
    <glyph glyph-name="otilde" unicode="&#xf5;" horiz-adv-x="609" 
d="M119 282q0 -97 65 -168t157 -71q52 0 99 25q-67 -83 -171 -83q-92 0 -157.5 69t-65.5 167q0 71 36 130.5t95 88.5q-58 -66 -58 -158zM563 282q0 -68 -33.5 -126t-89.5 -88q53 66 53 153q0 98 -66 169.5t-158 71.5q-48 0 -92 -22q65 76 164 76q92 0 157 -68.5t65 -165.5z
M531 670l1 -1l-105 -74q-35 0 -124 29.5t-138 29.5q-33 0 -67 -17l-2 1l105 77q73 0 155.5 -29t110.5 -29q34 0 64 13z" />
    <glyph glyph-name="odieresis" unicode="&#xf6;" horiz-adv-x="609" 
d="M119 282q0 -97 65 -168t157 -71q52 0 99 25q-67 -83 -171 -83q-92 0 -157.5 69t-65.5 167q0 71 36 130.5t95 88.5q-58 -66 -58 -158zM563 282q0 -68 -33.5 -126t-89.5 -88q53 66 53 153q0 98 -66 169.5t-158 71.5q-48 0 -92 -22q65 76 164 76q92 0 157 -68.5t65 -165.5z
M304 654l-82 -57l-80 56l82 58zM384 597l-80 56l82 58l80 -57z" />
    <glyph glyph-name="divide" unicode="&#xf7;" 
d="M126 403h403l-76 -52h-403zM349 198l-72 -50l-49 68l72 50zM349 536l-72 -50l-49 68l72 50z" />
    <glyph glyph-name="oslash" unicode="&#xf8;" horiz-adv-x="609" 
d="M488 457q75 -70 75 -176q0 -68 -34 -126t-89 -88q53 66 53 153q0 95 -61 164l-225 -293q60 -49 134 -49q52 0 99 25q-67 -83 -171 -83q-65 0 -117 35l-50 -66h-46l68 88q-78 70 -78 179q0 71 36 130.5t95 88.5q-58 -66 -58 -158q0 -93 62 -165l225 294q-61 51 -137 51
q-48 0 -92 -22q67 77 164 77q65 0 118 -36l48 62h45z" />
    <glyph glyph-name="ugrave" unicode="&#xf9;" 
d="M160 500v-263q0 -72 23.5 -119.5t60.5 -65t81.5 -12.5t88.5 32q-43 -53 -102 -74.5t-111.5 -9.5t-90 64t-39.5 133v315h89zM414 500h90v-500h-90v72v428zM368 584q-73 8 -113.5 53.5t-45.5 99.5l94 55q-17 -77 9 -132.5t59 -72.5z" />
    <glyph glyph-name="uacute" unicode="&#xfa;" 
d="M160 500v-263q0 -72 23.5 -119.5t60.5 -65t81.5 -12.5t88.5 32q-43 -53 -102 -74.5t-111.5 -9.5t-90 64t-39.5 133v315h89zM414 500h90v-500h-90v72v428zM204 585q47 21 70 64.5t12 88.5l95 55q5 -51 -10.5 -91.5t-44 -64t-58.5 -36.5t-62 -18z" />
    <glyph glyph-name="ucircumflex" unicode="&#xfb;" 
d="M160 500v-263q0 -72 23.5 -119.5t60.5 -65t81.5 -12.5t88.5 32q-43 -53 -102 -74.5t-111.5 -9.5t-90 64t-39.5 133v315h89zM414 500h90v-500h-90v72v428zM165 597h-48l121 113l66 48l159 -131l-66 -48l-135 114z" />
    <glyph glyph-name="udieresis" unicode="&#xfc;" 
d="M160 500v-263q0 -72 23.5 -119.5t60.5 -65t81.5 -12.5t88.5 32q-43 -53 -102 -74.5t-111.5 -9.5t-90 64t-39.5 133v315h89zM414 500h90v-500h-90v72v428zM290 654l-82 -57l-80 56l82 58zM370 597l-80 56l82 58l80 -57z" />
    <glyph glyph-name="yacute" unicode="&#xfd;" horiz-adv-x="515" 
d="M440 500h55l-359 -772h-53l137 300l-200 428l79 60l175 -377zM165 585q47 21 70 64.5t12 88.5l95 55q5 -51 -10.5 -91.5t-44 -64t-58.5 -36.5t-62 -18z" />
    <glyph glyph-name="thorn" unicode="&#xfe;" horiz-adv-x="582" 
d="M174 439v-387h239l-75 -52h-164v-271h-89v1012h89v-302zM338 517q90 0 144 -66t54 -167q0 -71 -34.5 -136t-88.5 -96q50 64 50 169q0 103 -53.5 171.5t-143.5 68.5q-48 0 -92 -22q65 78 164 78z" />
    <glyph glyph-name="ydieresis" unicode="&#xff;" horiz-adv-x="515" 
d="M440 500h55l-359 -772h-53l137 300l-200 428l79 60l175 -377zM260 654l-82 -57l-80 56l82 58zM340 597l-80 56l82 58l80 -57z" />
    <glyph glyph-name="Amacron" unicode="&#x100;" horiz-adv-x="659" 
d="M555 -15l-125 293h-245l-103 -278h-57l247 662l-15 37l81 57l301 -711zM256 332h152l-107 259l-115 -311zM128 831l75 52h333l-74 -52h-334z" />
    <glyph glyph-name="amacron" unicode="&#x101;" horiz-adv-x="498" 
d="M428 316v-316h-90v67q-53 -83 -138 -83q-67 0 -113.5 45t-46.5 109q0 46 25 83.5t67 55.5q-21 -36 -21 -75q0 -96 70.5 -135.5t156.5 0.5v190v21v-1h-206l74 53h125q-11 49 -36.5 81.5t-59.5 44t-73 7.5t-78 -23q37 46 95.5 64t112.5 6t94 -62.5t42 -131.5zM45 631l75 52
h333l-74 -52h-334z" />
    <glyph glyph-name="Abreve" unicode="&#x102;" horiz-adv-x="659" 
d="M555 -15l-125 293h-245l-103 -278h-57l247 662l-15 37l81 57l301 -711zM256 332h152l-107 259l-115 -311zM526 891q-91 -97 -219 -97q-93 0 -169 53l72 53q75 -51 165 -51q81 0 151 42z" />
    <glyph glyph-name="abreve" unicode="&#x103;" horiz-adv-x="498" 
d="M428 316v-316h-90v67q-53 -83 -138 -83q-67 0 -113.5 45t-46.5 109q0 46 25 83.5t67 55.5q-21 -36 -21 -75q0 -96 70.5 -135.5t156.5 0.5v190v21v-1h-206l74 53h125q-11 49 -36.5 81.5t-59.5 44t-73 7.5t-78 -23q37 46 95.5 64t112.5 6t94 -62.5t42 -131.5zM453 691
q-91 -97 -219 -97q-93 0 -169 53l72 53q75 -51 165 -51q81 0 151 42z" />
    <glyph glyph-name="Aogonek" unicode="&#x104;" horiz-adv-x="664" 
d="M555 -15l-125 293h-245l-103 -278h-57l247 662l-15 37l81 57l301 -711zM256 332h152l-107 259l-115 -311zM505 -136q0 -46 33 -76t81 -30q13 0 25 3q-32 -47 -91 -47q-48 0 -82 34t-34 82q0 56 38.5 97t81.5 59q-52 -57 -52 -122z" />
    <glyph glyph-name="aogonek" unicode="&#x105;" horiz-adv-x="498" 
d="M428 316v-316h-90v67q-53 -83 -138 -83q-67 0 -113.5 45t-46.5 109q0 46 25 83.5t67 55.5q-21 -36 -21 -75q0 -96 70.5 -135.5t156.5 0.5v190v21v-1h-206l74 53h125q-11 49 -36.5 81.5t-59.5 44t-73 7.5t-78 -23q37 46 95.5 64t112.5 6t94 -62.5t42 -131.5zM286 -122
q0 -46 33 -76t81 -30q13 0 25 3q-32 -47 -91 -47q-48 0 -82 34t-34 82q0 56 38.5 97t81.5 59q-52 -57 -52 -122z" />
    <glyph glyph-name="Cacute" unicode="&#x106;" horiz-adv-x="690" 
d="M142 401q0 -149 95.5 -250t238.5 -101q102 0 169 39q-102 -104 -245 -104q-144 0 -247 105t-103 253q0 98 49.5 180.5t131.5 129.5q-89 -92 -89 -252zM581 640q-90 58 -181 58q-87 0 -169 -45q101 103 245 103q100 0 184 -54zM310 793q47 21 70 64.5t12 88.5l95 55
q5 -51 -10.5 -91.5t-44 -64t-58.5 -36.5t-62 -18z" />
    <glyph glyph-name="cacute" unicode="&#x107;" horiz-adv-x="494" 
d="M119 282q0 -103 70.5 -171t164.5 -68q60 0 107 25q-70 -83 -176 -83q-95 0 -167 67.5t-72 168.5q0 70 36.5 130t94.5 89q-58 -66 -58 -158zM396 413q-59 49 -129 49q-46 0 -90 -22q66 77 161 77q76 0 136 -52zM177 585q47 21 70 64.5t12 88.5l95 55q5 -51 -10.5 -91.5
t-44 -64t-58.5 -36.5t-62 -18z" />
    <glyph glyph-name="Ccaron" unicode="&#x10c;" horiz-adv-x="690" 
d="M142 401q0 -149 95.5 -250t238.5 -101q102 0 169 39q-102 -104 -245 -104q-144 0 -247 105t-103 253q0 98 49.5 180.5t131.5 129.5q-89 -92 -89 -252zM581 640q-90 58 -181 58q-87 0 -169 -45q101 103 245 103q100 0 184 -54zM533 951h48l-129 -113l-66 -48l-151 131
l66 48l127 -114z" />
    <glyph glyph-name="ccaron" unicode="&#x10d;" horiz-adv-x="494" 
d="M119 282q0 -103 70.5 -171t164.5 -68q60 0 107 25q-70 -83 -176 -83q-95 0 -167 67.5t-72 168.5q0 70 36.5 130t94.5 89q-58 -66 -58 -158zM396 413q-59 49 -129 49q-46 0 -90 -22q66 77 161 77q76 0 136 -52zM425 741h48l-129 -113l-66 -48l-151 131l66 48l127 -114z
" />
    <glyph glyph-name="Dcaron" unicode="&#x10e;" horiz-adv-x="702" 
d="M287 741q151 -1 258 -106.5t107 -251.5q0 -100 -52.5 -192t-136.5 -137q49 47 76.5 123t27.5 152q0 148 -106 253t-258 105h-14v-633h274l-77 -54h-296v672l98 69h1h98zM442 951h48l-129 -113l-66 -48l-151 131l66 48l127 -114z" />
    <glyph glyph-name="dcaron" unicode="&#x10f;" horiz-adv-x="782" 
d="M408 792h89v-792h-89v65v382h-239l74 53h165v292zM119 278q0 -109 52 -171t145 -62q52 0 92 20q-69 -81 -164 -81q-90 0 -144 65t-54 166q0 71 34.5 136.5t88.5 95.5q-50 -62 -50 -169zM621 536q14 17 22 33.5t12 29.5t1.5 29t-5 25.5t-12 25.5t-14 22.5t-17.5 23
t-16 20.5l93 63q50 -74 30.5 -151.5t-91.5 -122.5z" />
    <glyph glyph-name="Dcroat" unicode="&#x110;" horiz-adv-x="776" 
d="M361 741q151 -1 258 -106.5t107 -251.5q0 -100 -52.5 -192t-136.5 -137q49 47 79 123.5t30 151.5q0 147 -108 252.5t-261 105.5h-14v-280l224 1l-74 -53h-150v-301h274l-77 -54h-296v355h-74l74 52v265l98 69h99z" />
    <glyph glyph-name="dcroat" unicode="&#x111;" horiz-adv-x="656" 
d="M408 792h89v-125h74l-74 -53v-614h-89v447h-239l74 53h165v114h-234l74 52h160v126zM119 278q0 -109 52 -171t145 -62q52 0 92 20q-69 -81 -164 -81q-90 0 -144 65t-54 166q0 71 34.5 136.5t88.5 95.5q-50 -62 -50 -169z" />
    <glyph glyph-name="Emacron" unicode="&#x112;" horiz-adv-x="540" 
d="M193 374v-320h295l-78 -54h-314v686l77 54h315l-78 -54h-217v-257h252l-78 -55h-174zM90 831l75 52h333l-74 -52h-334z" />
    <glyph glyph-name="emacron" unicode="&#x113;" horiz-adv-x="542" 
d="M201 281h216v1q0 76 -44 127.5t-116 51.5q-45 0 -80 -19q54 74 144 74q73 0 124 -52.5t51 -127.5q0 -28 -9 -55l-74 -52h-286zM46 223q0 70 36.5 130t94.5 89q-58 -66 -58 -158q0 -103 70.5 -172t164.5 -69q60 0 107 25q-70 -83 -176 -83q-95 0 -167 68.5t-72 169.5z
M82 631l75 52h333l-74 -52h-334z" />
    <glyph glyph-name="Edotaccent" unicode="&#x116;" horiz-adv-x="524" 
d="M187 374v-320h295l-78 -54h-314v686l77 54h315l-78 -54h-217v-257h252l-78 -55h-174zM290 906l81 -57l-82 -57l-80 57z" />
    <glyph glyph-name="edotaccent" unicode="&#x117;" horiz-adv-x="542" 
d="M201 281h216v1q0 76 -44 127.5t-116 51.5q-45 0 -80 -19q54 74 144 74q73 0 124 -52.5t51 -127.5q0 -28 -9 -55l-74 -52h-286zM46 223q0 70 36.5 130t94.5 89q-58 -66 -58 -158q0 -103 70.5 -172t164.5 -69q60 0 107 25q-70 -83 -176 -83q-95 0 -167 68.5t-72 169.5z
M289 706l81 -57l-82 -57l-80 57z" />
    <glyph glyph-name="Eogonek" unicode="&#x118;" horiz-adv-x="534" 
d="M187 374v-320h295l-78 -54h-314v686l77 54h315l-78 -54h-217v-257h252l-78 -55h-174zM353 -122q0 -46 33 -76t81 -30q13 0 25 3q-32 -47 -91 -47q-48 0 -82 34t-34 82q0 56 38.5 97t81.5 59q-52 -57 -52 -122z" />
    <glyph glyph-name="eogonek" unicode="&#x119;" horiz-adv-x="542" 
d="M201 281h216v1q0 76 -44 127.5t-116 51.5q-45 0 -80 -19q54 74 144 74q73 0 124 -52.5t51 -127.5q0 -28 -9 -55l-74 -52h-286zM46 223q0 70 36.5 130t94.5 89q-58 -66 -58 -158q0 -103 70.5 -172t164.5 -69q60 0 107 25q-70 -83 -176 -83q-95 0 -167 68.5t-72 169.5z
M267 -136q0 -46 33 -76t81 -30q13 0 25 3q-32 -47 -91 -47q-48 0 -82 34t-34 82q0 56 38.5 97t81.5 59q-52 -57 -52 -122z" />
    <glyph glyph-name="Ecaron" unicode="&#x11a;" horiz-adv-x="547" 
d="M187 374v-320h295l-78 -54h-314v686l77 54h315l-78 -54h-217v-257h252l-78 -55h-174zM413 951h48l-129 -113l-66 -48l-151 131l66 48l127 -114z" />
    <glyph glyph-name="ecaron" unicode="&#x11b;" horiz-adv-x="542" 
d="M201 281h216v1q0 76 -44 127.5t-116 51.5q-45 0 -80 -19q54 74 144 74q73 0 124 -52.5t51 -127.5q0 -28 -9 -55l-74 -52h-286zM46 223q0 70 36.5 130t94.5 89q-58 -66 -58 -158q0 -103 70.5 -172t164.5 -69q60 0 107 25q-70 -83 -176 -83q-95 0 -167 68.5t-72 169.5z
M421 741h48l-129 -113l-66 -48l-151 131l66 48l127 -114z" />
    <glyph glyph-name="Gbreve" unicode="&#x11e;" horiz-adv-x="754" 
d="M136 401q0 -148 98.5 -251.5t241.5 -103.5q72 0 120 19q-3 -3 -9 -8.5t-25 -19.5t-40.5 -24.5t-54 -19t-66.5 -8.5q-145 0 -248 105t-103 253q0 98 50 180.5t132 129.5q-96 -97 -96 -252zM584 644q-84 54 -183 54q-89 0 -169 -45q100 103 244 103q99 0 185 -54zM596 384
h98v-250l-98 -69v319zM630 891q-91 -97 -219 -97q-93 0 -169 53l72 53q75 -51 165 -51q81 0 151 42z" />
    <glyph glyph-name="gbreve" unicode="&#x11f;" horiz-adv-x="528" 
d="M363 53q60 0 102 -39.5t42 -98.5q0 -48 -31 -86t-77 -51q26 35 26 86q0 59 -42 97.5t-103 38.5h-164l141 149q-6 -1 -18 -1q-66 0 -113 46.5t-47 111.5q0 52 31 93t78 57q-31 -38 -31 -99q0 -68 41.5 -113t112.5 -45q26 0 47 7l4 2l-1 -1l-142 -154h144zM394 306
q0 68 -42 113.5t-113 45.5q-27 0 -51 -9q48 59 123 59q37 0 69 -15h177l-75 -52h-41q30 -43 30 -91q0 -52 -30.5 -92.5t-78.5 -56.5q32 39 32 98zM178 -5q-26 -36 -28 -76.5t17.5 -72t54 -55.5t80.5 -27t97 14q-107 -87 -212 -58q-72 20 -103 82q-35 69 10 130q28 39 84 63z
M503 691q-91 -97 -219 -97q-93 0 -169 53l72 53q75 -51 165 -51q81 0 151 42z" />
    <glyph glyph-name="Gcommaaccent" unicode="&#x122;" horiz-adv-x="754" 
d="M360 -304q14 17 22 33.5t12 29.5t1.5 29t-5 25.5t-12 25.5t-14 22.5t-17.5 23t-16 20.5l93 63q50 -74 30.5 -151.5t-91.5 -122.5zM136 401q0 -148 98.5 -251.5t241.5 -103.5q72 0 120 19q-3 -3 -9 -8.5t-25 -19.5t-40.5 -24.5t-54 -19t-66.5 -8.5q-145 0 -248 105
t-103 253q0 98 50 180.5t132 129.5q-96 -97 -96 -252zM584 644q-84 54 -183 54q-89 0 -169 -45q100 103 244 103q99 0 185 -54zM596 384h98v-250l-98 -69v319z" />
    <glyph glyph-name="gcommaaccent" unicode="&#x123;" horiz-adv-x="528" 
d="M363 53q60 0 102 -39.5t42 -98.5q0 -48 -31 -86t-77 -51q26 35 26 86q0 59 -42 97.5t-103 38.5h-164l141 149q-6 -1 -18 -1q-66 0 -113 46.5t-47 111.5q0 52 31 93t78 57q-31 -38 -31 -99q0 -68 41.5 -113t112.5 -45q26 0 47 7l4 2l-1 -1l-142 -154h144zM394 306
q0 68 -42 113.5t-113 45.5q-27 0 -51 -9q48 59 123 59q37 0 69 -15h177l-75 -52h-41q30 -43 30 -91q0 -52 -30.5 -92.5t-78.5 -56.5q32 39 32 98zM178 -5q-26 -36 -28 -76.5t17.5 -72t54 -55.5t80.5 -27t97 14q-107 -87 -212 -58q-72 20 -103 82q-35 69 10 130q28 39 84 63z
M341 836q-14 -17 -22 -33.5t-12 -29.5t-1.5 -29t5 -25.5t12 -25.5t14 -22.5t17.5 -23t16 -20.5l-93 -63q-50 74 -30.5 151.5t91.5 122.5z" />
    <glyph glyph-name="Imacron" unicode="&#x12a;" horiz-adv-x="298" 
d="M100 740h98v-740h-98v740zM-55 831l75 52h333l-74 -52h-334z" />
    <glyph glyph-name="imacron" unicode="&#x12b;" horiz-adv-x="243" 
d="M76 500h89v-500h-89v500zM-81 631l75 52h333l-74 -52h-334z" />
    <glyph glyph-name="Iogonek" unicode="&#x12e;" horiz-adv-x="298" 
d="M100 740h98v-740h-98v740zM147 -122q0 -46 33 -76t81 -30q13 0 25 3q-32 -47 -91 -47q-48 0 -82 34t-34 82q0 56 38.5 97t81.5 59q-52 -57 -52 -122z" />
    <glyph glyph-name="iogonek" unicode="&#x12f;" horiz-adv-x="246" 
d="M126 706l81 -57l-82 -57l-80 57zM79 500h89v-500h-89v500zM117 -122q0 -46 33 -76t81 -30q13 0 25 3q-32 -47 -91 -47q-48 0 -82 34t-34 82q0 56 38.5 97t81.5 59q-52 -57 -52 -122z" />
    <glyph glyph-name="Idotaccent" unicode="&#x130;" horiz-adv-x="298" 
d="M100 740h98v-740h-98v740zM149 906l81 -57l-82 -57l-80 57z" />
    <glyph glyph-name="dotlessi" unicode="&#x131;" horiz-adv-x="259" 
d="M85 500h89v-500h-89v500z" />
    <glyph glyph-name="Kcommaaccent" unicode="&#x136;" horiz-adv-x="597" 
d="M263 -294q14 17 22 33.5t12 29.5t1.5 29t-5 25.5t-12 25.5t-14 22.5t-17.5 23t-16 20.5l93 63q50 -74 30.5 -151.5t-91.5 -122.5zM90 740h98v-364v-376h-98v740zM284 418l293 -371l-84 -65l-305 394l305 364h66z" />
    <glyph glyph-name="kcommaaccent" unicode="&#x137;" horiz-adv-x="505" 
d="M220 -294q14 17 22 33.5t12 29.5t1.5 29t-5 25.5t-12 25.5t-14 22.5t-17.5 23t-16 20.5l93 63q50 -74 30.5 -151.5t-91.5 -122.5zM85 792h89v-546v-246h-89v792zM266 280l219 -242l-77 -57l-234 265l238 253h61z" />
    <glyph glyph-name="Lacute" unicode="&#x139;" horiz-adv-x="476" 
d="M188 54h268l-78 -54h-288v740h98v-686zM135 785q47 21 70 64.5t12 88.5l95 55q5 -51 -10.5 -91.5t-44 -64t-58.5 -36.5t-62 -18z" />
    <glyph glyph-name="lacute" unicode="&#x13a;" horiz-adv-x="239" 
d="M75 0v793h89v-793h-89zM24 827q47 21 70 64.5t12 88.5l95 55q5 -51 -10.5 -91.5t-44 -64t-58.5 -36.5t-62 -18z" />
    <glyph glyph-name="Lcommaaccent" unicode="&#x13b;" horiz-adv-x="476" 
d="M210 -294q14 17 22 33.5t12 29.5t1.5 29t-5 25.5t-12 25.5t-14 22.5t-17.5 23t-16 20.5l93 63q50 -74 30.5 -151.5t-91.5 -122.5zM188 54h268l-78 -54h-288v740h98v-686z" />
    <glyph glyph-name="lcommaaccent" unicode="&#x13c;" horiz-adv-x="239" 
d="M83 -294q14 17 22 33.5t12 29.5t1.5 29t-5 25.5t-12 25.5t-14 22.5t-17.5 23t-16 20.5l93 63q50 -74 30.5 -151.5t-91.5 -122.5zM75 0v793h89v-793h-89z" />
    <glyph glyph-name="Lcaron" unicode="&#x13d;" horiz-adv-x="476" 
d="M188 54h268l-78 -54h-288v740h98v-686zM337 536q14 17 22 33.5t12 29.5t1.5 29t-5 25.5t-12 25.5t-14 22.5t-17.5 23t-16 20.5l93 63q50 -74 30.5 -151.5t-91.5 -122.5z" />
    <glyph glyph-name="lcaron" unicode="&#x13e;" horiz-adv-x="459" 
d="M85 0v793h89v-793h-89zM318 537q14 17 22 33.5t12 29.5t1.5 29t-5 25.5t-12 25.5t-14 22.5t-17.5 23t-16 20.5l93 63q50 -74 30.5 -151.5t-91.5 -122.5z" />
    <glyph glyph-name="Lslash" unicode="&#x141;" horiz-adv-x="552" 
d="M90 277v46l76 44v373h98v-316l110 64v-47l-110 -64v-323h268l-78 -54h-288v321z" />
    <glyph glyph-name="lslash" unicode="&#x142;" horiz-adv-x="257" 
d="M2 287v46l82 52v408h89v-351l83 54v-47l-83 -53v-396h-89v339z" />
    <glyph glyph-name="Nacute" unicode="&#x143;" horiz-adv-x="794" 
d="M646 740h58v-720l-55 -38l-467 594v-576h-57v648l-35 45l89 66l467 -588v569zM336 785q47 21 70 64.5t12 88.5l95 55q5 -51 -10.5 -91.5t-44 -64t-58.5 -36.5t-62 -18z" />
    <glyph glyph-name="nacute" unicode="&#x144;" horiz-adv-x="578" 
d="M508 320v-320h-90v263q0 71 -23 118.5t-60 65t-82 12.5t-89 -32q43 52 102 74t112 11.5t91 -60.5t39 -132zM75 500h89v-73v-427h-89v500zM194 585q47 21 70 64.5t12 88.5l95 55q5 -51 -10.5 -91.5t-44 -64t-58.5 -36.5t-62 -18z" />
    <glyph glyph-name="Ncommaaccent" unicode="&#x145;" horiz-adv-x="794" 
d="M361 -294q14 17 22 33.5t12 29.5t1.5 29t-5 25.5t-12 25.5t-14 22.5t-17.5 23t-16 20.5l93 63q50 -74 30.5 -151.5t-91.5 -122.5zM646 740h58v-720l-55 -38l-467 594v-576h-57v648l-35 45l89 66l467 -588v569z" />
    <glyph glyph-name="ncommaaccent" unicode="&#x146;" horiz-adv-x="578" 
d="M243 -294q14 17 22 33.5t12 29.5t1.5 29t-5 25.5t-12 25.5t-14 22.5t-17.5 23t-16 20.5l93 63q50 -74 30.5 -151.5t-91.5 -122.5zM508 320v-320h-90v263q0 71 -23 118.5t-60 65t-82 12.5t-89 -32q43 52 102 74t112 11.5t91 -60.5t39 -132zM75 500h89v-73v-427h-89v500z
" />
    <glyph glyph-name="Ncaron" unicode="&#x147;" horiz-adv-x="794" 
d="M646 740h58v-720l-55 -38l-467 594v-576h-57v648l-35 45l89 66l467 -588v569zM547 951h48l-129 -113l-66 -48l-151 131l66 48l127 -114z" />
    <glyph glyph-name="ncaron" unicode="&#x148;" horiz-adv-x="578" 
d="M508 320v-320h-90v263q0 71 -23 118.5t-60 65t-82 12.5t-89 -32q43 52 102 74t112 11.5t91 -60.5t39 -132zM75 500h89v-73v-427h-89v500zM414 741h48l-129 -113l-66 -48l-151 131l66 48l127 -114z" />
    <glyph glyph-name="Omacron" unicode="&#x14c;" horiz-adv-x="891" 
d="M484 757q145 0 251 -105t106 -252q0 -98 -52 -181.5t-136 -130.5q99 101 99 254q0 148 -100 252t-244 104q-94 0 -170 -44q101 103 246 103zM138 400q0 -148 100.5 -251.5t245.5 -103.5q95 0 169 43q-101 -103 -245 -103q-146 0 -252 105t-106 252q0 97 52.5 181
t135.5 131q-100 -102 -100 -254zM241 831l75 52h333l-74 -52h-334z" />
    <glyph glyph-name="omacron" unicode="&#x14d;" horiz-adv-x="609" 
d="M119 282q0 -97 65 -168t157 -71q52 0 99 25q-67 -83 -171 -83q-92 0 -157.5 69t-65.5 167q0 71 36 130.5t95 88.5q-58 -66 -58 -158zM563 282q0 -68 -33.5 -126t-89.5 -88q53 66 53 153q0 98 -66 169.5t-158 71.5q-48 0 -92 -22q65 76 164 76q92 0 157 -68.5t65 -165.5z
M100 631l75 52h333l-74 -52h-334z" />
    <glyph glyph-name="Ohungarumlaut" unicode="&#x150;" horiz-adv-x="891" 
d="M484 757q145 0 251 -105t106 -252q0 -98 -52 -181.5t-136 -130.5q99 101 99 254q0 148 -100 252t-244 104q-94 0 -170 -44q101 103 246 103zM138 400q0 -148 100.5 -251.5t245.5 -103.5q95 0 169 43q-101 -103 -245 -103q-146 0 -252 105t-106 252q0 97 52.5 181
t135.5 131q-100 -102 -100 -254zM269 785q47 21 70 64.5t12 88.5l95 55q5 -51 -10.5 -91.5t-44 -64t-58.5 -36.5t-62 -18zM431 785q47 21 70 64.5t12 88.5l95 55q5 -51 -10.5 -91.5t-44 -64t-58.5 -36.5t-62 -18z" />
    <glyph glyph-name="ohungarumlaut" unicode="&#x151;" horiz-adv-x="609" 
d="M119 282q0 -97 65 -168t157 -71q52 0 99 25q-67 -83 -171 -83q-92 0 -157.5 69t-65.5 167q0 71 36 130.5t95 88.5q-58 -66 -58 -158zM563 282q0 -68 -33.5 -126t-89.5 -88q53 66 53 153q0 98 -66 169.5t-158 71.5q-48 0 -92 -22q65 76 164 76q92 0 157 -68.5t65 -165.5z
M128 585q47 21 70 64.5t12 88.5l95 55q5 -51 -10.5 -91.5t-44 -64t-58.5 -36.5t-62 -18zM290 585q47 21 70 64.5t12 88.5l95 55q5 -51 -10.5 -91.5t-44 -64t-58.5 -36.5t-62 -18z" />
    <glyph glyph-name="OE" unicode="&#x152;" horiz-adv-x="1206" 
d="M50 342q0 98 52.5 182t135.5 131q-101 -103 -101 -254q0 -148 101.5 -252.5t245.5 -104.5q91 0 170 45q-104 -104 -246 -104q-146 0 -252 105t-106 252zM636 361q14 -136 112 -228t232 -92q91 0 169 45q-101 -103 -245 -103t-247 104.5t-103 252.5v21h-1l1 1
q9 134 102 230q-101 108 -248 108q-90 0 -170 -45q103 103 246 103q146 0 251 -105q-94 -95 -100 -238h439l-78 -54h-360zM1087 645q-83 53 -183 53q-91 0 -169 -45q102 104 245 104q101 0 184 -55z" />
    <glyph glyph-name="oe" unicode="&#x153;" horiz-adv-x="870" 
d="M46 222q0 71 36 130.5t95 89.5q-58 -68 -58 -158q0 -98 63 -169t154 -71q49 0 95 26q-66 -84 -167 -84q-92 0 -155 69t-63 167zM341 518q99 0 164 -76v-1q-58 -66 -58 -157q0 -103 70.5 -171.5t164.5 -68.5q61 0 107 26q-71 -84 -176 -84q-95 0 -167 67.5t-72 168.5
q0 91 59 163q-65 78 -164 78q-50 0 -92 -21q66 76 164 76zM529 281h216q0 76 -44 128t-116 52q-42 0 -80 -19q55 74 144 74q73 0 124 -52.5t51 -127.5q0 -30 -9 -55l-74 -52h-286z" />
    <glyph glyph-name="Racute" unicode="&#x154;" horiz-adv-x="596" 
d="M489 -15l-204 356h-97v-341h-98v687l78 54q104 -1 142 -1q84 0 140.5 -49.5t56.5 -124.5q0 -60 -40 -106.5t-99 -64.5q46 49 46 120q0 75 -48 123t-132 48h-46v-291h180l208 -355zM204 785q47 21 70 64.5t12 88.5l95 55q5 -51 -10.5 -91.5t-44 -64t-58.5 -36.5t-62 -18z
" />
    <glyph glyph-name="racute" unicode="&#x155;" horiz-adv-x="333" 
d="M20 500h89v-58v-442h-89v500zM109 442q34 62 98.5 71t105.5 -46l-77 -56q-19 26 -55 36t-72 -5zM36 585q47 21 70 64.5t12 88.5l95 55q5 -51 -10.5 -91.5t-44 -64t-58.5 -36.5t-62 -18z" />
    <glyph glyph-name="Rcommaaccent" unicode="&#x156;" horiz-adv-x="596" 
d="M244 -294q14 17 22 33.5t12 29.5t1.5 29t-5 25.5t-12 25.5t-14 22.5t-17.5 23t-16 20.5l93 63q50 -74 30.5 -151.5t-91.5 -122.5zM489 -15l-204 356h-97v-341h-98v687l78 54q104 -1 142 -1q84 0 140.5 -49.5t56.5 -124.5q0 -60 -40 -106.5t-99 -64.5q46 49 46 120
q0 75 -48 123t-132 48h-46v-291h180l208 -355z" />
    <glyph glyph-name="rcommaaccent" unicode="&#x157;" horiz-adv-x="333" 
d="M117 -294q14 17 22 33.5t12 29.5t1.5 29t-5 25.5t-12 25.5t-14 22.5t-17.5 23t-16 20.5l93 63q50 -74 30.5 -151.5t-91.5 -122.5zM20 500h89v-58v-442h-89v500zM109 442q34 62 98.5 71t105.5 -46l-77 -56q-19 26 -55 36t-72 -5z" />
    <glyph glyph-name="Rcaron" unicode="&#x158;" horiz-adv-x="596" 
d="M489 -15l-204 356h-97v-341h-98v687l78 54q104 -1 142 -1q84 0 140.5 -49.5t56.5 -124.5q0 -60 -40 -106.5t-99 -64.5q46 49 46 120q0 75 -48 123t-132 48h-46v-291h180l208 -355zM414 951h48l-129 -113l-66 -48l-151 131l66 48l127 -114z" />
    <glyph glyph-name="rcaron" unicode="&#x159;" horiz-adv-x="373" 
d="M75 500h89v-58v-442h-89v500zM164 442q34 62 98.5 71t105.5 -46l-77 -56q-19 26 -55 36t-72 -5zM318 741h48l-129 -113l-66 -48l-151 131l66 48l127 -114z" />
    <glyph glyph-name="Sacute" unicode="&#x15a;" horiz-adv-x="529" 
d="M152 611q0 -34 23.5 -68.5t58.5 -62t76.5 -60t76.5 -62t58.5 -69t23.5 -80.5q0 -58 -33 -103.5t-87 -59.5q39 47 39 98q0 44 -32 87t-78 78.5t-92 70.5t-79 77.5t-35 85.5q-2 52 28.5 95t80.5 55q-29 -41 -29 -82zM339 637q-47 60 -122 60q-14 0 -36 -4q44 64 126 64
q74 0 120 -56zM142 135q23 -41 67 -68t93 -27q24 0 47 6q-50 -62 -139 -62q-49 0 -91.5 23.5t-65.5 62.5zM175 785q47 21 70 64.5t12 88.5l95 55q5 -51 -10.5 -91.5t-44 -64t-58.5 -36.5t-62 -18z" />
    <glyph glyph-name="sacute" unicode="&#x15b;" horiz-adv-x="392" 
d="M118 409q0 -30 23.5 -54t57.5 -42.5t67.5 -38.5t57 -50t23.5 -68q0 -42 -25 -75t-65 -43q21 28 21 65q0 34 -23.5 61.5t-57 46.5t-66.5 38.5t-56.5 48t-23.5 63.5q0 39 23 67.5t61 36.5q-17 -26 -17 -56zM258 414q-33 53 -98 53q-9 0 -25 -2q33 51 97 51q65 0 98 -53z
M113 101q15 -29 47 -48t67 -19q17 0 30 4q-36 -52 -104 -52q-35 0 -65.5 18.5t-46.5 47.5zM103 585q47 21 70 64.5t12 88.5l95 55q5 -51 -10.5 -91.5t-44 -64t-58.5 -36.5t-62 -18z" />
    <glyph glyph-name="Scedilla" unicode="&#x15e;" horiz-adv-x="529" 
d="M152 611q0 -34 23.5 -68.5t58.5 -62t76.5 -60t76.5 -62t58.5 -69t23.5 -80.5q0 -58 -33 -103.5t-87 -59.5q39 47 39 98q0 44 -32 87t-78 78.5t-92 70.5t-79 77.5t-35 85.5q-2 52 28.5 95t80.5 55q-29 -41 -29 -82zM339 637q-47 60 -122 60q-14 0 -36 -4q44 64 126 64
q74 0 120 -56zM142 135q23 -41 67 -68t93 -27q24 0 47 6q-50 -62 -139 -62q-49 0 -91.5 23.5t-65.5 62.5zM164 -186q13 -25 38.5 -40.5t55.5 -15.5q14 0 27 3q-31 -44 -88 -44q-65 0 -95 55zM263 -51q41 0 69 -26.5t28 -66.5q0 -35 -21 -61t-54 -34q19 25 19 59
q0 40 -28.5 68.5t-68.5 28.5l-23 -3l71 76v-41h8z" />
    <glyph glyph-name="scedilla" unicode="&#x15f;" horiz-adv-x="392" 
d="M118 409q0 -30 23.5 -54t57.5 -42.5t67.5 -38.5t57 -50t23.5 -68q0 -42 -25 -75t-65 -43q21 28 21 65q0 34 -23.5 61.5t-57 46.5t-66.5 38.5t-56.5 48t-23.5 63.5q0 39 23 67.5t61 36.5q-17 -26 -17 -56zM258 414q-33 53 -98 53q-9 0 -25 -2q33 51 97 51q65 0 98 -53z
M113 101q15 -29 47 -48t67 -19q17 0 30 4q-36 -52 -104 -52q-35 0 -65.5 18.5t-46.5 47.5zM118 -177q13 -25 38.5 -40.5t55.5 -15.5q14 0 27 3q-31 -44 -88 -44q-65 0 -95 55zM217 -42q41 0 69 -26.5t28 -66.5q0 -35 -21 -61t-54 -34q19 25 19 59q0 40 -28.5 68.5
t-68.5 28.5l-23 -3l71 76v-41h8z" />
    <glyph glyph-name="Scaron" unicode="&#x160;" horiz-adv-x="529" 
d="M152 611q0 -34 23.5 -68.5t58.5 -62t76.5 -60t76.5 -62t58.5 -69t23.5 -80.5q0 -58 -33 -103.5t-87 -59.5q39 47 39 98q0 44 -32 87t-78 78.5t-92 70.5t-79 77.5t-35 85.5q-2 52 28.5 95t80.5 55q-29 -41 -29 -82zM339 637q-47 60 -122 60q-14 0 -36 -4q44 64 126 64
q74 0 120 -56zM142 135q23 -41 67 -68t93 -27q24 0 47 6q-50 -62 -139 -62q-49 0 -91.5 23.5t-65.5 62.5zM403 951h48l-129 -113l-66 -48l-151 131l66 48l127 -114z" />
    <glyph glyph-name="scaron" unicode="&#x161;" horiz-adv-x="432" 
d="M127 409q0 -30 23.5 -54t57.5 -42.5t67.5 -38.5t57 -50t23.5 -68q0 -42 -25 -75t-65 -43q21 28 21 65q0 34 -23.5 61.5t-56.5 46.5t-66.5 38.5t-57 48t-23.5 63.5q0 39 23 67.5t61 36.5q-17 -26 -17 -56zM267 414q-33 53 -98 53q-9 0 -25 -2q33 51 97 51q65 0 98 -53z
M122 101q15 -29 47 -48t67 -19q17 0 30 4q-36 -52 -104 -52q-35 0 -65.5 18.5t-46.5 47.5zM339 741h48l-129 -113l-66 -48l-151 131l66 48l127 -114z" />
    <glyph glyph-name="Tcommaaccent" unicode="&#x162;" horiz-adv-x="591" 
d="M253 -304q14 17 22 33.5t12 29.5t1.5 29t-5 25.5t-12 25.5t-14 22.5t-17.5 23t-16 20.5l93 63q50 -74 30.5 -151.5t-91.5 -122.5zM580 740l-78 -54h-158v-686h-99v686h-235l78 54h492z" />
    <glyph glyph-name="tcommaaccent" unicode="&#x163;" horiz-adv-x="349" 
d="M146 -304q14 17 22 33.5t12 29.5t1.5 29t-5 25.5t-12 25.5t-14 22.5t-17.5 23t-16 20.5l93 63q50 -74 30.5 -151.5t-91.5 -122.5zM175 161q0 -63 29.5 -96t83.5 -33q16 0 29 3q-37 -50 -102 -50q-53 0 -91 38t-38 91v3v330h-76l165 116v-63h169l-74 -53h-95v-286z" />
    <glyph glyph-name="Tcaron" unicode="&#x164;" horiz-adv-x="591" 
d="M580 740l-78 -54h-158v-686h-99v686h-235l78 54h492zM424 951h48l-129 -113l-66 -48l-151 131l66 48l127 -114z" />
    <glyph glyph-name="tcaron" unicode="&#x165;" horiz-adv-x="516" 
d="M175 161q0 -63 29.5 -96t83.5 -33q16 0 29 3q-37 -50 -102 -50q-53 0 -91 38t-38 91v3v330h-76l165 116v-63h169l-74 -53h-95v-286zM378 486q14 17 22 33.5t12 29.5t1.5 29t-5 25.5t-12 25.5t-14 22.5t-17.5 23t-16 20.5l93 63q50 -74 30.5 -151.5t-91.5 -122.5z" />
    <glyph glyph-name="Umacron" unicode="&#x16a;" horiz-adv-x="764" 
d="M188 329q0 -142 77.5 -210t202.5 -68q55 0 108 22q-84 -89 -205 -89q-116 0 -198.5 82t-82.5 198v477h98v-412zM576 741h98v-600l-98 -68v668zM178 831l75 52h333l-74 -52h-334z" />
    <glyph glyph-name="umacron" unicode="&#x16b;" 
d="M160 500v-263q0 -72 23.5 -119.5t60.5 -65t81.5 -12.5t88.5 32q-43 -53 -102 -74.5t-111.5 -9.5t-90 64t-39.5 133v315h89zM414 500h90v-500h-90v72v428zM86 631l75 52h333l-74 -52h-334z" />
    <glyph glyph-name="Uring" unicode="&#x16e;" horiz-adv-x="764" 
d="M188 329q0 -142 77.5 -210t202.5 -68q55 0 108 22q-84 -89 -205 -89q-116 0 -198.5 82t-82.5 198v477h98v-412zM576 741h98v-600l-98 -68v668zM382 935q37 0 63.5 -26.5t26.5 -63.5t-26.5 -63.5t-63.5 -26.5q-38 0 -64 26.5t-26 63.5t26.5 63.5t63.5 26.5zM382 896
q-21 0 -36 -15t-15 -36t15 -36t36 -15t36 15t15 36t-15 36t-36 15z" />
    <glyph glyph-name="uring" unicode="&#x16f;" 
d="M160 500v-263q0 -72 23.5 -119.5t60.5 -65t81.5 -12.5t88.5 32q-43 -53 -102 -74.5t-111.5 -9.5t-90 64t-39.5 133v315h89zM414 500h90v-500h-90v72v428zM290 735q37 0 63.5 -26.5t26.5 -63.5t-26.5 -63.5t-63.5 -26.5q-38 0 -64 26.5t-26 63.5t26.5 63.5t63.5 26.5z
M290 696q-21 0 -36 -15t-15 -36t15 -36t36 -15t36 15t15 36t-15 36t-36 15z" />
    <glyph glyph-name="Uhungarumlaut" unicode="&#x170;" horiz-adv-x="764" 
d="M188 329q0 -142 77.5 -210t202.5 -68q55 0 108 22q-84 -89 -205 -89q-116 0 -198.5 82t-82.5 198v477h98v-412zM576 741h98v-600l-98 -68v668zM206 785q47 21 70 64.5t12 88.5l95 55q5 -51 -10.5 -91.5t-44 -64t-58.5 -36.5t-62 -18zM368 785q47 21 70 64.5t12 88.5
l95 55q5 -51 -10.5 -91.5t-44 -64t-58.5 -36.5t-62 -18z" />
    <glyph glyph-name="uhungarumlaut" unicode="&#x171;" 
d="M160 500v-263q0 -72 23.5 -119.5t60.5 -65t81.5 -12.5t88.5 32q-43 -53 -102 -74.5t-111.5 -9.5t-90 64t-39.5 133v315h89zM414 500h90v-500h-90v72v428zM114 585q47 21 70 64.5t12 88.5l95 55q5 -51 -10.5 -91.5t-44 -64t-58.5 -36.5t-62 -18zM276 585q47 21 70 64.5
t12 88.5l95 55q5 -51 -10.5 -91.5t-44 -64t-58.5 -36.5t-62 -18z" />
    <glyph glyph-name="Uogonek" unicode="&#x172;" horiz-adv-x="764" 
d="M188 329q0 -142 77.5 -210t202.5 -68q55 0 108 22q-84 -89 -205 -89q-116 0 -198.5 82t-82.5 198v477h98v-412zM576 741h98v-600l-98 -68v668zM355 -136q0 -46 33 -76t81 -30q13 0 25 3q-32 -47 -91 -47q-48 0 -82 34t-34 82q0 56 38.5 97t81.5 59q-52 -57 -52 -122z" />
    <glyph glyph-name="uogonek" unicode="&#x173;" 
d="M160 500v-263q0 -72 23.5 -119.5t60.5 -65t81.5 -12.5t88.5 32q-43 -53 -102 -74.5t-111.5 -9.5t-90 64t-39.5 133v315h89zM414 500h90v-500h-90v72v428zM363 -122q0 -46 33 -76t81 -30q13 0 25 3q-32 -47 -91 -47q-48 0 -82 34t-34 82q0 56 38.5 97t81.5 59
q-52 -57 -52 -122z" />
    <glyph glyph-name="Ydieresis" unicode="&#x178;" horiz-adv-x="556" 
d="M545 740l-220 -351v-389h-100v342l-215 352l92 64l197 -321l186 303h60zM277 854l-82 -57l-80 56l82 58zM357 797l-80 56l82 58l80 -57z" />
    <glyph glyph-name="Zacute" unicode="&#x179;" horiz-adv-x="608" 
d="M155 93h429l-121 -93h-436l407 649h-370l128 89h370zM249 785q47 21 70 64.5t12 88.5l95 55q5 -51 -10.5 -91.5t-44 -64t-58.5 -36.5t-62 -18z" />
    <glyph glyph-name="zacute" unicode="&#x17a;" horiz-adv-x="479" 
d="M144 83h319l-109 -83h-332l310 418h-299l114 82h303zM164 585q47 21 70 64.5t12 88.5l95 55q5 -51 -10.5 -91.5t-44 -64t-58.5 -36.5t-62 -18z" />
    <glyph glyph-name="Zdotaccent" unicode="&#x17b;" horiz-adv-x="608" 
d="M155 93h429l-121 -93h-436l407 649h-370l128 89h370zM314 906l81 -57l-82 -57l-80 57z" />
    <glyph glyph-name="zdotaccent" unicode="&#x17c;" horiz-adv-x="479" 
d="M144 83h319l-109 -83h-332l310 418h-299l114 82h303zM249 706l81 -57l-82 -57l-80 57z" />
    <glyph glyph-name="Zcaron" unicode="&#x17d;" horiz-adv-x="608" 
d="M155 93h429l-121 -93h-436l407 649h-370l128 89h370zM466 951h48l-129 -113l-66 -48l-151 131l66 48l127 -114z" />
    <glyph glyph-name="zcaron" unicode="&#x17e;" horiz-adv-x="479" 
d="M144 83h319l-109 -83h-332l310 418h-299l114 82h303zM387 741h48l-129 -113l-66 -48l-151 131l66 48l127 -114z" />
    <glyph glyph-name="Scommaaccent" unicode="&#x218;" horiz-adv-x="529" 
d="M229 -304q14 17 22 33.5t12 29.5t1.5 29t-5 25.5t-12 25.5t-14 22.5t-17.5 23t-16 20.5l93 63q50 -74 30.5 -151.5t-91.5 -122.5zM152 611q0 -34 23.5 -68.5t58.5 -62t76.5 -60t76.5 -62t58.5 -69t23.5 -80.5q0 -58 -33 -103.5t-87 -59.5q39 47 39 98q0 44 -32 87
t-78 78.5t-92 70.5t-79 77.5t-35 85.5q-2 52 28.5 95t80.5 55q-29 -41 -29 -82zM339 637q-47 60 -122 60q-14 0 -36 -4q44 64 126 64q74 0 120 -56zM142 135q23 -41 67 -68t93 -27q24 0 47 6q-50 -62 -139 -62q-49 0 -91.5 23.5t-65.5 62.5z" />
    <glyph glyph-name="scommaaccent" unicode="&#x219;" horiz-adv-x="392" 
d="M150 -304q14 17 22 33.5t12 29.5t1.5 29t-5 25.5t-12 25.5t-14 22.5t-17.5 23t-16 20.5l93 63q50 -74 30.5 -151.5t-91.5 -122.5zM118 409q0 -30 23.5 -54t57.5 -42.5t67.5 -38.5t57 -50t23.5 -68q0 -42 -25 -75t-65 -43q21 28 21 65q0 34 -23.5 61.5t-57 46.5
t-66.5 38.5t-56.5 48t-23.5 63.5q0 39 23 67.5t61 36.5q-17 -26 -17 -56zM258 414q-33 53 -98 53q-9 0 -25 -2q33 51 97 51q65 0 98 -53zM113 101q15 -29 47 -48t67 -19q17 0 30 4q-36 -52 -104 -52q-35 0 -65.5 18.5t-46.5 47.5z" />
    <glyph glyph-name="circumflex" unicode="&#x2c6;" horiz-adv-x="359" 
d="M54 597h-48l121 113l66 48l159 -131l-66 -48l-135 114z" />
    <glyph glyph-name="caron" unicode="&#x2c7;" horiz-adv-x="359" 
d="M304 741h48l-129 -113l-66 -48l-151 131l66 48l127 -114z" />
    <glyph glyph-name="breve" unicode="&#x2d8;" horiz-adv-x="401" 
d="M394 691q-91 -97 -219 -97q-93 0 -169 53l72 53q75 -51 165 -51q81 0 151 42z" />
    <glyph glyph-name="dotaccent" unicode="&#x2d9;" horiz-adv-x="175" 
d="M87 706l81 -57l-82 -57l-80 57z" />
    <glyph glyph-name="ring" unicode="&#x2da;" horiz-adv-x="193" 
d="M96 735q37 0 63.5 -26.5t26.5 -63.5t-26.5 -63.5t-63.5 -26.5q-38 0 -64 26.5t-26 63.5t26.5 63.5t63.5 26.5zM96 696q-21 0 -36 -15t-15 -36t15 -36t36 -15t36 15t15 36t-15 36t-36 15z" />
    <glyph glyph-name="ogonek" unicode="&#x2db;" horiz-adv-x="220" 
d="M74 -136q0 -46 33 -76t81 -30q13 0 25 3q-32 -47 -91 -47q-48 0 -82 34t-34 82q0 56 38.5 97t81.5 59q-52 -57 -52 -122z" />
    <glyph glyph-name="tilde" unicode="&#x2dc;" horiz-adv-x="449" 
d="M441 670l1 -1l-105 -74q-35 0 -124 29.5t-138 29.5q-33 0 -67 -17l-2 1l105 77q73 0 155.5 -29t110.5 -29q34 0 64 13z" />
    <glyph glyph-name="hungarumlaut" unicode="&#x2dd;" horiz-adv-x="354" 
d="M6 585q47 21 70 64.5t12 88.5l95 55q5 -51 -10.5 -91.5t-44 -64t-58.5 -36.5t-62 -18zM168 585q47 21 70 64.5t12 88.5l95 55q5 -51 -10.5 -91.5t-44 -64t-58.5 -36.5t-62 -18z" />
    <glyph glyph-name="uni0401" unicode="&#x401;" horiz-adv-x="524" 
d="M287 848l-82 -57l-81 57l82 57zM367 791l-80 57l81 57l81 -57zM187 374v-320h295l-78 -54h-314v686l77 54h315l-78 -54h-217v-257h252l-78 -55h-174z" />
    <glyph glyph-name="uni0402" unicode="&#x402;" horiz-adv-x="758" 
d="M580 740l-78 -54h-158v-686h-99v686h-235l78 54h492zM345 440q38 47 96 64.5t112 4t93.5 -66t41.5 -133.5v-202l-89 -64v214q0 72 -23 120.5t-60 68t-81.5 18.5t-89.5 -24zM458 92q41 -53 109 -53q12 0 32 4q-40 -58 -113 -58q-66 0 -107 51z" />
    <glyph glyph-name="uni0403" unicode="&#x403;" horiz-adv-x="495" 
d="M198 793q47 21 70 64.5t12 88.5l95 55q5 -51 -10.5 -91.5t-44 -64t-58.5 -36.5t-62 -18zM484 741l-78 -55h-217v-686h-99v686l79 55h315z" />
    <glyph glyph-name="uni0404" unicode="&#x404;" horiz-adv-x="705" 
d="M141 363q14 -136 108.5 -226t228.5 -90q96 0 170 42q-104 -104 -246 -104q-145 0 -248.5 104.5t-103.5 252.5q0 94 48 176t134 135q-87 -89 -92 -236h432l-78 -54h-353zM586 642q-85 56 -184 56q-91 0 -170 -45q102 104 246 104q100 0 185 -55z" />
    <glyph glyph-name="uni0405" unicode="&#x405;" horiz-adv-x="529" 
d="M152 613q0 -41 32.5 -81t79 -75t93.5 -71t79.5 -81.5t32.5 -94.5q0 -58 -33 -104t-87 -60q39 47 39 98q0 44 -32 87t-78 78.5t-92 70.5t-79 77.5t-35 85.5q-2 52 28.5 95t80.5 55q-29 -41 -29 -80zM339 637q-47 60 -122 60q-14 0 -36 -4q44 64 126 64q74 0 120 -56z
M142 135q23 -41 67 -68t93 -27q24 0 47 6q-50 -62 -139 -62q-49 0 -91.5 23.5t-65.5 62.5z" />
    <glyph glyph-name="uni0406" unicode="&#x406;" horiz-adv-x="278" 
d="M90 740h98v-740h-98v740z" />
    <glyph glyph-name="uni0407" unicode="&#x407;" horiz-adv-x="283" 
d="M91 740h99v-740h-99v740zM60 905l81 -57l-82 -57l-80 57zM222 905l81 -57l-82 -57l-80 57z" />
    <glyph glyph-name="uni0408" unicode="&#x408;" horiz-adv-x="466" 
d="M278 740h98v-613l-98 -69v682zM90 125q53 -76 139 -76q23 0 49 8q-54 -72 -137 -72q-87 0 -141 77z" />
    <glyph glyph-name="uni0409" unicode="&#x409;" horiz-adv-x="937" 
d="M697 434q87 0 143.5 -55.5t56.5 -138.5q0 -61 -38.5 -112t-95.5 -74q37 49 41.5 107t-17.5 106t-70 80t-109 32h-116l78 55h127zM365 756l235 -702h163l-78 -54h-180l-189 583l-233 -583h-58l266 657l-13 42z" />
    <glyph glyph-name="uni040A" unicode="&#x40a;" horiz-adv-x="1045" 
d="M800 433q88 0 146.5 -55.5t58.5 -138.5q0 -60 -38.5 -110.5t-95.5 -73.5q32 50 37.5 107.5t-13 105t-64.5 79t-109 31.5h-80l78 55h80zM90 0v741h99v-741h-99zM642 741v-686h229l-78 -55h-250v376h-354l78 54h276v311h99z" />
    <glyph glyph-name="uni040B" unicode="&#x40b;" horiz-adv-x="763" 
d="M580 740l-78 -54h-158v-686h-99v686h-235l78 54h492zM693 309v-309h-97v257q0 72 -22.5 120.5t-59 68t-81 18.5t-89.5 -24q38 47 97 64.5t114 4t95.5 -66t42.5 -133.5z" />
    <glyph glyph-name="uni040C" unicode="&#x40c;" horiz-adv-x="577" 
d="M198 792q47 21 70 64.5t12 88.5l95 55q5 -51 -10.5 -91.5t-44 -64t-58.5 -36.5t-62 -18zM70 740h98v-364v-376h-98v740zM266 415l291 -369l-84 -65l-305 395l305 364h66z" />
    <glyph glyph-name="uni040E" unicode="&#x40e;" horiz-adv-x="606" 
d="M557 895q-101 -103 -247 -103q-104 0 -191 56l82 57q85 -55 186 -55q90 0 170 45zM539 740h58l-414 -740h-61l158 281l-260 416l94 64l230 -366z" />
    <glyph glyph-name="uni040F" unicode="&#x40f;" horiz-adv-x="747" 
d="M579 0h-160v-170h-98v170h-231v740h100v-686h367v686h100v-686z" />
    <glyph glyph-name="uni0410" unicode="&#x410;" horiz-adv-x="659" 
d="M555 -19l-125 297h-245l-103 -278h-57l247 662l-15 37l81 57l301 -715zM256 332h152l-107 259l-113 -306z" />
    <glyph glyph-name="uni0411" unicode="&#x411;" horiz-adv-x="566" 
d="M317 433q89 0 149 -56t60 -138q0 -61 -38.5 -111t-95.5 -73q35 48 41.5 106t-13 105.5t-66 79.5t-109.5 32h-58v-323h205l-78 -55h-224v686l77 54h316l-78 -55h-218v-306l73 54h57z" />
    <glyph glyph-name="uni0412" unicode="&#x412;" horiz-adv-x="577" 
d="M352 429q76 -11 125.5 -64.5t49.5 -126.5q0 -60 -39 -110t-96 -74q37 49 44.5 107t-11.5 105t-65.5 79t-109.5 32h-62v-323h204l-78 -54h-223l1 1h-1v686h-1l78 54h128q77 0 127.5 -44t50.5 -111q0 -54 -35 -97.5t-87 -59.5zM261 431h57q21 0 32 -2q42 47 42 111
q0 67 -43.5 106.5t-119.5 39.5h-41v-308z" />
    <glyph glyph-name="uni0413" unicode="&#x413;" horiz-adv-x="495" 
d="M484 741l-78 -55h-217v-686h-99v686l79 55h315z" />
    <glyph glyph-name="uni0414" unicode="&#x414;" horiz-adv-x="785" 
d="M691 54h89l-78 -54h-697l79 54h16l242 609l-15 38l81 57zM371 592l-214 -538h425z" />
    <glyph glyph-name="uni0415" unicode="&#x415;" horiz-adv-x="524" 
d="M187 374v-320h295l-78 -54h-314v686l77 54h315l-78 -54h-217v-257h252l-78 -55h-174z" />
    <glyph glyph-name="uni0416" unicode="&#x416;" horiz-adv-x="878" 
d="M397 741h98v-371v-369h-98v369v371zM591 410l267 -361l-86 -67l-277 388l285 371h64zM61 725l44 30l292 -385l-247 -369h-125l279 403z" />
    <glyph glyph-name="uni0417" unicode="&#x417;" horiz-adv-x="501" 
d="M114 95q60 -51 128 -51q38 0 72 14q-58 -73 -153 -73q-75 0 -131 50zM265 428q80 0 133 -53t53 -130q0 -61 -39.5 -112t-97.5 -75q36 49 43.5 105.5t-11 103t-64.5 77t-110 30.5h-41l78 56l54 -1q40 45 40 106q0 68 -50.5 115.5t-122.5 47.5q-45 0 -79 -14q27 29 70 49.5
t87 22.5q88 5 133.5 -43.5t45.5 -124.5q0 -52 -35 -96.5t-87 -63.5z" />
    <glyph glyph-name="uni0418" unicode="&#x418;" horiz-adv-x="761" 
d="M572 691l99 69v-760h-99v608l-384 -559l-98 -69v760h98v-608z" />
    <glyph glyph-name="uni0419" unicode="&#x419;" horiz-adv-x="761" 
d="M619 896q-102 -104 -247 -104q-101 0 -191 56l82 58q85 -55 186 -55q92 0 170 45zM572 691l99 69v-760h-99v608l-384 -559l-98 -69v760h98v-608z" />
    <glyph glyph-name="uni041A" unicode="&#x41a;" horiz-adv-x="597" 
d="M90 740h98v-364v-376h-98v740zM286 415l291 -369l-84 -65l-305 395l305 364h66z" />
    <glyph glyph-name="uni041B" unicode="&#x41b;" horiz-adv-x="661" 
d="M641 42l-84 -60l-255 611l-219 -593h-58l248 665l-15 37l81 57z" />
    <glyph glyph-name="uni041C" unicode="&#x41c;" horiz-adv-x="983" 
d="M908 0h-100l-63 550l-217 -508l-83 -59h-1l-242 569l-70 -552h-57l82 655l-20 45l84 58l279 -655l233 546l-5 48l90 61z" />
    <glyph glyph-name="uni041D" unicode="&#x41d;" horiz-adv-x="758" 
d="M90 0v740h98v-740h-98zM570 740h98v-740h-98v374h-382l78 55h304v311z" />
    <glyph glyph-name="uni041E" unicode="&#x41e;" horiz-adv-x="891" 
d="M484 757q145 0 251 -105t106 -252q0 -98 -52 -181.5t-136 -130.5q99 101 99 254q0 148 -100 252t-244 104q-94 0 -170 -44q101 103 246 103zM138 400q0 -148 100.5 -251.5t245.5 -103.5q95 0 169 43q-101 -103 -245 -103q-146 0 -252 105t-106 252q0 97 52.5 181
t135.5 131q-100 -102 -100 -254z" />
    <glyph glyph-name="uni041F" unicode="&#x41f;" horiz-adv-x="747" 
d="M168 740h489v-740h-100v686h-367v-686h-100v686z" />
    <glyph glyph-name="uni0420" unicode="&#x420;" horiz-adv-x="566" 
d="M323 740q87 0 145 -57t58 -139q0 -60 -39 -110t-96 -74q37 49 44 107t-13 106t-67 80t-110 32h-57v-325h203l-77 -54h-126v-306h-98v686l78 54h155z" />
    <glyph glyph-name="uni0421" unicode="&#x421;" horiz-adv-x="690" 
d="M142 401q0 -149 95.5 -250t238.5 -101q102 0 169 39q-102 -104 -245 -104q-144 0 -247 105t-103 253q0 98 49.5 180.5t131.5 129.5q-89 -92 -89 -252zM581 640q-90 58 -181 58q-87 0 -169 -45q101 103 245 103q100 0 184 -54z" />
    <glyph glyph-name="uni0422" unicode="&#x422;" horiz-adv-x="591" 
d="M580 740l-78 -54h-158v-686h-99v686h-235l78 54h492z" />
    <glyph glyph-name="uni0423" unicode="&#x423;" horiz-adv-x="606" 
d="M539 740h58l-414 -740h-61l158 281l-260 413l94 64l229 -367z" />
    <glyph glyph-name="uni0424" unicode="&#x424;" horiz-adv-x="909" 
d="M504 738q156 -9 255.5 -100t99.5 -235q0 -97 -48 -173.5t-130 -119.5q89 94 89 227q0 129 -68 219.5t-198 112.5v-602q97 2 177 43q-72 -74 -177 -98v-113h-99v105q-151 2 -253 94t-102 239q0 97 48 173.5t130 119.5q-90 -95 -90 -227q0 -129 73 -223t194 -113v606
q-97 -2 -177 -43q70 73 177 98v98h99v-88z" />
    <glyph glyph-name="uni0425" unicode="&#x425;" horiz-adv-x="627" 
d="M607 45l-88 -64l-224 352l-208 -333h-62l239 382l-203 312l87 64l176 -277l163 259h61l-193 -308z" />
    <glyph glyph-name="uni0426" unicode="&#x426;" horiz-adv-x="799" 
d="M794 55l-78 -55h-626v741h100v-686h368v686h100v-686h136z" />
    <glyph glyph-name="uni0427" unicode="&#x427;" horiz-adv-x="632" 
d="M160 576q0 -53 17.5 -94.5t46 -64.5t65.5 -37.5t76 -13.5t78 9q-58 -54 -127.5 -65.5t-125 13.5t-93 78.5t-37.5 120.5v218h100v-164zM443 740h99v-740h-99v375v365z" />
    <glyph glyph-name="uni0428" unicode="&#x428;" horiz-adv-x="1027" 
d="M837 740h100v-685l-78 -55h-769v740h100v-685h273v685h100v-685h274v685z" />
    <glyph glyph-name="uni0429" unicode="&#x429;" horiz-adv-x="1078" 
d="M1073 55l-78 -55h-905v741h100v-686h273v686h100v-684l-4 -2h277v686h100v-686h137z" />
    <glyph glyph-name="uni042A" unicode="&#x42a;" horiz-adv-x="690" 
d="M443 433q88 0 147.5 -55.5t59.5 -138.5q0 -60 -39 -110t-97 -74q37 49 44 107t-13 105t-67 79t-111 32h-57v-323h204l-78 -55h-224h-1v686h-201l78 54h222v-360l73 53h60z" />
    <glyph glyph-name="uni042B" unicode="&#x42b;" horiz-adv-x="780" 
d="M323 433q88 0 146.5 -55.5t58.5 -138.5q0 -60 -39 -110t-97 -74q35 49 41.5 106.5t-12.5 105t-65.5 79.5t-110.5 32h-57v-323h204l-78 -55h-224v740h98v-361l73 54h62zM591 740h99v-740h-99v740z" />
    <glyph glyph-name="uni042C" unicode="&#x42c;" horiz-adv-x="568" 
d="M322 433q88 0 147 -55.5t59 -138.5q0 -60 -39 -110t-97 -74q35 49 42 106.5t-12.5 105t-65.5 79.5t-110 32h-58v-323h204l-78 -55h-224v740h98v-361l73 54h61z" />
    <glyph glyph-name="uni042D" unicode="&#x42d;" horiz-adv-x="693" 
d="M291 757q145 0 248.5 -103.5t103.5 -251.5q0 -99 -50 -183t-132 -131q95 96 95 255v19h-437l78 55h352q-23 123 -115 202t-217 79q-93 0 -172 -45q102 104 246 104zM107 96q84 -54 184 -54q89 0 170 46q-101 -104 -246 -104q-99 0 -185 54z" />
    <glyph glyph-name="uni042E" unicode="&#x42e;" horiz-adv-x="1167" 
d="M758 758q146 0 252.5 -105t106.5 -253q0 -98 -52.5 -182t-136.5 -131q102 104 102 254q0 149 -102 253.5t-247 104.5q-94 0 -170 -44q101 103 247 103zM409 400q0 -149 102 -254t247 -105q91 0 170 46q-101 -104 -247 -104t-252.5 105t-106.5 253q0 13 2 35h-125l78 55
h57q20 71 67 129.5t110 94.5q-102 -104 -102 -255zM100 0v740h99v-740h-99z" />
    <glyph glyph-name="uni042F" unicode="&#x42f;" horiz-adv-x="603" 
d="M293 740h220v-740h-98v402l-267 -402h-123l236 331q-69 4 -119 58t-50 127q0 58 34.5 105t88.5 65q-39 -48 -39 -112q0 -76 49.5 -128.5t128.5 -52.5q37 0 61 9v284h-200z" />
    <glyph glyph-name="uni0430" unicode="&#x430;" horiz-adv-x="498" 
d="M428 316v-316h-90v67q-53 -83 -138 -83q-67 0 -113.5 45t-46.5 109q0 46 25 83.5t67 55.5q-21 -36 -21 -75q0 -96 70.5 -135.5t156.5 0.5v190v21v-1h-206l74 53h125q-11 49 -36.5 81.5t-59.5 44t-73 7.5t-78 -23q37 46 95.5 64t112.5 6t94 -62.5t42 -131.5z" />
    <glyph glyph-name="uni0431" unicode="&#x431;" horiz-adv-x="607" 
d="M361 468q94 0 148 -60.5t54 -152.5q0 -64 -36.5 -116.5t-94.5 -77.5q47 55 47 136q0 93 -49 155t-141 62q-45 0 -99 -27q30 37 75.5 59t95.5 22zM427 597q-24 0 -64 12.5t-73.5 11.5t-67.5 -27q62 108 153 108q22 0 65 -11.5t79 -11t70 25.5q-29 -51 -71 -79.5t-91 -28.5
zM144 358q0 -152 53.5 -232.5t154.5 -80.5q44 0 80 16q-66 -74 -159 -74q-99 0 -156 88t-57 225q0 64 17 122t34 84l17 26l94 62q-78 -86 -78 -236z" />
    <glyph glyph-name="uni0432" unicode="&#x432;" horiz-adv-x="478" 
d="M166 245v-193h168l-73 -52h-186v450l72 50h149q48 0 79.5 -28.5t31.5 -73.5q0 -36 -27.5 -64t-64.5 -36q33 56 8 103t-97 47h-60v-203zM302 298q61 0 98.5 -36.5t37.5 -90.5q-1 -43 -30.5 -76t-73.5 -43q19 24 23 57t-7.5 63.5t-43.5 51.5t-78 21h-62l75 53h61z" />
    <glyph glyph-name="uni0433" unicode="&#x433;" horiz-adv-x="409" 
d="M399 500l-75 -52h-160v-448h-89v448l74 52h250z" />
    <glyph glyph-name="uni0434" unicode="&#x434;" horiz-adv-x="594" 
d="M594 53l-75 -53h-519l75 53h10l159 380v1l-14 32l74 53l211 -466h79zM270 382l-133 -329h280z" />
    <glyph glyph-name="uni0435" unicode="&#x435;" horiz-adv-x="542" 
d="M199 281h218v1q0 76 -44 127.5t-116 51.5q-45 0 -80 -19q54 74 144 74q73 0 124 -52.5t51 -127.5q0 -28 -9 -55l-74 -52h-288zM46 223q0 70 36.5 130t94.5 89q-58 -66 -58 -158q0 -103 70.5 -171t164.5 -68q60 0 107 25q-70 -83 -176 -83q-95 0 -167 67.5t-72 168.5z" />
    <glyph glyph-name="uni0436" unicode="&#x436;" horiz-adv-x="708" 
d="M688 40l-70 -56l-215 265v-249h-89v249v251h89v-250l222 250h59l-198 -220zM45 489l36 27l233 -267l-185 -249h-109l213 276z" />
    <glyph glyph-name="uni0437" unicode="&#x437;" horiz-adv-x="380" 
d="M220 354q0 54 -34 85.5t-96 31.5q-20 0 -35 -4q39 49 109 49q55 0 91.5 -32t36.5 -80q0 -41 -26.5 -74t-67.5 -43q22 28 22 67zM341 162q-1 -44 -27 -77.5t-68 -45.5q-42 -55 -110 -55q-75 0 -116 63l74 51q42 -64 112 -64q17 0 39 5q24 35 24 73q0 54 -36 89.5t-90 35.5
h-53l72 50h49q55 0 92.5 -35.5t37.5 -89.5z" />
    <glyph glyph-name="uni0438" unicode="&#x438;" 
d="M414 455l90 62v-517h-89v394l-250 -349l-90 -63v518h90v-395z" />
    <glyph glyph-name="uni0439" unicode="&#x439;" 
d="M339 650q81 0 151 42q-91 -97 -219 -97q-93 0 -169 53l72 54q74 -52 165 -52zM414 455l90 62v-517h-89v394l-250 -349l-90 -63v518h90v-395z" />
    <glyph glyph-name="uni043A" unicode="&#x43a;" horiz-adv-x="489" 
d="M253 278l216 -240l-74 -57l-230 264l233 255h62zM75 500h90v-255v-245h-90v500z" />
    <glyph glyph-name="uni043B" unicode="&#x43b;" horiz-adv-x="499" 
d="M479 35l-75 -52l-176 399l-156 -382h-52l182 434v1l-15 32l75 53z" />
    <glyph glyph-name="uni043C" unicode="&#x43c;" horiz-adv-x="762" 
d="M614 0l-83 357l-126 -317l-73 -57l-134 365l-92 -348h-51l112 421l-19 44l77 53l153 -413l134 321l-11 40l76 53l130 -519h-93z" />
    <glyph glyph-name="uni043D" unicode="&#x43d;" horiz-adv-x="585" 
d="M420 500h90v-500h-90v242h-255v-242h-90v500h90v-258l74 52h181v206z" />
    <glyph glyph-name="uni043E" unicode="&#x43e;" horiz-adv-x="609" 
d="M119 282q0 -97 65 -168t157 -71q52 0 99 25q-67 -83 -171 -83q-92 0 -157.5 69t-65.5 167q0 71 36 130t95 88q-58 -66 -58 -157zM563 282q0 -68 -33.5 -126t-89.5 -88q53 66 53 153q0 98 -66 169t-158 71q-48 0 -92 -22q66 77 164 77q92 0 157 -68.5t65 -165.5z" />
    <glyph glyph-name="uni043F" unicode="&#x43f;" horiz-adv-x="584" 
d="M150 500h359v-500h-89v448h-255v-448h-90v448z" />
    <glyph glyph-name="uni0440" unicode="&#x440;" horiz-adv-x="572" 
d="M164 439v-387h239l-75 -52h-164v-271h-89v771h89v-61zM328 517q90 0 144 -66t54 -167q0 -71 -34.5 -136t-88.5 -96q50 64 50 169q0 103 -53.5 171.5t-143.5 68.5q-48 0 -92 -22q65 78 164 78z" />
    <glyph glyph-name="uni0441" unicode="&#x441;" horiz-adv-x="494" 
d="M119 282q0 -103 70.5 -171t164.5 -68q60 0 107 25q-70 -83 -176 -83q-95 0 -167 67.5t-72 168.5q0 70 36.5 130t94.5 89q-58 -66 -58 -158zM396 413q-59 49 -129 49q-46 0 -90 -22q66 77 161 77q76 0 136 -52z" />
    <glyph glyph-name="uni0442" unicode="&#x442;" horiz-adv-x="482" 
d="M472 500l-74 -52h-116v-448h-89v448h-183l74 52h388z" />
    <glyph glyph-name="uni0443" unicode="&#x443;" horiz-adv-x="515" 
d="M440 500h55l-359 -772h-53l137 300l-200 428l79 60l175 -377z" />
    <glyph glyph-name="uni0444" unicode="&#x444;" horiz-adv-x="758" 
d="M424 527q122 -2 205 -71.5t83 -175.5q0 -71 -39.5 -127t-107.5 -88q64 60 64 167q0 88 -56.5 151.5t-148.5 84.5v-432q82 0 141 29q-57 -54 -141 -72v-264h-90v255q-123 3 -205.5 71.5t-82.5 176.5q0 71 39.5 127t106.5 88q-63 -58 -63 -167q0 -91 56 -153.5t149 -82.5
v432q-85 -2 -142 -29q54 51 142 72v222h90v-214z" />
    <glyph glyph-name="uni0445" unicode="&#x445;" horiz-adv-x="503" 
d="M483 34l-77 -54l-177 232l-151 -212h-58l179 248l-165 213l75 55l144 -192l128 176h56l-153 -213z" />
    <glyph glyph-name="uni0446" unicode="&#x446;" horiz-adv-x="609" 
d="M504 52h105l-75 -52h-459v500h89v-448h250v448h90v-448z" />
    <glyph glyph-name="uni0447" unicode="&#x447;" horiz-adv-x="506" 
d="M341 500h90v-500h-90v500zM137 500v-120q0 -45 13.5 -77t35 -48.5t49.5 -23.5t54 -5t52 9q-50 -65 -129 -65q-65 0 -114.5 48t-50.5 113v169h90z" />
    <glyph glyph-name="uni0448" unicode="&#x448;" horiz-adv-x="816" 
d="M652 500h89v-448l-74 -52h-592v500h90v-448h196v448h89v-448h202v448z" />
    <glyph glyph-name="uni0449" unicode="&#x449;" horiz-adv-x="846" 
d="M741 52h105l-74 -52h-697v500h90v-448h196v448h89v-448h202v448h89v-448z" />
    <glyph glyph-name="uni044A" unicode="&#x44a;" horiz-adv-x="554" 
d="M242 245v-194h168l-73 -51h-186v448h-151l75 52h167v-255zM378 297q62 0 99 -36.5t36 -90.5q0 -43 -29.5 -75.5t-73.5 -43.5q19 24 22.5 57.5t-7.5 64t-43 51.5t-79 21h-61l75 52h61z" />
    <glyph glyph-name="uni044B" unicode="&#x44b;" horiz-adv-x="643" 
d="M479 500h89v-500h-89v500zM166 245v-194h168l-73 -51h-186v500h91v-255zM302 297q62 0 99 -36.5t36 -90.5q0 -43 -29.5 -75.5t-73.5 -43.5q19 24 22.5 57.5t-7.5 64t-43 51.5t-79 21h-61l75 52h61z" />
    <glyph glyph-name="uni044C" unicode="&#x44c;" horiz-adv-x="478" 
d="M166 245v-194h168l-73 -51h-186v500h91v-255zM302 297q62 0 99 -36.5t36 -90.5q0 -43 -29.5 -75.5t-73.5 -43.5q19 24 22.5 57.5t-7.5 64t-43 51.5t-79 21h-61l75 52h61z" />
    <glyph glyph-name="uni044D" unicode="&#x44d;" horiz-adv-x="496" 
d="M450 291v-1v-8q0 -71 -36.5 -131t-95.5 -89q58 68 58 158v18h-1h-318l75 53h235q-23 76 -86 121.5t-140 45.5q-63 0 -107 -26q69 84 176 84q94 0 165 -63.5t75 -161.5zM98 89q58 -49 130 -49q48 0 90 22q-66 -77 -161 -77q-77 0 -137 52z" />
    <glyph glyph-name="uni044E" unicode="&#x44e;" horiz-adv-x="824" 
d="M333 282q0 -98 65.5 -169t157.5 -71q52 0 99 25q-67 -83 -171 -83q-93 0 -159 69t-66 167q0 4 0.5 10.5t0.5 10.5h-96v-241h-89v500h89v-258l75 52h31q32 102 121 146q-58 -66 -58 -158zM556 516q92 0 157 -68.5t65 -165.5q0 -68 -34 -126.5t-89 -88.5q53 66 53 153
q0 99 -65.5 170t-158.5 71q-51 0 -93 -21q65 76 165 76z" />
    <glyph glyph-name="uni044F" unicode="&#x44f;" horiz-adv-x="466" 
d="M231 500h160v-500h-90v239v209h-145zM132 372q0 -64 37.5 -100t95.5 -37q21 0 36 4l-171 -239h-107l150 188q-48 8 -82.5 45.5t-34.5 87.5q1 46 28.5 80.5t71.5 46.5q-24 -33 -24 -76z" />
    <glyph glyph-name="uni0451" unicode="&#x451;" horiz-adv-x="542" 
d="M282 654l-82 -57l-80 56l82 58zM362 597l-80 56l82 58l80 -57zM199 281h218v1q0 76 -44 127.5t-116 51.5q-45 0 -80 -19q54 74 144 74q73 0 124 -52.5t51 -127.5q0 -28 -9 -55l-74 -52h-288zM46 223q0 70 36.5 130t94.5 89q-58 -66 -58 -158q0 -103 70.5 -171t164.5 -68
q60 0 107 25q-70 -83 -176 -83q-95 0 -167 67.5t-72 168.5z" />
    <glyph glyph-name="uni0452" unicode="&#x452;" horiz-adv-x="597" 
d="M6 614l74 52v126h89v-125h234l-74 -53h-160v-174q38 47 96 64.5t112 4t93.5 -66t41.5 -133.5v-474l-89 -64v486q0 72 -23 120.5t-60 68t-81.5 18.5t-89.5 -24v-440h-89v614h-74zM282 -180q41 -53 109 -53q12 0 32 4q-40 -58 -113 -58q-66 0 -107 51z" />
    <glyph glyph-name="uni0453" unicode="&#x453;" horiz-adv-x="409" 
d="M131 585q47 21 70 64.5t12 88.5l95 55q5 -51 -10.5 -91.5t-44 -64t-58.5 -36.5t-62 -18zM399 500l-75 -52h-160v-448h-89v448l74 52h250z" />
    <glyph glyph-name="uni0454" unicode="&#x454;" horiz-adv-x="497" 
d="M124 239q15 -86 81.5 -140.5t149.5 -54.5q62 0 107 25q-69 -84 -176 -84q-96 0 -168 68t-72 169q0 71 36.5 130t95.5 89q-57 -64 -58 -153l3 3h326l-75 -52h-250zM398 413q-60 50 -130 50q-48 0 -90 -22q63 76 161 76q76 0 137 -51z" />
    <glyph glyph-name="uni0455" unicode="&#x455;" horiz-adv-x="392" 
d="M118 409q0 -30 23.5 -54t57.5 -42.5t67.5 -38.5t57 -50t23.5 -68q0 -42 -25 -75t-65 -43q21 28 21 65q0 34 -23.5 61.5t-57 46.5t-66.5 38.5t-56.5 48t-23.5 63.5q0 39 23 67.5t61 36.5q-17 -26 -17 -56zM258 414q-33 53 -98 53q-9 0 -25 -2q33 51 97 51q65 0 98 -53z
M113 101q15 -29 47 -48t67 -19q17 0 30 4q-36 -52 -104 -52q-35 0 -65.5 18.5t-46.5 47.5z" />
    <glyph glyph-name="uni0456" unicode="&#x456;" horiz-adv-x="257" 
d="M126 706l81 -57l-82 -57l-80 57zM79 500h89v-500h-89v500z" />
    <glyph glyph-name="uni0457" unicode="&#x457;" horiz-adv-x="274" 
d="M56 709l81 -57l-82 -57l-80 56zM219 709l80 -57l-82 -57l-80 56zM92 500h90v-500h-90v500z" />
    <glyph glyph-name="uni0458" unicode="&#x458;" horiz-adv-x="280" 
d="M230 649l-81 -57l-80 57l81 57zM-36 -180q41 -53 109 -53q12 0 32 4q-40 -58 -113 -58q-66 0 -107 51zM105 -229v729h89v-666z" />
    <glyph glyph-name="uni0459" unicode="&#x459;" horiz-adv-x="719" 
d="M268 520l180 -469h127l-73 -51h-128l-144 376l-158 -376h-52l187 433l-13 35zM543 297q61 0 98.5 -36.5t36.5 -89.5q0 -43 -29 -76t-74 -44q19 24 22.5 57.5t-7.5 64t-43 51.5t-79 21h-93l74 52h94z" />
    <glyph glyph-name="uni045A" unicode="&#x45a;" horiz-adv-x="823" 
d="M509 500v-449h170l-73 -51h-186v242h-255v-242h-90v500h90v-258l74 52h181v206h89zM647 297q61 0 98.5 -36.5t36.5 -89.5q0 -43 -29 -76t-74 -44q19 24 22.5 57.5t-7.5 64t-43 51.5t-79 21h-61l75 52h59h2z" />
    <glyph glyph-name="uni045B" unicode="&#x45b;" horiz-adv-x="583" 
d="M7 614l74 52v126h89v-125h234l-74 -53h-160v-174q38 47 96 64.5t112 4t93.5 -66t41.5 -133.5v-309h-89v257q0 72 -23 120.5t-60 68t-81.5 18.5t-89.5 -24v-440h-89v614h-74z" />
    <glyph glyph-name="uni045C" unicode="&#x45c;" horiz-adv-x="485" 
d="M166 585q47 21 70 64.5t12 88.5l95 55q5 -51 -10.5 -91.5t-44 -64t-58.5 -36.5t-62 -18zM253 278l216 -240l-74 -57l-230 264l233 255h62zM75 500h90v-255v-245h-90v500z" />
    <glyph glyph-name="uni045E" unicode="&#x45e;" horiz-adv-x="515" 
d="M462 691q-91 -97 -219 -97q-93 0 -169 53l72 53q75 -51 165 -51q81 0 151 42zM440 500h55l-359 -772h-53l137 300l-200 428l79 60l175 -377z" />
    <glyph glyph-name="uni045F" unicode="&#x45f;" 
d="M434 0h-97v-130h-89v130h-173v500h89v-448h255v448h90v-448z" />
    <glyph glyph-name="uni0490" unicode="&#x490;" horiz-adv-x="495" 
d="M484 891v-150l-78 -55h-217v-686h-99v686l79 55h217v80z" />
    <glyph glyph-name="uni0491" unicode="&#x491;" horiz-adv-x="409" 
d="M399 500l-75 -52h-160v-448h-89v448l75 52h159v84l90 62v-146z" />
    <glyph glyph-name="endash" unicode="&#x2013;" horiz-adv-x="659" 
d="M609 333l-76 -52h-483l76 52h483z" />
    <glyph glyph-name="emdash" unicode="&#x2014;" horiz-adv-x="1139" 
d="M1089 333l-76 -52h-963l76 52h963z" />
    <glyph glyph-name="quoteleft" unicode="&#x2018;" horiz-adv-x="230" 
d="M170 755q-14 -17 -22 -33.5t-12 -29.5t-1.5 -29t5 -25.5t12 -25.5t14 -22.5t17.5 -23t16 -20.5l-93 -63q-50 74 -30.5 151.5t91.5 122.5z" />
    <glyph glyph-name="quoteright" unicode="&#x2019;" horiz-adv-x="230" 
d="M79 486q14 17 22 33.5t12 29.5t1.5 29t-5 25.5t-12 25.5t-14 22.5t-17.5 23t-16 20.5l93 63q50 -74 30.5 -151.5t-91.5 -122.5z" />
    <glyph glyph-name="quotesinglbase" unicode="&#x201a;" horiz-adv-x="230" 
d="M79 -141q14 17 22 33.5t12 29.5t1.5 29t-5 25.5t-12 25.5t-14 22.5t-17.5 23t-16 20.5l93 63q50 -74 30.5 -151.5t-91.5 -122.5z" />
    <glyph glyph-name="quotedblleft" unicode="&#x201c;" horiz-adv-x="387" 
d="M327 755q-14 -17 -22 -33.5t-12 -29.5t-1.5 -29t5 -25.5t12 -25.5t14 -22.5t17.5 -23t16 -20.5l-93 -63q-50 74 -30.5 151.5t91.5 122.5zM170 755q-14 -17 -22 -33.5t-12 -29.5t-1.5 -29t5 -25.5t12 -25.5t14 -22.5t17.5 -23t16 -20.5l-93 -63q-50 74 -30.5 151.5
t91.5 122.5z" />
    <glyph glyph-name="quotedblright" unicode="&#x201d;" horiz-adv-x="387" 
d="M79 485q14 17 22 33.5t12 29.5t1.5 29t-5 25.5t-12 25.5t-14 22.5t-17.5 23t-16 20.5l93 63q50 -74 30.5 -151.5t-91.5 -122.5zM236 485q14 17 22 33.5t12 29.5t1.5 29t-5 25.5t-12 25.5t-14 22.5t-17.5 23t-16 20.5l93 63q50 -74 30.5 -151.5t-91.5 -122.5z" />
    <glyph glyph-name="quotedblbase" unicode="&#x201e;" horiz-adv-x="387" 
d="M79 -141q14 17 22 33.5t12 29.5t1.5 29t-5 25.5t-12 25.5t-14 22.5t-17.5 23t-16 20.5l93 63q50 -74 30.5 -151.5t-91.5 -122.5zM236 -141q14 17 22 33.5t12 29.5t1.5 29t-5 25.5t-12 25.5t-14 22.5t-17.5 23t-16 20.5l93 63q50 -74 30.5 -151.5t-91.5 -122.5z" />
    <glyph glyph-name="dagger" unicode="&#x2020;" horiz-adv-x="570" 
d="M520 554l-75 -53h-115v-627l-90 -62v689h-190l75 53h115v192l90 62v-254h190z" />
    <glyph glyph-name="bullet" unicode="&#x2022;" horiz-adv-x="322" 
d="M272 346l-132 -91l-90 124l132 92z" />
    <glyph glyph-name="ellipsis" unicode="&#x2026;" horiz-adv-x="744" 
d="M198 44l-88 -61l-60 83l88 61zM446 44l-88 -61l-60 83l88 61zM694 44l-88 -61l-60 83l88 61z" />
    <glyph glyph-name="guilsinglleft" unicode="&#x2039;" horiz-adv-x="318" 
d="M115 289l153 -169l-54 -40l-164 186l180 192l26 -19z" />
    <glyph glyph-name="guilsinglright" unicode="&#x203a;" horiz-adv-x="318" 
d="M203 249l-153 169l54 40l164 -186l-180 -192l-26 19z" />
    <glyph glyph-name="Euro" unicode="&#x20ac;" horiz-adv-x="714" 
d="M228 273q31 -106 107.5 -168.5t173.5 -62.5q62 0 119 27q-81 -84 -198 -84q-110 0 -192 79t-101 209h-116l76 51h36q-1 6 -1 18q0 38 8 80h-119l76 51h56q22 68 65 120.5t99 79.5q-78 -77 -100 -200h333l-76 -51h-263v-22q0 -40 6 -76h333l-76 -51h-246zM590 645
q-72 55 -160 55q-60 0 -113 -27q82 84 192 84q87 0 159 -55z" />
    <glyph glyph-name="uni20B6" unicode="&#x20b6;" horiz-adv-x="632" 
d="M537 224l-76 -52h-200v-172h-98v172h-142l76 52h66v93h-142l76 52h66v317l78 54h155q87 0 145 -57t58 -139q0 -59 -38 -104.5t-97 -69.5q37 49 43.5 105.5t-14.5 102.5t-68.5 76.5t-110.5 30.5h-53v-315h203l-77 -54h-126v-92h276z" />
    <glyph glyph-name="uni2116" unicode="&#x2116;" horiz-adv-x="1252" 
d="M646 741h58v-722l-55 -38l-467 595v-576h-57v648l-35 45l89 66l467 -589v571zM1172 599q0 -52 -30 -93t-77 -57q35 43 35 99q0 68 -43.5 113.5t-115.5 45.5q-26 0 -50 -9q48 59 123 59q65 0 111.5 -46.5t46.5 -111.5zM856 599q0 -67 43 -112.5t115 -45.5q25 0 51 8
q-48 -59 -124 -59q-65 0 -111.5 46.5t-46.5 111.5q0 52 30 93t78 57q-35 -43 -35 -99zM1146 333l-76 -52h-293l76 52h293z" />
    <glyph glyph-name="trademark" unicode="&#x2122;" horiz-adv-x="680" 
d="M279 741l-31 -21h-64v-275h-39v275h-95l32 21h197zM630 445h-41l-24 221l-88 -197l-33 -24l-97 222l-29 -222h-23l33 264l-8 18l32 22l113 -257l95 213l-2 20l36 25z" />
    <glyph glyph-name="notequal" unicode="&#x2260;" 
d="M364 624l59 38l-203 -541l-59 -37zM529 313l-76 -52h-403l76 52h403zM529 483l-76 -52h-403l76 52h403z" />
    <glyph glyph-name="a.salt1" unicode="&#xa061;" horiz-adv-x="573" 
d="M244 500h254v-500h-89v66v382h-240zM119 279q0 -107 53 -171t144 -64q47 0 93 22q-72 -82 -164 -82q-90 0 -144.5 66t-54.5 166q0 71 34.5 136t88.5 96q-50 -64 -50 -169z" />
    <glyph glyph-name="g.salt1" unicode="&#xa067;" horiz-adv-x="582" 
d="M267 -181q40 -53 108 -53q11 0 33 4q-41 -58 -113 -58q-66 0 -107 51zM243 500h254v-667l-89 -63v291q-66 -77 -164 -77q-90 0 -144 65.5t-54 166.5q0 71 34.5 136t88.5 96q-48 -61 -48 -169q0 -103 52.5 -171t142.5 -68q50 0 92 21v387h-239z" />
    <glyph glyph-name="t.salt1" unicode="&#xa074;" horiz-adv-x="354" 
d="M180 448v-396h160l-74 -52h-175v448h-76l76 52v143l89 62v-205h169l-74 -52h-95z" />
    <glyph glyph-name="uni0430.salt1" unicode="&#xa430;" horiz-adv-x="573" 
d="M244 500h254v-500h-89v66v382h-240zM119 279q0 -107 53 -171t144 -64q47 0 93 22q-72 -82 -164 -82q-90 0 -144.5 66t-54.5 166q0 71 34.5 136t88.5 96q-50 -64 -50 -169z" />
    <glyph glyph-name="hryvna" horiz-adv-x="562" 
d="M375 419l-62 -83h220l-76 -51h-183q-38 -54 -38 -105q0 -132 157 -132q23 0 44 6q-53 -69 -139 -69q-73 0 -124 51t-51 125q0 62 36 124h-115l76 51h79l62 83h-217l76 51h175q29 49 29 90q0 70 -44.5 102t-113.5 32q-15 0 -45 -8q53 69 140 69q73 0 123.5 -51.5
t50.5 -124.5q0 -58 -27 -109h125l-76 -51h-82z" />
    <glyph glyph-name="Z.salt1" horiz-adv-x="608" 
d="M181 55h397l-77 -55h-471l396 686h-341l78 54h410z" />
    <glyph glyph-name="z.salt1" horiz-adv-x="479" 
d="M150 52h309l-75 -52h-364l308 447h-274l74 53h328z" />
    <glyph glyph-name="uni0434.salt2" horiz-adv-x="594" 
d="M515 53h55v-174h-90v121h-380v-121h-90v122l75 52l159 380v1l-14 32l74 53zM137 53h280l-147 329z" />
    <glyph glyph-name="uni0414.salt1" horiz-adv-x="785" 
d="M689 55h67v-205h-98v151h-541v-151h-98v151l79 54l242 609l-15 38l81 57zM155 55h425l-211 538z" />
    <glyph glyph-name="uni0446.salt1" horiz-adv-x="609" 
d="M504 52h69v-173h-90v121h-408v500h89v-448h250v448h90v-448z" />
    <glyph glyph-name="uni0449.salt1" horiz-adv-x="846" 
d="M811 52l-1 -1h1v-173h-90v121l-646 1v500h90v-448h196v448h89v-448h202v448h89l1 -448h69z" />
    <glyph glyph-name="uni0429.salt1" horiz-adv-x="1078" 
d="M936 55h88v-206h-98v151h-836v741h100v-686h273v686h100v-684l-4 -2h277v686h100v-686z" />
    <glyph glyph-name="uni0426.salt1" horiz-adv-x="799" 
d="M658 55h88v-206h-98v151h-558v741h100v-686h368v686h100v-686z" />
    <glyph glyph-name="two.osf" horiz-adv-x="433" 
d="M428 82l-99 -82h-324l87 71q154 109 184 226q23 87 -33 134q-36 31 -95 31q-55 0 -88 -18q27 33 68.5 52t87.5 19q76 0 118.5 -42.5t42.5 -111.5q0 -38 -18.5 -74.5t-43.5 -63t-66.5 -56t-69.5 -46t-72 -39.5h321z" />
    <glyph glyph-name="three.osf" horiz-adv-x="469" 
d="M253 221q75 0 126.5 -53t51.5 -129q0 -59 -37 -107t-93 -67q-54 -66 -140 -66q-73 0 -126 50l86 67q62 -60 123 -60q30 0 57 9q48 59 48 117q0 77 -48.5 130.5t-123.5 53.5q-29 0 -65 -10l197 259h-266l108 85h288l-177 -231l-84 -64q33 16 75 16z" />
    <glyph glyph-name="one.osf" horiz-adv-x="286" 
d="M221 500v-500h-93v445h-113l78 55h128z" />
    <glyph glyph-name="four.osf" horiz-adv-x="522" 
d="M507 53l-75 -53h-39v-191h-91v191h-295l295 457l91 64v-468h114zM302 369l-199 -316h199v316z" />
    <glyph glyph-name="seven.osf" horiz-adv-x="443" 
d="M126 499h312l-325 -689h-63l292 607h-327z" />
    <glyph glyph-name="five.osf" horiz-adv-x="484" 
d="M117 -94q53 -51 127 -51q30 0 57 9q-54 -66 -140 -66q-73 0 -126 50zM425 38q0 -61 -34.5 -108.5t-89.5 -65.5q45 52 45 117q0 77 -49 130t-124 53q-28 0 -60 -9q55 65 139 65q75 0 124 -52.5t49 -129.5zM113 155l-56 -43l64 315l95 73h238l-107 -84h-179z" />
    <glyph glyph-name="eight.osf" horiz-adv-x="527" 
d="M478 203q0 -54 -31 -95.5t-85 -54.5q38 45 37 96q-1 40 -34 79t-80 70.5l-94 63t-79.5 70t-32.5 78.5q0 50 27 87.5t76 48.5q-28 -39 -27 -78q0 -15 4.5 -29t17 -29t21 -25t31 -27t31.5 -23.5t38 -26t36 -24.5q46 44 46 124q-2 63 -44.5 103t-113.5 40q-18 0 -40 -5
q45 58 127 58q61 0 109 -42.5t48 -102.5q0 -63 -41.5 -113.5t-90.5 -61.5q144 -98 144 -181zM145 206q2 -69 47.5 -113t126.5 -44q15 0 43 4q-50 -63 -136 -63q-70 0 -121 49.5t-53 115.5q-1 70 48 125t109 69q-65 -69 -64 -143z" />
    <glyph glyph-name="six.osf" horiz-adv-x="529" 
d="M386 608q-17 16 -40.5 28.5t-58.5 18.5t-68 -8q56 67 136 67q67 0 113 -46zM53 315q4 129 48.5 219.5t117.5 112.5q-72 -79 -79 -278q-3 -98 21.5 -178.5t78.5 -125t126 -25.5q-3 -5 -10 -12t-34.5 -19t-62.5 -12q-90 0 -150.5 89.5t-55.5 228.5zM422 161q2 79 -45 130.5
t-131 51.5q-43 0 -80 -16q59 76 151 76q83 0 135 -54t49 -132q-2 -61 -40 -109.5t-95 -67.5q55 58 56 121z" />
    <glyph glyph-name="nine.osf" horiz-adv-x="540" 
d="M160 -108q17 -17 42 -29.5t59.5 -18.5t68.5 8q-54 -69 -137 -69q-67 0 -116 47zM494 189q-2 -130 -46 -222.5t-118 -114.5q70 78 75 282q2 100 -24.5 182.5t-82 127.5t-129.5 27q4 5 12.5 12t39 18.5t66.5 11.5q91 0 150 -90.5t57 -233.5zM119 348q-2 -81 46.5 -135
t134.5 -54q33 0 79 19q-60 -77 -152 -77q-85 0 -137.5 55t-50.5 135q1 62 37.5 111t92.5 69q-49 -57 -50 -123z" />
    <glyph glyph-name="zero.osf" horiz-adv-x="601" 
d="M121 282q0 -98 62.5 -168.5t153.5 -70.5q52 0 99 25q-67 -83 -171 -83q-92 0 -156 69t-64 167q0 71 35 131t93 88q-52 -59 -52 -158zM556 282q0 -69 -32.5 -126.5t-87.5 -87.5q46 57 46 153q0 98 -64 169.5t-156 71.5q-45 0 -89 -22q65 76 161 76q92 0 157 -68.5
t65 -165.5z" />
    </font>
</defs>
</svg>
