<svg width="33" height="33" viewBox="0 0 33 33" fill="none" xmlns="http://www.w3.org/2000/svg">
<path d="M19.8855 25.4145C19.8855 29.3101 19.6072 30.3304 20.813 31.5362C19.4217 31.9072 18.0304 32.0928 16.4536 32.0928C7.64203 32.0928 0.5 24.9507 0.5 16.0464C0.5 7.23478 7.64203 0 16.4536 0C25.2652 0 32.5 7.14203 32.5 16.0464C32.5 19.0145 31.6652 21.7971 30.2739 24.1159L28.2333 22.0754C28.9754 20.6841 29.4391 19.1072 29.6246 17.4377H24.0594C24.0594 17.8087 24.0594 18.087 23.9667 18.3652C22.9464 17.9942 22.0188 18.1797 21.1841 18.7362C21.1841 18.2725 21.2768 17.8087 21.2768 17.3449H17.7522V21.3333C18.4942 21.3333 19.1435 21.4261 19.7928 21.6116V24.3942C19.1435 24.3014 18.4014 24.2087 17.7522 24.1159V28.5681C18.587 28.1043 19.2362 26.9913 19.8855 25.4145ZM29.7174 14.7478C29.4391 12.1507 28.4188 9.83188 26.842 7.88406C25.8217 8.44058 24.7087 8.9971 23.5029 9.36812C23.8739 11.0377 24.0594 12.8 24.1522 14.7478H29.7174ZM24.8015 5.84348C23.8739 5.10145 22.7609 4.45217 21.5551 3.98841C22.0188 4.82319 22.3899 5.75072 22.7609 6.77101C23.5029 6.4 24.1522 6.12174 24.8015 5.84348ZM17.8449 3.52464V7.69855C18.587 7.6058 19.329 7.51304 20.1638 7.42029C19.4217 5.56522 18.587 4.26667 17.8449 3.52464ZM17.8449 10.4812V14.7478H21.3696C21.2768 13.0783 21.0913 11.5014 20.813 10.1101C19.7928 10.2957 18.8652 10.4812 17.8449 10.4812ZM6.15797 7.97681C4.67391 9.92464 3.65362 12.2435 3.37536 14.7478H8.94058C9.03333 12.8928 9.21884 11.0377 9.58986 9.46087C8.38406 9.08985 7.17826 8.53333 6.15797 7.97681ZM3.37536 17.5304C3.65362 19.942 4.58116 22.2609 5.97246 24.1159C7.08551 23.4667 8.19855 23.0029 9.4971 22.5391C9.21884 20.9623 9.03333 19.2928 8.94058 17.5304H3.37536ZM8.01304 26.1565C9.03333 27.0841 10.2391 27.8261 11.5377 28.2899C11.0739 27.3623 10.6101 26.342 10.2391 25.229C9.40435 25.5072 8.66232 25.7855 8.01304 26.1565ZM10.2391 6.77101C10.6101 5.75072 10.9812 4.73043 11.4449 3.89565C10.2391 4.35942 9.12609 5.10145 8.1058 5.84348C8.84783 6.21449 9.4971 6.49275 10.2391 6.77101ZM15.0623 28.5681V24.3014C14.3203 24.3942 13.5783 24.487 12.929 24.5797C13.4855 26.4348 14.2275 27.7333 15.0623 28.5681ZM15.0623 21.5188V17.5304H11.7232C11.8159 19.1072 12.0014 20.5913 12.187 21.7971C13.1145 21.7043 14.042 21.5188 15.0623 21.5188ZM15.0623 14.7478V10.4812C14.1348 10.3884 13.2072 10.2957 12.2797 10.1101C12.0014 11.5014 11.8159 12.9855 11.7232 14.6551H15.0623V14.7478ZM15.0623 7.69855V3.71015C14.3203 4.45217 13.5783 5.75072 13.0217 7.42029C13.671 7.6058 14.3203 7.69855 15.0623 7.69855Z" fill="#B49164"/>
<path d="M23.41 21.2405L28.9752 26.8058C29.068 26.8985 29.1607 27.084 29.068 27.2695C28.9752 27.455 28.8825 27.5478 28.697 27.5478L26.5636 27.6406L28.6042 31.0724C28.697 31.2579 28.6042 31.5362 28.4187 31.629L27.4912 32.1855C27.3984 32.2782 27.3056 32.2782 27.2129 32.1855C27.1201 32.0927 27.0274 32.0927 26.9346 32L24.8013 28.1971L23.41 29.5884C23.3172 29.6811 23.039 29.7739 22.9462 29.6811C22.7607 29.5884 22.668 29.4029 22.668 29.2174V21.5188C22.668 21.3333 22.7607 21.2405 22.9462 21.1478C23.1317 21.055 23.2245 21.1478 23.41 21.2405Z" fill="#B49164"/>
</svg>