<?xml version="1.0" encoding="UTF-8"?>
<svg version="1.1" xmlns="http://www.w3.org/2000/svg" width="48" height="48">
<path d="M0 0 C15.84 0 31.68 0 48 0 C48 15.84 48 31.68 48 48 C32.16 48 16.32 48 0 48 C0 32.16 0 16.32 0 0 Z " fill="#05D6A1" transform="translate(0,0)"/>
<path d="M0 0 C0.99 0.33 1.98 0.66 3 1 C3.33 1.99 3.66 2.98 4 4 C4.99 4.33 5.98 4.66 7 5 C6.67 5.99 6.34 6.98 6 8 C5.01 8 4.02 8 3 8 C2.67 9.32 2.34 10.64 2 12 C1.01 11.67 0.02 11.34 -1 11 C-1.33 10.01 -1.66 9.02 -2 8 C-2.99 7.67 -3.98 7.34 -5 7 C-4.67 6.01 -4.34 5.02 -4 4 C-2.02 4.495 -2.02 4.495 0 5 C-0.2784375 4.0409375 -0.2784375 4.0409375 -0.5625 3.0625 C-0.706875 2.381875 -0.85125 1.70125 -1 1 C-0.67 0.67 -0.34 0.34 0 0 Z " fill="#ABF1DF" transform="translate(21,16)"/>
</svg>
