<?xml version="1.0" standalone="no"?>
<!DOCTYPE svg PUBLIC "-//W3C//DTD SVG 20010904//EN"
 "http://www.w3.org/TR/2001/REC-SVG-20010904/DTD/svg10.dtd">
<svg version="1.0" xmlns="http://www.w3.org/2000/svg"
 width="57.000000pt" height="56.000000pt" viewBox="0 0 57.000000 56.000000"
 preserveAspectRatio="xMidYMid meet">

<g transform="translate(0.000000,56.000000) scale(0.100000,-0.100000)"
fill="#000000" stroke="none">
<path d="M103 553 l-81 -4 -1 -164 c0 -91 4 -167 9 -170 4 -3 66 -15 137 -27
l128 -21 125 19 125 19 3 164 c1 91 -1 168 -5 172 -10 9 -324 18 -440 12z
m247 -115 c63 1 130 5 148 7 17 3 32 1 32 -4 0 -12 -107 -23 -229 -25 -124 -1
-271 13 -271 26 0 6 36 7 103 1 56 -4 154 -7 217 -5z m-227 -45 c-7 -2 -21 -2
-30 0 -10 3 -4 5 12 5 17 0 24 -2 18 -5z m297 -3 c0 -5 -12 -10 -27 -9 l-28 1
25 8 c14 4 26 8 28 9 1 1 2 -3 2 -9z m83 3 c-7 -2 -21 -2 -30 0 -10 3 -4 5 12
5 17 0 24 -2 18 -5z m-270 -10 c-7 -2 -21 -2 -30 0 -10 3 -4 5 12 5 17 0 24
-2 18 -5z m87 -3 c0 -5 -2 -10 -4 -10 -3 0 -8 5 -11 10 -3 6 -1 10 4 10 6 0
11 -4 11 -10z"/>
<path d="M41 89 c-17 -49 -15 -62 8 -47 15 9 23 9 35 -1 13 -11 16 -11 16 1 0
29 -22 78 -35 78 -7 0 -18 -14 -24 -31z"/>
<path d="M152 78 c2 -24 8 -43 13 -43 6 0 11 19 13 43 3 33 0 42 -13 42 -13 0
-16 -9 -13 -42z"/>
<path d="M230 75 c0 -25 5 -45 10 -45 6 0 10 9 10 20 0 11 6 20 14 20 7 0 16
-9 19 -20 10 -37 27 -21 27 25 0 33 -4 45 -15 45 -8 0 -15 -7 -15 -16 0 -9 -6
-14 -12 -11 -7 2 -12 10 -10 16 1 6 -5 11 -13 11 -11 0 -15 -12 -15 -45z"/>
<path d="M360 87 c0 -54 47 -79 70 -38 15 30 13 71 -5 71 -11 0 -15 -11 -15
-36 0 -45 -24 -42 -28 4 -4 42 -22 41 -22 -1z"/>
<path d="M493 106 c10 -8 17 -26 17 -45 0 -17 5 -31 10 -31 6 0 10 14 10 31 0
19 7 37 18 45 15 12 12 13 -28 13 -40 0 -43 -1 -27 -13z"/>
</g>
</svg>
