<svg xmlns="http://www.w3.org/2000/svg" version="1.1" xmlns:xlink="http://www.w3.org/1999/xlink" xmlns:svgjs="http://svgjs.dev/svgjs" width="1500" height="1500" viewBox="0 0 1500 1500"><rect width="1500" height="1500" fill="#000000"></rect><g transform="matrix(0.6666666666666666,0,0,0.6666666666666666,249.85778443113782,249.85778443113765)"><svg viewBox="0 0 334 334" data-background-color="#ececea" preserveAspectRatio="xMidYMid meet" height="1500" width="1500" xmlns="http://www.w3.org/2000/svg" xmlns:xlink="http://www.w3.org/1999/xlink"><g id="tight-bounds" transform="matrix(1,0,0,1,0.04749999999998522,0.04750000000001364)"><svg viewBox="0 0 333.90454557049503 333.90454557049503" height="333.90454557049503" width="333.90454557049503"><g><svg></svg></g><g><svg viewBox="0 0 333.90454557049503 333.90454557049503" height="333.90454557049503" width="333.90454557049503"><g><path d="M0 166.952c0-92.205 74.747-166.952 166.952-166.952 92.205 0 166.952 74.747 166.953 166.952 0 92.205-74.747 166.952-166.953 166.953-92.205 0-166.952-74.747-166.952-166.953zM166.952 329.941c90.016 0 162.989-72.973 162.989-162.989 0-90.016-72.973-162.989-162.989-162.988-90.016 0-162.989 72.973-162.988 162.988 0 90.016 72.973 162.989 162.988 162.989z" data-fill-palette-color="tertiary" fill="#ffffff" stroke="transparent"></path><ellipse rx="160.27418187383762" ry="160.27418187383762" cx="166.95227278524752" cy="166.95227278524752" fill="#ffffff" stroke="transparent" stroke-width="0" fill-opacity="1" data-fill-palette-color="tertiary"></ellipse></g><g transform="matrix(1,0,0,1,79.44136759354689,71.17305217166896)"><svg viewBox="0 0 175.02181038340126 191.55844122715712" height="191.55844122715712" width="175.02181038340126"><g><svg viewBox="0 0 175.02181038340126 191.55844122715712" height="191.55844122715712" width="175.02181038340126"><g><svg viewBox="0 0 213.1584412271571 233.29834519730952" height="191.55844122715712" width="175.02181038340126"><g transform="matrix(1,0,0,1,0,135.29363113444884)"><svg viewBox="0 0 213.1584412271571 98.00471406286067" height="98.00471406286067" width="213.1584412271571"><g id="textblocktransform"><svg viewBox="0 0 213.1584412271571 98.00471406286067" height="98.00471406286067" width="213.1584412271571" id="textblock"><g><svg viewBox="0 0 213.1584412271571 53.52759207731084" height="53.52759207731084" width="213.1584412271571"><g transform="matrix(1,0,0,1,0,0)"><svg width="213.1584412271571" viewBox="0.7 -36.3 145.54000000000002 36.55" height="53.52759207731084" data-palette-color="#ececea"><path d="M4.65 0.2L4.65 0.2Q3.1 0.2 1.9-0.55 0.7-1.3 0.7-3.05L0.7-3.05Q0.7-5.8 1.88-8.65 3.05-11.5 4.78-14.28 6.5-17.05 8.22-19.7 9.95-22.35 11.13-24.75 12.3-27.15 12.3-29.2L12.3-29.2Q12.3-30.85 11.5-30.85L11.5-30.85Q10.95-30.85 10.25-29.98 9.55-29.1 9.25-27.4L9.25-27.4 8.7-27.5Q8.7-30.35 10.05-32.33 11.4-34.3 13.5-35.3 15.6-36.3 17.8-36.3L17.8-36.3Q20.35-36.3 22.58-34.85 24.8-33.4 25.65-30.25L25.65-30.25Q26-29 26.18-27.45 26.35-25.9 26.4-24.78 26.45-23.65 26.45-23.65L26.45-23.65Q26.55-19.6 26.63-16.8 26.7-14 26.9-12.1 27.1-10.2 27.45-8.9L27.45-8.9Q27.8-7.65 28.38-6.88 28.95-6.1 29.85-6.1L29.85-6.1Q30.7-6.1 31.33-6.6 31.95-7.1 32.15-7.55L32.15-7.55 32.5-7.3Q32.5-5 31.6-3.3 30.7-1.6 29.25-0.7 27.8 0.2 26.2 0.2L26.2 0.2Q24.65 0.2 23.18-0.73 21.7-1.65 20.6-3.6 19.5-5.55 19.15-8.65L19.15-8.65Q17.6-8.75 16.13-8.83 14.65-8.9 13.45-8.9L13.45-8.9Q12.65-8.9 11.93-8.88 11.2-8.85 10.5-8.8L10.5-8.8Q10.05-7.25 9.78-5.68 9.5-4.1 9.5-2.6L9.5-2.6Q9.5-1.45 8-0.63 6.5 0.2 4.65 0.2ZM12.15-13.45L12.15-13.45Q13.4-13.8 14.8-13.93 16.2-14.05 17.8-14.05L17.8-14.05 18.9-14.05Q18.8-17.75 18.63-21.65 18.45-25.55 17.35-28.9L17.35-28.9Q16.95-25.3 15.35-21.35 13.75-17.4 12.15-13.45ZM38.55 0.25L38.55 0.25Q37.15 0.25 36.07-0.93 35-2.1 35-5.3L35-5.3Q35-5.85 35.02-6.28 35.05-6.7 35.05-6.9L35.05-6.9Q35.25-8.9 35.62-11.88 36-14.85 36.5-18.13 37-21.4 37.52-24.45 38.05-27.5 38.5-29.78 38.95-32.05 39.25-32.9L39.25-32.9Q39.8-34.4 41.22-35.27 42.65-36.15 44.15-36.15L44.15-36.15Q45.45-36.15 46.52-35.4 47.6-34.65 48-32.85L48-32.85Q47.7-31.85 47.05-29.33 46.4-26.8 45.65-23.15 44.9-19.5 44.22-15.1 43.55-10.7 43.15-5.9L43.15-5.9Q43.1-5.05 43-3.93 42.9-2.8 42.85-1.65L42.85-1.65Q42.25-1 41.05-0.38 39.85 0.25 38.55 0.25ZM55.1 0.2L55.1 0.2Q53.3 0.2 51.9-1.38 50.5-2.95 50.5-6.3L50.5-6.3Q50.5-8.65 51.12-11 51.75-13.35 52.4-15.3L52.4-15.3Q53.4-18.5 54.15-21.2 54.9-23.9 54.9-26.35L54.9-26.35Q54.9-28.05 54.52-28.7 54.15-29.35 53.55-29.35L53.55-29.35Q52.9-29.35 52.12-28.65 51.35-27.95 50.6-26.5L50.6-26.5 50.25-26.6Q50.35-29.5 51.5-31.6 52.65-33.7 54.4-34.85 56.15-36 58-36L58-36Q60.1-36 61.6-34.33 63.1-32.65 63.1-28.55L63.1-28.55Q63.1-26.4 62.67-24.05 62.25-21.7 61.7-19.35L61.7-19.35Q63.4-20.05 65.3-20.35 67.2-20.65 69.34-20.65L69.34-20.65 70.65-20.65Q71.3-23.15 71.77-25.58 72.25-28 72.25-30.1L72.25-30.1Q72.25-30.85 72.17-31.5 72.09-32.15 72-32.75L72-32.75 72-33.15Q72.75-34.5 74.17-35.3 75.59-36.1 77.05-36.1L77.05-36.1Q78.7-36.1 79.95-35.02 81.2-33.95 81.2-31.6L81.2-31.6Q81.2-29.85 80.52-27.1 79.84-24.35 79-21.45L79-21.45Q78-17.9 77.17-14.58 76.34-11.25 76.34-8.95L76.34-8.95Q76.34-7.4 76.84-6.5 77.34-5.6 78.45-5.6L78.45-5.6Q79.95-5.6 80.7-7.05L80.7-7.05 81-6.9Q80.95-4.8 79.84-3.2 78.75-1.6 77.12-0.7 75.5 0.2 73.8 0.2L73.8 0.2Q72.3 0.2 70.97-0.58 69.65-1.35 68.82-3 68-4.65 68-7.3L68-7.3Q68-9.05 68.37-11.13 68.75-13.2 69.25-15.35L69.25-15.35Q66.95-15.5 64.75-15.5L64.75-15.5Q63.65-15.5 62.65-15.45 61.65-15.4 60.75-15.3L60.75-15.3Q60.3-13.3 59.97-11.38 59.65-9.45 59.65-7.65L59.65-7.65Q59.65-6.65 59.77-5.68 59.9-4.7 60.2-3.8L60.2-3.8Q59.4-1.85 57.97-0.83 56.55 0.2 55.1 0.2ZM89.29 0.2L89.29 0.2Q86.69 0.2 85.09-1.93 83.49-4.05 83.49-7.7L83.49-7.7Q83.49-10.05 84.04-12.85 84.59-15.65 85.34-18.48 86.09-21.3 86.64-23.65 87.19-26 87.19-27.35L87.19-27.35Q87.19-29.1 86.14-29.1L86.14-29.1Q85.44-29.1 84.59-28.35 83.74-27.6 83.34-26.4L83.34-26.4 82.84-26.6Q82.99-29.55 84.29-31.65 85.59-33.75 87.49-34.88 89.39-36 91.24-36L91.24-36Q93.19-36 94.59-34.63 95.99-33.25 95.99-30.15L95.99-30.15Q95.99-28.05 95.42-25.45 94.84-22.85 94.07-20.18 93.29-17.5 92.72-15.1 92.14-12.7 92.14-11.05L92.14-11.05Q92.14-9.85 92.54-9.15 92.94-8.45 93.89-8.45L93.89-8.45Q95.24-8.45 96.69-9.83 98.14-11.2 99.49-13.28 100.84-15.35 101.94-17.35L101.94-17.35Q102.74-24.25 104.24-28.35 105.74-32.45 107.52-34.25 109.29-36.05 110.84-36.05L110.84-36.05Q112.49-36.05 113.62-34.43 114.74-32.8 114.74-30.2L114.74-30.2Q114.74-27.9 113.62-25.03 112.49-22.15 109.69-19.2L109.69-19.2Q109.34-17.45 109.12-15.55 108.89-13.65 108.89-11.95L108.89-11.95Q108.89-9.8 109.37-8.38 109.84-6.95 111.04-6.95L111.04-6.95Q111.84-6.95 112.57-7.68 113.29-8.4 113.79-9.85L113.79-9.85 114.19-9.65Q114.19-4.8 112.22-2.3 110.24 0.2 107.54 0.2L107.54 0.2Q105.09 0.2 103.44-2.23 101.79-4.65 101.49-10.45L101.49-10.45Q98.74-4.95 95.39-2.38 92.04 0.2 89.29 0.2ZM128.39 0.2L128.39 0.2Q126.84 0.2 125.67-0.6 124.49-1.4 124.54-3L124.54-3Q124.64-5.8 124.97-9.2 125.29-12.6 125.74-16.13 126.19-19.65 126.67-22.9 127.14-26.15 127.54-28.7L127.54-28.7Q126.64-28.8 125.79-28.85 124.94-28.9 124.24-28.9L124.24-28.9Q122.14-28.9 120.47-28.5 118.79-28.1 117.64-27.1L117.64-27.1Q117.64-30.25 118.17-32.23 118.69-34.2 120.12-35.1 121.54-36 124.29-36L124.29-36Q126.29-36 128.77-35.68 131.24-35.35 133.79-35 136.34-34.65 138.54-34.65L138.54-34.65Q140.34-34.65 141.77-35 143.19-35.35 143.94-36.25L143.94-36.25Q145.04-35.9 145.64-34.73 146.24-33.55 146.24-32.15L146.24-32.15Q146.24-30.9 145.69-29.73 145.14-28.55 143.94-27.78 142.74-27 140.69-27L140.69-27Q139.74-27 138.37-27.18 136.99-27.35 135.44-27.55L135.44-27.55Q134.89-24.55 134.31-20.38 133.74-16.2 133.37-11.4 132.99-6.6 132.89-1.65L132.89-1.65Q131.99-0.7 130.77-0.25 129.54 0.2 128.39 0.2Z" opacity="1" transform="matrix(1,0,0,1,0,0)" fill="#000000" class="wordmark-text-0" data-fill-palette-color="quaternary" id="text-0"></path></svg></g></svg></g><g transform="matrix(1,0,0,1,0,66.16417190455408)"><svg viewBox="0 0 213.1584412271571 31.840542158306594" height="31.840542158306594" width="213.1584412271571"><g transform="matrix(1,0,0,1,0,0)"><svg width="213.1584412271571" viewBox="3.98 -39.5 351.53 52.51" height="31.840542158306594" data-palette-color="#ececea"><path d="M13.67-15.33L13.67 0 3.98 0 3.98-35.16 13.67-35.16 13.67-19.8 26.51-19.8 26.51-35.16 36.21-35.16 36.21 0 26.51 0 26.51-15.33 13.67-15.33ZM71.51-28.2L71.51 0 63.25 0 63.25-3.37Q61.79-1.37 59.73-0.4 57.66 0.56 55.2 0.56L55.2 0.56Q51.98 0.56 49.44-0.59 46.9-1.73 45.14-3.72 43.38-5.71 42.45-8.4 41.53-11.08 41.53-14.16L41.53-14.16Q41.53-17.24 42.45-19.92 43.38-22.61 45.14-24.6 46.9-26.59 49.44-27.73 51.98-28.88 55.2-28.88L55.2-28.88Q56.83-28.88 58.31-28.39 59.79-27.91 61.02-27.01 62.25-26.12 63.19-24.87 64.13-23.61 64.67-22.07L64.67-22.07 68.33-28.2 71.51-28.2ZM63.21-14.16L63.21-14.16Q63.21-15.26 63.1-16.48 62.99-17.7 62.72-18.9 62.45-20.09 61.97-21.18 61.5-22.27 60.75-23.11 60.01-23.95 58.96-24.44 57.91-24.93 56.52-24.93L56.52-24.93Q55.12-24.93 54.1-24.43 53.07-23.93 52.34-23.08 51.61-22.24 51.13-21.14 50.66-20.04 50.39-18.85 50.12-17.65 50.01-16.44 49.9-15.23 49.9-14.16L49.9-14.16Q49.9-13.09 50.01-11.87 50.12-10.64 50.39-9.45 50.66-8.25 51.13-7.15 51.61-6.05 52.34-5.21 53.07-4.37 54.1-3.87 55.12-3.37 56.52-3.37L56.52-3.37Q57.79-3.37 58.77-3.89 59.76-4.42 60.51-5.3 61.25-6.18 61.77-7.3 62.28-8.42 62.6-9.62 62.91-10.82 63.06-12 63.21-13.18 63.21-14.16ZM87.1-35.01L87.1-35.01Q87.1-34.08 86.75-33.25 86.4-32.42 85.79-31.81 85.18-31.2 84.36-30.85 83.54-30.49 82.61-30.49L82.61-30.49Q81.68-30.49 80.85-30.85 80.02-31.2 79.41-31.81 78.8-32.42 78.45-33.25 78.1-34.08 78.1-35.01L78.1-35.01Q78.1-35.94 78.45-36.76 78.8-37.57 79.41-38.18 80.02-38.79 80.85-39.15 81.68-39.5 82.61-39.5L82.61-39.5Q83.54-39.5 84.36-39.15 85.18-38.79 85.79-38.18 86.4-37.57 86.75-36.76 87.1-35.94 87.1-35.01ZM86.74-28.2L86.74-8.15Q86.74-5.25 86.01-2.26 85.27 0.73 83.94 3.53 82.61 6.32 80.77 8.78 78.93 11.23 76.7 13.01L76.7 13.01 73.48 11.06Q74.73 9.35 75.65 7.19 76.58 5.03 77.2 2.71 77.83 0.39 78.14-1.97 78.46-4.32 78.46-6.45L78.46-6.45 78.46-28.2 86.74-28.2ZM102.24-35.01L102.24-35.01Q102.24-34.08 101.88-33.25 101.53-32.42 100.92-31.81 100.31-31.2 99.49-30.85 98.67-30.49 97.75-30.49L97.75-30.49Q96.82-30.49 95.99-30.85 95.16-31.2 94.55-31.81 93.94-32.42 93.58-33.25 93.23-34.08 93.23-35.01L93.23-35.01Q93.23-35.94 93.58-36.76 93.94-37.57 94.55-38.18 95.16-38.79 95.99-39.15 96.82-39.5 97.75-39.5L97.75-39.5Q98.67-39.5 99.49-39.15 100.31-38.79 100.92-38.18 101.53-37.57 101.88-36.76 102.24-35.94 102.24-35.01ZM101.87-28.2L101.87-8.15Q101.87-5.25 101.14-2.26 100.41 0.73 99.08 3.53 97.75 6.32 95.9 8.78 94.06 11.23 91.84 13.01L91.84 13.01 88.62 11.06Q89.86 9.35 90.79 7.19 91.72 5.03 92.34 2.71 92.96 0.39 93.28-1.97 93.6-4.32 93.6-6.45L93.6-6.45 93.6-28.2 101.87-28.2ZM149.4-16.41L158.09-12.28Q157.21-10.45 156.05-8.76 154.89-7.08 153.45-5.62L153.45-5.62 156.63-2.61 151.09 1.37 148.25-1.64Q146.03-0.44 143.64 0.13 141.25 0.71 138.73 0.71L138.73 0.71Q136.88 0.71 134.86 0.55 132.85 0.39 130.88-0.04 128.92-0.46 127.15-1.25 125.38-2.03 124.05-3.25 122.72-4.47 121.92-6.2 121.13-7.93 121.13-10.3L121.13-10.3Q121.13-12.16 121.83-13.75 122.52-15.33 123.71-16.56 124.89-17.8 126.44-18.64 127.99-19.48 129.72-19.85L129.72-19.85Q128.87-20.43 128.05-21.28 127.23-22.12 126.59-23.11 125.94-24.1 125.54-25.17 125.13-26.25 125.13-27.32L125.13-27.32Q125.13-29.66 126.12-31.27 127.11-32.89 128.7-33.87 130.29-34.86 132.28-35.3 134.26-35.74 136.27-35.74L136.27-35.74Q138.24-35.74 140.27-35.3 142.3-34.86 143.92-33.86 145.54-32.86 146.57-31.26 147.59-29.66 147.59-27.32L147.59-27.32Q147.59-25.63 146.94-24.28 146.28-22.92 145.2-21.84 144.13-20.75 142.79-19.9 141.44-19.04 140.1-18.36L140.1-18.36 148.28-10.57Q148.82-11.96 149.11-13.44 149.4-14.92 149.4-16.41L149.4-16.41ZM139.95-26.78L139.95-26.78Q139.95-27.64 139.72-28.42 139.49-29.2 139.04-29.79 138.59-30.37 137.89-30.73 137.19-31.08 136.27-31.08L136.27-31.08Q135.27-31.08 134.59-30.75 133.92-30.42 133.5-29.83 133.07-29.25 132.89-28.47 132.7-27.69 132.7-26.78L132.7-26.78Q132.7-26.1 133.06-25.37 133.41-24.63 133.94-23.95 134.46-23.27 135.05-22.66 135.63-22.05 136.12-21.61L136.12-21.61Q136.85-22 137.55-22.53 138.24-23.07 138.77-23.72 139.29-24.37 139.62-25.13 139.95-25.9 139.95-26.78ZM144.59-5.32L144.59-5.32 133.87-16.11Q132.19-15.19 131.47-13.67 130.75-12.16 130.75-10.3L130.75-10.3Q130.75-8.64 131.42-7.36 132.09-6.08 133.22-5.2 134.34-4.32 135.77-3.87 137.19-3.42 138.73-3.42L138.73-3.42Q140.34-3.42 141.83-3.87 143.32-4.32 144.59-5.32ZM180.06-35.16L187.17-35.16Q186.51-33.18 186.02-31.07 185.53-28.96 185.21-26.84 184.89-24.73 184.74-22.68 184.58-20.63 184.58-18.8L184.58-18.8Q184.58-17.46 184.59-15.78 184.6-14.11 184.78-12.38 184.97-10.64 185.38-9 185.8-7.35 186.62-6.05 187.43-4.76 188.72-3.98 190-3.2 191.9-3.2L191.9-3.2Q193.59-3.2 194.79-3.77 196-4.35 196.85-5.32 197.69-6.3 198.19-7.57 198.69-8.84 198.97-10.23 199.25-11.62 199.34-13.05 199.42-14.48 199.42-15.77L199.42-15.77 199.42-35.16 209.11-35.16 209.11-17.29Q209.11-13.45 207.89-10.16 206.67-6.86 204.45-4.43 202.23-2 199.08-0.62 195.93 0.76 192.1 0.76L192.1 0.76Q189.46 0.76 187.19 0.01 184.92-0.73 183.03-2.04 181.13-3.34 179.66-5.14 178.18-6.93 177.19-9.06 176.2-11.18 175.69-13.54 175.18-15.89 175.23-18.31L175.23-18.31 175.23-18.8Q175.25-20.75 175.62-22.84 175.98-24.93 176.61-27.03 177.23-29.13 178.11-31.19 178.99-33.25 180.06-35.16L180.06-35.16ZM259.06-16.46L259.06-16.46Q259.06-13.55 258.38-10.4 257.69-7.25 256.46-4.26 255.23-1.27 253.5 1.39 251.76 4.05 249.64 6.01L249.64 6.01 246.54 4.32Q247.25 3.05 247.83 1.46 248.42-0.12 248.91-1.88 249.39-3.64 249.76-5.49 250.13-7.35 250.38-9.19 250.64-11.04 250.76-12.77 250.88-14.5 250.88-16.02L250.88-16.02Q250.88-16.87 250.83-17.87 250.79-18.87 250.63-19.87 250.47-20.87 250.15-21.79 249.83-22.71 249.28-23.43 248.73-24.15 247.92-24.57 247.1-25 245.95-25L245.95-25Q244.83-25 244.04-24.4 243.24-23.8 242.68-22.85 242.12-21.9 241.79-20.7 241.46-19.51 241.29-18.3 241.12-17.09 241.06-15.99 241-14.89 241-14.14L241-14.14 241 0 232.77 0 232.77-13.13Q232.77-13.99 232.79-15.2 232.82-16.41 232.73-17.72 232.65-19.04 232.41-20.35 232.18-21.66 231.68-22.68 231.18-23.71 230.33-24.35 229.47-25 228.18-25L228.18-25Q227.08-25 226.33-24.39 225.59-23.78 225.09-22.81 224.59-21.85 224.31-20.64 224.03-19.43 223.89-18.23 223.76-17.02 223.73-15.93 223.71-14.84 223.71-14.14L223.71-14.14 223.71 0 215.43 0 215.43-28.2 218.61-28.2 221.64-21.63Q222.66-25.05 224.87-26.97 227.08-28.88 230.74-28.88L230.74-28.88Q234.04-28.88 236.21-27.51 238.38-26.15 239.63-23.07L239.63-23.07Q240.34-24.41 241.2-25.49 242.07-26.56 243.13-27.32 244.19-28.08 245.49-28.48 246.78-28.88 248.34-28.88L248.34-28.88Q251.23-28.88 253.26-27.94 255.3-27 256.6-25.34 257.89-23.68 258.48-21.4 259.06-19.12 259.06-16.46ZM288.53-25.71L288.53-25.71 283.89-18.02Q283.6-18.99 283.13-20.21 282.67-21.44 281.98-22.5 281.3-23.56 280.35-24.28 279.4-25 278.15-25L278.15-25Q277-25 276.16-24.41 275.32-23.83 274.73-22.89 274.15-21.95 273.77-20.76 273.39-19.58 273.18-18.37 272.98-17.16 272.9-16.05 272.83-14.94 272.83-14.14L272.83-14.14 272.83 0 264.55 0 264.55-28.2 267.73-28.2 271.07-21.63Q271.75-23.22 272.63-24.55 273.51-25.88 274.66-26.84 275.81-27.81 277.26-28.34 278.71-28.88 280.54-28.88L280.54-28.88Q281.5-28.88 282.67-28.72 283.84-28.56 284.96-28.19 286.09-27.81 287.04-27.2 287.99-26.59 288.53-25.71ZM319.8-28.2L319.8 0 311.55 0 311.55-3.37Q310.08-1.37 308.02-0.4 305.96 0.56 303.49 0.56L303.49 0.56Q300.27 0.56 297.73-0.59 295.19-1.73 293.43-3.72 291.67-5.71 290.75-8.4 289.82-11.08 289.82-14.16L289.82-14.16Q289.82-17.24 290.75-19.92 291.67-22.61 293.43-24.6 295.19-26.59 297.73-27.73 300.27-28.88 303.49-28.88L303.49-28.88Q305.13-28.88 306.6-28.39 308.08-27.91 309.31-27.01 310.55-26.12 311.49-24.87 312.43-23.61 312.96-22.07L312.96-22.07 316.63-28.2 319.8-28.2ZM311.5-14.16L311.5-14.16Q311.5-15.26 311.39-16.48 311.28-17.7 311.01-18.9 310.74-20.09 310.27-21.18 309.79-22.27 309.04-23.11 308.3-23.95 307.25-24.44 306.2-24.93 304.81-24.93L304.81-24.93Q303.42-24.93 302.39-24.43 301.37-23.93 300.63-23.08 299.9-22.24 299.43-21.14 298.95-20.04 298.68-18.85 298.41-17.65 298.3-16.44 298.19-15.23 298.19-14.16L298.19-14.16Q298.19-13.09 298.3-11.87 298.41-10.64 298.68-9.45 298.95-8.25 299.43-7.15 299.9-6.05 300.63-5.21 301.37-4.37 302.39-3.87 303.42-3.37 304.81-3.37L304.81-3.37Q306.08-3.37 307.07-3.89 308.06-4.42 308.8-5.3 309.55-6.18 310.06-7.3 310.57-8.42 310.89-9.62 311.21-10.82 311.35-12 311.5-13.18 311.5-14.16ZM355.51-16.16L355.51-16.16Q355.51-13.31 354.82-10.21 354.12-7.1 352.88-4.13 351.63-1.15 349.9 1.48 348.17 4.1 346.09 6.01L346.09 6.01 342.99 4.32Q343.65 3.1 344.24 1.59 344.82 0.07 345.3-1.62 345.77-3.32 346.15-5.13 346.53-6.93 346.79-8.7 347.04-10.47 347.18-12.15 347.31-13.82 347.31-15.26L347.31-15.26Q347.31-16.21 347.24-17.3 347.16-18.38 346.93-19.47 346.7-20.56 346.31-21.56 345.92-22.56 345.27-23.32 344.63-24.07 343.71-24.54 342.79-25 341.55-25L341.55-25Q340.33-25 339.38-24.45 338.42-23.9 337.69-23.01 336.96-22.12 336.43-20.97 335.91-19.82 335.58-18.62 335.25-17.41 335.1-16.24 334.96-15.06 334.96-14.14L334.96-14.14 334.96 0 326.68 0 326.68-38.57 334.93-38.57 334.93-24.05Q336.52-26.37 338.83-27.62 341.13-28.88 343.94-28.88L343.94-28.88Q346.87-28.88 349.04-27.93 351.22-26.98 352.66-25.28 354.1-23.58 354.81-21.25 355.51-18.92 355.51-16.16Z" opacity="1" transform="matrix(1,0,0,1,0,0)" fill="#000000" class="slogan-text-1" data-fill-palette-color="quaternary" id="text-1"></path></svg></g></svg></g></svg></g></svg></g><g transform="matrix(1,0,0,1,40.713262274387006,0)"><svg viewBox="0 0 131.7319166783831 122.6570513072056" height="122.6570513072056" width="131.7319166783831"><g><svg xmlns="http://www.w3.org/2000/svg" xmlns:xlink="http://www.w3.org/1999/xlink" version="1.1" x="0" y="0" viewBox="5 8.200000000000003 90 83.8" enable-background="new 0 0 100 100" xml:space="preserve" height="122.6570513072056" width="131.7319166783831" class="icon-icon-0" data-fill-palette-color="quaternary" id="icon-0"><path d="M95 14.6c0 0 0-0.1 0-0.1 0 0 0-0.1 0-0.1 0 0 0-0.1 0-0.1 0 0 0 0 0-0.1 0 0 0-0.1-0.1-0.1 0 0 0 0 0 0 0-0.1-0.1-0.1-0.1-0.1 0 0 0 0 0 0 0 0 0 0 0 0 0 0-0.1-0.1-0.1-0.1 0 0 0 0-0.1 0 0 0-0.1 0-0.1 0 0 0-0.1 0-0.1 0 0 0 0 0-0.1 0l-44-5.7c-0.1 0-0.2 0-0.2 0l-44 4.9c-0.5 0.1-0.9 0.5-0.9 1.1 0 0.1 0 0.2 0.1 0.3C5 14.3 5 14.5 5 14.6v67.7c0 0.5 0.3 0.9 0.8 0.9l44 8.8c0 0 0 0 0 0 0.1 0 0.1 0 0.2 0 0 0 0 0 0 0 0.1 0 0.1 0 0.2 0 0 0 0 0 0 0l44-8.8c0.5-0.1 0.8-0.5 0.8-0.9L95 14.6C95 14.6 95 14.6 95 14.6zM49 89.9L6.9 81.5v-5.6L49 83.4V89.9zM12 48.1l14.6 2.4v21.4l-14.6-2.5L12 48.1zM34 56.1v-4.4l4.1 0.7v4.4L34 56.1zM49 58.6l-4.5-0.8 0-4.4 4.6 0.8V58.6zM49 43.7l-42.1-7v-4.4l42.1 7V43.7zM50 20.5l-39.9-6.2L50 9.9l37.2 4.8L50 20.5zM93.1 81.5L51 89.9v-6.6l42.1-7.5V81.5zM93.1 51.6l-42.1 7v-4.4l42.1-7V51.6zM93.1 36.7l-42.1 7v-4.4l42.1-7V36.7z" fill="#000000" data-fill-palette-color="quaternary"></path></svg></g></svg></g><g></g></svg></g></svg></g></svg></g></svg></g><defs></defs></svg><rect width="333.90454557049503" height="333.90454557049503" fill="none" stroke="none" visibility="hidden"></rect></g></svg></g></svg>