<svg width="102" height="30" viewBox="0 0 102 30" fill="none" xmlns="http://www.w3.org/2000/svg">
<path d="M99.9104 25.7906C99.9104 26.1682 99.836 26.542 99.6914 26.8908C99.5468 27.2396 99.3348 27.5565 99.0676 27.8234C98.8004 28.0902 98.4832 28.3018 98.1342 28.446C97.7851 28.5902 97.4111 28.6643 97.0334 28.6639H2.88081C2.11769 28.6647 1.38551 28.3624 0.845276 27.8236C0.305042 27.2848 0.000994515 26.5535 0 25.7906V2.87704C0.000994058 2.11379 0.304921 1.38212 0.845048 0.842703C1.38517 0.303282 2.11735 0.000198117 2.88081 0H97.0326C97.4105 -1.28501e-08 97.7847 0.0744223 98.1338 0.219016C98.4829 0.36361 98.8001 0.575544 99.0673 0.842711C99.3344 1.10988 99.5464 1.42705 99.6909 1.7761C99.8354 2.12516 99.9098 2.49926 99.9097 2.87704L99.9104 25.7906Z" fill="#B5B5B5"/>
<path d="M102 26.9928C102 27.388 101.924 27.7793 101.776 28.1443C101.629 28.5094 101.412 28.841 101.14 29.1203C100.867 29.3996 100.543 29.621 100.187 29.772C99.8302 29.9229 99.4484 30.0004 99.0628 30H2.94106C2.16198 30.0008 1.41449 29.6845 0.862955 29.1206C0.311422 28.5566 0.00101531 27.7912 0 26.9928V3.01115C0.00101485 2.21232 0.311299 1.44655 0.862722 0.881984C1.41414 0.317419 2.16163 0.000207352 2.94106 0H99.062C99.4478 -1.34491e-08 99.8298 0.0778914 100.186 0.229225C100.543 0.380559 100.866 0.602371 101.139 0.881993C101.412 1.16161 101.628 1.49357 101.776 1.85889C101.923 2.22422 101.999 2.61576 101.999 3.01115L102 26.9928Z" fill="white"/>
<path d="M21.9402 14.1744C21.9185 11.7565 23.9206 10.5801 24.0121 10.5254C22.8783 8.87268 21.1208 8.64687 20.5032 8.62886C19.0272 8.47357 17.5954 9.51185 16.8435 9.51185C16.0766 9.51185 14.9187 8.64387 13.6708 8.66937C12.0649 8.69413 10.5626 9.62363 9.73866 11.067C8.03824 14.0101 9.30643 18.335 10.9356 20.7139C11.7505 21.8798 12.7028 23.1799 13.9492 23.1341C15.1686 23.0846 15.6241 22.3576 17.0956 22.3576C18.5537 22.3576 18.9814 23.1341 20.2526 23.1048C21.5613 23.0846 22.3852 21.9345 23.1717 20.7589C24.1134 19.4243 24.4916 18.1085 24.5066 18.0409C24.4766 18.0304 21.9658 17.0717 21.9402 14.1744V14.1744ZM19.5389 7.06393C20.1948 6.24396 20.6435 5.1284 20.519 3.99634C19.5697 4.03835 18.3826 4.65277 17.699 5.45474C17.0941 6.16143 16.5538 7.31975 16.6934 8.40905C17.7597 8.48857 18.8546 7.87115 19.5389 7.06393V7.06393Z" fill="#B5B5B5"/>
<path d="M39.6027 22.9667H37.8985L36.965 20.0342H33.7203L32.831 22.9667H31.1719L34.3874 12.983H36.3729L39.6027 22.9667V22.9667ZM36.6836 18.8038L35.8394 16.1969C35.7501 15.9306 35.582 15.3034 35.3359 14.3161H35.3059C35.2068 14.7407 35.0485 15.3679 34.8316 16.1969L34.0017 18.8038H36.6836ZM47.8556 19.2787C47.8556 20.5031 47.5232 21.4708 46.8576 22.1813C46.2618 22.8137 45.5211 23.1295 44.6379 23.1295C43.6841 23.1295 42.9983 22.7897 42.5818 22.1085V25.8858H40.9819V18.1339C40.9819 17.365 40.9617 16.5765 40.9226 15.7678H42.3296L42.4189 16.9088H42.449C42.9825 16.0491 43.7922 15.6192 44.8788 15.6192C45.7282 15.6192 46.4374 15.9546 47.0047 16.626C47.5712 17.2989 47.8556 18.1827 47.8556 19.2787ZM46.2258 19.3372C46.2258 18.6366 46.0682 18.0589 45.7515 17.6035C45.4056 17.1301 44.9411 16.8931 44.3587 16.8931C43.964 16.8931 43.6053 17.0251 43.2849 17.2854C42.9637 17.548 42.7536 17.8908 42.6553 18.3155C42.6114 18.4743 42.5865 18.6377 42.581 18.8023V20.0034C42.581 20.5263 42.7416 20.9682 43.0628 21.3298C43.384 21.6899 43.8012 21.8707 44.3145 21.8707C44.917 21.8707 45.386 21.6374 45.7215 21.1745C46.0577 20.7101 46.2258 20.098 46.2258 19.3372V19.3372ZM56.1378 19.2787C56.1378 20.5031 55.8054 21.4708 55.1398 22.1813C54.5432 22.8137 53.8033 23.1295 52.9194 23.1295C51.9656 23.1295 51.2797 22.7897 50.8633 22.1085V25.8858H49.2634V18.1339C49.2634 17.365 49.2431 16.5765 49.2041 15.7678H50.6111L50.7004 16.9088H50.7304C51.2632 16.0491 52.0729 15.6192 53.1602 15.6192C54.009 15.6192 54.7181 15.9546 55.2869 16.626C55.8527 17.2989 56.1378 18.1827 56.1378 19.2787V19.2787ZM54.5072 19.3372C54.5072 18.6366 54.3489 18.0589 54.0322 17.6035C53.6863 17.1301 53.2233 16.8931 52.641 16.8931C52.2463 16.8931 51.8876 17.0251 51.5656 17.2854C51.2445 17.548 51.0351 17.8908 50.9368 18.3155C50.888 18.5135 50.8618 18.6748 50.8618 18.8023V20.0034C50.8618 20.5263 51.0231 20.9682 51.3428 21.3298C51.6639 21.6891 52.0812 21.8707 52.5959 21.8707C53.1993 21.8707 53.6683 21.6374 54.003 21.1745C54.3391 20.7101 54.5072 20.098 54.5072 19.3372V19.3372ZM65.3979 20.1662C65.3979 21.0162 65.1007 21.7071 64.5101 22.2405C63.8603 22.8227 62.953 23.1145 61.7899 23.1145C60.7153 23.1145 59.8539 22.9075 59.204 22.4926L59.574 21.1595C60.2756 21.5751 61.0463 21.7822 61.8852 21.7822C62.4885 21.7822 62.9575 21.6456 63.2922 21.3748C63.6276 21.1032 63.7972 20.7401 63.7972 20.287C63.7972 19.8811 63.6569 19.5413 63.3815 19.2645C63.1046 18.9884 62.6469 18.7311 62.0038 18.4948C60.2553 17.8428 59.3804 16.8893 59.3804 15.635C59.3804 14.8157 59.6895 14.1451 60.3063 13.6207C60.9232 13.097 61.7411 12.8352 62.7587 12.8352C63.6674 12.8352 64.4246 12.9935 65.0256 13.3093L64.6242 14.6132C64.0584 14.3071 63.4198 14.1541 62.7054 14.1541C62.1411 14.1541 61.6984 14.2929 61.3817 14.5689C61.1153 14.8157 60.9802 15.1166 60.9802 15.4737C60.9802 15.8675 61.134 16.1946 61.4402 16.4512C61.7059 16.6875 62.1906 16.9448 62.8915 17.2209C63.7515 17.5675 64.3833 17.9711 64.7878 18.4347C65.1952 18.8984 65.3979 19.4768 65.3979 20.1662ZM70.701 16.9681H68.9375V20.4633C68.9375 21.3523 69.2482 21.7957 69.871 21.7957C70.1569 21.7957 70.394 21.7717 70.5816 21.7214L70.6259 22.936C70.3108 23.0538 69.8958 23.113 69.3817 23.113C68.7499 23.113 68.2561 22.9202 67.8997 22.5346C67.5448 22.149 67.3662 21.5031 67.3662 20.5938V16.9651H66.3156V15.7648H67.3662V14.4466L68.9375 13.9725V15.7648H70.701V16.9681V16.9681ZM78.6418 19.308C78.6418 20.4145 78.3251 21.323 77.6932 22.0335C77.0321 22.7649 76.1527 23.1295 75.0563 23.1295C73.9982 23.1295 73.157 22.7792 72.5297 22.0792C71.9024 21.3778 71.5887 20.4941 71.5887 19.428C71.5887 18.3125 71.9129 17.3987 72.559 16.6883C73.2066 15.9771 74.0785 15.6215 75.1749 15.6215C76.2314 15.6215 77.0802 15.9726 77.7225 16.6733C78.3363 17.3529 78.6418 18.2307 78.6418 19.308ZM76.9834 19.3447C76.9834 18.6853 76.8408 18.1197 76.5549 17.6463C76.2194 17.0746 75.7392 16.7888 75.1171 16.7888C74.4762 16.7888 73.9847 17.0746 73.6501 17.6463C73.3634 18.1197 73.2208 18.6951 73.2208 19.3748C73.2208 20.0349 73.3634 20.6021 73.6501 21.074C73.996 21.6456 74.4785 21.9315 75.1036 21.9315C75.7152 21.9315 76.1947 21.6396 76.5414 21.0597C76.8355 20.5751 76.9834 20.0057 76.9834 19.3447ZM83.8443 17.1744C83.6779 17.1444 83.5091 17.1296 83.34 17.1301C82.7772 17.1301 82.342 17.3417 82.0358 17.7678C81.7702 18.1429 81.6366 18.617 81.6366 19.1895V22.9667H80.0367V18.0349C80.0382 17.2792 80.0227 16.5235 79.9902 15.7685H81.3837L81.4423 17.1459H81.4865C81.6561 16.6725 81.9218 16.2907 82.2865 16.0048C82.6203 15.7551 83.0259 15.6198 83.4428 15.6192C83.5907 15.6192 83.7242 15.6297 83.8428 15.6485L83.8443 17.1744V17.1744ZM90.9994 19.0267C91.0035 19.2698 90.9839 19.5128 90.9409 19.7521H86.1413C86.1593 20.4633 86.3919 21.008 86.8377 21.3831C87.2421 21.7176 87.7652 21.8857 88.4075 21.8857C89.1182 21.8857 89.7665 21.7732 90.3496 21.5459L90.6002 22.6554C89.9188 22.9525 89.1144 23.1003 88.1861 23.1003C87.0695 23.1003 86.1931 22.7717 85.5552 22.116C84.9189 21.4596 84.6 20.5773 84.6 19.4723C84.6 18.3875 84.8964 17.4835 85.4899 16.7625C86.1113 15.9928 86.951 15.608 88.0076 15.608C89.0454 15.608 89.831 15.9928 90.3646 16.7625C90.7871 17.3725 90.9994 18.1287 90.9994 19.0267V19.0267ZM89.4738 18.6118C89.4851 18.1369 89.38 17.728 89.1632 17.3822C88.8863 16.9366 88.4601 16.7145 87.889 16.7145C87.366 16.7145 86.9397 16.9313 86.6156 17.3665C86.3492 17.7123 86.1908 18.1279 86.142 18.6103L89.4738 18.6118Z" fill="#B5B5B5"/>
<path d="M33.2588 9.45298C32.8138 9.45298 32.4288 9.43122 32.1084 9.39446V4.56763C32.5565 4.49842 33.0094 4.46431 33.4629 4.46561C35.2976 4.46561 36.1426 5.3681 36.1426 6.83926C36.1426 8.53623 35.1445 9.45298 33.2588 9.45298ZM33.5274 5.08453C33.2798 5.08453 33.0689 5.09953 32.8941 5.13554V8.8048C32.9886 8.8198 33.1702 8.82656 33.4254 8.82656C34.6275 8.82656 35.3119 8.14237 35.3119 6.86102C35.3119 5.71845 34.6928 5.08453 33.5274 5.08453V5.08453ZM38.7757 9.48974C37.7417 9.48974 37.0716 8.71778 37.0716 7.66974C37.0716 6.57744 37.7559 5.79872 38.8343 5.79872C39.8533 5.79872 40.5384 6.53393 40.5384 7.61197C40.5384 8.71778 39.8323 9.48974 38.7757 9.48974ZM38.8058 6.37338C38.2377 6.37338 37.8738 6.90453 37.8738 7.64723C37.8738 8.37568 38.2452 8.90683 38.7983 8.90683C39.3513 8.90683 39.7228 8.33892 39.7228 7.63223C39.7228 6.91203 39.3588 6.37338 38.8058 6.37338ZM46.4351 5.87149L45.3283 9.40947H44.6071L44.1486 7.87304C44.0346 7.49722 43.9397 7.11588 43.8642 6.73048H43.8492C43.7915 7.11609 43.6819 7.50244 43.5656 7.87304L43.0778 9.40947H42.3492L41.3076 5.87149H42.1158L42.5165 7.55346C42.6111 7.95407 42.6906 8.33217 42.7566 8.68927H42.7717C42.8294 8.39144 42.924 8.01933 43.0628 7.56096L43.5656 5.87224H44.2064L44.6874 7.52495C44.8038 7.92556 44.8983 8.31867 44.9718 8.69002H44.9929C45.0439 8.32617 45.1242 7.93981 45.233 7.52495L45.663 5.87224L46.4351 5.87149V5.87149ZM50.5098 9.40947H49.7234V7.37791C49.7234 6.75224 49.4833 6.43865 49.0098 6.43865C48.5438 6.43865 48.2233 6.83926 48.2233 7.30514V9.40947H47.4369V6.88277C47.4369 6.56994 47.4294 6.23459 47.4077 5.87074H48.0995L48.1363 6.41689H48.1581C48.3697 6.03879 48.7989 5.79872 49.2799 5.79872C50.0228 5.79872 50.5106 6.36663 50.5106 7.29088L50.5098 9.40947V9.40947ZM52.6785 9.40947H51.8913V4.24805H52.6785V9.40947ZM55.5458 9.48974C54.5125 9.48974 53.8416 8.71778 53.8416 7.66974C53.8416 6.57744 54.526 5.79872 55.6036 5.79872C56.6234 5.79872 57.3078 6.53393 57.3078 7.61197C57.3085 8.71778 56.6016 9.48974 55.5458 9.48974ZM55.5751 6.37338C55.007 6.37338 54.6431 6.90453 54.6431 7.64723C54.6431 8.37568 55.0153 8.90683 55.5668 8.90683C56.1206 8.90683 56.4913 8.33892 56.4913 7.63223C56.4921 6.91203 56.1289 6.37338 55.5751 6.37338V6.37338ZM60.4084 9.40947L60.3514 9.0021H60.3304C60.0903 9.32994 59.7398 9.48974 59.2956 9.48974C58.6615 9.48974 58.2112 9.04562 58.2112 8.44845C58.2112 7.57521 58.9684 7.12359 60.2794 7.12359V7.05832C60.2794 6.59244 60.0325 6.35913 59.5447 6.35913C59.1958 6.35913 58.8896 6.4469 58.6202 6.6217L58.4604 6.10481C58.7875 5.90075 59.1958 5.79872 59.6753 5.79872C60.5998 5.79872 61.0665 6.28636 61.0665 7.26238V8.56548C61.0665 8.92258 61.0823 9.19941 61.1176 9.41022L60.4084 9.40947V9.40947ZM60.3004 7.64723C59.4269 7.64723 58.9887 7.85879 58.9887 8.36068C58.9887 8.73203 59.2145 8.91358 59.5282 8.91358C59.9282 8.91358 60.3004 8.60825 60.3004 8.19338V7.64723V7.64723ZM64.8853 9.40947L64.8486 8.84156H64.8268C64.6009 9.27068 64.2212 9.48974 63.6907 9.48974C62.8375 9.48974 62.2056 8.73953 62.2056 7.68399C62.2056 6.57744 62.8607 5.79797 63.7552 5.79797C64.2287 5.79797 64.5642 5.95777 64.7533 6.27886H64.769V4.24805H65.5562V8.45595C65.5562 8.79805 65.5645 9.11839 65.5855 9.40947H64.8853ZM64.769 7.32764C64.769 6.83251 64.4411 6.41014 63.9406 6.41014C63.3575 6.41014 63.0011 6.92703 63.0011 7.65473C63.0011 8.36818 63.371 8.85656 63.9248 8.85656C64.4193 8.85656 64.769 8.4267 64.769 7.91731V7.32764ZM70.5471 9.48974C69.5138 9.48974 68.8437 8.71778 68.8437 7.66974C68.8437 6.57744 69.5281 5.79872 70.6057 5.79872C71.6255 5.79872 72.3098 6.53393 72.3098 7.61197C72.3106 8.71778 71.6045 9.48974 70.5471 9.48974ZM70.5764 6.37338C70.0091 6.37338 69.6452 6.90453 69.6452 7.64723C69.6452 8.37568 70.0166 8.90683 70.5689 8.90683C71.1227 8.90683 71.4934 8.33892 71.4934 7.63223C71.4949 6.91203 71.131 6.37338 70.5764 6.37338ZM76.5391 9.40947H75.752V7.37791C75.752 6.75224 75.5118 6.43865 75.0383 6.43865C74.5723 6.43865 74.2526 6.83926 74.2526 7.30514V9.40947H73.4655V6.88277C73.4655 6.56994 73.458 6.23459 73.4362 5.87074H74.1281L74.1648 6.41689H74.1866C74.3975 6.03879 74.8275 5.79797 75.3077 5.79797C76.0506 5.79797 76.5391 6.36588 76.5391 7.29013V9.40947ZM81.8302 6.46116H80.965V8.17913C80.965 8.6165 81.1166 8.83481 81.4228 8.83481C81.5616 8.83481 81.6779 8.8198 81.7717 8.79805L81.7935 9.39521C81.6411 9.45373 81.437 9.48299 81.1834 9.48299C80.5635 9.48299 80.1928 9.14089 80.1928 8.24515V6.46116H79.6766V5.87149H80.1928V5.22332L80.965 4.99V5.87074H81.8302V6.46116V6.46116ZM85.9935 9.40947H85.2078V7.39291C85.2078 6.75974 84.9684 6.4394 84.4942 6.4394C84.0867 6.4394 83.707 6.71623 83.707 7.27663V9.40947H82.9213V4.24805H83.707V6.37338H83.7228C83.9704 5.98778 84.3291 5.79797 84.7868 5.79797C85.5357 5.79797 85.9935 6.38013 85.9935 7.30514V9.40947V9.40947ZM90.2588 7.82953H87.8988C87.9138 8.49947 88.3573 8.87757 89.0139 8.87757C89.3628 8.87757 89.684 8.81905 89.9676 8.71027L90.0899 9.25642C89.7553 9.40196 89.3613 9.47473 88.9028 9.47473C87.796 9.47473 87.1408 8.77554 87.1408 7.69149C87.1408 6.6067 87.8117 5.79122 88.8143 5.79122C89.7185 5.79122 90.2858 6.46116 90.2858 7.47318C90.2909 7.59262 90.2818 7.71223 90.2588 7.82953V7.82953ZM89.5376 7.26913C89.5376 6.72298 89.2622 6.33737 88.7595 6.33737C88.3077 6.33737 87.9505 6.73048 87.8995 7.26913H89.5376V7.26913Z" fill="#B5B5B5"/>
</svg>