<svg width="423" height="57" viewBox="0 0 423 57" fill="none" xmlns="http://www.w3.org/2000/svg">
<path d="M8.33709 15.6576H7.58139V8.90508H8.33709V15.6576ZM14.5777 13.8293C14.5777 15.0238 13.627 15.7551 12.2619 15.7551C11.238 15.7551 10.2629 15.3895 9.50721 14.6825L9.99476 14.1219C10.6042 14.7313 11.433 15.0726 12.3106 15.0726C13.237 15.0726 13.822 14.585 13.822 13.9268C13.822 13.293 13.5051 12.9274 12.0668 12.6592C10.5067 12.3423 9.79974 11.8304 9.79974 10.709C9.79974 9.6364 10.7261 8.8807 12.0425 8.8807C12.8957 8.85632 13.7489 9.14885 14.4071 9.70953L13.9683 10.319C13.432 9.8558 12.725 9.61202 12.0181 9.61202C11.1405 9.61202 10.5798 10.0996 10.5798 10.6846C10.5798 11.3184 10.9455 11.6841 12.4081 12.001C13.8951 12.2204 14.5777 12.7811 14.5777 13.8293ZM21.3546 8.80757C19.4532 8.78319 17.8931 10.319 17.8931 12.2204V12.3179C17.8443 14.195 19.3313 15.7308 21.184 15.7795H21.3303C23.2317 15.8039 24.7919 14.2681 24.7919 12.3667V12.2692C24.7919 10.3921 23.4267 8.80757 21.3546 8.80757ZM23.9874 12.3179C23.9874 13.8293 22.8661 15.0726 21.3546 15.0726C19.8432 15.0726 18.6731 13.8293 18.6731 12.2692C18.6731 10.7578 19.7945 9.51451 21.3059 9.51451C22.8661 9.46576 23.9874 10.7578 23.9874 12.3179ZM15.8453 8.90508H16.601V15.6576H15.8453V8.90508ZM2.94967 15.7064L0.0243791 8.92945H0.853212L1.24325 9.92893L3.2422 14.7557L3.43722 15.2432L3.36409 14.4875L5.63119 8.92945H6.46003L3.53473 15.7064H2.94967ZM31.0325 8.90508H31.7882V15.6576H31.1788L26.3764 9.58765L26.8152 10.5871V15.7064H26.0595V8.90508H26.7664L31.325 14.6825L31.0081 13.8537L31.0325 8.90508Z" fill="#D1D1D1"/>
<path d="M52.3871 16.3889H53.0941V17.0959H52.3871V16.3889ZM53.8254 16.3889H54.5324V17.0959H53.8254V16.3889ZM39.0771 8.19813H38.3701V7.4668H39.0771V8.19813ZM56.5801 13.1955C56.8726 13.3905 57.1895 13.5368 57.5308 13.6343C57.8964 13.7074 58.2865 13.7562 58.6521 13.7562H58.8472L59.0909 13.2443V13.9512C59.1153 14.2437 58.9934 14.5363 58.774 14.7557C58.5059 14.9507 58.1646 15.0238 57.8477 14.9994C57.6527 14.9994 57.4333 14.9751 57.2383 14.9263C57.0676 14.8775 56.8726 14.8044 56.6288 14.7313L56.385 15.4138C56.6532 15.5357 56.897 15.5845 57.092 15.6576C57.3114 15.7064 57.5064 15.7308 57.7258 15.7308C58.4084 15.7308 58.9203 15.5601 59.2372 15.2432C59.5785 14.8775 59.7491 14.4144 59.7248 13.9268V8.90507H58.6034C58.189 8.90507 57.7989 8.9782 57.4089 9.10009C57.0676 9.1976 56.7507 9.36824 56.4826 9.61202C56.2388 9.80704 56.0194 10.0752 55.8731 10.3677C55.7269 10.6846 55.6537 11.0259 55.6781 11.3672C55.6537 11.7329 55.7512 12.1229 55.9219 12.4398C56.0681 12.7323 56.3119 13.0005 56.5801 13.1955ZM56.5801 10.6602C56.702 10.4409 56.8482 10.2702 57.0189 10.0996C57.2139 9.92892 57.4333 9.80704 57.6527 9.73391C57.8721 9.66077 58.1158 9.61202 58.3596 9.61202H59.5054L59.1153 9.80704V13.0005H58.4084C57.9208 13.0005 57.4333 12.8542 57.0189 12.5617C56.8482 12.4154 56.702 12.2448 56.5801 12.0498C56.4582 11.8304 56.4094 11.5866 56.4094 11.3428C56.4094 11.099 56.4582 10.8553 56.5801 10.6602ZM40.5153 8.19813H39.8084V7.4668H40.5153V8.19813ZM61.6018 15.7308C61.4068 15.7064 61.1874 15.682 60.9924 15.6576L61.1874 14.9751C61.2362 14.9994 61.3093 15.0238 61.3824 15.0238H61.5531C61.6749 15.0238 61.7968 14.9751 61.87 14.9751C61.9431 14.9263 62.0162 14.8532 62.065 14.78C62.1137 14.6581 62.1625 14.5363 62.1869 14.4144C62.2356 14.2437 62.2356 14.0731 62.2356 13.9024V8.90507H62.9426V13.9024C62.9426 14.1462 62.9182 14.4144 62.8694 14.6581C62.8451 14.8532 62.7476 15.0482 62.6257 15.2188C62.5038 15.3895 62.3575 15.5114 62.1869 15.5845C62.0894 15.7064 61.8943 15.7308 61.6018 15.7308ZM59.7979 8.19813H58.2377V7.58869C58.2133 7.34492 58.2865 7.10114 58.4327 6.90612C58.6034 6.75986 58.8472 6.68672 59.0666 6.7111H59.5785V7.19865H59.0909C58.9934 7.19865 58.9203 7.22303 58.8472 7.27178C58.7984 7.32054 58.7984 7.39367 58.7984 7.4668V7.63744H59.7979V8.19813ZM38.5651 15.6332H40.0522V15.1213C40.0522 15.1701 40.1009 15.1701 40.1009 15.1945C40.2228 15.3651 40.3691 15.487 40.5397 15.5601C40.7347 15.6332 40.9541 15.682 41.1735 15.682H54.5567V8.90507H53.8498V14.9263H41.2466C41.1248 14.9263 41.0029 14.8775 40.9297 14.8775C40.8566 14.8288 40.7835 14.7557 40.7347 14.6825C40.686 14.5606 40.6372 14.4388 40.6128 14.3169C40.5641 14.1462 40.5641 13.9756 40.5641 13.8049V8.90507H38.6139C36.6149 8.90507 35.2985 10.4652 35.2985 12.2692C35.201 14.0243 36.5662 15.5357 38.3214 15.6332C38.3945 15.6332 38.492 15.6332 38.5651 15.6332ZM36.0055 12.2204C36.0055 10.7334 37.0781 9.53889 38.5651 9.53889H40.2472L39.8084 9.73391V13.8049C39.8084 14.0487 39.8328 14.3169 39.8815 14.5606C39.9303 14.6825 39.9546 14.8044 40.0034 14.9263H38.6139C37.1025 14.9507 36.0055 13.7562 36.0055 12.2204Z" fill="#D1D1D1"/>
<path d="M2.7059 49.4692H2.14522L1.17012 48.1528L0.633814 48.6891V49.4692H0.19502V46.6414H0.633814V48.1528L2.12084 46.6414H2.63277L1.43827 47.8359L2.7059 49.4692Z" fill="#D1D1D1"/>
<path d="M3.70537 46.6414H3.26658V49.5179H3.70537V46.6414Z" fill="#D1D1D1"/>
<path d="M7.11822 46.6414V49.4692H6.7038L5.02175 47.3239V49.4692H4.58296V46.6414H5.02175L6.67942 48.7135V46.6414H7.11822Z" fill="#D1D1D1"/>
<path d="M10.4579 47.9334V49.1279C10.1166 49.4204 9.70223 49.5667 9.26343 49.5667C8.48335 49.6154 7.82516 49.006 7.77641 48.2259V48.0796C7.75203 47.2752 8.41022 46.617 9.21468 46.5926H9.26343C9.65347 46.5926 10.0435 46.7145 10.336 46.9583L10.0679 47.2752C9.84849 47.0558 9.55596 46.9339 9.26343 46.9583C8.70275 46.9826 8.23958 47.4458 8.26396 48.0309C8.23958 48.5916 8.654 49.0791 9.23905 49.1035H9.31219C9.58034 49.1035 9.82411 49.0304 10.0191 48.8597V48.2503H9.26343V47.9334H10.4579Z" fill="#D1D1D1"/>
<path d="M12.335 46.6414H11.3111V49.5179H12.3594C13.1394 49.5667 13.822 48.9572 13.8708 48.1772V48.0796C13.8464 47.2752 13.1882 46.617 12.3837 46.6414C12.3675 46.6414 12.3512 46.6414 12.335 46.6414ZM12.335 49.0791H11.7012V47.007H12.335C12.8957 47.007 13.3588 47.4702 13.3588 48.0309C13.3588 48.5916 12.8957 49.0791 12.335 49.0791Z" fill="#D1D1D1"/>
<path d="M15.9429 46.5683C15.114 46.5439 14.4558 47.2021 14.4315 48.0309V48.0553C14.4071 48.8597 15.0653 49.5179 15.8697 49.5423H15.9185C16.7473 49.5423 17.4055 48.8841 17.4299 48.0553C17.4299 47.2508 16.7717 46.5683 15.9429 46.5683ZM16.9667 48.0797C16.9911 48.6403 16.5523 49.1279 15.9672 49.1523H15.9185C15.3334 49.1523 14.8702 48.6891 14.8702 48.104V48.0797C14.8702 47.4946 15.3334 47.0314 15.9185 47.0314C16.5035 47.0314 16.9667 47.4946 16.9667 48.0797Z" fill="#D1D1D1"/>
<path d="M20.9646 46.6414V49.4692H20.5258V47.2752L19.5263 48.7622L18.5756 47.2752V49.4692H18.1368V46.6414H18.6L19.5263 48.0309L20.4527 46.6414H20.9646Z" fill="#D1D1D1"/>
<path d="M24.6456 46.5683C23.8168 46.5439 23.1586 47.2021 23.1342 48.0309V48.0553C23.1098 48.8597 23.768 49.5179 24.5725 49.5423H24.6212C25.4501 49.5423 26.1082 48.8841 26.1326 48.0797C26.1326 47.2508 25.4744 46.5683 24.6456 46.5683ZM25.6451 48.0797C25.6695 48.6403 25.2307 49.1279 24.6456 49.1523H24.5968C24.0118 49.1523 23.5486 48.6891 23.5486 48.104V48.0797C23.5242 47.519 23.9387 47.0314 24.5237 47.007H24.5968C25.1575 46.9827 25.6207 47.4215 25.6451 47.9578V48.0797Z" fill="#D1D1D1"/>
<path d="M27.2784 47.007V47.8846H28.741V48.2747H27.2784V49.4692H26.8396V46.6414H28.936V47.007H27.2784Z" fill="#D1D1D1"/>
<path d="M33.129 48.6891C33.129 49.201 32.7389 49.518 32.1295 49.518C31.7151 49.518 31.3006 49.3473 30.9837 49.0792L31.2519 48.7623C31.52 48.9816 31.837 49.1035 32.1782 49.1279C32.5439 49.1279 32.7389 48.9573 32.7389 48.7379C32.7389 48.5185 32.5683 48.3722 32.0563 48.2503C31.4469 48.0797 31.1056 47.9334 31.1056 47.4215C31.1056 46.9096 31.4957 46.617 32.0563 46.617C32.422 46.617 32.7633 46.7389 33.0558 46.9339L32.8121 47.2508C32.5927 47.0802 32.3001 46.9827 32.0076 46.9827C31.6907 46.9827 31.4957 47.1533 31.4957 47.3727C31.4957 47.5921 31.6663 47.7384 32.2026 47.8847C32.9096 48.0309 33.129 48.2503 33.129 48.6891Z" fill="#D1D1D1"/>
<path d="M35.2254 46.617H34.7866L33.519 49.4936H33.9578L34.2747 48.7866H35.713L35.9811 49.4936H36.4687L35.2254 46.617ZM34.421 48.3966L34.9816 47.0802L35.5423 48.3966H34.421Z" fill="#D1D1D1"/>
<path d="M39.3208 46.6414V48.2747C39.3208 49.0791 38.882 49.5423 38.0776 49.5423C37.3219 49.5423 36.8831 49.1035 36.8831 48.299V46.6658H37.3219V48.299C37.3219 48.8597 37.59 49.1766 38.1263 49.1766C38.6139 49.1766 38.9308 48.8597 38.9308 48.299V46.6658L39.3208 46.6414Z" fill="#D1D1D1"/>
<path d="M41.1979 46.6414H40.1253V49.5179H41.1979C42.0023 49.5667 42.6849 48.9572 42.7093 48.1528C42.758 47.3483 42.1486 46.6658 41.3442 46.6414H41.1979ZM41.1979 49.0791H40.5641V47.007H41.1979C41.7586 46.9827 42.2461 47.3971 42.2705 47.9821V48.0553C42.2949 48.5916 41.8805 49.0547 41.3442 49.0791H41.1979Z" fill="#D1D1D1"/>
<path d="M43.9282 46.6414H43.4894V49.5179H43.9282V46.6414Z" fill="#D1D1D1"/>
<path d="M47.7554 46.617H47.3166L46.049 49.4936H46.4878L46.8047 48.7866H48.243L48.5111 49.4936H48.9987L47.7554 46.617ZM46.9997 48.3966L47.5604 47.0802L48.1211 48.3966H46.9997Z" fill="#D1D1D1"/>
<path d="M51.217 48.3965H51.2658C51.6558 48.3234 51.9483 47.9821 51.9483 47.5677C51.9727 47.3483 51.8752 47.1045 51.7046 46.9583C51.4852 46.7632 51.1683 46.6657 50.8757 46.6901H49.5837V49.5666H50.0225V48.5184H50.7539L51.4608 49.5179H51.9727L51.217 48.3965ZM50.0713 48.0796V47.007H50.8757C51.2658 47.007 51.5096 47.202 51.5096 47.5189C51.5096 47.8359 51.2658 48.0309 50.8757 48.0309H50.0713V48.0796Z" fill="#D1D1D1"/>
<path d="M54.2154 46.617H53.7767L52.509 49.4936H52.9478L53.2647 48.7866H54.703L54.9711 49.4936H55.4587L54.2154 46.617ZM53.411 48.3966L53.9717 47.0802L54.5324 48.3966H53.411Z" fill="#D1D1D1"/>
<path d="M57.8477 48.0309L57.7746 47.9821L57.8477 47.9334C58.0915 47.8115 58.2377 47.5677 58.2377 47.2996C58.2377 47.1289 58.1646 46.9339 58.0427 46.812C57.8233 46.6414 57.5552 46.5439 57.287 46.5683H56.0194V49.4448H57.3358C57.9696 49.4448 58.384 49.1766 58.384 48.6891C58.4084 48.3722 58.2621 48.1528 57.8477 48.0309ZM56.5069 47.007H57.3114C57.677 47.007 57.8721 47.1777 57.8721 47.3971C57.8721 47.6652 57.677 47.8359 57.2626 47.8359H56.5069V47.007ZM57.3845 49.1279H56.5069V48.2503H57.3845C57.9452 48.2503 58.0183 48.5184 58.0183 48.6891C57.9696 48.9572 57.7746 49.1279 57.3845 49.1279Z" fill="#D1D1D1"/>
<path d="M59.5785 46.6414H59.1397V49.5179H59.5785V46.6414Z" fill="#D1D1D1"/>
<path d="M61.8456 46.617H61.4068L60.1392 49.4936H60.578L60.8949 48.7866H62.3331L62.65 49.4936H63.0888L61.8456 46.617ZM61.0899 48.3966L61.6506 47.0802L62.2113 48.3966H61.0899Z" fill="#D1D1D1"/>
<path d="M45.5615 40.1814H45.1227V40.6202H45.5615V40.1814ZM40.3934 43.8867H40.7835V40.1814H40.3934V43.8867ZM4.38794 41.0833H3.9979V43.4723H2.36461V41.0833H1.7308C1.48703 41.0833 1.24325 41.1321 1.02385 41.2052C0.853212 41.2784 0.658193 41.3515 0.511928 41.4734C0.365663 41.5953 0.243776 41.7415 0.146266 41.9122C0.073134 42.0828 0.0243791 42.2778 0.0243791 42.4729C0.0243791 42.6922 0.073134 42.9116 0.146266 43.1067C0.219399 43.2773 0.341286 43.4479 0.511928 43.5455C0.68257 43.6673 0.87759 43.7649 1.07261 43.7892C1.29201 43.838 1.48703 43.8624 1.70642 43.8624H4.41232L4.38794 41.0833ZM1.9502 43.4479H1.56016C1.41389 43.4479 1.26763 43.4236 1.12136 43.3748C0.999477 43.3261 0.87759 43.2529 0.755703 43.1798C0.633815 43.1067 0.560683 42.9848 0.511928 42.8629C0.463173 42.741 0.438796 42.5947 0.438796 42.4729C0.438796 42.351 0.463173 42.2047 0.511928 42.0828C0.58506 41.9609 0.658193 41.8634 0.755703 41.7659C0.87759 41.6928 0.999477 41.6196 1.12136 41.5709C1.24325 41.5465 1.38952 41.5221 1.5114 41.4978H1.90144V43.4967H1.9502V43.4479ZM3.26658 44.8131H3.70537V44.3743H3.26658V44.8131ZM2.36461 40.1814H1.92582V40.6202H2.36461V40.1814ZM27.4978 40.1814H27.059V40.6202H27.4978V40.1814ZM3.9979 44.8131H4.4367V44.3743H3.9979V44.8131ZM28.2291 40.1814H27.7903V40.6202H28.2291V40.1814ZM44.8301 40.1814H44.3913V40.6202H44.8301V40.1814ZM1.63329 40.1814H1.1945V40.6202H1.63329V40.1814ZM29.5942 44.8131H30.033V44.3743H29.5942V44.8131ZM32.2514 41.0833H31.8613V43.4723H30.3012V41.0833H29.9111V43.4723H28.2778V41.0833H27.644C27.4003 41.0833 27.1565 41.1321 26.9371 41.2052C26.7664 41.2784 26.5714 41.3515 26.4252 41.4734C26.2789 41.5953 26.157 41.7415 26.0595 41.9122C25.9864 42.0828 25.9376 42.2778 25.9376 42.4729C25.9376 42.6922 25.9864 42.9116 26.0595 43.1067C26.1326 43.2773 26.2545 43.4479 26.4252 43.5455C26.5958 43.6673 26.7908 43.7649 26.9858 43.7892C27.2052 43.838 27.4003 43.8624 27.6197 43.8624H32.3001L32.2514 41.0833ZM27.839 43.4479H27.449C27.3027 43.4479 27.1565 43.4236 27.0102 43.3748C26.8883 43.3261 26.7664 43.2529 26.6446 43.1798C26.5227 43.1067 26.4495 42.9848 26.4008 42.8629C26.352 42.741 26.3276 42.5947 26.3276 42.4729C26.3276 42.351 26.352 42.2047 26.4008 42.0828C26.4739 41.9609 26.547 41.8634 26.6446 41.7659C26.7664 41.6928 26.8883 41.6196 27.0102 41.5709C27.1321 41.5221 27.2784 41.4978 27.4003 41.4978H27.7903V43.4967H27.839V43.4479ZM30.3499 44.8131H30.7887V44.3743H30.3499V44.8131ZM7.06946 41.449C6.94757 41.3515 6.82569 41.254 6.7038 41.1808C6.55754 41.1077 6.38689 41.0833 6.21625 41.1077H5.89934V41.4978H6.26501C6.36252 41.5221 6.43565 41.5465 6.53316 41.5709C6.63067 41.6196 6.7038 41.6684 6.77693 41.7415C6.82569 41.8147 6.85007 41.9122 6.89882 41.9853C6.94757 42.0828 6.94757 42.2047 6.94757 42.3022V43.4967H4.99738V43.8867H7.36199V42.2535C7.36199 42.1072 7.33761 41.9609 7.28886 41.8147C7.2401 41.6928 7.16697 41.5465 7.06946 41.449ZM38.7601 43.4479H37.005L37.7119 41.7415C37.59 41.6684 37.4681 41.5465 37.3463 41.4734C37.2244 41.4002 37.1025 41.3027 36.9562 41.2296C36.8343 41.1565 36.7124 41.1077 36.5662 41.059C36.298 40.9858 36.0542 40.9858 35.7861 41.059C35.6398 41.0833 35.5179 41.1565 35.3961 41.2296C35.2498 41.3027 35.1279 41.3759 35.006 41.4734C34.8841 41.5465 34.7622 41.644 34.6404 41.7415L35.3473 43.4479H33.8359V41.059H33.4459V44.2036C33.4459 44.2768 33.4215 44.3499 33.3727 44.3987L33.2508 44.5206C33.2021 44.5693 33.129 44.5693 33.0558 44.5693H32.9827C32.9339 44.5693 32.8852 44.5449 32.8608 44.5206L32.7389 44.9106C32.8364 44.9594 32.9583 44.9594 33.0558 44.9594C33.1777 44.9594 33.2996 44.935 33.4215 44.8862C33.519 44.8375 33.6165 44.7887 33.6653 44.6912C33.7384 44.5937 33.7871 44.4962 33.7871 44.3743C33.8359 44.228 33.8359 44.0818 33.8359 43.9355V43.8624H39.1502V40.1814H38.7601V43.4479ZM35.8592 43.4479L35.2254 41.839C35.3717 41.7171 35.5423 41.6196 35.713 41.5709C35.8836 41.5221 36.0543 41.4978 36.2249 41.4978C36.4199 41.4978 36.6149 41.5465 36.7856 41.6196C36.9562 41.6928 37.1269 41.7903 37.2731 41.8878L36.6393 43.4967H35.8836L35.8592 43.4479ZM31.8126 44.8131H32.2514V44.3743H31.8126V44.8131ZM62.5282 43.8867H62.9182V40.1814H62.5282V43.8867ZM60.9192 43.4479H59.5297C59.6029 43.2529 59.6516 43.0579 59.6516 42.8385C59.6516 42.6191 59.6029 42.4241 59.5297 42.2291C59.3835 41.8634 59.0909 41.5709 58.7253 41.4246C58.5303 41.3515 58.3352 41.3027 58.1158 41.3027C57.9208 41.3027 57.7258 41.3515 57.5552 41.4246C57.3845 41.5221 57.2139 41.6196 57.0676 41.7415C56.9213 41.8878 56.8238 42.0341 56.7507 42.2291C56.6776 42.4241 56.6288 42.6191 56.6288 42.8385C56.6288 42.936 56.6288 43.0579 56.6776 43.1554C56.7019 43.2529 56.7263 43.3261 56.7507 43.4236H55.4831C55.5562 43.2286 55.605 43.0335 55.605 42.8141C55.605 42.5947 55.5562 42.3997 55.4831 42.2047C55.3368 41.839 55.0443 41.5465 54.6786 41.4002C54.4836 41.3271 54.2886 41.2784 54.0692 41.2784C53.8742 41.2784 53.6791 41.3271 53.5085 41.4002C53.3379 41.4978 53.1672 41.5953 53.021 41.7171C52.8747 41.8634 52.7772 42.0097 52.704 42.2047C52.6309 42.3997 52.5822 42.5947 52.5822 42.8141C52.5822 42.9116 52.5822 43.0335 52.6309 43.131C52.6553 43.2286 52.6797 43.3017 52.704 43.3992H51.3877V40.1326H50.9976V43.3992H49.6812V42.8141C49.6812 42.6679 49.6569 42.5216 49.6081 42.3753C49.5594 42.2535 49.5106 42.1072 49.4131 42.0097C49.2912 41.9122 49.1693 41.8147 49.0474 41.7415C48.8768 41.6928 48.7061 41.6684 48.5355 41.6684H46.7072L47.4629 40.1814H47.0241L46.2196 41.6684C46.244 41.7415 46.2684 41.839 46.2928 41.9122C46.3415 41.9853 46.3659 42.0341 46.4147 42.1072H48.5355C48.633 42.1072 48.7549 42.1072 48.8524 42.1559C48.9499 42.2047 49.0231 42.2535 49.0962 42.3266C49.1449 42.3997 49.1693 42.4972 49.2181 42.5704C49.2668 42.6435 49.2668 42.741 49.2668 42.8385V43.4723H45.4639V41.0833H44.8301C44.5864 41.0833 44.3426 41.1321 44.1232 41.2052C43.9525 41.2784 43.7575 41.3515 43.6113 41.4734C43.465 41.5953 43.3431 41.7415 43.2456 41.9122C43.1725 42.0828 43.1237 42.2778 43.1237 42.4729C43.1237 42.6922 43.1725 42.9116 43.2456 43.1067C43.3187 43.2773 43.4406 43.4479 43.6113 43.5455C43.7819 43.6673 43.9769 43.7649 44.1719 43.7892C44.3913 43.838 44.5864 43.8624 44.8058 43.8624H52.9966C53.1185 44.033 53.2891 44.1549 53.4841 44.228C53.6791 44.3012 53.8742 44.3499 54.0936 44.3499C54.313 44.3499 54.508 44.3012 54.703 44.228C54.898 44.1549 55.0687 44.033 55.1905 43.8624H56.9945C57.1164 44.033 57.287 44.1549 57.482 44.228C57.8721 44.3987 58.3109 44.3987 58.7009 44.228C58.8959 44.1549 59.0666 44.033 59.1884 43.8624H61.2605V40.1814H60.8705V43.4479H60.9192ZM45.1227 43.4479H44.7082C44.562 43.4479 44.4157 43.4236 44.2695 43.3748C44.1476 43.3261 44.0257 43.2529 43.9038 43.1798C43.7819 43.1067 43.7088 42.9848 43.66 42.8629C43.6113 42.741 43.5869 42.5947 43.5869 42.4729C43.5869 42.351 43.6113 42.2047 43.66 42.0828C43.7331 41.9609 43.8063 41.8634 43.9038 41.7659C44.0257 41.6928 44.1476 41.6196 44.2695 41.5709C44.3913 41.5465 44.5376 41.5221 44.6595 41.4978H45.0495V43.4967H45.1227V43.4479ZM55.1418 43.3017C55.093 43.4479 54.9955 43.5698 54.898 43.6673C54.6786 43.8867 54.3861 44.0086 54.0936 43.9843C53.9717 43.9843 53.8254 43.9599 53.7035 43.9111C53.5816 43.8624 53.4598 43.7892 53.3866 43.6673C53.2891 43.5698 53.1916 43.4479 53.1428 43.3017C53.0941 43.1798 53.0697 43.0335 53.0697 42.9116C53.0697 42.7898 53.0941 42.6435 53.1428 42.5216C53.1916 42.3997 53.2647 42.2778 53.3379 42.1559C53.4354 42.0584 53.5329 41.9853 53.6548 41.9122C53.801 41.8634 53.9473 41.839 54.0936 41.839C54.2398 41.839 54.3861 41.8634 54.5324 41.9122C54.6786 41.9609 54.8005 42.0584 54.898 42.1559C55.1174 42.3753 55.2393 42.6679 55.2149 42.9604C55.2149 43.0823 55.1905 43.2042 55.1418 43.3017ZM59.1397 43.3017C59.0909 43.4479 58.9934 43.5698 58.8959 43.6673C58.6765 43.8867 58.384 44.0086 58.0915 43.9843C57.9452 43.9599 57.7989 43.9355 57.6527 43.9111C57.5308 43.8624 57.4089 43.7892 57.3358 43.6673C57.2383 43.5698 57.1407 43.4479 57.092 43.3017C57.0432 43.1798 57.0189 43.0335 57.0189 42.9116C57.0189 42.7898 57.0432 42.6435 57.092 42.5216C57.1407 42.3997 57.2139 42.2778 57.287 42.1559C57.3845 42.0584 57.482 41.9853 57.6039 41.9122C57.7502 41.8634 57.8964 41.839 58.0427 41.839C58.189 41.839 58.3352 41.8634 58.4815 41.9122C58.6278 41.9609 58.7497 42.0584 58.8472 42.1559C59.0666 42.3753 59.1884 42.6679 59.1641 42.9604C59.2128 43.0579 59.2128 43.2042 59.1397 43.3017ZM21.4034 43.4479H20.7208C20.5258 43.4479 20.3308 43.4236 20.1602 43.3261C20.0383 43.2529 19.9164 43.131 19.8432 43.0092C19.892 42.8873 19.892 42.741 19.892 42.6191V41.3027H19.502V42.6922C19.502 42.8873 19.4532 43.1067 19.3069 43.2529C19.0632 43.4479 18.7219 43.4967 18.4294 43.3992C18.3075 43.3504 18.2343 43.3261 18.1856 43.2285C18.1124 43.1554 18.0637 43.0823 18.0149 42.9848C17.9662 42.9116 17.9418 42.8141 17.9418 42.7166V41.2296H17.5518V42.6679C17.5518 42.7654 17.5518 42.8873 17.503 42.9848C17.4543 43.0579 17.4299 43.1554 17.3324 43.1798C17.2349 43.2042 17.1617 43.2529 17.0886 43.3017C17.0155 43.3504 16.918 43.3504 16.8204 43.3504H16.016V41.2296H15.6259V43.3504H13.3832L14.0902 41.644C13.9683 41.5709 13.8464 41.449 13.7245 41.3759C13.6026 41.3027 13.4807 41.2052 13.3345 41.1321C13.2126 41.059 13.0907 41.0102 12.9444 40.9614C12.7007 40.8883 12.4081 40.8883 12.1643 40.9614C12.0181 40.9858 11.8962 41.059 11.7743 41.1321C11.628 41.2052 11.5062 41.2784 11.3843 41.3759C11.2624 41.449 11.1405 41.5465 11.0186 41.644L11.7256 43.3504H10.2873V40.9614H9.60472C9.16592 40.9614 8.75151 41.1077 8.41022 41.3515C8.26396 41.4734 8.14207 41.6196 8.04456 41.7903C7.97143 41.9609 7.92267 42.1559 7.92267 42.351C7.92267 42.5704 7.97143 42.7898 8.04456 42.9848C8.11769 43.1554 8.23958 43.3261 8.41022 43.4236C8.58086 43.5455 8.77588 43.643 8.9709 43.6673C9.1903 43.7161 9.38532 43.7405 9.60472 43.7405H9.84849V43.8624C9.84849 44.033 9.77536 44.228 9.65347 44.3499C9.50721 44.4474 9.31219 44.4718 9.14155 44.4718C9.01966 44.4718 8.89777 44.4718 8.77588 44.423C8.654 44.3743 8.53211 44.3255 8.41022 44.3012L8.28834 44.6912C8.41022 44.74 8.53211 44.7887 8.67837 44.8131C8.80026 44.8618 8.92215 44.8618 9.04404 44.8618C9.36094 44.8862 9.67785 44.7887 9.92162 44.5937C10.1166 44.3987 10.2142 44.1061 10.1898 43.838V43.7649H16.5767C16.7473 43.7649 16.918 43.7161 17.0886 43.643C17.2592 43.5698 17.3811 43.4479 17.4543 43.2773C17.5274 43.4479 17.698 43.5455 17.8443 43.6673C18.0393 43.7405 18.2343 43.7892 18.4537 43.7892C18.6731 43.7892 18.8925 43.7405 19.0875 43.6673C19.2582 43.5942 19.4045 43.4479 19.4776 43.2773C19.5263 43.3261 19.5507 43.3992 19.5995 43.4479C19.6482 43.5211 19.7214 43.5698 19.7945 43.6186C19.892 43.6673 19.9651 43.7161 20.0626 43.7405C20.1358 43.7892 20.2333 43.7892 20.3308 43.7892H21.5253V40.2057H21.1353V43.4723L21.4034 43.4479ZM9.946 43.4479H9.55596C9.4097 43.4479 9.26343 43.4236 9.11717 43.3748C8.99528 43.3261 8.87339 43.2529 8.75151 43.1798C8.62962 43.1067 8.55649 42.9848 8.50773 42.8629C8.45898 42.741 8.4346 42.5947 8.4346 42.4729C8.4346 42.351 8.45898 42.2047 8.50773 42.0828C8.58087 41.9609 8.654 41.8634 8.75151 41.7659C8.87339 41.6928 8.99528 41.6196 9.11717 41.5709C9.23906 41.5221 9.38532 41.4978 9.50721 41.4978H9.89725V43.4967H9.946V43.4479ZM12.2131 43.4479L11.5793 41.839C11.7256 41.7171 11.8962 41.6196 12.0668 41.5709C12.2375 41.5221 12.4081 41.4978 12.5788 41.4978C12.7738 41.4978 12.9688 41.5465 13.1394 41.6196C13.3101 41.6928 13.4807 41.7903 13.627 41.8878L12.9932 43.4967H12.2375L12.2131 43.4479ZM22.9879 43.8867H23.378V40.1814H22.9879V43.8867Z" fill="#D1D1D1"/>
<path d="M54.9711 19.2899C49.9494 19.2899 46.2684 23.0928 46.2684 27.7489V27.7976C46.2684 32.4293 49.9006 36.2322 54.9224 36.2322C59.9441 36.2322 63.6251 32.4293 63.6251 27.7732V27.7245C63.6739 23.044 60.0417 19.2899 54.9711 19.2899ZM59.8954 27.7976C59.8954 30.601 57.8964 32.9169 54.9955 32.9169C52.0946 32.9169 50.0469 30.5523 50.0469 27.7732V27.7245C50.0469 24.9211 52.0459 22.6052 54.9468 22.6052C57.8477 22.6052 59.8954 24.9698 59.8954 27.7489V27.7976ZM5.87497 32.8194H12.0912V35.9397H0V33.1119L5.43617 28.6508C7.48388 26.9688 8.26396 26.0912 8.26396 24.7261C8.26396 23.3609 7.33761 22.6052 6.06998 22.6052C4.80236 22.6052 3.94915 23.3122 2.7059 24.7992L0.19502 22.7515C1.80393 20.5575 3.38847 19.363 6.31376 19.363C9.70222 19.363 11.945 21.362 11.945 24.3848V24.4335C11.945 27.1394 10.5554 28.5046 7.63014 30.7717L4.02228 33.5507L3.33971 34.0626L5.87497 32.8194ZM45.3664 30.7961V30.8448C45.3664 33.9164 43.1237 36.1835 39.4671 36.1835C36.5174 36.1835 34.4697 35.0377 33.0802 33.3557L35.5667 30.9911C36.6881 32.2587 37.8338 32.9413 39.5158 32.9413C40.881 32.9413 41.8317 32.1856 41.8317 30.9423V30.8936C41.8317 29.5772 40.6372 28.8215 38.6383 28.8215H37.1512L36.5906 26.5544L41.8317 21.2888L39.7109 22.654H34.0309V19.5824H45.0983V22.2883L40.9541 26.2375C43.1481 26.6031 45.3664 27.7489 45.3664 30.7961Z" fill="#D1D1D1"/>
<path d="M27.839 28.529C27.6684 28.4314 27.4734 28.3339 27.2784 28.2852C26.7664 28.1389 26.2301 28.0902 25.7182 28.1633C25.4988 28.212 25.255 28.2608 25.0356 28.3339C25.0031 28.3339 24.9788 28.3502 24.9625 28.3827C24.8406 28.4314 24.7187 28.5046 24.5968 28.5533C24.475 28.6021 24.4018 28.6752 24.2799 28.724C24.0362 28.8459 23.7924 29.0165 23.5974 29.2115C23.4267 28.017 23.4024 26.7982 23.5242 25.5793C24.0849 25.9449 23.9143 26.8469 23.7924 27.1394C24.2799 26.6275 24.3531 25.8718 23.9874 25.2624L24.2312 25.5061C24.4018 25.7499 24.4993 26.0181 24.5481 26.3106V26.7494C24.7919 26.3106 24.7919 25.7499 24.5481 25.3111C24.475 25.1649 24.3774 25.0186 24.2312 24.9211L24.1093 24.7992C24.1581 24.7992 24.1824 24.848 24.2312 24.848C24.3531 24.8967 24.4506 24.9455 24.5481 25.0186C24.7431 25.1649 24.8894 25.3599 24.9869 25.5793C25.06 25.7255 25.0844 25.9206 25.06 26.0912C25.1819 25.7255 25.1332 25.3355 24.9381 25.0186C24.8406 24.848 24.6944 24.7017 24.4993 24.6286C24.4018 24.5554 24.3043 24.5067 24.1824 24.5067C24.1337 24.5067 24.0605 24.4579 24.0118 24.4579H24.1824C24.2799 24.4579 24.4018 24.4579 24.4993 24.5067C24.6456 24.531 24.8162 24.5798 24.9381 24.6773C25.06 24.7504 25.1575 24.8723 25.2063 24.9942C25.1819 24.7748 25.0844 24.5798 24.9381 24.4335C24.8162 24.3117 24.67 24.2385 24.4993 24.1898C24.4018 24.141 24.2799 24.141 24.1824 24.141C24.0605 24.1654 23.9143 24.1898 23.7924 24.2141C23.8655 24.0679 24.0118 23.9704 24.1824 23.946C24.2799 23.8972 24.4018 23.8972 24.4993 23.8972C24.5725 23.8972 24.6944 23.946 24.7431 23.946C24.67 23.8729 24.5968 23.7997 24.4993 23.751C24.4262 23.7266 24.3043 23.6778 24.1824 23.6291C23.8899 23.5803 23.5974 23.7266 23.4755 23.9947C23.4267 23.9216 23.4024 23.8729 23.3536 23.7997C23.2805 23.6291 23.2317 23.4341 23.183 23.239C23.1586 23.4341 23.0854 23.6291 23.0123 23.7997C22.9636 23.8729 22.9392 23.9704 22.8904 23.9947C22.671 23.6291 22.2079 23.5072 21.8666 23.7266C21.7691 23.7753 21.6959 23.8485 21.6228 23.946C21.9641 23.7997 22.3541 23.9216 22.5735 24.1898C22.1591 24.0191 21.6716 24.141 21.379 24.5067C21.2571 24.6286 21.184 24.8236 21.184 24.9942C21.2328 24.9211 21.3059 24.8236 21.379 24.7504C21.6472 24.531 21.9885 24.4335 22.3297 24.4823C22.086 24.531 21.5253 24.7504 21.379 25.2868C21.2815 25.5793 21.2815 25.8718 21.379 26.1643V26.1156C21.3546 25.5305 21.7447 24.9942 22.3297 24.848C21.574 25.5305 21.6472 26.335 21.8909 26.7982C21.7934 26.2375 22.0128 25.6524 22.4516 25.2868C22.3297 25.5305 21.9641 26.4081 22.6467 27.1638C22.5248 26.8957 22.3785 25.9206 22.9148 25.6037C23.0367 26.8225 23.0123 28.0414 22.8417 29.2359C22.4273 28.8946 21.9641 28.6265 21.4765 28.4314C21.4278 28.3827 21.379 28.3827 21.3059 28.3827C20.8915 28.2364 20.4771 28.1877 20.0383 28.1877C19.5751 28.212 19.1363 28.3339 18.7219 28.5046C18.6975 28.529 18.6487 28.5533 18.6 28.5777V28.6265C18.6487 28.6265 18.6731 28.5777 18.7219 28.5777C19.1607 28.4558 19.5995 28.4071 20.0383 28.4558C20.4771 28.5046 20.9159 28.6265 21.3059 28.8215C21.8666 29.0896 22.3541 29.4065 22.8173 29.821C22.1835 30.3816 21.6228 30.9423 21.3059 31.0886C21.2815 31.0886 21.2571 31.113 21.2571 31.1373C21.184 31.0155 21.0377 30.9667 20.8915 31.0155C20.7696 31.0398 20.6477 31.1617 20.6233 31.2836C20.5746 31.4055 20.5989 31.5274 20.6965 31.6005C20.8671 31.7712 21.1109 31.7955 21.3059 31.6736C21.7447 31.4786 22.3054 30.9179 22.9879 30.2841L23.1586 30.1135L23.3292 30.2841C23.6217 30.5279 23.8899 30.7961 24.1581 31.0886C24.2799 31.1617 24.3531 31.2836 24.475 31.3567C24.6456 31.4786 24.7431 31.6005 24.9138 31.6249C25.1575 31.7468 25.4013 31.7955 25.5963 31.6249C25.6207 31.6249 25.6451 31.6005 25.6451 31.5761C25.6938 31.4786 25.7182 31.3811 25.7182 31.2592C25.7182 31.1861 25.6695 31.1373 25.5963 31.0886C25.5476 31.0398 25.4988 31.0155 25.4257 31.0155C25.2794 30.9911 25.1575 31.0398 25.06 31.1373C25.0113 31.0886 24.9869 31.0886 24.8894 31.0642C24.7187 30.9667 24.5725 30.8448 24.4506 30.6985C24.3774 30.6254 24.2556 30.5279 24.1337 30.4304C23.9387 30.2354 23.6949 30.0404 23.4511 29.821C23.6461 29.6259 23.8899 29.4553 24.1337 29.309C24.2312 29.2359 24.3287 29.1628 24.4506 29.114C24.5968 29.0165 24.7431 28.9434 24.8894 28.8702C25.1088 28.7483 25.3282 28.6752 25.5719 28.6265C26.0839 28.4802 26.6202 28.4558 27.1321 28.5533C27.3515 28.4558 27.5953 28.4558 27.839 28.529Z" fill="#D1D1D1"/>
<path d="M23.2705 36.7578L22.2535 37.7749L23.2705 38.7919L24.2875 37.7749L23.2705 36.7578Z" fill="#D1D1D1"/>
<path d="M15.0357 30.8948L14.6668 32.0309L15.8029 32.3998L16.1718 31.2637L15.0357 30.8948Z" fill="#D1D1D1"/>
<path d="M18.3106 20.9084L18.1539 21.8955L19.141 22.0522L19.2977 21.0651L18.3106 20.9084Z" fill="#D1D1D1"/>
<path d="M30.9244 26.9284L30.2177 27.6352L30.9244 28.3419L31.6311 27.6352L30.9244 26.9284Z" fill="#D1D1D1"/>
<path d="M30.3041 24.5868L29.8501 25.4773L30.7406 25.9312L31.1945 25.0407L30.3041 24.5868Z" fill="#D1D1D1"/>
<path d="M19.1496 33.2826L18.1625 33.4393L18.3192 34.4264L19.3063 34.2697L19.1496 33.2826Z" fill="#D1D1D1"/>
<path d="M28.1685 20.8501L27.1814 21.0068L27.3381 21.9939L28.3252 21.8372L28.1685 20.8501Z" fill="#D1D1D1"/>
<path d="M21.1192 34.2532L20.2288 34.7071L20.6827 35.5976L21.5731 35.1437L21.1192 34.2532Z" fill="#D1D1D1"/>
<path d="M23.2471 19.2519L22.5403 19.9587L23.2471 20.6654L23.9538 19.9587L23.2471 19.2519Z" fill="#D1D1D1"/>
<path d="M22.1463 20.4911L21.659 21.1616L22.3295 21.6489L22.8168 20.9784L22.1463 20.4911Z" fill="#D1D1D1"/>
<path d="M24.2068 33.6262L23.7195 34.2967L24.39 34.784L24.8773 34.1135L24.2068 33.6262Z" fill="#D1D1D1"/>
<path d="M17.6238 24.1045L16.8354 24.3605L17.0914 25.1488L17.8797 24.8928L17.6238 24.1045Z" fill="#D1D1D1"/>
<path d="M29.4711 30.124L28.6828 30.38L28.9387 31.1683L29.7271 30.9123L29.4711 30.124Z" fill="#D1D1D1"/>
<path d="M16.5782 28.1181L16.0914 28.7889L16.7622 29.2758L17.249 28.605L16.5782 28.1181Z" fill="#D1D1D1"/>
<path d="M33.2139 29.7899L31.9324 30.4429L32.5853 31.7244L33.8669 31.0714L33.2139 29.7899Z" fill="#D1D1D1"/>
<path d="M17.8692 35.0047L16.4486 35.2292L16.6731 36.6499L18.0937 36.4254L17.8692 35.0047Z" fill="#D1D1D1"/>
<path d="M29.8383 18.602L28.4177 18.8263L28.6419 20.2469L30.0626 20.0227L29.8383 18.602Z" fill="#D1D1D1"/>
<path d="M14.4612 28.1491L13.7589 29.1153L14.7251 29.8176L15.4274 28.8513L14.4612 28.1491Z" fill="#D1D1D1"/>
<path d="M20.6895 19.688L20.2356 20.5785L21.1261 21.0324L21.58 20.1419L20.6895 19.688Z" fill="#D1D1D1"/>
<path d="M16.197 24.5761L15.3065 25.03L15.7604 25.9205L16.6509 25.4666L16.197 24.5761Z" fill="#D1D1D1"/>
<path d="M23.2429 34.5846L22.5362 35.2914L23.2429 35.9981L23.9496 35.2914L23.2429 34.5846Z" fill="#D1D1D1"/>
<path d="M28.9298 24.1146L28.6736 24.9029L29.4618 25.1591L29.7181 24.3709L28.9298 24.1146Z" fill="#D1D1D1"/>
<path d="M18.9657 31.9418H18.1368V32.7706H18.9657V31.9418Z" fill="#D1D1D1"/>
<path d="M13.9323 23.5254L12.6508 24.1783L13.3037 25.4598L14.5852 24.8069L13.9323 23.5254Z" fill="#D1D1D1"/>
<path d="M13.3364 29.8216L12.6832 31.103L13.9646 31.7562L14.6178 30.4748L13.3364 29.8216Z" fill="#D1D1D1"/>
<path d="M18.8753 19.0941L18.5064 20.2302L19.6425 20.5991L20.0114 19.463L18.8753 19.0941Z" fill="#D1D1D1"/>
<path d="M26.8548 34.7441L26.4859 35.8802L27.622 36.2491L27.9909 35.113L26.8548 34.7441Z" fill="#D1D1D1"/>
<path d="M31.5278 30.8849L30.3917 31.2538L30.7606 32.3899L31.8967 32.021L31.5278 30.8849Z" fill="#D1D1D1"/>
<path d="M32.155 28.1727L31.1888 28.875L31.891 29.8412L32.8573 29.1389L32.155 28.1727Z" fill="#D1D1D1"/>
<path d="M30.717 22.8851L30.3481 24.0212L31.4842 24.3901L31.8531 23.254L30.717 22.8851Z" fill="#D1D1D1"/>
<path d="M30.1062 20.8013H28.9117V21.9958H30.1062V20.8013Z" fill="#D1D1D1"/>
<path d="M19.6307 34.7595L18.4947 35.1285L18.8636 36.2646L19.9997 35.8956L19.6307 34.7595Z" fill="#D1D1D1"/>
<path d="M24.5381 35.4804L23.8358 36.4467L24.8021 37.1489L25.5043 36.1827L24.5381 35.4804Z" fill="#D1D1D1"/>
<path d="M15.7735 29.29L15.3195 30.1805L16.21 30.6344L16.6639 29.7439L15.7735 29.29Z" fill="#D1D1D1"/>
<path d="M18.9657 22.4833H18.1368V23.3122H18.9657V22.4833Z" fill="#D1D1D1"/>
<path d="M16.7686 25.9719L16.0982 26.4592L16.5855 27.1296L17.2559 26.6423L16.7686 25.9719Z" fill="#D1D1D1"/>
<path d="M26.5703 21.1804L25.782 21.4364L26.038 22.2247L26.8263 21.9687L26.5703 21.1804Z" fill="#D1D1D1"/>
<path d="M24.4194 20.4634L23.7489 20.9507L24.2362 21.6212L24.9067 21.1339L24.4194 20.4634Z" fill="#D1D1D1"/>
<path d="M28.2686 30.6742L27.5945 30.7814L27.7017 31.4555L28.3758 31.3483L28.2686 30.6742Z" fill="#D1D1D1"/>
<path d="M29.055 27.1638L28.5728 27.6469L29.0558 28.1291L29.5381 27.646L29.055 27.1638Z" fill="#D1D1D1"/>
<path d="M32.5693 23.5566L31.9161 24.838L33.1975 25.4912L33.8507 24.2098L32.5693 23.5566Z" fill="#D1D1D1"/>
<path d="M30.1062 33.2582H28.9117V34.4527H30.1062V33.2582Z" fill="#D1D1D1"/>
<path d="M15.7764 22.7939L14.6408 23.1644L15.0113 24.3L16.1469 23.9295L15.7764 22.7939Z" fill="#D1D1D1"/>
<path d="M27.6533 19.011L26.5172 19.3799L26.8861 20.516L28.0222 20.1471L27.6533 19.011Z" fill="#D1D1D1"/>
<path d="M21.7911 18.0717L21.0888 19.0379L22.0551 19.7402L22.7573 18.774L21.7911 18.0717Z" fill="#D1D1D1"/>
<path d="M30.7972 29.3296L29.9067 29.7835L30.3607 30.674L31.2511 30.2201L30.7972 29.3296Z" fill="#D1D1D1"/>
<path d="M15.5893 26.9301L14.8825 27.6369L15.5893 28.3436L16.296 27.6369L15.5893 26.9301Z" fill="#D1D1D1"/>
<path d="M30.0781 28.0673L29.4082 28.5553L29.8962 29.2253L30.5661 28.7373L30.0781 28.0673Z" fill="#D1D1D1"/>
<path d="M20.5252 33.028L19.7369 33.284L19.9929 34.0723L20.7812 33.8163L20.5252 33.028Z" fill="#D1D1D1"/>
<path d="M23.2347 32.9415L22.7516 33.4237L23.2338 33.9068L23.7169 33.4245L23.2347 32.9415Z" fill="#D1D1D1"/>
<path d="M19.6043 22.5653L19.498 23.2395L20.1722 23.3458L20.2785 22.6716L19.6043 22.5653Z" fill="#D1D1D1"/>
<path d="M17.5921 28.9739L17.2826 29.5823L17.891 29.8918L18.2004 29.2834L17.5921 28.9739Z" fill="#D1D1D1"/>
<path d="M17.6493 20.8013H16.4548V21.9958H17.6493V20.8013Z" fill="#D1D1D1"/>
<path d="M24.791 18.1237L23.8247 18.8258L24.5268 19.7922L25.4931 19.0901L24.791 18.1237Z" fill="#D1D1D1"/>
<path d="M25.4125 34.2659L24.9586 35.1564L25.849 35.6103L26.3029 34.7198L25.4125 34.2659Z" fill="#D1D1D1"/>
<path d="M16.6302 31.6155L16.4735 32.6026L17.4606 32.7593L17.6173 31.7721L16.6302 31.6155Z" fill="#D1D1D1"/>
<path d="M29.0095 22.534L28.8528 23.5211L29.8399 23.6778L29.9966 22.6907L29.0095 22.534Z" fill="#D1D1D1"/>
<path d="M28.4241 31.9418H27.5953V32.7706H28.4241V31.9418Z" fill="#D1D1D1"/>
<path d="M29.7465 25.9998L29.2597 26.6706L29.9305 27.1574L30.4173 26.4866L29.7465 25.9998Z" fill="#D1D1D1"/>
<path d="M22.2981 33.6267L21.6273 34.1135L22.1142 34.7843L22.7849 34.2975L22.2981 33.6267Z" fill="#D1D1D1"/>
<path d="M21.3248 21.6202L21.0154 22.2287L21.6239 22.538L21.9332 21.9296L21.3248 21.6202Z" fill="#D1D1D1"/>
<path d="M24.8849 32.6704L24.5755 33.2789L25.184 33.5882L25.4933 32.9798L24.8849 32.6704Z" fill="#D1D1D1"/>
<path d="M26.3882 31.938L26.281 32.6121L26.9551 32.7192L27.0623 32.0451L26.3882 31.938Z" fill="#D1D1D1"/>
<path d="M17.893 25.3599L17.2836 25.6768L17.6005 26.2862L18.21 25.9937L17.893 25.3599Z" fill="#D1D1D1"/>
<path d="M28.9162 28.9682L28.3078 29.2777L28.6172 29.8861L29.2256 29.5766L28.9162 28.9682Z" fill="#D1D1D1"/>
<path d="M18.3306 30.6777L18.2235 31.3518L18.8976 31.459L19.0047 30.7849L18.3306 30.6777Z" fill="#D1D1D1"/>
<path d="M26.9794 22.5555L26.3053 22.6627L26.4124 23.3368L27.0865 23.2296L26.9794 22.5555Z" fill="#D1D1D1"/>
<path d="M21.6253 32.6769L21.0169 32.9862L21.3262 33.5946L21.9347 33.2853L21.6253 32.6769Z" fill="#D1D1D1"/>
<path d="M16.7136 18.6346L16.4891 20.0552L17.9097 20.2797L18.1342 18.8591L16.7136 18.6346Z" fill="#D1D1D1"/>
<path d="M28.8805 35.1267L28.651 36.5466L30.0709 36.776L30.3003 35.3562L28.8805 35.1267Z" fill="#D1D1D1"/>
<path d="M23.2695 16.4773L22.2524 17.4943L23.2695 18.5113L24.2865 17.4943L23.2695 16.4773Z" fill="#D1D1D1"/>
<path d="M14.6972 25.3892L13.731 26.0915L14.4332 27.0577L15.3995 26.3554L14.6972 25.3892Z" fill="#D1D1D1"/>
<path d="M31.8399 25.4091L31.1373 26.3751L32.1033 27.0777L32.8059 26.1117L31.8399 25.4091Z" fill="#D1D1D1"/>
<path d="M17.6493 33.2582H16.4548V34.4527H17.6493V33.2582Z" fill="#D1D1D1"/>
<path d="M22.01 35.5078L21.0438 36.2101L21.746 37.1763L22.7123 36.4741L22.01 35.5078Z" fill="#D1D1D1"/>
<path d="M27.3842 33.2447L27.2266 34.2317L28.2136 34.3893L28.3711 33.4023L27.3842 33.2447Z" fill="#D1D1D1"/>
<path d="M17.4919 22.5311L16.5048 22.688L16.6617 23.675L17.6488 23.5182L17.4919 22.5311Z" fill="#D1D1D1"/>
<path d="M29.898 31.5503L28.9109 31.707L29.0676 32.6941L30.0547 32.5374L29.898 31.5503Z" fill="#D1D1D1"/>
<path d="M25.8727 19.6769L24.9823 20.1308L25.4362 21.0213L26.3266 20.5674L25.8727 19.6769Z" fill="#D1D1D1"/>
<path d="M20.0335 21.1827L19.7775 21.971L20.5658 22.2269L20.8218 21.4386L20.0335 21.1827Z" fill="#D1D1D1"/>
<path d="M26.0306 33.0815L25.7746 33.8698L26.5629 34.1258L26.8189 33.3375L26.0306 33.0815Z" fill="#D1D1D1"/>
<path d="M17.033 30.141L16.777 30.9293L17.5653 31.1853L17.8213 30.397L17.033 30.141Z" fill="#D1D1D1"/>
<path d="M28.4241 22.4833H27.5953V23.3122H28.4241V22.4833Z" fill="#D1D1D1"/>
<path d="M23.2571 21.364L22.7745 21.8467L23.2571 22.3293L23.7398 21.8467L23.2571 21.364Z" fill="#D1D1D1"/>
<path d="M18.8602 23.8499L18.186 23.9563L18.2923 24.6305L18.9665 24.5242L18.8602 23.8499Z" fill="#D1D1D1"/>
<path d="M17.4541 27.1453L16.9719 27.6283L17.455 28.1106L17.9372 27.6275L17.4541 27.1453Z" fill="#D1D1D1"/>
<path d="M28.5762 25.3864L28.2667 25.9948L28.8751 26.3042L29.1846 25.6958L28.5762 25.3864Z" fill="#D1D1D1"/>
<path d="M27.6845 23.7841L27.5772 24.4582L28.2513 24.5654L28.3585 23.8913L27.6845 23.7841Z" fill="#D1D1D1"/>
<path d="M20.1511 31.9437L19.477 32.0509L19.5842 32.725L20.2583 32.6178L20.1511 31.9437Z" fill="#D1D1D1"/>
<path d="M25.2084 21.6574L24.6 21.9667L24.9093 22.5751L25.5178 22.2658L25.2084 21.6574Z" fill="#D1D1D1"/>
<path d="M73.5277 0H72.7964V56.2759H73.5277V0Z" fill="#444648"/>
<path d="M145.072 18.488C145.072 19.3391 144.759 20.1903 144.131 20.8174C143.415 21.4446 142.474 21.7582 141.488 21.7134L140.861 21.6686V24.8043H139.114V15.7554C139.965 15.7106 140.772 15.7106 141.668 15.7106C142.787 15.7106 143.639 15.9346 144.221 16.4274C144.803 16.9649 145.117 17.7265 145.072 18.488ZM143.235 18.6224C143.235 17.5921 142.653 17.0993 141.488 17.0993H140.816V20.1455C141.04 20.1903 141.309 20.1903 141.533 20.1903C141.981 20.2351 142.429 20.0559 142.787 19.7871C143.101 19.5183 143.28 19.0704 143.235 18.6224Z" fill="#D1D1D1"/>
<path d="M148.342 16.1137C148.342 16.3825 148.253 16.6513 148.029 16.8305C147.805 17.0097 147.536 17.1441 147.267 17.1441C146.998 17.1441 146.685 17.0545 146.506 16.8305C146.282 16.6513 146.192 16.3825 146.192 16.1137C146.192 15.845 146.282 15.5762 146.506 15.397C146.909 14.9938 147.626 14.9938 148.029 15.397C148.253 15.5762 148.387 15.845 148.342 16.1137ZM148.163 24.8043H146.461V18.1296H148.163V24.8043Z" fill="#D1D1D1"/>
<path d="M151.836 24.8043H150.134V14.9939H151.836V24.8043Z" fill="#D1D1D1"/>
<path d="M159.9 25.4762C159.9 26.2378 159.497 26.9545 158.869 27.3577C158.108 27.8952 157.167 28.164 156.226 28.1192C155.51 28.164 154.748 27.9848 154.121 27.6265C153.628 27.3129 153.359 26.7305 153.359 26.1482C153.359 25.7898 153.449 25.4762 153.673 25.2075C153.852 24.9387 154.076 24.6699 154.39 24.5355C153.987 24.3563 153.718 23.9531 153.718 23.5052C153.718 23.2364 153.807 23.0124 153.942 22.7884C154.076 22.5645 154.3 22.4301 154.524 22.2957C153.852 21.9373 153.494 21.2206 153.539 20.459C153.539 19.7871 153.807 19.1151 154.3 18.6671C154.883 18.1744 155.689 17.9056 156.45 17.9504C156.809 17.9504 157.167 17.9952 157.526 18.0848H159.81V19.4287H158.914C159.138 19.6527 159.228 19.9662 159.228 20.2798C159.273 20.9518 159.004 21.5789 158.511 22.0269C157.929 22.5197 157.167 22.7436 156.406 22.6988C156.226 22.6988 156.047 22.6988 155.868 22.654C155.689 22.6988 155.555 22.878 155.555 23.102C155.555 23.2364 155.644 23.3708 155.779 23.4156C156.047 23.5052 156.316 23.5052 156.585 23.5052L157.615 23.55C159.138 23.5948 159.9 24.2667 159.9 25.4762ZM158.198 25.745C158.198 25.2075 157.839 24.8939 157.167 24.8939L156.002 24.8491H155.689C155.331 25.0731 155.107 25.4762 155.062 25.8794C155.062 26.193 155.196 26.4618 155.465 26.5961C155.779 26.7753 156.137 26.8649 156.495 26.8649C156.943 26.9097 157.391 26.7753 157.75 26.5514C158.018 26.3722 158.198 26.0586 158.198 25.745ZM157.615 20.4142C157.66 20.1006 157.526 19.7871 157.302 19.5631C156.764 19.1599 156.047 19.1599 155.51 19.5631C155.107 20.0558 155.107 20.7726 155.51 21.2653C156.047 21.6685 156.764 21.6685 157.302 21.2653C157.526 21.0414 157.66 20.7278 157.615 20.4142Z" fill="#D1D1D1"/>
<path d="M164.917 17.9952L164.827 19.6527C164.335 19.4735 163.752 19.6527 163.439 20.0559C163.08 20.6382 162.946 21.355 162.991 22.0269V24.7595H161.288V18.0848H162.901C162.901 18.5328 162.856 18.9808 162.767 19.4287H162.812C163.215 18.3984 163.931 17.9056 164.917 17.9952Z" fill="#D1D1D1"/>
<path d="M168.098 16.1137C168.098 16.3825 168.008 16.6513 167.784 16.8305C167.56 17.0097 167.291 17.1441 167.022 17.1441C166.754 17.1441 166.44 17.0545 166.261 16.8305C166.037 16.6513 165.947 16.3825 165.947 16.1137C165.947 15.845 166.037 15.5762 166.261 15.397C166.664 14.9938 167.381 14.9938 167.784 15.397C168.008 15.5762 168.142 15.845 168.098 16.1137ZM167.874 24.8043H166.171V18.1296H167.874V24.8043Z" fill="#D1D1D1"/>
<path d="M179.655 24.8043H177.908V20.5934C177.953 20.2799 177.863 20.0111 177.729 19.7423C177.594 19.5631 177.326 19.4287 177.102 19.4735C176.654 19.5183 176.251 19.7423 176.027 20.1007C175.713 20.5486 175.534 21.131 175.579 21.6686V24.8491H173.876V20.6382C173.876 20.3247 173.832 20.0559 173.697 19.7871C173.563 19.5631 173.339 19.4287 173.07 19.4735C172.622 19.5183 172.219 19.7423 171.995 20.1007C171.681 20.5486 171.502 21.0862 171.547 21.6238V24.8043H169.845V18.1296H171.457C171.457 18.5328 171.413 18.936 171.368 19.3391C171.592 18.936 171.905 18.6224 172.264 18.3536C172.667 18.1296 173.115 17.9952 173.563 17.9952C174.414 17.9056 175.22 18.488 175.399 19.3391C175.579 18.936 175.892 18.6224 176.251 18.3984C176.654 18.1296 177.102 17.9952 177.594 17.9952C178.938 17.9952 179.61 18.712 179.61 20.1903V24.8043H179.655Z" fill="#D1D1D1"/>
<path d="M189.645 24.8043H184.717V15.7554H189.645V17.2337H186.464V19.4735H189.466V20.907H186.464V23.3708H189.645V24.8043Z" fill="#D1D1D1"/>
<path d="M197.215 24.8043H195.065L193.766 22.5644L192.467 24.8043H190.451L192.736 21.4445L190.585 18.1296H192.646L193.945 20.3246L195.244 18.1296H197.171L195.065 21.3997L197.215 24.8043Z" fill="#D1D1D1"/>
<path d="M204.517 21.0862C204.562 22.0717 204.248 23.0572 203.621 23.8636C203.039 24.5355 202.143 24.8491 201.023 24.8491C200.754 24.8491 200.441 24.8491 200.172 24.8043V27.9849H198.47V18.0848H200.082C200.082 18.4432 200.082 18.8463 200.038 19.2047H200.082C200.441 18.3984 201.292 17.9056 202.188 17.9504C202.905 17.9056 203.577 18.2192 203.98 18.7568C204.383 19.2943 204.517 20.1007 204.517 21.0862ZM202.725 21.2654C202.725 20.0111 202.367 19.3839 201.605 19.3839C201.158 19.3839 200.799 19.6079 200.575 20.0111C200.306 20.459 200.172 20.9966 200.172 21.5341V23.3708C200.441 23.4604 200.754 23.5052 201.068 23.5052C202.143 23.55 202.725 22.7885 202.725 21.2654Z" fill="#D1D1D1"/>
<path d="M211.506 20.8174C211.506 21.1309 211.506 21.4893 211.461 21.8029H207.339C207.339 23.0124 207.967 23.5947 209.176 23.5947C209.848 23.5947 210.475 23.4604 211.102 23.1916L211.282 24.4907C210.52 24.7595 209.669 24.9386 208.862 24.9386C206.667 24.9386 205.592 23.8187 205.592 21.5341C205.548 20.5934 205.861 19.6974 206.443 18.9807C207.026 18.3087 207.877 17.9504 208.773 17.9952C209.534 17.9504 210.296 18.2192 210.834 18.8015C211.326 19.3839 211.55 20.1006 211.506 20.8174ZM209.803 20.6382C209.848 20.2798 209.714 19.8766 209.49 19.6078C209.266 19.3839 208.952 19.2495 208.639 19.2495C208.325 19.2495 207.967 19.3839 207.743 19.6078C207.519 19.9214 207.339 20.2798 207.339 20.6382H209.803Z" fill="#D1D1D1"/>
<path d="M216.747 17.9952L216.657 19.6527C216.164 19.4735 215.582 19.6527 215.268 20.0559C214.91 20.6382 214.776 21.355 214.82 22.0269V24.7595H213.118V18.0848H214.731C214.731 18.5328 214.686 18.9808 214.596 19.4287H214.641C215.044 18.3984 215.716 17.9056 216.747 17.9952Z" fill="#D1D1D1"/>
<path d="M219.927 16.1137C219.927 16.3825 219.838 16.6513 219.614 16.8305C219.39 17.0097 219.121 17.1441 218.852 17.1441C218.583 17.1441 218.27 17.0545 218.091 16.8305C217.867 16.6513 217.777 16.3825 217.777 16.1137C217.777 15.845 217.867 15.5762 218.091 15.397C218.494 14.9938 219.21 14.9938 219.614 15.397C219.838 15.5762 219.927 15.845 219.927 16.1137ZM219.703 24.8043H218.001V18.1296H219.703V24.8043Z" fill="#D1D1D1"/>
<path d="M227.14 20.8174C227.14 21.1309 227.14 21.4893 227.095 21.8029H222.973C222.973 23.0124 223.601 23.5947 224.81 23.5947C225.482 23.5947 226.109 23.4604 226.736 23.1916L226.916 24.4907C226.154 24.7595 225.303 24.9386 224.497 24.9386C222.301 24.9386 221.226 23.8187 221.226 21.5341C221.182 20.5934 221.495 19.6974 222.077 18.9807C222.66 18.3087 223.511 17.9504 224.407 17.9952C225.168 17.9504 225.93 18.2192 226.468 18.8015C226.96 19.3839 227.184 20.1006 227.14 20.8174ZM225.437 20.6382C225.482 20.2798 225.348 19.8766 225.124 19.6078C224.9 19.3839 224.586 19.2495 224.273 19.2495C223.959 19.2495 223.601 19.3839 223.377 19.6078C223.153 19.9214 222.973 20.2798 222.973 20.6382H225.437Z" fill="#D1D1D1"/>
<path d="M234.531 24.8043H232.829V20.5038C232.873 20.235 232.784 19.9214 232.649 19.6975C232.515 19.5183 232.246 19.4287 232.022 19.4287C231.574 19.4287 231.171 19.6527 230.947 20.0558C230.634 20.5038 230.454 21.0414 230.499 21.5789V24.8043H228.797V18.1296H230.41C230.41 18.5328 230.365 18.9359 230.32 19.3391C230.544 18.9359 230.858 18.6223 231.216 18.3536C231.619 18.1296 232.112 17.9952 232.605 17.9952C233.949 17.9952 234.576 18.7119 234.576 20.1006L234.531 24.8043Z" fill="#D1D1D1"/>
<path d="M240.937 24.5803C240.355 24.8043 239.683 24.8939 239.055 24.8939C238.249 24.9387 237.443 24.6699 236.816 24.0876C236.278 23.55 236.009 22.7437 236.009 21.6238C235.964 20.683 236.278 19.7423 236.86 18.9808C237.488 18.264 238.428 17.9056 239.369 17.9504C239.862 17.9504 240.355 18.04 240.847 18.1744L240.579 19.6527C240.175 19.4735 239.772 19.3839 239.324 19.3839C238.876 19.3839 238.428 19.5631 238.159 19.9215C237.846 20.3694 237.712 20.907 237.756 21.4446C237.756 22.7437 238.294 23.3708 239.324 23.3708C239.772 23.3708 240.22 23.2812 240.623 23.102L240.937 24.5803Z" fill="#D1D1D1"/>
<path d="M247.701 20.8174C247.701 21.1309 247.701 21.4893 247.656 21.8029H243.535C243.535 23.0124 244.162 23.5947 245.372 23.5947C246.044 23.5947 246.671 23.4604 247.298 23.1916L247.477 24.4907C246.716 24.7595 245.865 24.9386 245.058 24.9386C242.863 24.9386 241.788 23.8187 241.788 21.5341C241.743 20.5934 242.057 19.6974 242.639 18.9807C243.222 18.3087 244.073 17.9504 244.969 17.9952C245.73 17.9504 246.492 18.2192 247.029 18.8015C247.522 19.3839 247.746 20.1006 247.701 20.8174ZM245.999 20.6382C246.044 20.2798 245.909 19.8766 245.685 19.6078C245.461 19.3839 245.148 19.2495 244.834 19.2495C244.521 19.2495 244.162 19.3839 243.938 19.6078C243.714 19.9214 243.535 20.2798 243.535 20.6382H245.999Z" fill="#D1D1D1"/>
<path d="M145.072 32.5093C145.117 33.4052 144.759 34.2116 144.131 34.8387C143.415 35.4659 142.474 35.7795 141.488 35.7347L140.861 35.6899V38.8256H139.114V29.7767C139.965 29.7319 140.772 29.7319 141.668 29.7319C142.787 29.7319 143.639 29.9559 144.221 30.4487C144.803 30.9862 145.117 31.7478 145.072 32.5093ZM143.235 32.6885C143.235 31.6582 142.653 31.1654 141.488 31.1654H140.816V34.2116C141.04 34.2564 141.309 34.2564 141.533 34.2564C141.981 34.3012 142.429 34.122 142.787 33.8532C143.101 33.5844 143.28 33.1365 143.235 32.6885Z" fill="#D1D1D1"/>
<path d="M150.089 32.0166L150 33.6741C149.507 33.4949 148.925 33.6741 148.611 34.0772C148.253 34.6596 148.118 35.3763 148.163 36.0483V38.7809H146.461V32.151H148.073C148.073 32.5989 148.029 33.0469 147.939 33.4949H147.984C148.387 32.4197 149.059 31.927 150.089 32.0166Z" fill="#D1D1D1"/>
<path d="M157.257 35.3763C157.302 36.3171 156.943 37.2578 156.316 37.9745C155.689 38.6465 154.793 39.0497 153.852 39.0049C153.001 39.0497 152.195 38.7809 151.568 38.1985C151.03 37.661 150.761 36.8098 150.761 35.6451C150.716 34.7044 151.075 33.7637 151.702 33.0469C152.329 32.375 153.225 32.0166 154.166 32.0614C155.017 32.0166 155.868 32.3302 156.45 32.9125C156.988 33.4053 157.257 34.2564 157.257 35.3763ZM155.51 35.4659C155.51 34.122 155.017 33.4949 154.031 33.4949C153.628 33.4949 153.225 33.6741 152.956 33.9876C152.598 34.3908 152.464 34.9284 152.508 35.4659C152.508 36.8546 153.001 37.5266 153.987 37.5266C154.435 37.5266 154.838 37.3474 155.062 36.989C155.375 36.541 155.555 36.0483 155.51 35.4659Z" fill="#D1D1D1"/>
<path d="M164.827 39.5424C164.827 40.3039 164.424 41.0206 163.797 41.4238C163.036 41.9614 162.095 42.2302 161.154 42.1854C160.437 42.2302 159.676 42.051 159.049 41.6926C158.556 41.379 158.287 40.7967 158.287 40.2143C158.287 39.8559 158.377 39.5424 158.601 39.2736C158.78 39.0048 159.004 38.736 159.317 38.6016C158.914 38.4224 158.645 38.0193 158.645 37.5713C158.645 37.3025 158.735 37.0785 158.869 36.8546C159.004 36.6306 159.228 36.4962 159.452 36.3618C158.78 36.0034 158.421 35.2867 158.466 34.5251C158.466 33.8532 158.735 33.1812 159.228 32.7333C159.81 32.2405 160.617 31.9717 161.378 32.0165C161.736 32.0165 162.095 32.0613 162.453 32.1509H164.738V33.4948H163.842C164.066 33.7188 164.155 34.0324 164.155 34.3459C164.2 35.0179 163.931 35.645 163.439 36.093C162.856 36.5858 162.095 36.8098 161.333 36.765C161.154 36.765 160.975 36.765 160.796 36.7202C160.617 36.765 160.482 36.9441 160.482 37.1681C160.482 37.3025 160.572 37.4369 160.706 37.4817C160.975 37.5713 161.244 37.5713 161.512 37.5713L162.543 37.6161C164.066 37.6609 164.827 38.2881 164.827 39.5424ZM163.125 39.7663C163.125 39.2288 162.767 38.9152 162.095 38.9152L160.885 38.8704H160.572C160.213 39.0944 159.989 39.4976 159.945 39.9007C159.945 40.2143 160.079 40.4831 160.348 40.6175C160.661 40.7967 161.02 40.8863 161.378 40.8863C161.826 40.9311 162.274 40.7967 162.632 40.5727C162.946 40.4383 163.125 40.1247 163.125 39.7663ZM162.543 34.4355C162.588 34.122 162.453 33.8084 162.229 33.5844C161.692 33.1812 160.975 33.1812 160.437 33.5844C160.034 34.0772 160.034 34.7939 160.437 35.2867C160.975 35.6898 161.692 35.6898 162.229 35.2867C162.453 35.0627 162.588 34.7491 162.543 34.4355Z" fill="#D1D1D1"/>
<path d="M169.845 32.0166L169.755 33.6741C169.262 33.4949 168.68 33.6741 168.366 34.0772C168.008 34.6596 167.874 35.3763 167.918 36.0483V38.7809H166.216V32.151H167.829C167.829 32.5989 167.784 33.0469 167.694 33.4949H167.739C168.142 32.4197 168.859 31.927 169.845 32.0166Z" fill="#D1D1D1"/>
<path d="M176.071 38.8257H174.414C174.414 38.4673 174.414 38.0641 174.459 37.7057C174.28 38.0641 174.011 38.4225 173.652 38.6465C173.249 38.8705 172.801 39.0048 172.353 39.0048C171.816 39.0496 171.323 38.8257 170.965 38.4673C170.606 38.1089 170.427 37.5714 170.472 37.0786C170.472 36.3618 170.875 35.6899 171.502 35.3315C172.353 34.8836 173.339 34.7044 174.324 34.7492V34.5252C174.369 34.2116 174.235 33.898 174.056 33.6293C173.787 33.4053 173.473 33.3157 173.115 33.3605C172.398 33.3605 171.726 33.5397 171.099 33.8084L170.83 32.5093C171.637 32.1958 172.488 32.0614 173.339 32.0614C174.324 32.0614 175.041 32.2406 175.444 32.6437C175.847 33.1365 176.071 33.7636 176.027 34.3908V37.1234C176.027 37.7953 176.027 38.3329 176.071 38.8257ZM174.28 36.0483V35.8691C172.801 35.8691 172.085 36.1827 172.085 36.8546C172.085 37.0786 172.174 37.2578 172.308 37.3922C172.488 37.5266 172.667 37.6162 172.891 37.6162C173.294 37.6162 173.652 37.437 173.876 37.1234C174.145 36.8546 174.28 36.4514 174.28 36.0483Z" fill="#D1D1D1"/>
<path d="M187.808 38.8256H186.106V34.6148C186.151 34.3012 186.061 34.0324 185.927 33.7636C185.792 33.5844 185.523 33.4501 185.299 33.4948C184.852 33.5396 184.448 33.7636 184.224 34.122C183.911 34.57 183.732 35.1523 183.776 35.6899V38.8704H182.074V34.6596C182.074 34.346 182.029 34.0772 181.895 33.8084C181.761 33.5844 181.537 33.4501 181.268 33.4948C180.82 33.5396 180.417 33.7636 180.193 34.122C179.879 34.57 179.7 35.1075 179.745 35.6451V38.8256H178.042V32.151H179.655C179.655 32.5541 179.61 32.9573 179.566 33.3605C179.789 32.9573 180.103 32.6437 180.461 32.3749C180.865 32.151 181.313 32.0166 181.761 32.0166C182.612 31.927 183.418 32.5093 183.597 33.3605C183.776 32.9573 184.09 32.6437 184.448 32.4197C184.852 32.1509 185.299 32.0166 185.792 32.0166C187.136 32.0166 187.808 32.7333 187.808 34.2116V38.8256Z" fill="#D1D1D1"/>
<path d="M113.97 29.9515C113.75 29.826 113.352 29.62 112.801 29.4453C112.003 29.1899 110.897 29.0018 109.584 29.2078C109.141 29.2795 108.675 29.396 108.191 29.5662C108.146 29.5841 108.097 29.5976 108.052 29.6155C107.806 29.7096 107.559 29.8216 107.313 29.9425C107.102 30.05 106.892 30.1665 106.686 30.2919C106.211 30.5786 105.741 30.9056 105.284 31.2551C104.764 28.1103 105.019 25.1941 105.14 23.7606C105.14 23.7516 105.149 23.7471 105.158 23.7516C106.269 24.4504 105.96 26.4081 105.723 26.968C105.723 26.977 105.736 26.9859 105.745 26.977C107.129 25.3374 106.453 23.5276 106.171 23.0707C106.166 23.0617 106.18 23.0528 106.189 23.0573C106.39 23.2185 106.551 23.3932 106.69 23.568C107.12 24.1145 107.277 24.7103 107.318 25.2299C107.34 25.5076 107.331 25.763 107.318 25.9825C107.318 26.0407 107.309 26.099 107.304 26.1482C107.304 26.1572 107.309 26.1572 107.318 26.1572C107.318 26.1572 107.322 26.1572 107.326 26.1572C107.698 25.4225 107.877 24.3116 107.318 23.232C107.165 22.9408 106.959 22.6496 106.69 22.3719C106.614 22.2912 106.529 22.2106 106.439 22.1345C106.431 22.1255 106.439 22.1121 106.448 22.1165C106.534 22.1389 106.61 22.1613 106.69 22.1882C106.928 22.2688 107.134 22.3853 107.318 22.5197C107.739 22.8288 108.021 23.2589 108.196 23.7023C108.334 24.0697 108.402 24.4504 108.397 24.7819C108.397 24.7954 108.415 24.7954 108.42 24.7819C108.679 23.8233 108.523 23.1021 108.196 22.569C107.963 22.1927 107.64 21.915 107.318 21.7223C107.098 21.5924 106.878 21.4983 106.69 21.4401C106.578 21.4088 106.475 21.3864 106.39 21.3729C106.377 21.3729 106.381 21.355 106.39 21.3505C106.493 21.3416 106.592 21.3371 106.69 21.3326C106.923 21.3326 107.129 21.3505 107.318 21.3864C107.689 21.4536 107.976 21.5879 108.196 21.7313C108.549 21.9687 108.724 22.2465 108.782 22.3629C108.787 22.3719 108.805 22.3629 108.805 22.354C108.755 21.8478 108.523 21.4536 108.196 21.1669C107.945 20.9473 107.64 20.795 107.318 20.7054C107.111 20.6472 106.896 20.6159 106.69 20.6159C106.408 20.6159 106.139 20.6607 105.906 20.7547C105.897 20.7547 105.888 20.7458 105.893 20.7413C106.095 20.4501 106.386 20.2664 106.69 20.1768C106.901 20.1141 107.116 20.0917 107.318 20.1007C107.51 20.1141 107.689 20.1544 107.833 20.2216C107.842 20.2261 107.851 20.2127 107.846 20.2037C107.689 20.0245 107.51 19.8812 107.318 19.7737C107.116 19.6617 106.905 19.5945 106.69 19.5676C106.13 19.5049 105.557 19.7423 105.176 20.3202C105.176 20.3247 105.163 20.3292 105.158 20.3202C105.087 20.1903 105.015 20.0469 104.948 19.8946C104.795 19.5407 104.67 19.142 104.603 18.7478C104.603 18.7344 104.585 18.7344 104.585 18.7478C104.518 19.142 104.392 19.5452 104.24 19.8991C104.173 20.0514 104.106 20.1948 104.034 20.3202C104.034 20.3292 104.02 20.3247 104.016 20.3202C103.349 19.3123 102.103 19.3347 101.346 20.2037C101.337 20.2127 101.346 20.2261 101.36 20.2216C101.866 19.9797 102.82 20.0514 103.299 20.7413C103.304 20.7502 103.299 20.7592 103.286 20.7547C102.547 20.4456 101.404 20.6472 100.795 21.3729C100.576 21.6327 100.428 21.9598 100.387 22.354C100.387 22.3674 100.401 22.3719 100.405 22.3629C100.455 22.2733 100.571 22.0807 100.791 21.8881C101.145 21.5745 101.767 21.252 102.798 21.3505C102.811 21.3505 102.811 21.3684 102.798 21.3729C102.273 21.4401 101.189 21.906 100.791 22.9811C100.611 23.456 100.571 24.0518 100.768 24.7775C100.768 24.7909 100.791 24.7909 100.791 24.7775C100.791 24.7595 100.791 24.7461 100.791 24.7282C100.8 23.7516 101.36 22.4436 102.739 22.1121C102.748 22.1121 102.757 22.1255 102.748 22.13C101.203 23.4873 101.36 25.1672 101.861 26.1572C101.866 26.1662 101.884 26.1617 101.884 26.1527C101.816 25.4046 101.763 24.0697 102.999 23.0618C103.008 23.0528 103.022 23.0617 103.017 23.0752C102.73 23.5321 102.054 25.3419 103.438 26.9815C103.447 26.9904 103.465 26.9815 103.456 26.9725C103.223 26.4125 102.914 24.4549 104.025 23.7561C104.029 23.7561 104.043 23.7561 104.043 23.7651C104.164 25.1985 104.415 28.1148 103.9 31.2595C103.008 30.5741 102.063 29.9694 101.131 29.62C101.015 29.5752 100.903 29.5393 100.791 29.499C99.8275 29.181 98.945 29.0914 98.1745 29.1272C96.9381 29.181 95.9929 29.5528 95.4733 29.8126C95.3702 29.8664 95.2807 29.9112 95.209 29.9515C95.1821 29.9694 95.2 30.0097 95.2314 29.9963C95.312 29.9694 95.3926 29.947 95.4733 29.9246C96.423 29.6558 97.3234 29.5841 98.1745 29.6603C99.1018 29.7409 99.9753 29.9963 100.791 30.3681C101.933 30.8832 102.968 31.6179 103.904 32.3974C102.587 33.5486 101.472 34.6686 100.791 35.0628C100.755 35.0807 100.723 35.1031 100.692 35.1165C100.531 34.8925 100.249 34.7671 99.9395 34.8343C99.6707 34.8925 99.4557 35.1076 99.393 35.3763C99.3392 35.6138 99.4019 35.8736 99.5363 36.008C99.8947 36.3663 100.316 36.3932 100.791 36.1916C101.704 35.8064 102.842 34.5969 104.235 33.3157C104.352 33.2082 104.468 33.1007 104.589 32.9932C104.71 33.1007 104.827 33.2082 104.943 33.3112C105.575 33.8891 106.153 34.458 106.686 34.9373C106.905 35.1344 107.111 35.3181 107.313 35.4839C107.627 35.7392 107.918 35.9497 108.191 36.0931C108.724 36.3753 109.186 36.4111 109.584 36.0617C109.607 36.0438 109.629 36.0259 109.647 36.0035C109.737 35.9139 109.844 35.6138 109.79 35.3719C109.759 35.233 109.683 35.112 109.584 35.0135C109.49 34.9239 109.374 34.8612 109.244 34.8298C108.935 34.7626 108.652 34.8925 108.491 35.112C108.402 35.0672 108.299 35.0045 108.191 34.9284C107.94 34.7581 107.645 34.5118 107.313 34.2206C107.116 34.0459 106.905 33.8577 106.686 33.6562C106.256 33.2664 105.781 32.8319 105.279 32.3929C105.723 32.0211 106.193 31.6627 106.686 31.3267C106.892 31.1879 107.102 31.0535 107.313 30.928C107.595 30.7578 107.891 30.601 108.191 30.4577C108.639 30.2426 109.1 30.0635 109.584 29.9246C110.579 29.6379 111.649 29.5393 112.801 29.723C113.172 29.7812 113.558 29.8708 113.947 29.9918C113.979 30.0007 113.997 29.9604 113.97 29.947" fill="#D1D1D1"/>
<path d="M104.59 46.9235L102.477 49.0363L104.59 51.149L106.703 49.0363L104.59 46.9235Z" fill="#D1D1D1"/>
<path d="M87.6122 34.8365L86.8476 37.1881L89.1993 37.9527L89.9638 35.6011L87.6122 34.8365Z" fill="#D1D1D1"/>
<path d="M94.4469 14.1857L94.1266 16.2077L96.1487 16.5279L96.4689 14.5059L94.4469 14.1857Z" fill="#D1D1D1"/>
<path d="M120.391 26.6927L118.944 28.1403L120.391 29.5879L121.839 28.1403L120.391 26.6927Z" fill="#D1D1D1"/>
<path d="M119.159 21.8713L118.23 23.6955L120.055 24.6246L120.984 22.8004L119.159 21.8713Z" fill="#D1D1D1"/>
<path d="M96.1486 39.7598L94.1266 40.0801L94.4469 42.1021L96.4689 41.7818L96.1486 39.7598Z" fill="#D1D1D1"/>
<path d="M114.73 14.1924L112.708 14.5127L113.029 16.5347L115.051 16.2144L114.73 14.1924Z" fill="#D1D1D1"/>
<path d="M100.16 41.8067L98.3357 42.7358L99.2648 44.5601L101.089 43.631L100.16 41.8067Z" fill="#D1D1D1"/>
<path d="M104.588 10.8898L103.141 12.3374L104.588 13.7849L106.036 12.3374L104.588 10.8898Z" fill="#D1D1D1"/>
<path d="M102.253 13.3864L101.255 14.7599L102.629 15.7578L103.627 14.3843L102.253 13.3864Z" fill="#D1D1D1"/>
<path d="M106.558 40.5301L105.56 41.9036L106.933 42.9016L107.931 41.528L106.558 40.5301Z" fill="#D1D1D1"/>
<path d="M92.8922 20.826L91.2775 21.3507L91.8022 22.9654L93.4169 22.4407L92.8922 20.826Z" fill="#D1D1D1"/>
<path d="M117.378 33.3047L115.764 33.8293L116.288 35.444L117.903 34.9193L117.378 33.3047Z" fill="#D1D1D1"/>
<path d="M90.8362 29.1024L89.8382 30.476L91.2118 31.4739L92.2097 30.1003L90.8362 29.1024Z" fill="#D1D1D1"/>
<path d="M125.125 32.6021L122.462 33.9586L123.819 36.6208L126.481 35.2643L125.125 32.6021Z" fill="#D1D1D1"/>
<path d="M93.5531 43.3233L90.602 43.7912L91.07 46.7423L94.021 46.2744L93.5531 43.3233Z" fill="#D1D1D1"/>
<path d="M118.116 9.51211L115.165 9.98004L115.633 12.9311L118.584 12.4632L118.116 9.51211Z" fill="#D1D1D1"/>
<path d="M86.3668 29.2494L84.9133 31.2499L86.9139 32.7034L88.3673 30.7029L86.3668 29.2494Z" fill="#D1D1D1"/>
<path d="M99.249 11.7246L98.3199 13.5489L100.144 14.4779L101.073 12.6537L99.249 11.7246Z" fill="#D1D1D1"/>
<path d="M90.0152 21.895L88.191 22.8241L89.12 24.6483L90.9443 23.7192L90.0152 21.895Z" fill="#D1D1D1"/>
<path d="M104.591 42.4922L103.144 43.9398L104.591 45.3874L106.039 43.9398L104.591 42.4922Z" fill="#D1D1D1"/>
<path d="M116.298 20.8389L115.773 22.4536L117.388 22.9782L117.912 21.3635L116.298 20.8389Z" fill="#D1D1D1"/>
<path d="M95.7241 37.0069H94.0264V38.7047H95.7241V37.0069Z" fill="#D1D1D1"/>
<path d="M85.3737 19.687L82.7114 21.0435L84.0679 23.7057L86.7302 22.3493L85.3737 19.687Z" fill="#D1D1D1"/>
<path d="M84.0549 32.5801L82.6984 35.2423L85.3607 36.5988L86.7172 33.9366L84.0549 32.5801Z" fill="#D1D1D1"/>
<path d="M95.5441 10.387L94.78 12.7388L97.1317 13.5029L97.8958 11.1512L95.5441 10.387Z" fill="#D1D1D1"/>
<path d="M112.044 42.7711L111.28 45.1228L113.632 45.887L114.396 43.5352L112.044 42.7711Z" fill="#D1D1D1"/>
<path d="M121.578 34.8418L119.226 35.606L119.99 37.9577L122.342 37.1936L121.578 34.8418Z" fill="#D1D1D1"/>
<path d="M122.817 29.2616L120.817 30.7151L122.27 32.7156L124.27 31.2621L122.817 29.2616Z" fill="#D1D1D1"/>
<path d="M119.982 18.3291L119.218 20.6809L121.569 21.445L122.333 19.0932L119.982 18.3291Z" fill="#D1D1D1"/>
<path d="M118.678 14.0532H116.205V16.5259H118.678V14.0532Z" fill="#D1D1D1"/>
<path d="M97.1367 42.7807L94.7849 43.5449L95.5491 45.8966L97.9008 45.1325L97.1367 42.7807Z" fill="#D1D1D1"/>
<path d="M107.157 44.3565L105.703 46.357L107.704 47.8104L109.157 45.8099L107.157 44.3565Z" fill="#D1D1D1"/>
<path d="M89.1023 31.6349L88.1732 33.4591L89.9974 34.3882L90.9265 32.564L89.1023 31.6349Z" fill="#D1D1D1"/>
<path d="M95.7241 17.5742H94.0264V19.2719H95.7241V17.5742Z" fill="#D1D1D1"/>
<path d="M91.2083 24.8024L89.8347 25.8003L90.8327 27.1738L92.2062 26.1759L91.2083 24.8024Z" fill="#D1D1D1"/>
<path d="M111.374 14.8171L109.759 15.3418L110.284 16.9565L111.898 16.4318L111.374 14.8171Z" fill="#D1D1D1"/>
<path d="M106.927 13.3768L105.554 14.3747L106.552 15.7483L107.925 14.7503L106.927 13.3768Z" fill="#D1D1D1"/>
<path d="M114.849 34.347L113.46 34.5673L113.68 35.9566L115.069 35.7363L114.849 34.347Z" fill="#D1D1D1"/>
<path d="M116.541 27.1462L115.547 28.1408L116.541 29.1355L117.536 28.1408L116.541 27.1462Z" fill="#D1D1D1"/>
<path d="M123.807 19.6624L122.451 22.3247L125.113 23.6812L126.469 21.0189L123.807 19.6624Z" fill="#D1D1D1"/>
<path d="M118.678 39.753H116.205V42.2257H118.678V39.753Z" fill="#D1D1D1"/>
<path d="M89.1933 18.3394L86.8415 19.1035L87.6056 21.4553L89.9574 20.6911L89.1933 18.3394Z" fill="#D1D1D1"/>
<path d="M113.633 10.3779L111.282 11.1424L112.046 13.494L114.398 12.7295L113.633 10.3779Z" fill="#D1D1D1"/>
<path d="M101.474 8.45957L100.02 10.4601L102.021 11.9135L103.474 9.91303L101.474 8.45957Z" fill="#D1D1D1"/>
<path d="M120.072 31.6621L118.247 32.5912L119.177 34.4154L121.001 33.4863L120.072 31.6621Z" fill="#D1D1D1"/>
<path d="M88.7887 26.6956L87.3411 28.1432L88.7887 29.5908L90.2363 28.1432L88.7887 26.6956Z" fill="#D1D1D1"/>
<path d="M118.351 29.0995L116.977 30.0975L117.975 31.471L119.349 30.4731L118.351 29.0995Z" fill="#D1D1D1"/>
<path d="M98.8997 39.3033L97.285 39.828L97.8097 41.4427L99.4244 40.918L98.8997 39.3033Z" fill="#D1D1D1"/>
<path d="M104.594 39.0921L103.599 40.0867L104.594 41.0814L105.589 40.0867L104.594 39.0921Z" fill="#D1D1D1"/>
<path d="M96.9995 17.6739L96.7792 19.0631L98.1684 19.2834L98.3887 17.8941L96.9995 17.6739Z" fill="#D1D1D1"/>
<path d="M92.9101 30.8765L92.2715 32.1298L93.5248 32.7684L94.1634 31.5151L92.9101 30.8765Z" fill="#D1D1D1"/>
<path d="M92.9781 14.0532H90.5053V16.5259H92.9781V14.0532Z" fill="#D1D1D1"/>
<path d="M107.712 8.46865L105.711 9.92211L107.165 11.9226L109.165 10.4692L107.712 8.46865Z" fill="#D1D1D1"/>
<path d="M109.017 41.7816L108.088 43.6058L109.912 44.5349L110.841 42.7107L109.017 41.7816Z" fill="#D1D1D1"/>
<path d="M90.9497 36.2531L90.6294 38.2751L92.6514 38.5954L92.9717 36.5734L90.9497 36.2531Z" fill="#D1D1D1"/>
<path d="M116.515 17.6784L116.195 19.7004L118.217 20.0207L118.537 17.9987L116.515 17.6784Z" fill="#D1D1D1"/>
<path d="M115.157 37.0069H113.459V38.7047H115.157V37.0069Z" fill="#D1D1D1"/>
<path d="M117.977 24.806L116.979 26.1795L118.353 27.1774L119.351 25.8039L117.977 24.806Z" fill="#D1D1D1"/>
<path d="M102.628 40.5231L101.255 41.521L102.253 42.8946L103.626 41.8967L102.628 40.5231Z" fill="#D1D1D1"/>
<path d="M100.582 15.8237L99.9431 17.077L101.196 17.7156L101.835 16.4623L100.582 15.8237Z" fill="#D1D1D1"/>
<path d="M107.971 38.5502L107.333 39.8035L108.586 40.4421L109.225 39.1888L107.971 38.5502Z" fill="#D1D1D1"/>
<path d="M111.047 37.0064L110.827 38.3957L112.216 38.6159L112.436 37.2267L111.047 37.0064Z" fill="#D1D1D1"/>
<path d="M93.5406 23.5122L92.2873 24.1508L92.9259 25.4041L94.1792 24.7655L93.5406 23.5122Z" fill="#D1D1D1"/>
<path d="M116.269 30.9024L115.015 31.541L115.654 32.7943L116.907 32.1557L116.269 30.9024Z" fill="#D1D1D1"/>
<path d="M94.3548 34.3617L94.1345 35.7509L95.5238 35.9712L95.7441 34.582L94.3548 34.3617Z" fill="#D1D1D1"/>
<path d="M112.205 17.6575L110.816 17.8778L111.036 19.267L112.425 19.0467L112.205 17.6575Z" fill="#D1D1D1"/>
<path d="M101.21 38.5682L99.9572 39.2068L100.596 40.4601L101.849 39.8215L101.21 38.5682Z" fill="#D1D1D1"/>
<path d="M91.0766 9.52487L90.6087 12.4759L93.5598 12.9439L94.0277 9.9928L91.0766 9.52487Z" fill="#D1D1D1"/>
<path d="M115.646 43.3451L115.178 46.2962L118.129 46.7641L118.597 43.8131L115.646 43.3451Z" fill="#D1D1D1"/>
<path d="M104.593 5.12679L102.48 7.23959L104.593 9.35238L106.706 7.23958L104.593 5.12679Z" fill="#D1D1D1"/>
<path d="M86.919 23.5737L84.9185 25.0272L86.372 27.0277L88.3725 25.5742L86.919 23.5737Z" fill="#D1D1D1"/>
<path d="M122.264 23.5667L120.81 25.5672L122.811 27.0207L124.264 25.0202L122.264 23.5667Z" fill="#D1D1D1"/>
<path d="M92.9781 39.753H90.5053V42.2257H92.9781V39.753Z" fill="#D1D1D1"/>
<path d="M102.024 44.3667L100.024 45.8201L101.477 47.8206L103.478 46.3672L102.024 44.3667Z" fill="#D1D1D1"/>
<path d="M113.022 39.751L112.701 41.773L114.723 42.0933L115.044 40.0713L113.022 39.751Z" fill="#D1D1D1"/>
<path d="M92.6576 17.6872L90.6356 18.0074L90.9558 20.0294L92.9778 19.7092L92.6576 17.6872Z" fill="#D1D1D1"/>
<path d="M118.225 36.2644L116.203 36.5847L116.523 38.6067L118.545 38.2864L118.225 36.2644Z" fill="#D1D1D1"/>
<path d="M109.927 11.7458L108.103 12.6749L109.032 14.4991L110.856 13.5701L109.927 11.7458Z" fill="#D1D1D1"/>
<path d="M97.8189 14.8304L97.2942 16.4451L98.9089 16.9697L99.4335 15.355L97.8189 14.8304Z" fill="#D1D1D1"/>
<path d="M110.291 39.3179L109.766 40.9326L111.381 41.4573L111.905 39.8426L110.291 39.3179Z" fill="#D1D1D1"/>
<path d="M91.8101 33.3106L91.2855 34.9253L92.9002 35.45L93.4248 33.8353L91.8101 33.3106Z" fill="#D1D1D1"/>
<path d="M115.157 17.5742H113.459V19.2719H115.157V17.5742Z" fill="#D1D1D1"/>
<path d="M104.592 15.1958L103.598 16.1904L104.592 17.185L105.587 16.1904L104.592 15.1958Z" fill="#D1D1D1"/>
<path d="M95.5111 20.3015L94.1219 20.5218L94.3421 21.9111L95.7314 21.6908L95.5111 20.3015Z" fill="#D1D1D1"/>
<path d="M92.6448 27.1481L91.6502 28.1427L92.6448 29.1373L93.6395 28.1427L92.6448 27.1481Z" fill="#D1D1D1"/>
<path d="M115.637 23.4868L114.998 24.7401L116.251 25.3787L116.89 24.1254L115.637 23.4868Z" fill="#D1D1D1"/>
<path d="M113.687 20.3141L113.467 21.7033L114.856 21.9236L115.077 20.5343L113.687 20.3141Z" fill="#D1D1D1"/>
<path d="M98.1552 36.9911L96.7659 37.2114L96.9862 38.6007L98.3755 38.3804L98.1552 36.9911Z" fill="#D1D1D1"/>
<path d="M108.599 15.8417L107.345 16.4803L107.984 17.7336L109.237 17.095L108.599 15.8417Z" fill="#D1D1D1"/>
<path d="M257.609 0H256.878V56.2759H257.609V0Z" fill="#444648"/>
<g clip-path="url(#clip0_2272_13259)">
<path d="M279.297 24.869C279.297 23.3379 280 22.6759 281.2 22.6759C282.4 22.6759 283.104 23.3173 283.104 24.869C283.104 26.4 282.359 27.0414 281.2 27.0414C280 27.0414 279.297 26.4 279.297 24.869ZM280.124 24.869C280.124 25.8207 280.435 26.2552 281.2 26.2552C281.966 26.2552 282.276 25.8414 282.276 24.869C282.276 23.9793 281.966 23.4621 281.2 23.4621C280.435 23.4621 280.124 23.9793 280.124 24.869ZM280.249 21.869C280.186 21.869 280.145 21.8483 280.145 21.7655V21.0414C280.145 20.9793 280.166 20.9379 280.249 20.9379H280.931C280.993 20.9379 281.035 20.9586 281.035 21.0414V21.7655C281.035 21.8276 281.014 21.869 280.931 21.869H280.249ZM281.469 21.869C281.407 21.869 281.366 21.8483 281.366 21.7655V21.0414C281.366 20.9793 281.386 20.9379 281.469 20.9379H282.152C282.214 20.9379 282.255 20.9586 282.255 21.0414V21.7655C282.255 21.8276 282.235 21.869 282.152 21.869H281.469Z" fill="#A7A9AC"/>
<path d="M283.766 28.9448C283.704 28.9448 283.662 28.9241 283.662 28.8414V28.2621C283.662 28.2 283.683 28.1586 283.766 28.1586H283.993C284.531 28.1586 284.8 27.869 284.8 27.3104V22.9655C284.8 22.9035 284.821 22.8621 284.904 22.8621H285.545C285.607 22.8621 285.649 22.8828 285.649 22.9655V25.4897C285.649 25.9448 285.98 26.1724 286.559 26.1724H286.662C286.931 26.1724 287.055 26.2759 287.055 26.5448C287.055 26.8966 286.931 26.9586 286.662 26.9586H286.455C286.124 26.9586 285.835 26.8552 285.649 26.6483V27.3104C285.649 28.3862 285.09 28.9655 284.035 28.9655H283.766V28.9448Z" fill="#A7A9AC"/>
<path d="M286.662 26.9586C286.393 26.9586 286.331 26.8552 286.331 26.5862C286.331 26.2552 286.393 26.1931 286.662 26.1931H287.759C288.028 26.1931 288.152 26.2759 288.152 26.5655C288.152 26.8966 288.028 26.9793 287.759 26.9793H286.662V26.9586Z" fill="#A7A9AC"/>
<path d="M287.78 26.9586C287.511 26.9586 287.449 26.8552 287.449 26.5862C287.449 26.2552 287.511 26.1931 287.78 26.1931H288.876C289.145 26.1931 289.269 26.2759 289.269 26.5655C289.269 26.8966 289.145 26.9793 288.876 26.9793H287.78V26.9586Z" fill="#A7A9AC"/>
<path d="M288.897 26.9586C288.628 26.9586 288.566 26.8552 288.566 26.5862C288.566 26.2552 288.628 26.1931 288.897 26.1931H289.993C290.262 26.1931 290.386 26.2759 290.386 26.5655C290.386 26.8966 290.262 26.9793 289.993 26.9793H288.897V26.9586Z" fill="#A7A9AC"/>
<path d="M291.566 26.4621C291.276 26.8966 290.78 26.9586 290.407 26.9586H289.973C289.704 26.9586 289.58 26.8345 289.58 26.5655C289.58 26.2345 289.704 26.1931 289.973 26.1931H290.469C290.759 26.1931 291.09 25.9655 291.09 25.2828C291.09 25.1586 291.09 25.0345 291.09 24.8897C291.09 23.3586 291.793 22.7173 292.993 22.7173C294.193 22.7173 294.897 23.3586 294.897 24.8897C294.897 25.0345 294.876 25.2 294.876 25.3242C294.876 26.0069 295.207 26.2138 295.497 26.2138H295.786C296.055 26.2138 296.18 26.3173 296.18 26.5862C296.18 26.938 296.055 27 295.786 27H295.559C295.186 27 294.669 26.9586 294.4 26.5242C294.069 26.9173 293.573 27.0828 292.973 27.0828C292.373 27.0414 291.897 26.8552 291.566 26.4621ZM291.938 24.869C291.938 25.8207 292.249 26.2552 293.014 26.2552C293.78 26.2552 294.09 25.8414 294.09 24.869C294.09 23.9793 293.78 23.4621 293.014 23.4621C292.249 23.4621 291.938 23.9793 291.938 24.869Z" fill="#A7A9AC"/>
<path d="M300.628 24.2483C300.628 25.1173 300.007 25.8414 299.469 26.1517C299.552 26.1724 299.655 26.1724 299.78 26.1724H301.249C301.518 26.1724 301.642 26.2345 301.642 26.5242C301.642 26.8552 301.518 26.9586 301.249 26.9586H299.842C299.366 26.9586 298.931 26.8966 298.538 26.6483C298.104 26.8966 297.566 26.9586 297.173 26.9586H295.807C295.538 26.9586 295.414 26.8345 295.414 26.5655C295.414 26.2345 295.538 26.1931 295.807 26.1931H297.09C297.255 26.1931 297.545 26.1931 297.938 26.0897C297.711 25.0138 297.173 24.6621 296.573 24.2069C296.449 24.1242 296.428 24.0828 296.428 24V23.4C296.428 23.3173 296.449 23.2345 296.531 23.1931C296.842 23.0069 297.586 22.6759 298.518 22.6759C299.966 22.6966 300.628 23.2966 300.628 24.2483ZM297.297 23.7311C297.98 24.1242 298.518 24.8276 298.745 25.7793C299.18 25.5104 299.738 24.9517 299.738 24.3104C299.738 23.6483 299.2 23.4621 298.518 23.4621C297.938 23.4621 297.442 23.6483 297.297 23.7311Z" fill="#A7A9AC"/>
<path d="M301.249 26.9586C300.98 26.9586 300.918 26.8552 300.918 26.5862C300.918 26.2552 300.98 26.1931 301.249 26.1931H302.345C302.614 26.1931 302.738 26.2759 302.738 26.5655C302.738 26.8966 302.614 26.9793 302.345 26.9793H301.249V26.9586Z" fill="#A7A9AC"/>
<path d="M302.366 26.9586C302.097 26.9586 302.035 26.8552 302.035 26.5862C302.035 26.2552 302.097 26.1931 302.366 26.1931H303.462C303.731 26.1931 303.855 26.2759 303.855 26.5655C303.855 26.8966 303.731 26.9793 303.462 26.9793H302.366V26.9586Z" fill="#A7A9AC"/>
<path d="M303.462 26.9586C303.193 26.9586 303.069 26.8966 303.069 26.6069C303.069 26.2759 303.193 26.1724 303.462 26.1724H304.083C304.414 26.1724 304.559 26.0483 304.559 25.6345V20.2345C304.559 20.1724 304.58 20.1311 304.662 20.1311H305.304C305.366 20.1311 305.407 20.1517 305.407 20.2345V25.6759C305.407 26.5655 305.076 26.9379 304.228 26.9379H303.462V26.9586Z" fill="#A7A9AC"/>
<path d="M307.662 26.8552C307.662 26.9173 307.642 26.9586 307.559 26.9586H306.917C306.855 26.9586 306.814 26.938 306.814 26.8552V20.2552C306.814 20.1931 306.835 20.1517 306.917 20.1517H307.559C307.621 20.1517 307.662 20.1724 307.662 20.2552V26.8552Z" fill="#A7A9AC"/>
<path d="M309.773 28.9655C309.711 28.9655 309.669 28.9448 309.669 28.8621V28.2828C309.669 28.2207 309.69 28.1793 309.773 28.1793H310.973C311.511 28.1793 311.904 27.9724 311.904 27.2276V26.9586H310.828C309.649 26.9586 308.924 26.4414 308.924 24.931C308.924 23.4 309.793 22.6966 310.849 22.6966C312.049 22.6966 312.731 23.3379 312.731 24.8897V27.2276C312.731 28.469 312.049 28.9862 310.993 28.9862H309.773V28.9655ZM309.752 24.931C309.752 25.8828 310.124 26.1931 310.89 26.1931H311.904V24.8897C311.904 24 311.614 23.4828 310.849 23.4828C310.166 23.4621 309.752 24.0414 309.752 24.931Z" fill="#A7A9AC"/>
<path d="M317.78 28.9449C316.745 28.9449 316.124 28.5311 316.124 27.5793C316.124 26.4828 316.931 26.1724 317.552 26.1724H319.124C319.869 26.1724 319.993 25.9449 319.993 25.2207C319.993 24.1655 319.662 23.4621 318.628 23.4621C318.173 23.4621 317.78 23.669 317.49 23.9793C317.449 24.0207 317.407 24.0207 317.345 23.9793L316.911 23.6276C316.849 23.5862 316.849 23.5449 316.89 23.4828C317.262 23.0069 317.8 22.6759 318.607 22.6759C320.449 22.6759 320.883 23.9173 320.883 25.2207C320.883 25.3449 320.862 25.4483 320.883 25.5517C320.904 25.9655 321.255 26.1724 321.793 26.1724H321.897C322.166 26.1724 322.29 26.2759 322.29 26.5449C322.29 26.8966 322.166 26.9586 321.897 26.9586H321.69C321.235 26.9586 320.842 26.7724 320.697 26.3793C320.469 26.8138 320.076 26.9586 319.455 26.9586H317.573C317.159 26.9586 317.014 27.2276 317.014 27.5586C317.014 27.9931 317.2 28.1793 317.883 28.1793H318.214C318.276 28.1793 318.317 28.2 318.317 28.2828V28.8621C318.317 28.9242 318.297 28.9655 318.214 28.9655H317.78V28.9449ZM318.793 28.8207C318.731 28.8207 318.69 28.8 318.69 28.7173V27.9931C318.69 27.9311 318.711 27.8897 318.793 27.8897H319.476C319.538 27.8897 319.58 27.9104 319.58 27.9931V28.7173C319.58 28.7793 319.559 28.8207 319.476 28.8207H318.793Z" fill="#A7A9AC"/>
<path d="M321.897 26.9586C321.628 26.9586 321.566 26.8552 321.566 26.5862C321.566 26.2552 321.628 26.1931 321.897 26.1931H322.993C323.262 26.1931 323.386 26.2759 323.386 26.5655C323.386 26.8966 323.262 26.9793 322.993 26.9793H321.897V26.9586Z" fill="#A7A9AC"/>
<path d="M323.014 26.9586C322.745 26.9586 322.683 26.8552 322.683 26.5862C322.683 26.2552 322.745 26.1931 323.014 26.1931H324.111C324.38 26.1931 324.504 26.2759 324.504 26.5655C324.504 26.8966 324.38 26.9793 324.111 26.9793H323.014V26.9586Z" fill="#A7A9AC"/>
<path d="M324.131 26.9586C323.862 26.9586 323.8 26.8552 323.8 26.5862C323.8 26.2552 323.862 26.1931 324.131 26.1931H325.228C325.497 26.1931 325.621 26.2759 325.621 26.5655C325.621 26.8966 325.497 26.9793 325.228 26.9793H324.131V26.9586Z" fill="#A7A9AC"/>
<path d="M326.428 23.9793C326.386 24.0207 326.345 24.0207 326.283 23.9793L325.849 23.6276C325.786 23.5862 325.786 23.5449 325.828 23.4828C326.2 23.0069 326.738 22.6759 327.545 22.6759C329.386 22.6759 329.821 23.9173 329.821 25.2207C329.821 25.3449 329.8 25.4483 329.821 25.5517C329.842 25.9655 330.193 26.1724 330.731 26.1724H330.835C331.104 26.1724 331.228 26.2759 331.228 26.5449C331.228 26.8966 331.104 26.9586 330.835 26.9586H330.628C330.173 26.9586 329.78 26.7724 329.635 26.3793C329.407 26.8138 329.014 26.9586 328.393 26.9586H325.249C324.98 26.9586 324.855 26.8345 324.855 26.5655C324.855 26.2345 324.98 26.1931 325.249 26.1931H328.083C328.828 26.1931 328.952 25.9655 328.952 25.2414C328.952 24.1862 328.621 23.4828 327.586 23.4828C327.111 23.4621 326.718 23.669 326.428 23.9793Z" fill="#A7A9AC"/>
<path d="M330.814 26.9586C330.545 26.9586 330.421 26.8966 330.421 26.6069C330.421 26.2759 330.545 26.1724 330.814 26.1724H331.435C331.766 26.1724 331.911 26.0483 331.911 25.6345V20.2345C331.911 20.1724 331.931 20.1311 332.014 20.1311H332.655C332.717 20.1311 332.759 20.1517 332.759 20.2345V25.6759C332.759 26.5655 332.428 26.9379 331.58 26.9379H330.814V26.9586Z" fill="#A7A9AC"/>
<path d="M335.014 26.8552C335.014 26.9173 334.993 26.9586 334.911 26.9586H334.269C334.207 26.9586 334.166 26.938 334.166 26.8552V20.2552C334.166 20.1931 334.186 20.1517 334.269 20.1517H334.911C334.973 20.1517 335.014 20.1724 335.014 20.2552V26.8552Z" fill="#A7A9AC"/>
<path d="M338.573 24.869C338.573 23.3379 339.276 22.6759 340.476 22.6759C341.676 22.6759 342.38 23.3173 342.38 24.869C342.38 26.4 341.635 27.0414 340.476 27.0414C339.297 27.0414 338.573 26.4 338.573 24.869ZM339.4 24.869C339.4 25.8207 339.711 26.2552 340.476 26.2552C341.242 26.2552 341.552 25.8414 341.552 24.869C341.552 23.9793 341.242 23.4621 340.476 23.4621C339.711 23.4621 339.4 23.9793 339.4 24.869ZM339.524 21.869C339.462 21.869 339.421 21.8483 339.421 21.7655V21.0414C339.421 20.9793 339.442 20.9379 339.524 20.9379H340.207C340.269 20.9379 340.311 20.9586 340.311 21.0414V21.7655C340.311 21.8276 340.29 21.869 340.207 21.869H339.524ZM340.745 21.869C340.683 21.869 340.642 21.8483 340.642 21.7655V21.0414C340.642 20.9793 340.662 20.9379 340.745 20.9379H341.428C341.49 20.9379 341.531 20.9586 341.531 21.0414V21.7655C341.531 21.8276 341.511 21.869 341.428 21.869H340.745Z" fill="#A7A9AC"/>
<path d="M343.042 28.9448C342.98 28.9448 342.938 28.9241 342.938 28.8414V28.2621C342.938 28.2 342.959 28.1586 343.042 28.1586H343.269C343.807 28.1586 344.076 27.869 344.076 27.3104V22.9655C344.076 22.9035 344.097 22.8621 344.18 22.8621H344.821C344.883 22.8621 344.924 22.8828 344.924 22.9655V27.3104C344.924 28.3862 344.366 28.9655 343.311 28.9655H343.042V28.9448Z" fill="#A7A9AC"/>
<path d="M347.117 26.8552C347.117 26.9173 347.097 26.9586 347.014 26.9586H346.373C346.311 26.9586 346.269 26.938 346.269 26.8552V20.2552C346.269 20.1931 346.29 20.1517 346.373 20.1517H347.014C347.076 20.1517 347.117 20.1724 347.117 20.2552V26.8552Z" fill="#A7A9AC"/>
<path d="M347.924 28.9655C347.862 28.9655 347.821 28.9448 347.821 28.8621V28.2828C347.821 28.2207 347.842 28.1793 347.924 28.1793H348.152C348.69 28.1793 348.959 27.8897 348.959 27.331V22.9655C348.959 22.9035 348.98 22.8621 349.062 22.8621H349.704C349.766 22.8621 349.807 22.8828 349.807 22.9655V27.3104C349.807 28.3862 349.249 28.9655 348.193 28.9655H347.924ZM349.062 21.869C349 21.869 348.959 21.8483 348.959 21.7655V21.0414C348.959 20.9793 348.98 20.9379 349.062 20.9379H349.745C349.807 20.9379 349.849 20.9586 349.849 21.0414V21.7655C349.849 21.8276 349.828 21.869 349.745 21.869H349.062Z" fill="#A7A9AC"/>
<path d="M351.855 28.9655C351.793 28.9655 351.752 28.9448 351.752 28.8621V28.2828C351.752 28.2207 351.773 28.1793 351.855 28.1793H353.055C353.593 28.1793 353.986 27.9724 353.986 27.2276V26.9586H352.911C351.731 26.9586 351.007 26.4414 351.007 24.931C351.007 23.4 351.876 22.6966 352.931 22.6966C354.131 22.6966 354.814 23.3379 354.814 24.8897V27.2276C354.814 28.469 354.131 28.9862 353.076 28.9862H351.855V28.9655ZM351.835 24.931C351.835 25.8828 352.207 26.1931 352.973 26.1931H353.986V24.8897C353.986 24 353.697 23.4828 352.931 23.4828C352.249 23.4621 351.835 24.0414 351.835 24.931Z" fill="#A7A9AC"/>
<path d="M279.214 32.2759C279.214 32.2345 279.235 32.2138 279.276 32.2138H279.649C279.69 32.2138 279.731 32.2345 279.731 32.2759L280.869 34.8621H280.89L282.007 32.2759C282.028 32.2345 282.049 32.2138 282.09 32.2138H282.462C282.504 32.2138 282.524 32.2345 282.524 32.2759V36C282.524 36.0414 282.504 36.0621 282.462 36.0621H282.111C282.069 36.0621 282.049 36.0414 282.049 36V33.331H282.028L281.076 35.4414C281.055 35.4828 281.014 35.5035 280.973 35.5035H280.745C280.704 35.5035 280.662 35.4828 280.642 35.4414L279.69 33.331H279.669V36C279.669 36.0414 279.649 36.0621 279.607 36.0621H279.255C279.214 36.0621 279.193 36.0414 279.193 36V32.2759H279.214Z" fill="#A7A9AC"/>
<path d="M283.435 32.2759C283.435 32.2345 283.455 32.2138 283.497 32.2138H283.89C283.931 32.2138 283.952 32.2345 283.952 32.2759V36C283.952 36.0414 283.931 36.0621 283.89 36.0621H283.497C283.455 36.0621 283.435 36.0414 283.435 36V32.2759Z" fill="#A7A9AC"/>
<path d="M284.842 32.2759C284.842 32.2345 284.862 32.2138 284.904 32.2138H285.255C285.297 32.2138 285.338 32.2345 285.359 32.2759L287.097 35.1517H287.118V32.2759C287.118 32.2345 287.138 32.2138 287.18 32.2138H287.531C287.573 32.2138 287.593 32.2345 287.593 32.2759V36C287.593 36.0414 287.573 36.0621 287.531 36.0621H287.18C287.138 36.0621 287.097 36.0414 287.076 36L285.338 33.1448H285.318V36C285.318 36.0414 285.297 36.0621 285.255 36.0621H284.904C284.862 36.0621 284.842 36.0414 284.842 36V32.2759Z" fill="#A7A9AC"/>
<path d="M288.483 32.2759C288.483 32.2345 288.504 32.2138 288.545 32.2138H288.938C288.98 32.2138 289 32.2345 289 32.2759V36C289 36.0414 288.98 36.0621 288.938 36.0621H288.545C288.504 36.0621 288.483 36.0414 288.483 36V32.2759Z" fill="#A7A9AC"/>
<path d="M289.724 35.6276C289.704 35.6069 289.704 35.5655 289.724 35.5449L289.973 35.2552C289.993 35.2345 290.014 35.2345 290.055 35.2552C290.304 35.4621 290.676 35.6483 291.131 35.6483C291.669 35.6483 291.98 35.3793 291.98 34.9862C291.98 34.6552 291.793 34.4483 291.173 34.3655L290.986 34.3449C290.242 34.2414 289.869 33.869 289.869 33.2897C289.869 32.6069 290.345 32.1724 291.111 32.1724C291.566 32.1724 291.98 32.3173 292.269 32.5242C292.29 32.5449 292.311 32.5655 292.29 32.6069L292.104 32.9173C292.083 32.938 292.062 32.938 292.021 32.938C291.711 32.7311 291.442 32.6483 291.09 32.6483C290.614 32.6483 290.366 32.8966 290.366 33.269C290.366 33.6 290.573 33.7862 291.173 33.8897L291.359 33.9104C292.104 34.0138 292.476 34.3449 292.476 34.9862C292.476 35.6483 292 36.1449 291.09 36.1449C290.511 36.1035 290.014 35.8759 289.724 35.6276Z" fill="#A7A9AC"/>
<path d="M294.049 36.0414C294.007 36.0414 293.986 36.0207 293.986 35.9793V32.7104C293.986 32.6897 293.966 32.669 293.945 32.669H292.89C292.849 32.669 292.828 32.6483 292.828 32.6069V32.2759C292.828 32.2345 292.849 32.2138 292.89 32.2138H295.559C295.6 32.2138 295.621 32.2345 295.621 32.2759V32.6276C295.621 32.669 295.6 32.6897 295.559 32.6897H294.504C294.483 32.6897 294.462 32.7104 294.462 32.731V36C294.462 36.0414 294.442 36.0621 294.4 36.0621H294.049V36.0414Z" fill="#A7A9AC"/>
<path d="M298.414 36.0414C298.373 36.0414 298.352 36.0207 298.331 35.9793L297.566 34.4069H296.717C296.697 34.4069 296.676 34.4276 296.676 34.4483V35.9793C296.676 36.0207 296.655 36.0414 296.614 36.0414H296.221C296.18 36.0414 296.159 36.0207 296.159 35.9793V32.2552C296.159 32.2138 296.18 32.1931 296.221 32.1931H297.607C298.331 32.1931 298.807 32.6276 298.807 33.2897C298.807 33.8069 298.517 34.1793 298.062 34.3242L298.869 35.938C298.89 35.9793 298.89 36 298.828 36H298.414V36.0414ZM297.628 33.9518C298.083 33.9518 298.331 33.7242 298.331 33.3104C298.331 32.8966 298.062 32.669 297.628 32.669H296.738C296.717 32.669 296.697 32.6897 296.697 32.7104V33.9104C296.697 33.9311 296.717 33.9518 296.738 33.9518H297.628Z" fill="#A7A9AC"/>
<path d="M300.442 36.0414C300.4 36.0414 300.38 36.0207 300.38 35.9793V34.469L299.262 32.2759C299.242 32.2345 299.262 32.2138 299.304 32.2138H299.697C299.738 32.2138 299.759 32.2345 299.78 32.2759L300.628 33.9104H300.649L301.497 32.2759C301.518 32.2345 301.538 32.2138 301.58 32.2138H301.973C302.014 32.2138 302.035 32.2345 302.014 32.2759L300.876 34.469V35.9793C300.876 36.0207 300.855 36.0414 300.814 36.0414H300.442Z" fill="#A7A9AC"/>
<path d="M303.731 35.2138C303.649 34.9862 303.628 34.7793 303.628 34.138C303.628 33.4966 303.649 33.2897 303.731 33.0621C303.938 32.4621 304.373 32.1724 305.035 32.1724C305.697 32.1724 306.152 32.4828 306.338 33.0621C306.421 33.2897 306.442 33.5173 306.442 34.138C306.442 34.7793 306.421 34.9862 306.338 35.2138C306.131 35.8138 305.697 36.1035 305.035 36.1035C304.373 36.1035 303.938 35.7931 303.731 35.2138ZM305.862 35.069C305.904 34.9242 305.945 34.6966 305.945 34.138C305.945 33.5793 305.904 33.3311 305.862 33.2069C305.738 32.8345 305.469 32.6483 305.055 32.6483C304.621 32.6483 304.373 32.8552 304.249 33.2069C304.207 33.3517 304.166 33.6 304.166 34.138C304.166 34.6966 304.207 34.9449 304.249 35.069C304.373 35.4414 304.621 35.6276 305.055 35.6276C305.469 35.6483 305.738 35.4414 305.862 35.069Z" fill="#A7A9AC"/>
<path d="M307.228 32.2759C307.228 32.2345 307.249 32.2138 307.29 32.2138H309.586C309.628 32.2138 309.649 32.2345 309.649 32.2759V32.6276C309.649 32.669 309.628 32.6897 309.586 32.6897H307.766C307.745 32.6897 307.724 32.7104 307.724 32.731V33.8897C307.724 33.9104 307.745 33.931 307.766 33.931H309.318C309.359 33.931 309.38 33.9517 309.38 33.9931V34.3448C309.38 34.3862 309.359 34.4069 309.318 34.4069H307.766C307.745 34.4069 307.724 34.4276 307.724 34.4483V36.0207C307.724 36.0621 307.704 36.0828 307.662 36.0828H307.269C307.228 36.0828 307.207 36.0621 307.207 36.0207V32.2759H307.228Z" fill="#A7A9AC"/>
<path d="M311.635 32.2759C311.635 32.2345 311.655 32.2138 311.697 32.2138H312.09C312.131 32.2138 312.152 32.2345 312.152 32.2759V33.8483C312.152 33.869 312.173 33.8897 312.193 33.8897H313.849C313.869 33.8897 313.89 33.869 313.89 33.8483V32.2759C313.89 32.2345 313.911 32.2138 313.952 32.2138H314.345C314.386 32.2138 314.407 32.2345 314.407 32.2759V36C314.407 36.0414 314.386 36.0621 314.345 36.0621H313.952C313.911 36.0621 313.89 36.0414 313.89 36V34.3862C313.89 34.3655 313.869 34.3448 313.849 34.3448H312.193C312.173 34.3448 312.152 34.3655 312.152 34.3862V36C312.152 36.0414 312.131 36.0621 312.09 36.0621H311.697C311.655 36.0621 311.635 36.0414 311.635 36V32.2759Z" fill="#A7A9AC"/>
<path d="M316.269 32.2759C316.29 32.2345 316.311 32.2138 316.331 32.2138H316.704C316.745 32.2138 316.766 32.2345 316.786 32.2759L318.09 36C318.111 36.0414 318.09 36.0621 318.049 36.0621H317.655C317.614 36.0621 317.593 36.0414 317.573 36L317.283 35.1724H315.731L315.442 36C315.421 36.0414 315.4 36.0621 315.359 36.0621H314.986C314.945 36.0621 314.945 36.0414 314.945 36L316.269 32.2759ZM317.117 34.6966L316.517 32.9586H316.497L315.897 34.6966H317.117Z" fill="#A7A9AC"/>
<path d="M318.38 35.6276L318.669 35.3793C318.69 35.3586 318.731 35.3586 318.752 35.4C318.876 35.5035 319.062 35.6276 319.311 35.6276C319.766 35.6276 320.014 35.3586 320.014 34.8V32.2759C320.014 32.2345 320.035 32.2138 320.076 32.2138H320.469C320.511 32.2138 320.531 32.2345 320.531 32.2759V34.8207C320.531 35.6897 320.055 36.1035 319.311 36.1035C318.917 36.1035 318.586 35.9379 318.4 35.7104C318.359 35.6897 318.359 35.669 318.38 35.6276Z" fill="#A7A9AC"/>
<path d="M321.111 35.6276L321.4 35.3793C321.421 35.3586 321.462 35.3586 321.483 35.4C321.607 35.5035 321.793 35.6276 322.042 35.6276C322.497 35.6276 322.745 35.3586 322.745 34.8V32.2759C322.745 32.2345 322.766 32.2138 322.807 32.2138H323.2C323.242 32.2138 323.262 32.2345 323.262 32.2759V34.8207C323.262 35.6897 322.786 36.1035 322.042 36.1035C321.649 36.1035 321.318 35.9379 321.131 35.7104C321.09 35.6897 321.09 35.669 321.111 35.6276Z" fill="#A7A9AC"/>
<path d="M326.428 32.2759C326.449 32.2345 326.469 32.2138 326.49 32.2138H326.862C326.904 32.2138 326.924 32.2345 326.945 32.2759L328.249 36C328.269 36.0414 328.249 36.0621 328.207 36.0621H327.814C327.773 36.0621 327.752 36.0414 327.731 36L327.442 35.1724H325.89L325.6 36C325.58 36.0414 325.559 36.0621 325.518 36.0621H325.124C325.083 36.0621 325.083 36.0414 325.083 36L326.428 32.2759ZM327.297 34.6966L326.697 32.9586H326.676L326.076 34.6966H327.297Z" fill="#A7A9AC"/>
<path d="M328.828 32.2759C328.828 32.2345 328.849 32.2138 328.89 32.2138H329.242C329.283 32.2138 329.324 32.2345 329.345 32.2759L331.083 35.1517H331.104V32.2759C331.104 32.2345 331.124 32.2138 331.166 32.2138H331.518C331.559 32.2138 331.58 32.2345 331.58 32.2759V36C331.58 36.0414 331.559 36.0621 331.518 36.0621H331.166C331.124 36.0621 331.083 36.0414 331.062 36L329.324 33.1448H329.304V36C329.304 36.0414 329.283 36.0621 329.242 36.0621H328.89C328.849 36.0621 328.828 36.0414 328.828 36V32.2759Z" fill="#A7A9AC"/>
<path d="M332.49 32.2759C332.49 32.2345 332.511 32.2138 332.552 32.2138H333.835C334.497 32.2138 334.911 32.4828 335.076 33.0207C335.138 33.2276 335.18 33.4345 335.18 34.1173C335.18 34.8 335.138 35.0069 335.076 35.2138C334.911 35.7517 334.497 36.0207 333.835 36.0207H332.552C332.511 36.0207 332.49 36 332.49 35.9586V32.2759ZM332.986 35.5448C332.986 35.5655 333.007 35.5862 333.028 35.5862H333.731C334.207 35.5862 334.476 35.4414 334.6 35.069C334.642 34.9242 334.683 34.7379 334.683 34.1379C334.683 33.5379 334.642 33.3517 334.6 33.2069C334.476 32.8138 334.207 32.6897 333.731 32.6897H333.028C333.007 32.6897 332.986 32.7104 332.986 32.731V35.5448Z" fill="#A7A9AC"/>
<path d="M337.249 34.7173V32.2759C337.249 32.2345 337.269 32.2138 337.311 32.2138H337.704C337.745 32.2138 337.766 32.2345 337.766 32.2759V34.7173C337.766 35.3379 338.097 35.6483 338.614 35.6483C339.131 35.6483 339.462 35.3379 339.462 34.7173V32.2759C339.462 32.2345 339.483 32.2138 339.524 32.2138H339.917C339.959 32.2138 339.98 32.2345 339.98 32.2759V34.7173C339.98 35.6276 339.462 36.1035 338.635 36.1035C337.745 36.1035 337.249 35.6069 337.249 34.7173Z" fill="#A7A9AC"/>
<path d="M340.828 32.2759C340.828 32.2345 340.849 32.2138 340.89 32.2138H341.262C341.304 32.2138 341.345 32.2345 341.345 32.2759L342.483 34.8621H342.504L343.621 32.2759C343.642 32.2345 343.662 32.2138 343.704 32.2138H344.076C344.118 32.2138 344.138 32.2345 344.138 32.2759V36C344.138 36.0414 344.118 36.0621 344.076 36.0621H343.724C343.683 36.0621 343.662 36.0414 343.662 36V33.331H343.642L342.69 35.4414C342.669 35.4828 342.628 35.5035 342.586 35.5035H342.359C342.318 35.5035 342.276 35.4828 342.255 35.4414L341.304 33.331H341.283V36C341.283 36.0414 341.262 36.0621 341.221 36.0621H340.869C340.828 36.0621 340.807 36.0414 340.807 36V32.2759H340.828Z" fill="#A7A9AC"/>
<path d="M347.283 36.0414C347.242 36.0414 347.221 36.0207 347.2 35.9793L346.435 34.4069H345.586C345.566 34.4069 345.545 34.4276 345.545 34.4483V35.9793C345.545 36.0207 345.524 36.0414 345.483 36.0414H345.09C345.049 36.0414 345.028 36.0207 345.028 35.9793V32.2552C345.028 32.2138 345.049 32.1931 345.09 32.1931H346.476C347.2 32.1931 347.676 32.6276 347.676 33.2897C347.676 33.8069 347.386 34.1793 346.931 34.3242L347.738 35.938C347.759 35.9793 347.759 36 347.697 36H347.283V36.0414ZM346.476 33.9518C346.931 33.9518 347.18 33.7242 347.18 33.3104C347.18 32.8966 346.911 32.669 346.476 32.669H345.586C345.566 32.669 345.545 32.6897 345.545 32.7104V33.9104C345.545 33.9311 345.566 33.9518 345.586 33.9518H346.476Z" fill="#A7A9AC"/>
<path d="M349.497 32.2759C349.518 32.2345 349.538 32.2138 349.559 32.2138H349.931C349.973 32.2138 349.993 32.2345 350.014 32.2759L351.318 36C351.338 36.0414 351.318 36.0621 351.276 36.0621H350.883C350.842 36.0621 350.821 36.0414 350.8 36L350.511 35.1724H348.959L348.669 36C348.649 36.0414 348.628 36.0621 348.586 36.0621H348.193C348.152 36.0621 348.152 36.0414 348.152 36L349.497 32.2759ZM350.345 34.6966L349.745 32.9586H349.724L349.124 34.6966H350.345Z" fill="#A7A9AC"/>
<path d="M351.876 32.2759C351.876 32.2345 351.897 32.2138 351.938 32.2138H352.331C352.373 32.2138 352.393 32.2345 352.393 32.2759V33.8483C352.393 33.869 352.414 33.8897 352.435 33.8897H354.09C354.111 33.8897 354.131 33.869 354.131 33.8483V32.2759C354.131 32.2345 354.152 32.2138 354.193 32.2138H354.586C354.628 32.2138 354.649 32.2345 354.649 32.2759V36C354.649 36.0414 354.628 36.0621 354.586 36.0621H354.193C354.152 36.0621 354.131 36.0414 354.131 36V34.3862C354.131 34.3655 354.111 34.3448 354.09 34.3448H352.435C352.414 34.3448 352.393 34.3655 352.393 34.3862V36C352.393 36.0414 352.373 36.0621 352.331 36.0621H351.938C351.897 36.0621 351.876 36.0414 351.876 36V32.2759Z" fill="#A7A9AC"/>
<g opacity="0.2">
<path d="M374.614 19.9241L374.262 19.2207C383.076 14.731 386.531 8.00691 386.552 7.92415C386.407 8.2138 383.655 15.3104 374.614 19.9241Z" fill="#A7A9AC"/>
</g>
<g opacity="0.2">
<path d="M401.262 18.4138C392.738 14.5035 390.483 8.17242 390.359 7.92415C390.38 7.98622 393.338 13.9241 401.593 17.7104L401.262 18.4138Z" fill="#A7A9AC"/>
</g>
<path d="M368.573 23.0276H368.386L368.428 18.1862L368.552 18.0828C368.655 18 379.973 14.7518 388.249 0.475889L388.559 -0.0620422L388.869 0.475889C397.021 14.7518 409.021 18 409.145 18.0828L409.29 18.1862V23.0276H409.104L408.566 18.538C407.2 17.4621 396.276 16.7793 388.538 3.51727C380.718 16.7793 370.393 17.4621 369.111 18.5173L368.573 23.0276Z" fill="#A7A9AC"/>
<path d="M369.297 56.2759C369.297 56.2759 373.249 52.6552 374.966 51.1035C378.731 50.4828 389.862 48.7035 407.821 35.669C400.497 43.7793 388.186 52.8828 369.297 56.2759Z" fill="#A7A9AC"/>
<path d="M389.345 50.2138C394.704 52.7793 400.911 54.8897 408.069 56.1724C408.069 56.1724 404.118 52.5517 402.4 51C400.662 50.7104 397.373 50.1931 392.573 48.4138C392.055 48.7862 391.083 49.3449 389.345 50.2138Z" fill="#A7A9AC"/>
<path d="M388.29 46.6759C383.242 44.4207 376.993 40.9448 369.566 35.5655C373.352 39.7655 378.462 44.2138 385.124 48C385.89 47.6897 387.007 47.2345 388.29 46.6759Z" fill="#A7A9AC"/>
<path d="M404.945 31.8828C404.945 31.8828 402.09 34.531 399.876 35.0069C397.662 35.4828 394.89 35.3793 392.552 35.731C390.214 36.0828 388.849 38.4 388.849 38.4C388.849 38.4 387.483 36.0828 385.145 35.731C382.807 35.3793 380.035 35.4621 377.821 35.0069C375.607 34.531 372.752 31.8828 372.752 31.8828C372.752 31.8828 369.959 31.1586 368.386 31.531C368.862 31.9242 369.752 32.5862 369.731 32.5862C377.345 38.1104 383.718 41.6069 388.849 43.8621C393.918 41.6276 400.249 38.1517 407.78 32.7104C408.214 32.3793 408.773 31.9655 409.29 31.531C407.718 31.1586 404.945 31.8828 404.945 31.8828Z" fill="#A7A9AC"/>
<path d="M394.269 23.3586V35.069C393.69 35.1104 393.09 35.1724 392.552 35.2552C390.69 35.5242 389.449 37.0759 389.014 37.6759L388.849 37.9035C388.517 37.4276 387.959 36.1242 386.531 35.5449C386.262 35.4414 385.786 35.3793 385.724 35.3586V25.8L394.269 23.3586Z" fill="#A7A9AC"/>
<path d="M394.269 19.8828L385.724 22.2828V25.2207L394.269 22.8207V19.8828Z" fill="#A7A9AC"/>
<path d="M402.773 25.4069V33.1862C402.773 33.1862 400.6 34.3655 399.255 34.6345C398.138 34.8621 395.945 34.9242 394.269 35.069V23.3586L402.773 25.4069Z" fill="#A7A9AC"/>
<path d="M394.269 19.8828V22.2414V22.8207L402.773 24.8897V22.0966L394.269 19.8828Z" fill="#A7A9AC"/>
<path d="M385.414 28.8621H375.318V30.7448H385.414V28.8621Z" fill="#A7A9AC"/>
<path d="M385.414 26.6897H375.752V28.5724H385.414V26.6897Z" fill="#A7A9AC"/>
<path d="M385.414 31.0138V35.2552C385.393 35.2552 385.373 35.2552 385.352 35.2345C383.014 34.8828 380.055 34.9656 377.842 34.5104C377.78 34.4897 377.697 34.469 377.635 34.469C377.573 34.4483 377.49 34.4276 377.428 34.4069C376.6 34.138 375.711 33.6207 374.924 33.1035V31.0138H385.414Z" fill="#A7A9AC"/>
<path d="M384.297 17.0276V16.9035C384.38 16.8414 384.442 16.7379 384.442 16.6345C384.442 16.5104 384.359 16.3862 384.255 16.3448L384.235 16.0138C384.338 15.9724 384.4 15.869 384.4 15.7655C384.4 15.6414 384.318 15.5379 384.193 15.4966L384.173 15.1655C384.276 15.1448 384.359 15.0621 384.359 14.9379C384.359 14.8138 384.255 14.7104 384.152 14.7104L384.111 14.2345L384.069 14.7104C383.966 14.731 383.883 14.8138 383.883 14.9379C383.883 15.0414 383.945 15.1242 384.049 15.1655L384.028 15.4966C383.924 15.5379 383.842 15.6414 383.842 15.7655C383.842 15.869 383.904 15.9724 383.986 16.0138L383.966 16.3655C383.862 16.4276 383.78 16.531 383.78 16.6552C383.78 16.7793 383.842 16.8621 383.924 16.9242V17.0483C383.924 17.0483 383.511 18.4345 379.704 20.4828C377.242 21.8069 376.476 23.9379 376.249 25.2621C376.124 25.9862 376.145 26.4828 376.145 26.4828H385.414V26.069V25.2414V22.0138L388.766 21C385.621 19.1173 384.297 17.0276 384.297 17.0276Z" fill="#A7A9AC"/>
</g>
<defs>
<clipPath id="clip0_2272_13259">
<rect width="156" height="56.2759" fill="white" transform="translate(266.78)"/>
</clipPath>
</defs>
</svg>