<svg width="102" height="30" viewBox="0 0 102 30" fill="none" xmlns="http://www.w3.org/2000/svg">
<g clip-path="url(#clip0_646_2717)">
<path d="M98.9511 29.9999H3.80774C1.71454 29.9999 0.00195312 28.3125 0.00195312 26.25V3.75042C0.00195312 1.68794 1.71454 0.000488281 3.80774 0.000488281H98.9511C101.044 0.000488281 102.757 1.68794 102.757 3.75042V26.25C102.757 28.3125 101.044 29.9999 98.9511 29.9999Z" fill="white"/>
<path d="M80.7952 22.5002H82.205V13.1239H80.7952V22.5002ZM93.4936 16.5017L91.8775 20.5666H91.8292L90.1519 16.5017H88.6333L91.1492 22.183L89.7145 25.3434H91.1848L95.0614 16.502L93.4936 16.5017ZM85.4979 21.4352C85.037 21.4352 84.3926 21.2058 84.3926 20.6389C84.3926 19.9153 85.195 19.6378 85.8871 19.6378C86.5066 19.6378 86.799 19.7703 87.1753 19.9513C87.0657 20.8199 86.3124 21.4352 85.498 21.4352L85.4979 21.4352ZM85.6687 16.2966C84.6479 16.2966 83.5909 16.7431 83.1535 17.7322L84.4047 18.2507C84.6721 17.7322 85.17 17.5635 85.6929 17.5635C86.4219 17.5635 87.1631 17.9973 87.1752 18.7696V18.866C86.9198 18.7212 86.3728 18.5042 85.7049 18.5042C84.3555 18.5042 82.9827 19.2397 82.9827 20.6149C82.9827 21.8694 84.0889 22.6777 85.3279 22.6777C86.2754 22.6777 86.7989 22.2555 87.1261 21.7607H87.1752V22.4849H88.5367V18.8899C88.5367 17.2253 87.284 16.2966 85.6687 16.2966V16.2966ZM76.9556 17.6431H74.9504V14.4293H76.9556C78.0096 14.4293 78.6079 15.2954 78.6079 16.0362C78.6079 16.7628 78.0096 17.6431 76.9556 17.6431ZM76.9193 13.1241H73.5412V22.5005H74.9505V18.9483H76.9194C78.4819 18.9483 80.0179 17.8257 80.0179 16.0365C80.0179 14.2477 78.4819 13.1245 76.9194 13.1245L76.9193 13.1241ZM58.4987 21.4368C57.5247 21.4368 56.7096 20.627 56.7096 19.5158C56.7096 18.3917 57.5247 17.5705 58.4987 17.5705C59.4603 17.5705 60.2149 18.3918 60.2149 19.5158C60.2149 20.627 59.4603 21.4368 58.4987 21.4368ZM60.1175 17.0266H60.0688C59.7524 16.6521 59.1435 16.3138 58.3771 16.3138C56.7701 16.3138 55.2974 17.7156 55.2974 19.5158C55.2974 21.3038 56.7701 22.6933 58.3771 22.6933C59.1435 22.6933 59.7524 22.3549 60.0688 21.9685H60.1175V22.4273C60.1175 23.6481 59.4603 24.3002 58.4013 24.3002C57.5374 24.3002 57.0018 23.6841 56.7825 23.1646L55.5533 23.672C55.906 24.5175 56.843 25.557 58.4014 25.557C60.057 25.557 61.4568 24.5901 61.4568 22.2339V16.507H60.1176L60.1175 17.0266ZM62.4308 22.5H63.8421V13.1236H62.4308V22.5ZM65.9237 19.4069C65.8874 18.1744 66.8858 17.5462 67.6036 17.5462C68.1637 17.5462 68.638 17.8242 68.7968 18.2227L65.9237 19.4069ZM70.3055 18.3434C70.0378 17.6309 69.2224 16.3138 67.5548 16.3138C65.8992 16.3138 64.5238 17.6066 64.5238 19.5036C64.5238 21.2918 65.8874 22.6934 67.7128 22.6934C69.1855 22.6934 70.0379 21.7995 70.3911 21.2798L69.2955 20.5547C68.9302 21.0865 68.4314 21.4368 67.7128 21.4368C66.995 21.4368 66.4836 21.1105 66.1554 20.4701L70.4516 18.7062L70.3055 18.3434ZM36.0737 17.2925V18.6457H39.3357C39.2384 19.4069 38.9828 19.9626 38.5932 20.3493C38.1183 20.8204 37.3758 21.3401 36.0737 21.3401C34.0652 21.3401 32.4952 19.7332 32.4952 17.7396C32.4952 15.746 34.0652 14.1389 36.0737 14.1389C37.157 14.1389 37.948 14.5619 38.5323 15.1056L39.4942 14.1508C38.6784 13.3777 37.5953 12.7856 36.0737 12.7856C33.3224 12.7856 31.0098 15.0089 31.0098 17.7396C31.0098 20.4701 33.3224 22.6934 36.0737 22.6934C37.5584 22.6934 38.6785 22.21 39.5547 21.3039C40.4555 20.4097 40.7355 19.1532 40.7355 18.1381C40.7355 17.8243 40.711 17.5343 40.6623 17.2925H36.0737ZM44.4445 21.4368C43.4705 21.4368 42.6306 20.6393 42.6306 19.5036C42.6306 18.3557 43.4705 17.5706 44.4445 17.5706C45.4181 17.5706 46.258 18.3557 46.258 19.5036C46.258 20.6393 45.4181 21.4368 44.4445 21.4368ZM44.4445 16.3138C42.6669 16.3138 41.2187 17.6549 41.2187 19.5036C41.2187 21.3401 42.6669 22.6934 44.4445 22.6934C46.2215 22.6934 47.67 21.3401 47.67 19.5036C47.67 17.6549 46.2215 16.3138 44.4445 16.3138V16.3138ZM51.4808 21.4368C50.5075 21.4368 49.6673 20.6393 49.6673 19.5036C49.6673 18.3557 50.5076 17.5706 51.4808 17.5706C52.4548 17.5706 53.2944 18.3557 53.2944 19.5036C53.2944 20.6393 52.4548 21.4368 51.4808 21.4368ZM51.4808 16.3138C49.7039 16.3138 48.2556 17.6549 48.2556 19.5036C48.2556 21.3401 49.7039 22.6934 51.4808 22.6934C53.2585 22.6934 54.7067 21.3401 54.7067 19.5036C54.7067 17.6549 53.2585 16.3138 51.4808 16.3138" fill="#B5B5B5"/>
<path d="M7.05176 6.28872V24.7103C7.05188 24.7503 7.06358 24.7894 7.08539 24.8226C7.10721 24.8558 7.13816 24.8817 7.17438 24.8971C7.21059 24.9124 7.25045 24.9166 7.28897 24.909C7.32748 24.9013 7.36293 24.8823 7.39086 24.8542L16.8062 15.5L7.39086 6.14481C7.36293 6.11675 7.32748 6.09772 7.28897 6.0901C7.25045 6.08248 7.21059 6.08661 7.17438 6.10198C7.13816 6.11735 7.10721 6.14327 7.08539 6.17649C7.06358 6.20971 7.05188 6.24875 7.05176 6.28872V6.28872ZM20.7539 11.6563L8.94835 5.03014L8.94099 5.02592C8.73761 4.91342 8.54437 5.19373 8.71093 5.35685L17.9652 14.3717L20.7539 11.6563ZM8.71185 25.6431C8.54437 25.8063 8.73762 26.0866 8.94191 25.9741L8.94927 25.9699L20.7539 19.3437L17.9652 16.6273L8.71185 25.6431ZM25.5198 14.3281L22.2231 12.4785L19.1233 15.5L22.2231 18.5201L25.5198 16.6719C26.4166 16.167 26.4166 14.833 25.5198 14.3281Z" fill="#B5B5B5"/>
<path d="M35.8095 7.33616H33.6054V7.87757H35.257C35.2121 8.31939 35.0351 8.66626 34.7364 8.91821C34.4377 9.1702 34.0564 9.29672 33.6054 9.29672C33.1108 9.29672 32.6917 9.12565 32.3482 8.78584C32.0117 8.43897 31.8406 8.01003 31.8406 7.49326C31.8406 6.97652 32.0117 6.54758 32.3482 6.20074C32.6917 5.86092 33.1108 5.69098 33.6054 5.69098C33.8593 5.69098 34.1013 5.73433 34.3232 5.82927C34.5451 5.92414 34.7234 6.05659 34.8627 6.22654L35.2818 5.81052C35.0917 5.59603 34.8509 5.432 34.5522 5.31246C34.2535 5.19291 33.9419 5.13554 33.6054 5.13554C32.9455 5.13554 32.386 5.36286 31.9291 5.81639C31.4722 6.27104 31.2432 6.8312 31.2432 7.49327C31.2432 8.15534 31.4722 8.71672 31.9291 9.17026C32.3859 9.6237 32.9455 9.85112 33.6054 9.85112C34.2983 9.85112 34.8508 9.63077 35.2758 9.18309C35.6501 8.8105 35.8413 8.30659 35.8413 7.67614C35.8413 7.56949 35.8283 7.4558 35.8094 7.33625L35.8095 7.33616ZM36.6633 5.23622V9.75025H39.3183V9.19594H37.2477V7.76398H39.1153V7.22256H37.2477V5.79172H39.3183V5.2362L36.6633 5.23622ZM43.0412 5.79174V5.23622H39.9163V5.79174H41.1866V9.75024H41.7709V5.79174H43.0412ZM45.8702 5.23622H45.2859V9.75025H45.8702V5.23622ZM49.7273 5.79174V5.23622H46.6025V5.79174H47.8727V9.75024H48.457V5.79174H49.7273ZM55.624 5.82338C55.1731 5.36282 54.6206 5.1355 53.9607 5.1355C53.2996 5.1355 52.7471 5.36282 52.2961 5.81635C51.8451 6.26402 51.6233 6.82532 51.6233 7.49323C51.6233 8.16115 51.8452 8.72253 52.2961 9.17022C52.7471 9.62366 53.2996 9.85108 53.9607 9.85108C54.6146 9.85108 55.173 9.62368 55.624 9.17022C56.075 8.72255 56.2969 8.1612 56.2969 7.49323C56.2969 6.83117 56.075 6.27097 55.624 5.82338V5.82338ZM52.7152 6.2007C53.0517 5.86088 53.4649 5.69094 53.9607 5.69094C54.4553 5.69094 54.8685 5.86089 55.199 6.2007C55.5355 6.53467 55.7007 6.97054 55.7007 7.49322C55.7007 8.01709 55.5355 8.45178 55.199 8.7858C54.8685 9.12562 54.4553 9.29669 53.9607 9.29669C53.4649 9.29669 53.0517 9.12561 52.7152 8.7858C52.3858 8.44478 52.2206 8.01708 52.2206 7.49322C52.2206 6.97055 52.3858 6.54169 52.7152 6.2007V6.2007ZM57.6852 6.93899L57.6605 6.06823H57.6852L59.9967 9.75021H60.607V5.23617H60.0227V7.87752L60.0474 8.74828H60.0227L57.8127 5.23617H57.1009V9.75021H57.6852V6.93899Z" fill="#B5B5B5" stroke="#B5B5B5" stroke-width="0.26666" stroke-miterlimit="10"/>
</g>
<defs>
<clipPath id="clip0_646_2717">
<rect width="102" height="30" fill="white"/>
</clipPath>
</defs>
</svg>