<svg width="28" height="18" viewBox="0 0 28 18" fill="none" xmlns="http://www.w3.org/2000/svg">
  <path d="M1.2 0.466895C0.8151 0.461687 0.457288 0.66377 0.263538 0.996062C0.0697876 1.32783 0.0697876 1.73929 0.263538 2.07106C0.457288 2.40335 0.8151 2.60544 1.2 2.60023H26.8C27.1849 2.60544 27.5427 2.40335 27.7365 2.07106C27.9302 1.73929 27.9302 1.32783 27.7365 0.996062C27.5427 0.66377 27.1849 0.461687 26.8 0.466895H1.2ZM1.2 7.93356C0.8151 7.92835 0.457288 8.13044 0.263538 8.46273C0.0697876 8.7945 0.0697876 9.20596 0.263538 9.53773C0.457288 9.87002 0.8151 10.0721 1.2 10.0669H26.8C27.1849 10.0721 27.5427 9.87002 27.7365 9.53773C27.9302 9.20596 27.9302 8.7945 27.7365 8.46273C27.5427 8.13044 27.1849 7.92835 26.8 7.93356H1.2ZM1.2 15.4002C0.8151 15.395 0.457288 15.5971 0.263538 15.9294C0.0697876 16.2612 0.0697876 16.6726 0.263538 17.0044C0.457288 17.3367 0.8151 17.5388 1.2 17.5336H26.8C27.1849 17.5388 27.5427 17.3367 27.7365 17.0044C27.9302 16.6726 27.9302 16.2612 27.7365 15.9294C27.5427 15.5971 27.1849 15.395 26.8 15.4002H1.2Z" fill="white"/>
</svg>