<svg width="105" height="30" viewBox="0 0 105 30" fill="none" xmlns="http://www.w3.org/2000/svg">
<g clip-path="url(#clip0_2174_11855)">
<path d="M5.62733 30.3771C5.38519 30.3771 5.14948 30.3771 4.90948 30.3771C4.41271 30.3707 3.91708 30.3277 3.42662 30.2486C2.97009 30.171 2.52748 30.0266 2.11305 29.82C1.28967 29.398 0.619036 28.7288 0.19519 27.9064C-0.0133962 27.492 -0.157898 27.0484 -0.233382 26.5907C-0.315318 26.0991 -0.35902 25.6019 -0.364096 25.1036C-0.364096 24.9364 -0.376953 24.3793 -0.376953 24.3793V5.62712C-0.376953 5.62712 -0.376953 5.07855 -0.364096 4.91783C-0.36039 4.4188 -0.3174 3.92083 -0.235525 3.42855C-0.161018 2.96922 -0.0164789 2.52404 0.193047 2.10855C0.401332 1.6997 0.674111 1.32707 1.0009 1.00497C1.32728 0.678253 1.70248 0.404266 2.11305 0.192831C2.52656 -0.014178 2.96852 -0.158612 3.42448 -0.235741C3.9162 -0.316606 4.41332 -0.360302 4.91162 -0.366455H5.62733H99.3688H100.093C100.587 -0.362229 101.08 -0.319239 101.567 -0.237884C102.028 -0.162341 102.474 -0.0178623 102.892 0.190688C103.717 0.616385 104.387 1.29115 104.807 2.11926C105.015 2.53159 105.16 2.97301 105.236 3.42855C105.318 3.92452 105.364 4.42587 105.373 4.92855C105.373 5.15355 105.373 5.39569 105.373 5.63569C105.373 5.93355 105.373 6.2164 105.373 6.49283V23.5071C105.373 23.7964 105.373 24.0771 105.373 24.3643C105.373 24.6514 105.373 24.8593 105.373 25.1036C105.365 25.5963 105.32 26.0877 105.238 26.5736C105.165 27.0345 105.02 27.4813 104.809 27.8978C104.384 28.7172 103.715 29.3843 102.894 29.8071C102.477 30.0159 102.031 30.1604 101.572 30.2357C101.081 30.3153 100.586 30.3583 100.089 30.3643C99.8573 30.3643 99.6131 30.3643 99.3773 30.3643H5.62733V30.3771Z" fill="white"/>
<path d="M38.6981 20.627H34.9289L34.0138 23.1427H32.3574L36.0431 13.7441H37.6074L41.3767 23.1427H39.6431L38.6981 20.627ZM35.4089 19.3413H38.216L37.211 16.6499C37.0738 16.2791 36.9367 15.8677 36.8039 15.4177C36.6817 15.8163 36.5488 16.2213 36.4074 16.637L35.4089 19.3413Z" fill="#B5B5B5"/>
<path d="M42.0436 17.8563C42.0436 17.3377 42.0265 16.7663 41.9922 16.142H43.4922C43.5485 16.4358 43.5872 16.7328 43.6079 17.0313C43.8704 16.7167 44.1978 16.4627 44.5676 16.2867C44.9375 16.1106 45.3411 16.0167 45.7508 16.0113C46.2311 16.0037 46.7027 16.1395 47.1054 16.4014C47.5081 16.6632 47.8236 17.0392 48.0115 17.4813C48.2751 18.089 48.4002 18.7478 48.3779 19.4099C48.3942 20.1317 48.2477 20.848 47.9493 21.5056C47.6997 22.0513 47.2921 22.5096 46.7793 22.8213C46.2517 23.1262 45.6508 23.2811 45.0415 23.2691C44.562 23.2689 44.0861 23.1877 43.6336 23.0291V25.9284L42.0308 26.0656L42.0436 17.8563ZM46.2565 21.4284C46.5822 20.9999 46.7472 20.357 46.7472 19.4999C46.7472 18.7184 46.6115 18.147 46.34 17.7856C46.2174 17.6176 46.0559 17.4819 45.8692 17.3901C45.6826 17.2983 45.4765 17.2531 45.2686 17.2584C44.9692 17.2544 44.6738 17.3283 44.4115 17.4727C44.1328 17.6306 43.8793 17.8292 43.6593 18.062V21.812C43.8369 21.8957 44.024 21.9576 44.2165 21.9963C44.4235 22.0411 44.6347 22.0641 44.8465 22.0649C45.1155 22.081 45.3844 22.0315 45.63 21.9206C45.8756 21.8097 46.0906 21.6408 46.2565 21.4284V21.4284Z" fill="#B5B5B5"/>
<path d="M49.3542 17.8563C49.3542 17.3377 49.337 16.7663 49.3027 16.142H50.8027C50.8609 16.4356 50.9002 16.7327 50.9206 17.0313C51.5449 16.3513 52.2592 16.0113 53.0634 16.0113C53.5437 16.0037 54.0154 16.1395 54.4181 16.4014C54.8208 16.6632 55.1363 17.0392 55.3242 17.4813C55.5878 18.089 55.7129 18.7478 55.6906 19.4099C55.7102 20.1309 55.5674 20.8472 55.2727 21.5056C55.0225 22.0516 54.6142 22.5099 54.1006 22.8213C53.5731 23.1265 52.972 23.2814 52.3627 23.2691C51.8833 23.2689 51.4073 23.1877 50.9549 23.0291V25.9284L49.352 26.0656L49.3542 17.8563ZM53.5734 21.4284C53.8992 20.9899 54.062 20.347 54.062 19.4999C54.062 18.7184 53.927 18.147 53.657 17.7856C53.5344 17.6176 53.3728 17.4819 53.1862 17.3901C52.9996 17.2983 52.7935 17.2531 52.5856 17.2584C52.2862 17.2548 51.9909 17.3286 51.7284 17.4727C51.4498 17.6306 51.1963 17.8292 50.9763 18.062V21.812C51.1541 21.8951 51.3411 21.957 51.5334 21.9963C51.7405 22.0411 51.9516 22.0641 52.1634 22.0649C52.4324 22.0806 52.7012 22.0309 52.9467 21.9201C53.1923 21.8092 53.4073 21.6405 53.5734 21.4284V21.4284Z" fill="#B5B5B5"/>
<path d="M58.6364 22.6992C57.9516 22.3237 57.3954 21.7511 57.0399 21.0557C56.6514 20.2699 56.4602 19.4013 56.4828 18.525C56.455 17.5874 56.6769 16.6593 57.1257 15.8357C57.5309 15.1209 58.1396 14.5429 58.8742 14.175C59.6463 13.7977 60.4964 13.6076 61.3557 13.62C61.8767 13.6177 62.3962 13.6781 62.9028 13.8C63.3766 13.9115 63.8366 14.0754 64.2742 14.2885L63.8585 15.5207C63.1005 15.1383 62.2666 14.9304 61.4178 14.9121C60.8187 14.9021 60.2275 15.0499 59.7035 15.3407C59.2064 15.626 58.8068 16.0547 58.5571 16.5707C58.2698 17.1826 58.1304 17.8535 58.1499 18.5292C58.1393 19.1381 58.2455 19.7433 58.4628 20.3121C58.6601 20.8156 59.0072 21.2464 59.4571 21.5464C59.9697 21.8671 60.5672 22.0255 61.1714 22.0007C61.4844 21.9999 61.7969 21.9734 62.1057 21.9214C62.4044 21.8739 62.6979 21.7978 62.9821 21.6942V19.7828H60.8092V18.5378H64.5399V22.5C63.9987 22.7522 63.4319 22.9454 62.8492 23.0764C62.2715 23.2095 61.6806 23.277 61.0878 23.2778C60.2346 23.2983 59.3904 23.0991 58.6364 22.6992V22.6992Z" fill="#B5B5B5"/>
<path d="M70.2306 23.1427C70.1699 22.8367 70.1327 22.5265 70.1191 22.2148C69.8514 22.5263 69.5244 22.7813 69.157 22.9648C68.7422 23.1749 68.2826 23.2808 67.8177 23.2734C67.4373 23.2782 67.0608 23.1969 66.7163 23.0355C66.3886 22.8819 66.1146 22.6333 65.9298 22.322C65.7251 21.9692 65.6234 21.5661 65.6363 21.1584C65.6243 20.8492 65.6844 20.5414 65.812 20.2595C65.9396 19.9776 66.1311 19.7292 66.3713 19.5341C66.8598 19.1284 67.6748 18.9263 68.8163 18.9277C69.2414 18.9275 69.6661 18.9576 70.087 19.0177V18.8805C70.087 18.2634 69.9556 17.8277 69.6927 17.5734C69.3785 17.303 68.9706 17.1668 68.557 17.1941C68.1865 17.1986 67.818 17.249 67.4598 17.3441C67.1051 17.4297 66.7592 17.5488 66.427 17.6998L66.1741 16.5341C66.5375 16.379 66.915 16.2592 67.3013 16.1763C67.7871 16.0664 68.2839 16.0118 68.782 16.0134C69.3098 15.999 69.8349 16.0931 70.3248 16.2898C70.7558 16.4804 71.1067 16.8153 71.317 17.237C71.58 17.8015 71.7027 18.4212 71.6748 19.0434V21.8291C71.6748 22.1148 71.692 22.5534 71.7263 23.1448L70.2306 23.1427ZM69.2706 21.857C69.5794 21.7134 69.8569 21.5103 70.087 21.2591V19.9734C69.7313 19.9314 69.3737 19.9078 69.0156 19.9027C68.3541 19.9027 67.8963 20.0098 67.642 20.2241C67.5179 20.3289 67.4193 20.4605 67.3536 20.609C67.2879 20.7575 67.2568 20.919 67.2627 21.0813C67.2511 21.2215 67.2698 21.3625 67.3175 21.4949C67.3652 21.6273 67.4408 21.7478 67.5391 21.8484C67.748 22.0246 68.0163 22.1142 68.2891 22.0991C68.6304 22.094 68.966 22.0112 69.2706 21.857V21.857Z" fill="#B5B5B5"/>
<path d="M72.9141 21.463V13.1916L74.5084 13.063V21.178C74.4857 21.4033 74.5393 21.6296 74.6605 21.8208C74.7217 21.8867 74.7972 21.9377 74.8811 21.97C74.965 22.0023 75.0552 22.0151 75.1448 22.0073C75.2901 22.001 75.4341 21.9765 75.5734 21.9344L75.7619 23.083C75.5825 23.1507 75.3965 23.1996 75.2069 23.2287C75.0024 23.2642 74.7952 23.2828 74.5876 23.2844C73.4719 23.2773 72.9141 22.6701 72.9141 21.463Z" fill="#B5B5B5"/>
<path d="M76.9023 21.463V13.1916L78.4988 13.063V21.178C78.4761 21.4033 78.5297 21.6296 78.6509 21.8208C78.7122 21.8867 78.7876 21.9377 78.8715 21.97C78.9554 22.0023 79.0456 22.0151 79.1352 22.0073C79.2805 22.001 79.4245 21.9765 79.5638 21.9344L79.7502 23.083C79.5715 23.1507 79.3862 23.1996 79.1973 23.2287C78.9921 23.2643 78.7842 23.2829 78.5759 23.2844C77.4616 23.2773 76.9038 22.6701 76.9023 21.463Z" fill="#B5B5B5"/>
<path d="M86.308 19.8472H81.7287C81.8016 21.3144 82.5001 22.0479 83.8244 22.0479C84.1643 22.0462 84.5029 22.0059 84.8337 21.9279C85.1716 21.8493 85.5021 21.7418 85.8216 21.6065L86.173 22.7036C85.348 23.0925 84.4449 23.2874 83.533 23.2736C82.8797 23.2925 82.2323 23.145 81.6516 22.8451C81.1484 22.5732 80.7447 22.1485 80.4987 21.6322C80.2267 21.0341 80.0948 20.3819 80.113 19.7251C80.0952 19.0369 80.2352 18.3537 80.5223 17.7279C80.767 17.1969 81.1628 16.7497 81.6601 16.4422C82.1699 16.142 82.7529 15.9892 83.3444 16.0008C83.9314 15.98 84.5104 16.1426 85.0008 16.4658C85.4431 16.7728 85.7858 17.2026 85.9866 17.7022C86.2073 18.2464 86.3166 18.8293 86.308 19.4165V19.8472ZM84.7458 18.8294C84.7489 18.3744 84.5978 17.9318 84.3173 17.5736C84.1915 17.4328 84.0363 17.3214 83.8626 17.2473C83.6889 17.1732 83.501 17.1383 83.3123 17.1451C83.1224 17.1412 82.9338 17.1773 82.7588 17.2511C82.5837 17.325 82.4263 17.4349 82.2966 17.5736C81.9944 17.9257 81.8094 18.3631 81.7673 18.8251L84.7458 18.8294Z" fill="#B5B5B5"/>
<path d="M87.5204 17.9015C87.5204 17.5179 87.5011 16.9307 87.4668 16.1443H88.9668C88.9925 16.3393 89.0161 16.5729 89.0418 16.8407C89.0675 17.1086 89.0804 17.3315 89.0889 17.5007C89.2503 17.2276 89.4338 16.9682 89.6375 16.725C89.8144 16.5172 90.028 16.3436 90.2675 16.2129C90.5194 16.0769 90.8021 16.0083 91.0882 16.0136C91.3052 16.0083 91.5219 16.035 91.7311 16.0929L91.5297 17.4815C91.2787 17.4088 91.0152 17.3904 90.7566 17.4273C90.498 17.4642 90.2502 17.5557 90.0297 17.6957C89.675 17.9594 89.3659 18.2793 89.1147 18.6429V23.1429H87.5204V17.9015Z" fill="#B5B5B5"/>
<path d="M92.6233 26.0076C92.4279 25.976 92.2352 25.9294 92.0469 25.8683L92.3383 24.7005C92.4731 24.7368 92.6097 24.7661 92.7476 24.7883C92.9018 24.8157 93.0581 24.8301 93.2147 24.8312C93.929 24.8312 94.4605 24.3748 94.809 23.4619L94.914 23.2026L92.3319 16.144H94.0462L95.3576 20.089C95.5254 20.5965 95.6614 21.1139 95.7647 21.6383C95.8869 21.1326 96.0283 20.6269 96.1933 20.1212L97.5005 16.144H99.114L96.5426 23.2348C96.3485 23.8059 96.0844 24.3508 95.7562 24.8569C95.5059 25.2392 95.1641 25.553 94.7619 25.7698C94.3308 25.9803 93.855 26.0832 93.3755 26.0698C93.1234 26.0707 92.8718 26.0499 92.6233 26.0076V26.0076Z" fill="#B5B5B5"/>
<path d="M32.3574 4.79565H35.2074L35.1281 5.48565H33.1889V6.82066H35.0167V7.46351H33.1889V8.94208H35.231L35.1603 9.6428H32.3574V4.79565Z" fill="#B5B5B5"/>
<path d="M37.1756 7.16994L35.6756 4.79565H36.6271L37.6471 6.53994L38.7185 4.79565H39.6421L38.1421 7.13994L39.7642 9.6428H38.7999L37.6449 7.73565L36.4685 9.6428H35.5449L37.1756 7.16994Z" fill="#B5B5B5"/>
<path d="M40.3789 4.79565H41.686C42.2989 4.79565 42.7689 4.92065 43.096 5.17065C43.2588 5.29869 43.3882 5.46413 43.4732 5.65291C43.5583 5.84169 43.5965 6.04822 43.5846 6.25494C43.5937 6.55021 43.5194 6.84206 43.3703 7.09708C43.2248 7.33683 43.0126 7.52895 42.7596 7.64994C42.4785 7.78283 42.1705 7.84883 41.8596 7.8428C41.6438 7.83974 41.4287 7.81751 41.2168 7.77637V9.6428H40.3789V4.79565ZM42.4789 6.95994C42.5703 6.87215 42.6416 6.76557 42.6879 6.64755C42.7341 6.52954 42.7542 6.4029 42.7468 6.27637C42.7577 6.15511 42.7385 6.03303 42.6911 5.92091C42.6436 5.80879 42.5693 5.71008 42.4746 5.63351C42.2334 5.48664 41.9528 5.41779 41.671 5.43637H41.2168V7.15065C41.376 7.17934 41.5372 7.19582 41.6989 7.19994C41.9799 7.22103 42.2584 7.13532 42.4789 6.95994Z" fill="#B5B5B5"/>
<path d="M44.4121 4.79565H45.2478V8.92708H47.2535L47.1828 9.6428H44.4121V4.79565Z" fill="#B5B5B5"/>
<path d="M48.5274 9.40496C48.1762 9.20733 47.8925 8.9087 47.7131 8.54781C47.5182 8.14781 47.422 7.70694 47.4324 7.2621C47.4222 6.79725 47.5251 6.33687 47.7324 5.92067C47.9224 5.54551 48.2211 5.23634 48.5896 5.03353C49.002 4.81752 49.4636 4.71265 49.9288 4.72924C50.3688 4.71743 50.8041 4.82164 51.191 5.03139C51.5401 5.22971 51.8215 5.52833 51.9988 5.88853C52.1899 6.28436 52.2847 6.71979 52.2753 7.15924C52.2869 7.62928 52.1831 8.095 51.9731 8.51567C51.7813 8.88953 51.483 9.19822 51.116 9.40281C50.7108 9.61837 50.257 9.72611 49.7981 9.71567C49.3545 9.72689 48.9158 9.61964 48.5274 9.40496V9.40496ZM50.696 8.81138C50.9322 8.65485 51.1159 8.43085 51.2231 8.16853C51.3434 7.86824 51.4024 7.54695 51.3967 7.22353C51.4021 6.90604 51.3498 6.59021 51.2424 6.29139C51.1463 6.03256 50.9745 5.80859 50.7496 5.64853C50.4886 5.48887 50.1887 5.40438 49.8828 5.40438C49.5769 5.40438 49.2769 5.48887 49.016 5.64853C48.7791 5.81288 48.5946 6.04203 48.4846 6.30853C48.3626 6.59644 48.3021 6.90661 48.3067 7.21924C48.3015 7.54133 48.3583 7.86141 48.4738 8.1621C48.5765 8.43719 48.7642 8.67238 49.0097 8.83347C49.2552 8.99456 49.5456 9.07315 49.8388 9.05781C50.143 9.0653 50.4422 8.97928 50.696 8.81138V8.81138Z" fill="#B5B5B5"/>
<path d="M53.207 4.7958H54.7242C55.1687 4.76434 55.611 4.88115 55.982 5.12794C56.1244 5.2397 56.2377 5.38416 56.3123 5.54904C56.3869 5.71393 56.4206 5.89438 56.4106 6.07509C56.4156 6.31005 56.3626 6.54263 56.2563 6.75223C56.1633 6.93601 56.0335 7.09868 55.8749 7.23009C55.7331 7.34457 55.574 7.43572 55.4035 7.50009L56.9035 9.64294H55.9285L54.6663 7.71437H54.0513V9.64294H53.207V4.7958ZM54.5206 7.08866C54.7067 7.09272 54.8911 7.05232 55.0585 6.9708C55.2092 6.89842 55.3363 6.78472 55.4249 6.64294C55.5133 6.49161 55.5585 6.31891 55.5556 6.14366C55.5642 6.04251 55.5476 5.9408 55.5072 5.84767C55.4668 5.75454 55.4039 5.6729 55.3242 5.61009C55.1233 5.48431 54.8878 5.42508 54.6513 5.4408H54.0449V7.09723L54.5206 7.08866Z" fill="#B5B5B5"/>
<path d="M57.5547 4.79565H60.4111L60.3297 5.48565H58.4011V6.82066H60.2118V7.46351H58.384V8.94208H60.4261L60.364 9.6428H57.5547V4.79565Z" fill="#B5B5B5"/>
<path d="M63.5195 4.79565H64.3552V9.6428H63.5195V4.79565Z" fill="#B5B5B5"/>
<path d="M66.5684 5.49423H65.0684L65.1412 4.79565H68.9126L68.8355 5.49423H67.4062V9.6428H66.5684V5.49423Z" fill="#B5B5B5"/>
<path d="M72.545 9.40492C72.1945 9.20717 71.9115 8.90851 71.7329 8.54777C71.5362 8.14832 71.4392 7.70718 71.45 7.26206C71.4398 6.79721 71.5428 6.33683 71.75 5.92063C71.9406 5.54585 72.2392 5.23683 72.6072 5.03349C73.0164 4.81642 73.4748 4.70866 73.9379 4.72063C74.383 4.70864 74.8232 4.81592 75.2129 5.03135C75.5625 5.22903 75.8441 5.52783 76.0208 5.88849C76.2126 6.28414 76.3081 6.71958 76.2993 7.1592C76.3112 7.62951 76.2067 8.09548 75.995 8.51563C75.8038 8.88995 75.5054 9.1988 75.1379 9.40277C74.7329 9.61888 74.2789 9.72665 73.82 9.71563C73.3749 9.72762 72.9347 9.62034 72.545 9.40492V9.40492ZM74.7158 8.81135C74.9508 8.65409 75.1336 8.43026 75.2408 8.16849C75.361 7.8682 75.42 7.54691 75.4143 7.22349C75.4197 6.906 75.3674 6.59017 75.26 6.29135C75.1647 6.03267 74.9937 5.80867 74.7693 5.64849C74.5081 5.48864 74.2077 5.40405 73.9015 5.40405C73.5952 5.40405 73.2949 5.48864 73.0336 5.64849C72.7967 5.81284 72.6122 6.04199 72.5022 6.30849C72.3813 6.59671 72.3207 6.90667 72.3243 7.2192C72.3192 7.54129 72.3759 7.86137 72.4915 8.16206C72.5937 8.42639 72.7719 8.65454 73.0036 8.81777C73.2573 8.98522 73.557 9.06913 73.8608 9.05777C74.1641 9.064 74.4622 8.97807 74.7158 8.81135V8.81135Z" fill="#B5B5B5"/>
<path d="M77.2266 4.79565H78.1866L80.5844 8.55208C80.563 8.19423 80.5544 7.86637 80.5544 7.56423V4.79565H81.3301V9.6428H80.4001L77.9659 5.82637C77.9894 6.25494 78.0023 6.6428 78.0023 6.97923V9.6428H77.2266V4.79565Z" fill="#B5B5B5"/>
<path fill-rule="evenodd" clip-rule="evenodd" d="M20.5721 4.82153H11.6771C7.4835 4.82153 5.94922 6.35582 5.94922 10.5494V19.4508C5.94922 23.6444 7.4835 25.1787 11.6771 25.1787H20.5721C24.7656 25.1787 26.3021 23.6444 26.3021 19.4508V10.5494C26.3064 6.35582 24.7721 4.82153 20.5721 4.82153Z" fill="#B5B5B5"/>
<path d="M9.97804 15H10.518V17.6636H9.97804V16.5814H8.75875V17.6636H8.21875V15H8.75875V16.0714H9.97804V15ZM13.0209 16.5236C13.0209 16.9521 12.8066 17.1879 12.4166 17.1879C12.0266 17.1879 11.808 16.9521 11.808 16.5V15H11.268V16.5214C11.268 17.2693 11.6837 17.6979 12.408 17.6979C13.1323 17.6979 13.5609 17.2693 13.5609 16.4979V15H13.0209V16.5236ZM19.2609 16.83L18.6566 15H18.213L17.613 16.8321L17.0237 15H16.4495L17.3773 17.6636H17.8252L18.4273 15.915L19.0316 17.6636H19.4837L20.4116 15H19.8502L19.2609 16.83ZM21.378 16.515H22.3616V16.0329H21.378V15.4886H22.8052V15H20.8466V17.6571H22.8566V17.1771H21.378V16.515ZM23.4995 17.6571H24.033V15H23.4995V17.6571ZM14.628 17.1064L14.3859 17.6593H13.8352L14.9988 15H15.4745L16.6423 17.6593H16.0852L15.8559 17.1086L14.628 17.1064ZM14.8295 16.6264H15.6416L15.2345 15.675L14.8295 16.6264Z" fill="white"/>
<path d="M16.1281 11.6122C15.2298 11.6117 14.3684 11.2545 13.7331 10.6193C13.0979 9.98409 12.7408 9.12271 12.7402 8.22437H13.2181C13.2181 8.99615 13.5247 9.73631 14.0704 10.282C14.6161 10.8278 15.3563 11.1344 16.1281 11.1344C16.8999 11.1344 17.64 10.8278 18.1858 10.282C18.7315 9.73631 19.0381 8.99615 19.0381 8.22437H19.5159C19.5154 9.12271 19.1583 9.98409 18.523 10.6193C17.8878 11.2545 17.0264 11.6117 16.1281 11.6122V11.6122Z" fill="white"/>
</g>
<defs>
<clipPath id="clip0_2174_11855">
<rect width="105" height="30" fill="white"/>
</clipPath>
</defs>
</svg>