<?xml version="1.0" encoding="UTF-8"?>
<!-- Generator: Adobe Illustrator 24.0.1, SVG Export Plug-In . SVG Version: 6.00 Build 0)  -->
<svg version="1.1" id="Layer_1" xmlns="http://www.w3.org/2000/svg" xmlns:xlink="http://www.w3.org/1999/xlink" x="0px" y="0px" viewBox="0 0 67 37" style="enable-background:new 0 0 67 37;" xml:space="preserve">
<style type="text/css">
	.st0{opacity:0.7;fill-rule:evenodd;clip-rule:evenodd;fill:#ffffff;enable-background:new    ;}
	.st1{fill-rule:evenodd;clip-rule:evenodd;fill:#ffffff;}
</style>
<g>
	<path class="st0" d="M27.2,17.4c0.1,0.1,0.1,0.1,0.2,0.2v0c0.1,0,0.1,0.2,0.1,0.3c0.1,0.5,0.1,1,0,1.5c-0.1,0.6-0.6,1.8-0.8,2.3   c0,0,0,0-0.1,0.1c0,0,0,0,0,0l-0.1,0.1l0,0c-0.1,0.1-0.2,0.2-0.2,0.2c0,0-0.1,0.1-0.1,0.1c-0.1,0.1-0.2,0.2-0.3,0.3l-0.3,0.3   L25.4,23l-0.1,0.1c0.1-0.3,0.2-0.6,0.2-1c0-0.2,0-0.3,0-0.5c0-0.1,0-0.3-0.1-0.4c-0.1-0.2-0.1-0.4-0.2-0.6c0-0.1,0-0.1-0.1-0.2   c-0.1-0.2-0.2-0.4-0.3-0.5c-0.1-0.1-0.1-0.2-0.1-0.3l0.1-0.1l-0.1-0.2c-0.1,0-0.1,0-0.2,0.1c0,0,0,0-0.1,0.1   c-0.1-0.1-0.3-0.3-0.4-0.5c0,0,0-0.1,0-0.1c0-0.1,0-0.2,0-0.2c0,0,0-0.1-0.1-0.1c0,0,0,0.1-0.1,0.1c0,0.1,0,0.1,0,0.2c0,0,0,0,0,0   c0,0,0,0-0.1-0.1c0,0-0.1-0.1-0.1-0.1c-0.1-0.1-0.2-0.2-0.3-0.3c-0.1-0.1-0.1-0.1-0.2-0.1c-0.1,0-0.1-0.1-0.2-0.1   c-0.1-0.1-0.2-0.1-0.3-0.1c0,0,0,0,0,0c-0.1,0-0.2,0-0.2-0.1c-0.1,0-0.2-0.1-0.3-0.2c0,0-0.1-0.1-0.1-0.1c-0.1,0-0.3,0-0.4-0.1   c-0.1,0-0.1-0.1-0.2-0.1c0,0-0.1,0-0.1-0.1c-0.1,0-0.1-0.1-0.2-0.1c-0.1,0-0.1,0-0.2-0.1c0,0-0.1,0-0.1-0.1c0,0-0.1,0-0.1,0   c0,0-0.1,0-0.1,0c0,0-0.1,0-0.1,0c-0.1,0-0.1,0-0.2-0.1c-0.2-0.1-0.3-0.1-0.5-0.1c-0.1,0-0.1,0-0.2,0c-0.1,0-0.2,0-0.2,0   c-0.1,0-0.2,0-0.4,0c-0.1,0-0.1,0-0.2,0c-0.1,0-0.2,0-0.2-0.1c-0.1,0-0.2,0-0.3-0.1c0,0,0,0-0.1-0.1C18.3,17,18.2,17,18,17   c0,0,0,0-0.1,0c0,0,0,0,0,0c-0.1,0-0.2,0-0.4-0.1c-0.1,0-0.2,0-0.3,0C17.2,17,17.1,17,17,17c-0.1-0.1-0.3-0.1-0.4-0.1   c-0.1,0-0.2,0-0.4,0c-0.1,0-0.1,0-0.2,0c0,0-0.1,0-0.2,0c0,0-0.1,0-0.1,0c-0.1,0-0.1-0.1-0.2,0c-0.1,0-0.2,0-0.3,0   c-0.1,0-0.1,0-0.2,0c-0.2,0-0.5,0.1-0.7,0c-0.1-0.1-0.2-0.1-0.3,0c0,0,0,0,0,0c-0.1-0.1-0.2-0.1-0.3-0.1c-0.1,0-0.2,0-0.3,0   c-0.1,0-0.1,0-0.2,0c-0.1,0-0.3,0-0.4,0c-0.1,0-0.7,0.1-1.2,0.1c-0.3,0-0.5,0.1-0.7,0.1c0,0,0,0,0.1,0v0l0,0c0.1,0,0.1-0.1,0.2-0.1   l0.3-0.1l0.3-0.2l0.8-0.4l0.4-0.2l0.4-0.2c0.1,0,0.2-0.1,0.2-0.1c0.1,0,0.2-0.1,0.3-0.1c0.1-0.1,0.3-0.1,0.4-0.2l0,0l0.2-0.1   l0.2-0.1c0.2-0.1,0.4-0.2,0.7-0.3l0.3-0.1c0.3-0.1,0.5-0.2,0.8-0.3l0.1-0.1c0,0,0,0,0,0c0,0,0.1,0,0.2-0.1c0,0,0.1,0,0.1-0.1l0,0   c0,0,0.1,0,0.1-0.1l0.4-0.2l0.3-0.1l0.2-0.1l0.2-0.1l0.4,0.1c0.3,0.1,0.6,0.1,0.8,0.2c0.1,0,0.2,0,0.3,0.1c0.2,0,0.3,0,0.5,0   c0,0,0,0,0,0c0.1,0,0.1,0,0.2,0.1c0,0,0.1,0.1,0.1,0c0.1-0.1,0.1-0.1,0.2,0c0,0,0,0,0,0c0.4,0.1,0.8,0.1,1.2,0.2   c0.1,0,0.3,0.1,0.4,0.1c0.1,0,0.2,0.1,0.3,0.1c0.1,0,0.1,0,0.2,0c0.1,0,0.2,0.1,0.2,0.1c0.1,0,0.1,0,0.2,0.1c0,0,0.1,0,0.1,0.1   c0,0,0,0,0.1,0c0,0,0,0,0.1,0c0,0,0.1,0,0.1,0c0,0,0,0,0,0c0,0,0,0,0,0c0.1,0.1,0.2,0.1,0.4,0.2c0.1,0,0.3,0.1,0.4,0.2   c0.2,0.1,0.3,0.2,0.5,0.3c0.1,0.1,0.2,0.1,0.3,0.2c0.1,0.1,0.3,0.2,0.4,0.3c0.2,0.1,0.3,0.2,0.5,0.4l0,0l0,0   c0.1,0.1,0.2,0.1,0.2,0.2c0.1,0,0.1,0.1,0.2-0.1c0,0.2,0,0.3,0.1,0.4l0,0l0,0c0.1,0.1,0.1,0.1,0.2,0.1C27,17,27,17.2,27.2,17.4   C27.2,17.4,27.2,17.4,27.2,17.4z M10.9,16.9C10.9,16.9,10.9,16.9,10.9,16.9L10.9,16.9z M34.6,15.1c0.5,0,0.9,0.2,1.3,0.4   c0.3,0.2,0.6,0.6,0.6,0.9c0.1,0.3,0.1,0.7,0.1,1c0,0.2-0.1,0.5-0.1,0.7c0,0.2,0,0.3-0.1,0.5c0,0.1,0,0.3,0,0.4c0,0,0,0,0,0   c-0.2,0.1-0.3,0.2-0.5,0.3c-0.3,0.2-0.5,0.3-0.8,0.5c-0.1,0.1-0.1,0.1-0.2,0.2l0,0c0,0-0.1,0-0.1,0.1c0,0-0.1,0.1-0.1,0.1l0,0   c0,0,0,0,0,0c0,0-0.1,0.1-0.1,0.1c-0.1,0-0.2,0-0.2-0.2c0,0,0-0.1,0-0.1c0,0,0-0.1-0.1-0.1c0-0.1,0-0.2,0-0.3c0-0.1,0-0.2,0-0.3   c0-0.1,0-0.3,0-0.4c0-0.1-0.1-0.2-0.2-0.3c-0.1-0.1-0.2-0.2-0.3-0.3c0-0.1-0.1-0.1-0.1-0.2c-0.4-0.4-0.8-0.7-1.4-0.8l0,0l0,0   l0.1-0.1l0.1-0.1l0.2-0.3l0.1-0.1l0.1-0.2c0,0,0-0.1,0.1-0.1c0,0,0,0,0,0c0,0,0,0,0-0.1l0.1-0.1l0.1-0.1l0.1-0.1   c0,0,0.1-0.1,0.1-0.1l0.1-0.1l0.2-0.2l0.1-0.1l0.1-0.1l0.1-0.1c0,0,0,0,0,0l0,0c0,0,0,0,0.1-0.1l0.1-0.1l0.1-0.1   C34.2,15,34.5,15,34.6,15.1L34.6,15.1z M54.4,16.6c-0.2-0.1-0.4-0.3-0.7-0.3h0l0,0l-0.1,0l-0.1,0l-0.1,0c0,0-0.1,0-0.1,0l-0.1,0.1   l-0.1,0l-0.1,0.1l-0.1,0.1c0,0-0.1,0.1-0.1,0.1l-0.1,0.1c0,0-0.1,0.1-0.1,0.1c0,0-0.1,0.1-0.1,0.1L52.3,17L52.2,17c0,0,0,0,0,0   c0,0,0,0,0,0l-0.1,0.1L52,17.3c0,0,0,0,0,0l0,0c0,0,0,0-0.1,0.1c-0.1,0.1-0.1,0.1-0.1,0.2l-0.1,0.1l-0.1,0.1c0,0,0,0.1,0,0.1   c0,0,0,0,0,0l0,0c0,0,0,0,0,0L51.5,18l0,0.1l-0.1,0.1l0,0.1l0,0.1l0,0.1l0,0l0,0v0l0,0c0.3,0.1,0.7,0.4,0.9,0.6   c0,0.1,0.1,0.1,0.1,0.2c0.1,0.1,0.2,0.2,0.3,0.3c0.1,0.1,0.1,0.2,0.2,0.3c0.1,0.1,0,0.3,0,0.4c0,0.1,0,0.2,0,0.3c0,0.1,0,0.2,0,0.3   c0,0,0.1,0.1,0.1,0.1c0,0,0,0.1,0,0.1c0,0.1,0.1,0.3,0.1,0.7v0c0,0.3,0.1,0.5,0.1,0.7v0l0,0c0,0,0,0,0,0l0,0l0-0.1l0.1-0.2l0.1-0.1   c0-0.1,0.1-0.1,0.1-0.2c0,0,0,0,0,0c0,0,0-0.1,0-0.1l0,0c0,0,0-0.1,0.1-0.1c0-0.1,0.1-0.1,0.1-0.2l0.1-0.1c0-0.1,0.1-0.2,0.1-0.3   c0,0,0,0,0,0c0,0,0,0,0,0l0-0.1c0-0.1,0.1-0.2,0.1-0.3c0,0,0,0,0,0c0,0,0,0,0,0c0,0,0,0,0,0c0-0.1,0.1-0.2,0.1-0.3c0,0,0,0,0,0   c0,0,0,0,0,0l0,0c0,0,0,0,0,0l0-0.1c0-0.1,0.1-0.3,0.1-0.4l0,0c0,0,0,0,0-0.1l0-0.1c0-0.1,0-0.2,0.1-0.3l0-0.1c0,0,0,0,0,0   c0,0,0,0,0,0l0-0.1c0-0.1,0.1-0.2,0.1-0.4c0-0.1,0-0.2,0.1-0.2l0-0.1c0-0.1,0.1-0.3,0.1-0.5c0,0,0,0,0,0c0,0,0,0,0,0l0-0.1l0-0.1   c0-0.1,0-0.1,0-0.1l0,0l0,0l0,0c0-0.1,0-0.1,0-0.2c0,0,0,0,0-0.1c0,0,0,0,0,0c0,0,0-0.1,0-0.1l0,0c0,0,0,0,0-0.1v0   C54.7,16.8,54.5,16.7,54.4,16.6z M44.3,22.4l0-0.1c0,0,0-0.1,0-0.1c0,0,0,0,0,0c0,0,0-0.1,0-0.1v0l0,0c0,0,0,0,0,0c0,0,0,0,0-0.1   c0,0,0,0,0,0c0,0,0-0.1,0-0.1l0-0.1c0,0,0,0,0-0.1c0,0,0,0,0-0.1c0,0,0,0,0,0c0,0,0-0.1,0-0.1c0,0,0,0,0,0l0,0v0c0,0,0,0,0-0.1   c0,0,0,0,0-0.1l0,0l0,0l0,0l0,0l0,0c0,0,0,0,0,0c0,0,0,0,0,0l0-0.1l0-0.1l0-0.1c0,0,0,0,0-0.1l0,0c0,0,0,0,0,0l0-0.1l0-0.1   c0,0,0,0,0-0.1c0,0,0,0,0,0c0,0,0,0,0,0l0-0.1c0,0,0,0,0-0.1c0,0,0,0,0,0s0,0,0,0l0-0.1l0-0.1V20c0,0,0-0.1,0-0.1c0,0,0-0.1,0-0.1   c0,0,0,0,0,0c0,0,0,0,0-0.1c0,0,0-0.1,0-0.1c0,0,0-0.1,0-0.1c0,0,0,0,0-0.1c0,0,0,0,0,0c0,0,0-0.1,0-0.1c0,0,0,0,0-0.1   c0,0,0-0.1,0-0.1c0,0,0,0,0-0.1V19c0,0,0-0.1,0-0.1v0v0c0,0,0,0,0-0.1c0-0.1,0-0.1,0-0.2c0,0,0-0.1,0-0.1v-0.1c0,0,0-0.1,0-0.2   c0,0,0-0.1,0-0.1c0,0,0,0,0-0.1c0,0,0-0.1,0-0.1c0,0,0,0,0,0l0-0.1c0,0,0,0,0,0l0,0l0,0c0,0,0,0,0-0.1c0,0,0,0,0,0c0,0,0,0,0,0   c0,0,0,0,0,0l0,0c0,0,0,0,0,0c0-0.1,0-0.1,0-0.1v-0.1c0,0.2-0.1,0.7-0.1,1.1c-0.1,0.6-0.1,1.3-0.2,1.6c-0.1,0.2-0.1,0.3-0.1,0.5   c0,0.2-0.1,0.3-0.2,0.5c0,0.5-0.1,1.1-0.3,1.6c-0.2,0.8-0.4,1.3-0.6,1.7h0.3l0,0h0l0,0l0,0l0,0l0,0h0l0,0h0l0,0h0   c0.1-0.1,0.2-0.2,0.2-0.3c0.2-0.3,0.4-0.5,0.5-0.7c0.2-0.2,0.3-0.4,0.7-1v0L44.3,22.4z M39.1,22.9c0,0,0-0.1,0-0.1c0,0,0-0.1,0-0.1   l0,0c0-0.1,0-0.1,0-0.2c0-0.1,0-0.1,0-0.2c0-0.1,0-0.1,0-0.2c0-0.1,0-0.2,0-0.3c0,0,0-0.1,0-0.1v0c0,0,0-0.1,0-0.1   c0-0.1,0-0.2,0-0.3l0-0.2c0,0,0-0.1,0-0.1c0,0,0-0.1,0-0.1c0-0.1,0-0.2,0-0.3l0-0.1l0-0.1c0-0.1,0-0.2,0-0.4c0-0.1,0-0.1,0-0.2   c0-0.1,0-0.1,0-0.2c0-0.1,0-0.2,0-0.3c0,0,0-0.1,0-0.1c0-0.1,0-0.1,0-0.2v0v0l0,0c0-0.1,0-0.2,0-0.3v-0.1c0,0,0,0,0,0c0,0,0,0,0,0   c-0.1,0.3-0.1,0.8-0.1,1.2c0,0.2,0,0.3,0,0.4c0,0.1,0,0.1,0,0.2c0,0.3,0,0.6-0.1,0.9c-0.1,0.2-0.1,0.3-0.1,0.4   c0,0.1-0.1,0.3-0.1,0.4c-0.1,0.4-0.2,0.8-0.4,1.2c-0.2,0.5-0.4,1-0.7,1.5h0.3l0.1,0h0l0,0l0,0l0,0l0,0l0,0l0.1,0l0,0l0,0l0,0l0,0   l0,0h0c0.1-0.1,0.2-0.2,0.2-0.3c0.1-0.2,0.3-0.4,0.4-0.5c0.2-0.3,0.4-0.6,0.7-1.1v0C39.1,23,39.1,22.9,39.1,22.9L39.1,22.9z    M61.3,22.5L61.3,22.5C61.3,22.5,61.3,22.5,61.3,22.5C61.3,22.4,61.3,22.4,61.3,22.5c0-0.1,0-0.1,0-0.2c0,0,0-0.1,0-0.1   c0,0,0-0.1,0-0.1l0,0c0,0,0,0,0-0.1l0,0c0,0,0,0,0-0.1c0,0,0-0.1,0-0.1l0,0c0,0,0,0,0,0c0,0,0-0.1,0-0.1l0-0.1c0,0,0,0,0-0.1l0,0   c0,0,0,0,0-0.1c0,0,0-0.1,0-0.1c0,0,0,0,0,0c0,0,0,0,0,0l0,0l0,0l0,0c0,0,0,0,0,0c0,0,0,0,0-0.1c0,0,0,0,0-0.1l0-0.1   c0,0,0-0.1,0-0.1c0,0,0-0.1,0-0.1v0l0,0c0,0,0-0.1,0-0.1l0,0l0,0c0,0,0,0,0-0.1c0,0,0,0,0,0c0,0,0,0,0-0.1l0-0.1c0,0,0,0,0-0.1   c0,0,0,0,0,0c0,0,0,0,0-0.1l0,0c0,0,0-0.1,0-0.1c0,0,0,0,0-0.1v0c0,0,0,0,0-0.1v0c0,0,0-0.1,0-0.1l0-0.1v-0.1c0,0,0,0,0,0v0   c0,0.1-0.1,0.2-0.1,0.2c-0.1,0.1-0.1,0.2-0.1,0.2c0,0.1,0,0.2-0.1,0.3c0,0.1,0,0.2-0.1,0.3c0,0,0,0.1,0,0.1l0,0l0,0   c0,0.1-0.1,0.2-0.1,0.4c0,0.1-0.1,0.3-0.1,0.4v0l0,0l0,0c0,0,0,0,0,0.1h0l0,0c0,0.1-0.1,0.2-0.1,0.3l0,0l0,0l0,0   c-0.1,0.2-0.1,0.5-0.2,0.7c0,0.1,0,0.2-0.1,0.3v0l0,0v0c0,0.1,0,0.2-0.1,0.3c-0.1,0.3-0.1,0.5-0.3,0.8h0.4c0,0,0,0,0.1,0l0.1,0l0,0   l0,0h0c0.1-0.1,0.2-0.2,0.3-0.3c0,0,0.1-0.1,0.1-0.1c0,0,0.1-0.1,0.1-0.2c0-0.1,0-0.1,0.1-0.2c0,0,0.1-0.2,0.2-0.4   C61.2,22.8,61.3,22.5,61.3,22.5L61.3,22.5C61.3,22.5,61.3,22.5,61.3,22.5L61.3,22.5z M60.4,23.2C60.4,23.2,60.4,23.2,60.4,23.2   l0.1,0v0L60.4,23.2C60.4,23.2,60.4,23.2,60.4,23.2z M60.6,23.8L60.6,23.8L60.6,23.8C60.6,23.8,60.6,23.8,60.6,23.8   C60.6,23.8,60.6,23.8,60.6,23.8C60.6,23.8,60.6,23.8,60.6,23.8L60.6,23.8z M60.8,23.4L60.8,23.4L60.8,23.4L60.8,23.4z"/>
	<path class="st1" d="M19.8,5.3c-1.1,0.4-5.1,1.8-6.5,2.3l-0.1,0.5c1.5-0.5,5.2-1.8,6.3-2.3L19.8,5.3z M9.2,17C9.2,17,9.2,17,9.2,17   C9,16.9,9,16.7,9.1,16.5c0.1-0.3,0.2-0.5,0.3-0.7c0,0,0.1-0.1,0.1-0.1c0.1-0.3,0.3-0.6,0.4-0.9c0.1-0.2,0.2-0.4,0.3-0.7   c0-0.1,0.1-0.1,0.1-0.2c0.1-0.1,0.1-0.2,0.2-0.3c0-0.1,0.1-0.2,0.1-0.3c0.1-0.3,0.1-0.5,0.2-0.6c0.1-0.1,0.1-0.1,0.2-0.2l0,0   c0,0,0.1-0.1,0.1-0.1c0.1,0,0.2,0,0.3,0c0.2,0,0.3-0.1,0.5-0.1c0.1,0,0.2,0,0.2,0c0.1,0,0.3,0,0.4-0.1c0,0,0.1,0,0.1,0   c0.1,0,0.1,0,0.2,0c0,0,0,0,0.1,0c0,0,0.1,0,0.1,0c0,0,0.1,0,0.1-0.1c0,0,0,0,0.1-0.1l0,0l0,0c0,0,0.1,0,0.1,0c0.1,0,0.2,0,0.3,0   c0.1,0,0.2-0.1,0.3,0c0,0,0.1,0,0.1-0.1l0,0l0,0l0,0l0,0c0.1-0.1,0.2-0.1,0.3-0.2c0.1-0.1,0.2-0.1,0.3-0.2c0,0,0,0,0,0   c0,0,0,0,0.1,0c0,0,0.1,0,0.1,0c0,0,0.1,0,0.1,0c0,0,0.1-0.1,0.1-0.1c0,0,0.1-0.1,0.1-0.1c0,0,0.1-0.1,0.1-0.1c0.1,0,0.3,0,0.4,0   c0.1,0,0.1,0,0.2,0c0,0,0,0,0,0c0.1,0,0.1,0,0.2-0.1c0-0.1,0.1-0.1,0.2-0.1c0.1,0,0.2,0,0.2,0c0,0,0.1,0,0.1,0c0,0,0.1,0,0.1-0.1   c0.1-0.1,0.1-0.1,0.2-0.1c0.1,0,0.2,0,0.2,0c0,0,0,0,0,0c0,0,0,0,0.1,0c0.1-0.1,0.2-0.1,0.2-0.1c0,0,0,0,0.1,0c0,0,0.1,0,0.1,0   c0.1,0,0.2,0,0.3-0.1c0.1,0,0.2,0,0.3-0.1c0,0,0,0,0.1-0.1c0.1-0.1,0.2-0.1,0.2-0.1c0.1-0.1,0.2-0.1,0.2-0.1c0.1,0,0.3-0.1,0.4-0.1   c0,0,0,0,0,0c0.1-0.1,0.3-0.1,0.4,0c0,0,0.1,0,0.2,0c0,0,0.1-0.1,0.1-0.1c0.1,0,0.2,0,0.3-0.1c0.1,0,0.2-0.1,0.3-0.1c0,0,0,0,0,0   c0.1-0.1,0.2-0.1,0.3-0.1c0.1,0,0.1,0,0.2,0c0,0,0,0,0.1,0c0,0,0,0,0,0c0.2-0.2,0.3-0.3,0.5-0.3c0,0,0.1,0,0.1,0   C21.7,9,21.9,9,22,9c0.1,0,0.2,0,0.2-0.1c0,0,0.3-0.1,0.5-0.2c0.3-0.1,0.5-0.2,0.6-0.2c0.1,0,0.2-0.1,0.3-0.2   c0.1-0.1,0.2-0.1,0.3-0.1c0,0,0.1,0,0.1,0l0,0l0,0c0.1,0,0.3-0.1,0.4-0.1c0,0,0.1-0.1,0.1-0.1c0.1-0.1,0.2-0.2,0.2-0.1   c0.1,0,0.2,0,0.3-0.1c0,0,0,0,0.1-0.1c0.2-0.1,0.4-0.3,0.6-0.4c0,0,0,0.1,0,0.3c0,0.2-0.1,0.3,0,0.4c0,0.1,0,0.1-0.1,0.2   c0,0.1-0.1,0.1-0.1,0.2c-0.1,0.4-0.2,0.8-0.4,1.2c0,0,0,0.1-0.1,0.1c-0.1,0.1-0.2,0.4-0.3,0.7c-0.1,0.3-0.2,0.5-0.3,0.7   c0,0-0.1,0.2-0.1,0.3c-0.1,0.2-0.1,0.4-0.2,0.4c-0.2,0.1-0.4,0.3-0.5,0.6c-0.1,0-0.1-0.1-0.1-0.3c0-0.1,0-0.2-0.1-0.3   c0,0,0-0.1-0.1-0.1c0-0.1-0.1-0.1-0.1-0.1c0,0-0.1,0-0.1,0c-0.2,0-0.8,0.3-1.3,0.5c-0.2,0.1-0.4,0.2-0.5,0.2   c-0.4,0.1-0.8,0.3-1.2,0.5c-0.1,0.1-0.2,0.1-0.4,0.1c-0.1,0-0.3,0.1-0.4,0.2c-0.1,0.1-0.3,0.1-0.4,0.1c-0.1,0-0.1,0-0.2,0   c-0.1,0-0.1,0-0.2,0c0,0-0.3,0.1-0.7,0.3L18,13.6l-0.2,0.1l-0.3,0.1L17.1,14c-0.1,0-0.2,0.1-0.2,0.1l0,0c-0.1,0-0.1,0.1-0.2,0.1   l-0.1,0.1c-0.3,0.1-0.5,0.2-0.8,0.3l-0.3,0.1c-0.2,0.1-0.4,0.2-0.7,0.3l-0.2,0.1l-0.2,0.1c-0.1,0.1-0.2,0.1-0.4,0.2   c-0.1,0-0.2,0.1-0.2,0.1l0,0l0,0c-0.1,0-0.2,0.1-0.3,0.1L13,15.9l-0.4,0.2l-0.8,0.4l-0.3,0.2l-0.3,0.1c-0.1,0-0.1,0.1-0.2,0.1l0,0   v0c0,0,0,0-0.1,0h-0.1l-0.1,0l-0.1,0c-0.1,0-0.2,0-0.3,0c-0.2,0-0.5,0-0.7,0.1C9.5,17,9.3,17,9.2,17z M37.8,24.9L37.8,24.9   L37.8,24.9c-0.4,0.5-1.2,0.7-1.4,0.8c-0.4,0.1-0.7,0.1-1,0c-0.2,0-0.4-0.1-0.5-0.4c-0.1-0.2-0.2-0.4-0.3-0.5   c-0.1-0.1-0.1-0.2-0.1-0.3l0-0.1c0-0.1,0-0.3-0.1-0.4c0,0,0,0,0,0c0,0,0,0,0,0c0-0.4-0.1-0.7-0.2-1.1h0L34,23   c-0.2,0-0.3,0.1-0.4,0.1l-0.2,0.2c-0.1,0.1-0.3,0.2-0.5,0.3c-0.2,0.1-0.3,0.2-0.4,0.4c-0.1,0.1-0.3,0.3-0.4,0.3   c-0.1,0.1-0.2,0.1-0.3,0.2c-0.2,0.1-0.4,0.2-0.6,0.2c-0.3,0.1-0.6,0.3-0.9,0.3c0,0,0,0-0.1,0c-0.1,0-0.1,0-0.2,0   c-0.2,0.2-0.4,0.1-0.6,0.1l0,0c-0.2,0-0.4,0-0.6,0l-0.1,0.4c-0.2,0-0.4,0-0.5-0.2c0,0,0,0-0.1-0.1c0,0,0,0-0.1,0   c-0.4-0.3-0.6-0.7-0.7-1.2c0-0.1-0.1-0.2-0.1-0.3c-0.1-0.1-0.2-0.3-0.1-0.4c0.1-0.3,0.1-0.6,0.2-0.9c0-0.1,0-0.2,0-0.3   c0-0.1,0-0.2,0.1-0.3c0.1-0.4,0.3-0.7,0.4-1.1c0.1-0.1,0.1-0.2,0.2-0.3c0-0.1,0.1-0.1,0.1-0.2c0-0.1,0.1-0.1,0.1-0.2   c0.4-1,1-1.8,1.8-2.5c0.6-0.6,1.3-1.1,2-1.6c0.5-0.4,1-0.7,1.6-0.9c0.1-0.1,0.3-0.2,0.5-0.1L34,15.1L34,15.1c0,0,0,0-0.1,0.1   c0,0,0,0,0,0l-0.1,0.1l-0.1,0.1l-0.1,0.1l-0.1,0.1l-0.1,0.1l-0.1,0.1c0,0-0.1,0.1-0.1,0.1L33.2,16l-0.1,0.1l-0.1,0.1   c0,0-0.1,0.1-0.1,0.1l0,0l0,0c0,0,0,0,0,0.1l-0.1,0.2l-0.1,0.1L32.5,17l-0.1,0.1l-0.1,0.1l0,0l0,0l-0.1,0.2c0,0,0,0.1-0.1,0.1   c-0.1,0.1-0.2,0.2-0.2,0.3c-0.4,0.5-0.8,1.1-1.1,1.6c-0.3,0.5-0.5,1.1-0.7,1.7c-0.2,0.5-0.2,1-0.2,1.6c0,0.3,0.1,0.6,0.3,0.9   c0.1,0.1,0.2,0.3,0.3,0.4c0.1,0.1,0.2,0.1,0.3,0.1c0.1,0,0.1,0,0.2,0c0.2,0,0.2,0,0.2,0c0,0,0-0.1,0.2-0.1c0.8-0.2,1.4-0.8,2.3-1.6   v0c0.1-0.1,0.2-0.2,0.3-0.3c0.3-0.3,0.6-0.6,0.9-0.9c0.2-0.2,0.5-0.4,0.7-0.6c0.2-0.1,0.4-0.2,0.6-0.3c0.1,0,0.1-0.1,0.2-0.1   c0,0,0.1,0,0.1,0l0,0v0v0v0v0c0,0.2,0,0.7,0,0.9c0,0.3-0.1,0.6-0.1,0.9c0,0.2,0,0.4,0,0.7c0,0.2,0,0.4,0,0.6c0,0,0,0,0,0l0,0.1l0,0   l0,0l0,0c0,0.2,0.1,0.7,0.1,0.8c0,0.3,0.2,0.7,0.4,0.9c0.1,0,0.2,0.1,0.3,0.1h0.3l0,0h0l0,0l0,0l0,0l0,0l0,0l0.1,0L37.8,24.9   L37.8,24.9L37.8,24.9L37.8,24.9z M42.9,24.4L42.9,24.4L42.9,24.4c-0.4,0.6-1.3,0.9-1.8,1c0,0-0.1,0-0.1,0c0,0-0.1,0-0.1,0   c-0.1,0-0.2,0-0.4,0.1c-0.3,0.1-0.5,0-0.6-0.2l0.1-0.1l0,0c0,0,0,0,0,0l0,0c0,0,0,0,0,0c0,0-0.1,0-0.1,0c0,0-0.1-0.1-0.1-0.1   c0-0.1-0.1-0.2-0.1-0.3c0-0.3-0.2-0.5-0.3-0.7c0-0.1-0.1-0.1-0.1-0.2c-0.1-0.2-0.2-0.4-0.2-0.6c0,0,0-0.1,0-0.2v0c0,0,0,0,0,0   c0,0,0,0,0-0.1c0,0,0-0.1,0-0.1c0-0.1,0-0.2,0-0.3c0,0,0-0.1,0-0.1l0,0c0-0.1,0-0.2,0-0.3c0-0.1,0-0.2,0-0.3c0,0,0-0.1,0-0.1l0,0   l0,0c0,0,0,0,0,0c0,0,0,0,0,0c0-0.1,0-0.2,0-0.3l0-0.2c0,0,0-0.1,0-0.1c0,0,0-0.1,0-0.1c0-0.1,0-0.2,0-0.3c0-0.1,0-0.2,0-0.2v0   l0-0.1c0,0,0-0.1,0-0.1c0-0.1,0-0.2,0-0.4c0-0.1,0-0.2,0-0.3c0,0,0,0,0,0l0,0c0-0.1,0-0.1,0-0.2c0-0.1,0-0.2,0-0.3v-0.1   c0,0,0,0,0,0c0,0,0,0,0,0c0-0.2,0.9-0.7,1-0.8c0.2-0.1,0.2-0.2,0.3-0.2c0,0,0.1-0.1,0.3-0.2c0,0,0.1,0,0.1,0   c0.1-0.1,0.3-0.1,0.4-0.2c0.1,0,0.1,0,0.2,0c0,0.1,0,0.2,0,0.3v0c0,0.2,0,0.4,0,0.6c0,0.3,0,0.6,0.1,0.9c0,0.2,0,0.4,0.1,0.6   c0,0.4,0.1,0.8,0.1,1.2c0,0.1,0,0.2,0.1,0.3c0.1,0.4,0.2,0.9,0.3,1.3c0,0.1,0,0.1,0,0.2c0,0.1,0,0.2,0.1,0.2c0,0.9,0.4,1.2,0.5,1.3   c0,0,0,0,0,0c0.1,0.1,0.2,0.1,0.3,0.2h0.3l0,0h0l0,0l0,0L42.9,24.4L42.9,24.4L42.9,24.4L42.9,24.4L42.9,24.4L42.9,24.4z M49.1,24.3   c-0.1,0-0.3,0-0.4-0.1c-0.2,0-0.4,0-0.6-0.1c-0.2-0.1-0.5-0.2-0.6-0.4c-0.2-0.3-0.4-0.6-0.5-0.9c0-0.2-0.1-0.4-0.2-0.6   c-0.1-0.3-0.2-0.5-0.2-0.8c0-0.2,0-0.3-0.1-0.5c0-0.2-0.1-0.4-0.1-0.6c0-0.1,0-0.1,0-0.2c0-0.1,0-0.2-0.1-0.4c0-0.2,0-0.3-0.1-0.4   c0-0.1-0.1-0.3-0.1-0.6l-0.1-0.4c-0.1-0.3-0.1-0.5-0.1-0.8c0-0.4,0-0.7,0-1.1c-0.2-0.1-0.4,0.1-0.6,0.2c0,0-0.1,0-0.1,0.1   c-0.3,0.2-0.6,0.4-1,0.5l0,0l0,0c-0.1,0-0.4,0.2-0.4,0.2v0.1c0,0,0,0.1,0,0.1c0,0,0,0,0,0c0,0,0,0,0,0c0,0,0,0,0,0.1v0c0,0,0,0,0,0   l0,0l0,0c0,0,0,0,0,0c0,0,0,0,0,0c0,0,0,0.1,0,0.1c0,0,0,0,0,0l0,0.1c0,0,0,0,0,0.1c0,0,0,0,0,0c0,0.1,0,0.1,0,0.2   c0,0.1,0,0.1,0,0.2c0,0.1,0,0.1,0,0.1c0,0,0,0.1,0,0.1c0,0.1,0,0.1,0,0.2c0,0,0,0.1,0,0.1v0.1c0,0,0,0.1,0,0.1c0,0,0,0,0,0l0,0l0,0   c0,0,0,0.1,0,0.1l0,0c0,0,0,0,0,0c0,0,0,0.1,0,0.1c0,0,0,0,0,0c0,0,0,0,0,0c0,0,0,0.1,0,0.1l0,0c0,0,0,0,0,0l0,0l0,0   c0,0,0,0.1,0,0.1l0,0c0,0,0,0,0,0c0,0,0,0.1,0,0.1c0,0,0,0,0,0v0.1l0,0.1l0,0.1c0,0,0,0,0,0.1c0,0,0,0,0,0c0,0,0,0,0,0l0,0.1   c0,0,0,0,0,0.1c0,0,0,0,0,0l0,0.1l0,0.1c0,0,0,0,0,0.1l0,0c0,0,0,0,0,0l0,0.1l0,0.1l0,0.1v0.1c0,0,0,0,0,0.1c0,0,0,0,0,0   c0,0,0,0,0,0.1l0,0c0,0,0,0,0,0c0,0,0,0.1,0,0.1c0,0,0,0.1,0,0.1c0,0,0,0,0,0v0c0,0,0,0,0,0c0,0,0,0,0,0l0,0.1c0,0,0,0,0,0.1l0,0   c0,0,0,0,0,0c0,0,0,0,0,0c0,0,0,0.1,0,0.1l0,0c0,0,0,0.1,0,0.1c0,0,0,0,0,0c0,0,0,0.1,0,0.1l0,0c0,0,0,0,0,0l0,0.1l0,0.1v0.1   c0,0.4,0.1,0.6,0.1,0.6c0.1,0.1,0.1,0.2,0.2,0.3c0.1,0.2,0.2,0.4,0.4,0.4c0,0,0.1,0.1,0.1,0.1c0.1,0.2,0.3,0.5,0.4,0.7   c0.1,0.3,0.4,0.5,0.6,0.7c0,0,0.1,0,0.1,0c0.1,0,0.2,0,0.3,0c0,0,0.1,0,0.1,0.1c0,0,0.1,0.1,0.1,0.1c0.1,0,0.2,0,0.3,0   c0.2,0,0.3,0,0.5,0c0.3,0,0.5-0.2,0.7-0.4c0.2-0.2,0.4-0.4,0.7-0.5c0.1,0,0.1-0.1,0.2-0.1c0.1,0,0.1-0.1,0.2-0.1   c0-0.1,0.1-0.1,0.1-0.2c0.2,0.1,0.3,0.2,0.4,0.3c0,0.1,0.2,0.3,0.3,0.3c0.2,0.1,0.3,0.1,0.5,0.2c0.1,0,0.6,0,0.7,0l0.1,0   c0.2,0,0.4-0.1,0.6-0.2c0.6-0.3,1.1-0.7,1.4-1.1c0.1-0.1,0.2-0.2,0.3-0.3c0,0,0.1-0.1,0.1-0.1c0.4-0.5,0.8-1,1.1-1.5   c0,0,0-0.1,0-0.1l0,0c0.1-0.2,0.2-0.4,0.2-0.6c0.1,0,0.2,0,0.2-0.1c0-0.1,0-0.1,0-0.2l0,0l0,0c0-0.1,0-0.1,0-0.2   c0,0,0.4-1.4,0.5-1.4c0-0.1,0-0.1,0-0.2l0,0c0,0,0-0.1,0-0.1l0,0.1c0,0,0,0.1,0,0.1l0,0c0,0,0,0,0,0c0,0.2,0.1,0.4,0.2,0.6   c0,0.1,0,0.1,0,0.2c0,0.1,0,0.2,0,0.2c0,0,0,0.1,0,0.1c0,0.1,0,0.2,0,0.3v0c0,0,0,0.1,0,0.1l0.3,0c0,0.1,0,0.2,0,0.3   c0,0.1,0,0.2,0.1,0.4c0,0,0,0.1,0,0.1c0,0.1,0,0.1,0.1,0.2c0,0.1,0.1,0.2,0.2,0.3c0,0,0,0,0,0.1c0,0.1,0,0.1,0,0.2c0,0,0,0,0,0   c0.1,0.3,0.2,0.6,0.2,0.9c0.1,0.2,0.1,0.4,0.2,0.6c0.1,0.5,0.3,1,0.5,1.4c0,0,0.1,0.1,0.1,0.1c0.3,0.2,0.6,0.1,0.8,0   c0,0,0.1,0,0.1,0c0,0,0.3-0.1,0.4-0.2l0,0l0,0c0,0,0,0,0.1,0c0.1-0.1,0.3-0.2,0.4-0.3c0.2-0.1,0.4-0.3,0.6-0.5h0l0,0h0l0,0l0,0   l-0.1,0c0,0,0,0,0,0c0,0,0,0,0,0h-0.4c-0.2,0-0.4-0.1-0.5-0.2c-0.1-0.1-0.1-0.2-0.1-0.3c0-0.1-0.1-0.2-0.1-0.3   c-0.1-0.2-0.2-0.5-0.2-0.7c-0.1-0.3-0.1-0.7-0.2-1v0c0-0.2-0.1-0.3-0.1-0.5c0-0.1,0-0.2-0.1-0.3v0c-0.1-0.5-0.2-1.1-0.3-1.6   c0-0.1,0-0.2,0-0.3C58,18.9,58,18.8,58,18.6c0-0.1,0-0.2,0-0.3l0,0c0-0.2-0.1-0.4-0.1-0.6c0-0.2-0.1-0.7-0.2-1.2l0,0   c0-0.2-0.1-0.4-0.1-0.5c0-0.1,0-0.2-0.1-0.4c-0.1-0.2-0.1-0.3-0.1-0.5c0-0.2,0-0.3,0-0.5c0-0.3,0-0.6-0.1-0.8c0-0.2,0-1.1,0-1.8   l0,0c0-0.5,0-0.9,0-1.1c0-0.1,0-0.3,0-0.4c0-0.1,0-0.1-0.1-0.2c-0.2,0-0.4,0.2-0.7,0.4c-0.1,0.1-0.2,0.2-0.3,0.2   c-0.1,0.1-0.3,0.2-0.5,0.3c-0.3,0.2-0.5,0.4-0.7,0.4c-0.1,0,0,0.1,0,0.2c0.1,0.1,0.2,0.2,0.2,0.3c0,0.2,0,0.6,0,1   c0,0.2,0,0.5,0,0.7c-0.1,0.3-0.1,0.6-0.2,1l0,0c-0.1,0.7-0.3,1.5-0.4,1.9c0,0.1,0,0.2,0,0.3v0v0c0,0,0,0,0,0.1c0,0,0,0,0,0.1l0,0   c0,0,0,0,0,0l0,0c0,0,0,0,0,0c0,0,0,0,0,0c0,0.1,0,0.2,0,0.3c0,0,0,0.1,0,0.1l0,0.1l0,0.1c0,0,0,0,0,0c0,0,0,0,0,0c0,0,0,0,0,0   c0,0.2-0.1,0.3-0.1,0.5l0,0.1c0,0.1,0,0.2-0.1,0.2c0,0.1-0.1,0.2-0.1,0.4l0,0.1c0,0,0,0,0,0c0,0,0,0,0,0l0,0.1c0,0.1,0,0.2-0.1,0.3   l0,0.1c0,0,0,0,0,0.1l0,0c0,0.1-0.1,0.3-0.1,0.4l0,0.1c0,0,0,0,0,0c0,0,0,0,0,0c0,0.1-0.1,0.2-0.1,0.3c0,0,0,0,0,0c0,0,0,0,0,0   c0,0.1-0.1,0.2-0.1,0.3l0,0.1c0,0,0,0,0,0l0,0c0,0,0,0,0,0c0,0,0,0,0,0c0,0.1-0.1,0.2-0.1,0.3l-0.1,0.1c0,0,0,0.1-0.1,0.1   c0,0,0,0,0,0.1c0,0,0,0,0,0c0,0,0,0.1-0.1,0.1c0,0,0,0.1,0,0.1l0,0c0,0,0,0,0,0c0,0.1-0.1,0.1-0.1,0.2l-0.1,0.1l-0.1,0.2l0,0.1l0,0   c0,0,0,0,0,0l0,0v0c-0.5,1-1,1.6-1.3,1.9c0,0,0,0,0,0c0,0,0,0,0,0c0,0,0,0,0,0l0,0c-0.4,0.4-0.8,0-1-0.3c0,0-0.1-0.1-0.1-0.1   c-0.1-0.1-0.2-0.3-0.3-0.4c-0.2-0.4-0.2-0.9-0.2-1.4c0.1-0.8,0.2-1.7,0.5-2.4c0.2-0.4,0.3-0.8,0.5-1.2c0,0,0-0.1,0-0.1v0l0,0v0l0,0   l0,0l0-0.1l0-0.1l0-0.1l0.1-0.1l0-0.1l0.1-0.1l0,0c0,0,0,0,0,0c0,0,0,0,0,0l0,0l0,0c0,0,0,0,0-0.1l0.1-0.1l0.1-0.1   c0-0.1,0.1-0.1,0.1-0.2c0,0,0,0,0.1-0.1l0,0l0,0l0,0l0.1-0.1l0.1-0.1c0,0,0,0,0,0c0,0,0,0,0,0c0,0,0,0,0,0l0.1-0.1l0.1-0.1   c0,0,0.1-0.1,0.1-0.1c0,0,0,0,0,0c0,0,0.1,0,0.1-0.1l0.1-0.1c0,0,0.1-0.1,0.1-0.1l0.1-0.1l0.1-0.1l0.1,0l0.1-0.1c0,0,0.1,0,0.1,0   l0.1,0l0.1,0l0.1,0l0,0h0c-0.2-0.1-0.4-0.1-0.7-0.2c-0.2,0-0.4,0-0.6,0.1c-0.2,0.1-0.4,0.1-0.6,0.2c-0.3,0.1-0.6,0.1-0.8,0.3   c-0.3,0.2-0.5,0.3-0.8,0.5l0,0c0,0-0.1,0-0.1,0c-0.4,0.2-0.6,0.5-0.9,0.9c-0.2,0.3-0.4,0.7-0.3,1.1c0,0.1,0,0.3-0.1,0.4   c-0.1,0.2-0.1,0.4-0.2,0.6l0,0l0,0c-0.1,0.2-0.1,0.5-0.2,0.7c0,0.2-0.1,0.3-0.1,0.5c0.1,0.2,0.1,0.4,0,0.6c0,0,0,0.1,0,0.1   c0,0.1,0,0.2,0,0.3c0,0,0,0.1,0,0.1c-0.2,0.2-0.1,0.3,0,0.4l0,0l0,0c0,0,0,0,0,0l0,0h0c0,0.1,0,0.2,0.1,0.3c0,0.1,0,0.2,0.1,0.3   c0.1,0.1,0.1,0.2,0.3,0.3c0.1,0,0.2,0.1,0.2,0.1c0.1,0.1,0.2,0.1,0.3,0.2c0,0,0.1,0.1,0.2,0.1c0,0-0.1,0-0.2,0   C49.2,24.3,49.1,24.3,49.1,24.3L49.1,24.3z M49.4,24.3L49.4,24.3L49.4,24.3L49.4,24.3z M46,24.8C46,24.8,46,24.9,46,24.8   c0.1,0,0.1,0,0.1,0c0,0,0,0,0,0c0,0,0,0,0,0C46.1,24.8,46.1,24.8,46,24.8C46.1,24.8,46,24.8,46,24.8C46,24.8,46,24.8,46,24.8z    M26.6,21.9L26.6,21.9c-0.1,0.1-0.2,0.2-0.3,0.3c0,0-0.1,0.1-0.1,0.1c-0.1,0.1-0.2,0.2-0.3,0.3l-0.3,0.3L25.4,23l-0.1,0.1   c-0.1,0.1-0.1,0.1-0.2,0.2c-0.2,0.2-0.4,0.4-0.4,0.4c0,0,0,0,0,0c0,0-0.1,0.1-0.1,0.1l0,0l0,0c-0.1,0.1-0.2,0.2-0.3,0.3   c-0.2,0.2-0.5,0.4-0.7,0.5c0,0-0.1,0.1-0.1,0.1c0,0-0.1,0.1-0.2,0.1c-0.1,0.1-0.3,0.1-0.4,0.2c-0.1,0.1-0.2,0.1-0.3,0.2   c-0.2,0.1-0.3,0.2-0.5,0.3c-0.1,0-0.1,0.1-0.2,0.2c0,0.1-0.1,0.2-0.2,0.2c-0.1,0-0.1,0.1-0.2,0.1c0,0.1-0.1,0.1-0.2,0.1   c-0.1,0.1-0.3,0.1-0.4,0.2l0,0l0,0l0,0c-0.1,0.1-0.2,0.1-0.3,0.2c-0.1,0-0.1,0-0.2,0.1c0,0,0,0,0,0c0,0,0,0-0.1,0   c-0.1,0.1-0.2,0.1-0.3,0.1c0,0-0.1,0-0.1,0c-0.1,0-0.1,0.1-0.2,0.1c-0.2,0.1-0.4,0.2-0.5,0.2c-0.1,0-0.2,0.1-0.3,0.1   c-0.1,0-0.1,0.1-0.2,0.1c-0.1,0-0.2,0.1-0.2,0.1c-0.1,0-0.2,0.1-0.2,0.1c-0.3,0-0.5,0.1-0.7,0.2c0,0-0.1,0-0.1,0   c-0.1,0-0.2,0-0.2,0.1c0,0,0,0,0,0c0-0.1-0.1,0-0.2,0c0,0,0,0,0,0c-0.1,0.1-0.1,0.1-0.2,0.1c0,0,0,0-0.1,0c-0.1,0-0.1,0-0.2,0.1   l0,0c-0.1,0-0.2,0.1-0.3,0.1c0,0-0.1,0-0.1,0.1l0,0c-0.1,0-0.2,0.1-0.3,0.1c-0.1,0-0.2,0-0.3,0.1c-0.1,0-0.2,0.1-0.3,0.1   c-0.1,0-0.1,0.1-0.1,0.2c0,0.1-0.1,0.2-0.1,0.3l-0.2-0.2l-0.1,0.3c0,0,0.1,0,0.1,0l0,0c0.1,0,0.2,0,0.3-0.1c0.1,0,0.1-0.1,0.2-0.2   c0,0.1,0.1,0.1,0.1,0.1c0.1,0,0.1,0,0.2,0c0.1,0,0.2-0.1,0.3-0.1c0,0,0,0,0,0c0,0,0,0,0,0c-0.1,0.3-0.3,0.5-0.5,0.7l0,0   c0,0-0.1,0.1-0.1,0.1c-0.1-0.1-0.3,0-0.4,0c0,0-0.1,0-0.1,0c-0.2,0.1-0.3,0.2-0.5,0.1c0,0-0.1,0-0.1,0c0,0,0,0-0.1,0   C14,30,13.9,30,13.8,30c-0.1,0-0.3,0-0.4,0.1c-0.1,0-0.2,0.1-0.3,0.1c-0.2,0.1-0.3,0.1-0.5,0.2c-0.1,0-0.2,0.1-0.3,0.1c0,0,0,0,0,0   c0,0-0.1,0-0.1,0c-0.1,0-0.2,0-0.3,0.1c-0.1,0.1-0.3,0.2-0.4,0.1c-0.2-0.1-0.3-0.1-0.5,0c-0.1,0-0.2,0.1-0.3,0c0,0,0,0,0,0   c0,0-0.1,0-0.1,0c-0.2,0.1-0.3,0.1-0.5,0c-0.1-0.1-0.3,0-0.4,0.1c0,0-0.1,0-0.1,0l0,0c0,0-0.1,0-0.1,0c-0.1,0-0.2,0-0.2,0.1   c-0.2,0.1-0.3,0.1-0.5,0c-0.1,0-0.2,0-0.2,0c0,0-0.1,0.1-0.1,0c-0.1,0-0.1,0-0.2,0c0,0,0,0-0.1,0c-0.1,0-0.2,0-0.3,0   c-0.2,0-0.3,0-0.5,0c-0.1,0-0.2,0-0.4,0c-0.1,0-0.1,0-0.2,0c-0.1,0-0.2-0.1-0.4,0c-0.1-0.1-0.1-0.1-0.2,0c0,0,0,0-0.1,0   c-0.1,0-0.1,0-0.2,0c-0.1,0-0.1,0-0.2-0.1c-0.1-0.1-0.2-0.1-0.3-0.1c0,0,0,0,0,0c0,0,0,0,0,0c0,0-0.1,0-0.1,0   c-0.1,0-0.2-0.1-0.3-0.1c-0.1,0-0.2,0-0.3-0.1c-0.1,0-0.1-0.1-0.2-0.1c-0.1-0.1-0.1-0.1-0.2-0.2c0,0-0.1,0-0.1,0c0,0-0.1,0-0.1,0   c0,0-0.1,0-0.1,0c-0.1,0-0.1-0.1-0.2-0.1c-0.1-0.1-0.2-0.1-0.3-0.2c-0.1,0-0.2-0.1-0.3-0.2c-0.2-0.2-0.4-0.4-0.6-0.5c0,0,0,0,0,0   c0,0-0.1-0.1-0.1-0.1c-0.1,0-0.2-0.1-0.2-0.2l0,0c0,0-0.1-0.1-0.1-0.1c-0.1-0.1-0.1-0.2-0.3-0.3c0,0,0,0,0,0l0,0c0,0,0,0,0,0l0,0   c-0.1-0.1-0.1-0.2-0.2-0.3c-0.1-0.1-0.1-0.2-0.2-0.4c-0.1-0.4-0.2-0.7-0.4-1.1c0-0.1,0-0.2-0.1-0.3c0-0.1,0-0.3,0-0.4   c0-0.1,0-0.2,0-0.3c0-0.3-0.1-0.7,0-1c0-0.3,0-0.6,0.1-0.9c0-0.1,0-0.3,0.1-0.4c0,0,0,0,0-0.1c0-0.1,0.1-0.2,0.1-0.4   c0-0.2,0.1-0.4,0.1-0.6c0.1-0.4,0.3-0.9,0.6-1.3c0.1-0.1,0.2-0.3,0.2-0.4c0-0.1,0.1-0.2,0.1-0.3l0,0l0,0l0,0c0-0.1,0-0.1,0-0.2   c-0.3,0.2-0.4,0.5-0.6,0.9c0,0,0,0.1,0,0.1c0,0,0,0.1-0.1,0.1c-0.1,0.3-0.2,0.5-0.4,0.8C1.2,21.7,1.1,21.9,1,22   c-0.1,0.2-0.2,0.5-0.3,0.7c0,0.1-0.1,0.2-0.1,0.4c-0.1,0.2-0.1,0.5-0.2,0.7c-0.1,0.2-0.1,0.4-0.1,0.6c0,0.4-0.1,0.9-0.1,1.3   c0,0.5,0,1.1,0.1,1.6c0.1,0.6,0.3,1.1,0.5,1.7c0.1,0.2,0.3,0.4,0.4,0.6c0.1,0.1,0.2,0.3,0.3,0.4c0,0,0,0,0,0c0,0,0,0,0,0   c0.2,0.2,0.4,0.4,0.5,0.6c0,0,0,0,0.1,0c0,0,0.1,0,0.1,0.1l0,0c0,0,0,0,0.1,0c0-0.1-0.1-0.2-0.1-0.2c-0.1-0.1-0.1-0.2-0.2-0.2   C2,30.2,2,30.2,1.9,30.1c-0.1-0.1-0.1-0.1-0.2-0.2c-0.1,0-0.1-0.1-0.1-0.2c0-0.1-0.1-0.2-0.2-0.2c-0.1,0-0.1-0.1-0.1-0.2   c0-0.1-0.1-0.1-0.1-0.1c-0.1-0.1-0.1-0.2-0.1-0.3c0-0.1,0-0.1,0.1-0.1l0.1,0.2c0,0,0,0.1,0,0.1l0,0l0,0c0.2,0.3,0.3,0.5,0.5,0.7   C2,30,2.2,30.1,2.3,30.2l0,0c0,0,0,0,0.1,0c0.1,0.1,0.2,0.1,0.3,0.2c0.2,0.2,0.4,0.3,0.6,0.4c0.1,0,0.2,0.1,0.3,0.1   c0.2,0.1,0.3,0.1,0.5,0.2c0.3,0.2,0.7,0.3,1.1,0.3c0.1,0,0.2,0,0.3,0.1c0.3,0.1,0.5,0.1,0.8,0.1c0,0,0.1,0,0.1,0c0,0,0,0,0,0   c0.1,0,0.3,0.1,0.4,0.1c0.3,0,0.7,0,1,0c0.1,0,0.1,0,0.2,0c0.1,0,0.2,0,0.3,0c0,0,0,0,0,0c0,0,0,0,0,0l0.9-0.1c0,0,0,0,0,0   c0.1,0,0.1,0,0.1,0c0,0,0,0,0.1,0c0.2,0,0.4,0,0.6,0c0.1-0.1,0.3-0.1,0.4-0.1c0.2,0,0.4,0,0.6-0.1c0.1,0,0.2-0.1,0.3-0.1   c0,0,0,0,0.1,0c0.2-0.1,0.3-0.1,0.5-0.1c0,0,0,0,0.1,0c0.1,0,0.2,0,0.2,0c0.2,0,0.4-0.1,0.6-0.1c0,0,0,0,0.1,0c0,0,0,0,0,0l0,0   c0.1,0,0.2,0,0.2-0.1c0,0,0,0,0.1,0c0,0,0,0,0.1,0c0.1,0,0.2-0.1,0.3-0.1c0.1,0,0.2-0.1,0.3-0.1c0.1,0,0.1-0.1,0.1-0.1   c0-0.1,0.1-0.2,0.2-0.2c0.1,0,0.2-0.1,0.3,0c0,0.1,0.1,0,0.2,0c0,0,0,0,0.1-0.1c0,0,0,0,0,0c0,0,0,0,0.1,0.1c0,0,0.1,0.1,0.1,0.1   c0.1,0,0.2-0.1,0.2-0.2c0,0,0,0,0,0l0,0l0,0l0,0l0,0l0,0l0,0l0,0l0.1,0.1c0.1,0,0.1,0,0.2,0c0.1,0,0.2,0,0.3-0.1   c0.1,0,0.2-0.1,0.3-0.1c0.2-0.1,0.3-0.1,0.5-0.1c0.1,0,0.1-0.1,0.2-0.1c0.1,0,0.2-0.1,0.3-0.1c0.1,0,0.1,0,0.2-0.1c0,0,0.1,0,0.1,0   l0,0h0h0c0,0,0,0,0.1,0c0,0,0,0.1,0,0.1l0,0v0c0,0,0,0.1,0,0.1c0,0,0,0,0.1,0c0.1,0,0.2-0.1,0.3-0.1c0.1,0,0.2-0.1,0.3-0.1   c0.4-0.1,0.7-0.3,1-0.4c0.2-0.1,0.5-0.2,0.7-0.3c0.1,0,0.2-0.1,0.2-0.1l0,0c0.1-0.1,0.2-0.1,0.4-0.2c0.1,0,0.2-0.1,0.2-0.1   c0.1-0.1,0.2-0.2,0.4-0.2c0,0,0.1,0,0.1,0c0.1-0.1,0.2-0.1,0.3-0.1c0.1,0,0.1,0,0.2-0.1c0.1,0,0.2-0.1,0.4-0.2c0,0,0.1-0.1,0.1-0.1   c0-0.1,0.1-0.1,0.1-0.2c0,0,0,0,0,0c0,0,0.1,0,0.1,0c0.1-0.1,0.2-0.1,0.2-0.2c0.7-0.5,1.4-1.1,2-1.8c0.3-0.3,0.5-0.6,0.7-1   c0.1-0.1,0.1-0.2,0.2-0.3c0.3-0.4,0.5-0.8,0.7-1.3c0.1-0.2,0.2-0.4,0.3-0.6c0.1-0.2,0.3-0.5,0.4-0.7c0,0,0,0-0.1,0.1l0,0l0,0   L26.6,21.9z M62.2,17.1c-0.3-0.1-0.5-0.2-0.7-0.4c-0.2-0.1-0.4-0.3-0.7-0.4c-0.1,0-0.1-0.1-0.2-0.1c-0.1-0.1-0.3-0.1-0.4-0.1   c-0.1,0.1-0.1,0.1-0.2,0.2c-0.1,0-0.1,0-0.3,0c0-0.1,0-0.2,0.1-0.3c0.1-0.1,0.1-0.2,0.2-0.2c0-0.1,0-0.1,0.1-0.2   c0-0.1,0.1-0.1,0.1-0.2c0-0.1,0.1-0.1,0.1-0.2c0.1-0.2,0.2-0.4,0.3-0.5c0.1-0.2,0.3-0.5,0.4-0.7c0.1-0.1,0.2-0.3,0.4-0.3   c0,0.1,0,0.1,0.1,0.2c0,0,0.1,0.1,0.1,0.1c0.2,0.1,0.3,0.2,0.5,0.4c0.1,0.1,0.1,0.1,0.2,0.2c0.1,0.1,0.1,0.2,0.2,0.3   c0,0.1,0.1,0.2,0.2,0.2c0.2,0.1,0.3,0.2,0.4,0.3c0,0.1,0.1,0.1,0.2,0.1c0,0,0.1,0,0.1,0c0.1,0.1,0.1,0.2,0.2,0.3l0,0   c0.1,0.1,0.1,0.2,0,0.3c0,0,0,0.1,0,0.1c0,0.3-0.1,0.5-0.3,0.5c-0.2,0-0.3,0.1-0.3,0.4c0,0.1,0,0.2-0.1,0.3   c-0.2,0.2-0.2,0.2-0.4,0.1C62.3,17.2,62.3,17.2,62.2,17.1z M43.9,14.5l-0.1,0l0-0.1c0-0.1,0.1-0.2,0.1-0.4c0-0.9-0.4-1.2-0.7-1.2   c-0.5,0-1.2,0.5-1.2,1.2c0,0.5,0.3,0.7,1.1,0.9l0.3,0L43,15c-0.5,0.4-1.4,0.8-2.2,1.1c0.2,0,0.5,0.1,0.7,0.1   c0.4-0.1,1.4-0.5,1.9-1.2l0-0.1l0.1,0c0.1,0,0.1,0,0.2,0.1l0.3-0.4C44,14.5,43.9,14.5,43.9,14.5z M43.5,14.4L43.5,14.4   c0.1-0.2,0.1-0.2,0.1-0.3c0-0.6-0.4-1-0.8-1c-0.3,0-0.7,0.2-0.7,0.5S42.4,14.2,43.5,14.4L43.5,14.4z M50,28.7   c1.3-0.4,4.4-1.5,5.4-1.9l0.2-0.5c-1,0.4-4.3,1.6-5.5,2L50,28.7z M48.7,21.2C48.7,21.2,48.7,21.2,48.7,21.2   C48.7,21.2,48.7,21.2,48.7,21.2L48.7,21.2L48.7,21.2C48.7,21.2,48.7,21.2,48.7,21.2L48.7,21.2z M49.5,23.6L49.5,23.6L49.5,23.6   C49.5,23.6,49.5,23.6,49.5,23.6L49.5,23.6C49.5,23.6,49.5,23.6,49.5,23.6C49.6,23.5,49.6,23.5,49.5,23.6   C49.6,23.5,49.6,23.5,49.5,23.6L49.5,23.6C49.5,23.5,49.5,23.5,49.5,23.6L49.5,23.6L49.5,23.6C49.5,23.5,49.5,23.5,49.5,23.6   C49.5,23.5,49.5,23.5,49.5,23.6C49.5,23.5,49.5,23.5,49.5,23.6z M55.1,18.2C55.1,18.2,55.1,18.1,55.1,18.2c-0.1-0.1,0-0.1,0-0.1   c0,0,0,0,0,0L55.1,18.2C55.2,18.1,55.2,18.1,55.1,18.2C55.2,18.2,55.2,18.2,55.1,18.2L55.1,18.2z M56.4,19.7v-0.1l-0.1,0.1   L56.4,19.7z M56.8,21.2C56.7,21.2,56.7,21.2,56.8,21.2C56.7,21.2,56.7,21.2,56.8,21.2C56.7,21.2,56.7,21.2,56.8,21.2   C56.8,21.2,56.8,21.2,56.8,21.2C56.8,21.2,56.8,21.2,56.8,21.2C56.8,21.2,56.8,21.2,56.8,21.2C56.8,21.2,56.8,21.2,56.8,21.2   C56.8,21.2,56.8,21.2,56.8,21.2L56.8,21.2z M57.2,22.6C57.2,22.6,57.2,22.7,57.2,22.6L57.2,22.6C57.3,22.6,57.3,22.6,57.2,22.6   C57.3,22.6,57.3,22.6,57.2,22.6C57.2,22.6,57.2,22.6,57.2,22.6z M57.4,20.2C57.4,20.2,57.4,20.2,57.4,20.2   C57.4,20.2,57.4,20.2,57.4,20.2C57.4,20.2,57.4,20.2,57.4,20.2C57.4,20.2,57.4,20.2,57.4,20.2C57.4,20.2,57.4,20.2,57.4,20.2   L57.4,20.2L57.4,20.2z M57.7,24.4L57.7,24.4L57.7,24.4C57.7,24.4,57.7,24.4,57.7,24.4C57.7,24.4,57.7,24.4,57.7,24.4L57.7,24.4   C57.7,24.4,57.7,24.4,57.7,24.4C57.7,24.4,57.7,24.4,57.7,24.4C57.7,24.4,57.7,24.4,57.7,24.4z M58,21.8L58,21.8L58,21.8L58,21.8z    M58.1,24.5C58.2,24.6,58.2,24.6,58.1,24.5L58.1,24.5c0.1,0.1,0.1,0,0.1,0C58.3,24.6,58.2,24.5,58.1,24.5   C58.2,24.5,58.2,24.5,58.1,24.5C58.2,24.5,58.2,24.5,58.1,24.5C58.2,24.5,58.2,24.5,58.1,24.5L58.1,24.5z M58.4,21.8   C58.4,21.8,58.4,21.8,58.4,21.8C58.4,21.8,58.4,21.8,58.4,21.8C58.4,21.7,58.4,21.7,58.4,21.8C58.4,21.7,58.4,21.7,58.4,21.8   L58.4,21.8L58.4,21.8C58.4,21.8,58.4,21.8,58.4,21.8L58.4,21.8z M58.7,24.9c0,0.1,0.1,0.1,0.1,0.2l0,0c0-0.1,0-0.2,0-0.2   C58.8,24.9,58.8,24.9,58.7,24.9C58.8,24.8,58.8,24.8,58.7,24.9C58.7,24.8,58.7,24.8,58.7,24.9C58.7,24.8,58.7,24.8,58.7,24.9   C58.7,24.9,58.7,24.9,58.7,24.9C58.7,24.9,58.7,24.9,58.7,24.9z M66.7,24.4c-0.1,0-0.2,0.1-0.2,0.1c-0.2,0-0.4,0.2-0.6,0.3   c-0.1,0.1-0.2,0.2-0.4,0.2c-0.2,0.1-0.3,0.1-0.4-0.1c0,0-0.1-0.1-0.1-0.1c0-0.1-0.1-0.1-0.1-0.2c-0.1,0-0.1-0.1-0.2-0.1   c0,0,0-0.1,0-0.1v0c0-0.1,0-0.1,0-0.1c-0.1-0.2-0.2-0.5-0.3-0.7c0,0,0,0,0-0.1c0,0,0-0.1-0.1-0.1C64.1,23.3,64,23.1,64,23   c0,0,0-0.1,0-0.1c0-0.1-0.1-0.1-0.1-0.2c-0.1-0.1-0.1-0.3-0.2-0.4c0,0-0.1-0.1-0.1-0.1c0-0.1-0.1-0.1-0.1-0.2   c0-0.1-0.1-0.2-0.1-0.3c-0.1-0.1-0.2-0.2-0.2-0.4c0-0.1-0.1-0.1-0.1-0.2c-0.1-0.1-0.1-0.2-0.2-0.3c0-0.1,0-0.2-0.1-0.4l0,0l0,0   c0-0.1,0-0.2,0-0.2c-0.1-0.3-0.1-0.6-0.2-1c0-0.2-0.1-0.5-0.1-0.7c0-0.1-0.1-0.3-0.1-0.4c0,0,0-0.3,0-0.3c0,0-0.3,0.2-0.4,0.3   c-0.1,0.1-0.2,0.2-0.3,0.2c-0.3,0.1-0.5,0.2-0.7,0.4c-0.1,0.1-0.2,0.1-0.4,0.2c-0.1,0.2,0,0.2,0.1,0.2c0.1,0,0.1,0,0.1,0.2   c0,0,0.1,0.1,0.1,0.1c0,0.2,0,0.3,0,0.5v0.1l0,0.1c0,0,0,0.1,0,0.1c0,0,0,0,0,0l0,0c0,0,0,0,0,0l0,0l0,0c0,0,0,0,0,0.1   c0,0,0,0.1,0,0.1c0,0,0,0.1,0,0.1l0,0.1c0,0,0,0.1,0,0.1c0,0,0,0,0,0c0,0,0,0,0,0l0,0l0,0l0,0l0,0c0,0,0,0,0,0c0,0,0,0,0,0l0,0   c0,0,0,0,0,0.1c0,0,0,0.1,0,0.1c0,0,0,0,0,0.1l0,0l0,0l0,0.1c0,0,0,0,0,0.1c0,0,0,0,0,0.1c0,0,0,0,0,0l0,0l0,0l0,0l0,0c0,0,0,0,0,0   c0,0,0,0,0,0c0,0,0,0,0,0l0,0c0,0,0,0,0,0.1c0,0,0,0.1,0,0.1l0,0.1c0,0,0,0.1,0,0.1l0,0c0,0,0,0,0,0.1c0,0,0,0,0,0.1   c0,0,0,0.1,0,0.1c0,0,0,0.1,0,0.1c0,0,0,0,0,0l0,0c0,0,0,0,0,0c0,0,0,0.1,0,0.1c0,0,0,0,0,0l0,0c0,0,0,0,0,0l0,0v0   c0.3,1.1,0.8,2.3,1.2,3.3c0,0,0,0,0,0.1c0,0,0,0,0,0c0,0.1,0.1,0.2,0.2,0.2c0.1-0.1,0.2-0.1,0.3-0.1c-0.1,0.1,0,0.2,0,0.3   c0,0,0,0.1,0,0.1c0.1,0,0.2,0.1,0.2,0.1c0.1,0.1,0.2,0.1,0.3,0c0.1,0,0.1,0,0.2-0.1c0.1,0,0.2-0.1,0.3-0.1c0.1,0,0.1-0.1,0.2-0.1   c0.1,0,0.2,0,0.2-0.1c0.1-0.1,0.3-0.2,0.4-0.2c0.1-0.1,0.2-0.1,0.3-0.2c0.3-0.2,0.5-0.4,0.8-0.6c0.3-0.2,0.5-0.4,0.6-0.7   C66.7,24.5,66.8,24.4,66.7,24.4L66.7,24.4z M63,26L63,26C63,26,63,26,63,26C63,26,63,26.1,63,26L63,26C63,26,63,26,63,26   C63,26,63,26,63,26C63,26,63,26,63,26C63.1,26,63.1,26,63,26C63.1,26,63.1,26,63,26C63,26,63,26,63,26C63,26,63,26,63,26   C63,26,63,26,63,26z M63.2,26.5c-0.1,0-0.1-0.1-0.1-0.3l0.3,0.3C63.3,26.5,63.2,26.5,63.2,26.5L63.2,26.5z M63.5,26.5   C63.5,26.5,63.5,26.5,63.5,26.5L63.5,26.5C63.5,26.5,63.5,26.5,63.5,26.5C63.5,26.4,63.5,26.4,63.5,26.5   C63.5,26.5,63.5,26.5,63.5,26.5z M63.8,25.7C63.8,25.7,63.8,25.6,63.8,25.7C63.8,25.6,63.8,25.6,63.8,25.7   C63.8,25.6,63.8,25.6,63.8,25.7C63.8,25.6,63.8,25.6,63.8,25.7C63.8,25.6,63.8,25.6,63.8,25.7C63.8,25.6,63.8,25.6,63.8,25.7   L63.8,25.7z M64.1,23.8C64.1,23.8,64.1,23.8,64.1,23.8L64.1,23.8C64.1,23.8,64.2,23.8,64.1,23.8L64.1,23.8   C64.1,23.8,64.1,23.8,64.1,23.8z"/>
</g>
</svg>